<?xml version="1.0" encoding="utf-8"?>
<!-- Generator: Adobe Illustrator 16.0.0, SVG Export Plug-In . SVG Version: 6.00 Build 0)  -->
<!DOCTYPE svg PUBLIC "-//W3C//DTD SVG 1.1//EN" "http://www.w3.org/Graphics/SVG/1.1/DTD/svg11.dtd">
<svg version="1.1" xmlns="http://www.w3.org/2000/svg" xmlns:xlink="http://www.w3.org/1999/xlink" x="0px" y="0px" width="360px"
	 height="640px" viewBox="0 0 360 640" enable-background="new 0 0 360 640" xml:space="preserve">
<g id="Layer_1" display="none">
	
		<rect x="18" y="32" display="inline" fill="#FFFFFF" stroke="#000000" stroke-width="0.9" stroke-miterlimit="10" width="324" height="576"/>
</g>
<g id="Layer_2">
	<linearGradient id="SVGID_1_" gradientUnits="userSpaceOnUse" x1="46.5454" y1="217.8042" x2="324.0356" y2="217.8042">
		<stop  offset="0" style="stop-color:#34E89E"/>
		<stop  offset="1" style="stop-color:#0F3443"/>
	</linearGradient>
	<path fill="url(#SVGID_1_)" d="M66.685,209.607c2.313,0.099,4.381,0.542,6.203,1.329c1.821,0.788,3.36,1.809,4.615,3.064
		s2.227,2.684,2.917,4.283c0.689,1.601,1.034,3.262,1.034,4.985c0,3.151-0.788,5.785-2.363,7.901
		c-1.576,2.117-3.84,3.766-6.794,4.948c-2.806,1.082-5.81,1.71-9.009,1.883c-3.201,0.172-6.277-0.258-9.231-1.292
		c-0.788-0.295-1.65-0.665-2.584-1.108c-0.936-0.443-1.785-0.936-2.548-1.477c-0.764-0.542-1.378-1.12-1.846-1.736
		c-0.469-0.615-0.628-1.243-0.48-1.883c0.148-0.639,0.381-1.354,0.702-2.142c0.32-0.787,0.665-1.563,1.034-2.326
		c0.369-0.763,0.775-1.477,1.218-2.142s0.861-1.218,1.255-1.662c0.639-0.639,1.514-1.021,2.622-1.145
		c1.107-0.122,1.957-0.159,2.548-0.111c0.196,0,0.319,0.111,0.369,0.333c0.048,0.222,0.074,0.406,0.074,0.554
		c0,0.05-0.074,0.148-0.222,0.295c-0.099,0.05-0.173,0.074-0.221,0.074c-0.542,0.1-1.194,0.321-1.957,0.665
		c-0.764,0.345-1.392,0.936-1.883,1.772c-0.345,0.591-0.432,1.305-0.258,2.142c0.172,0.838,0.639,1.674,1.403,2.511
		c0.763,0.838,1.871,1.563,3.323,2.179c1.452,0.616,3.261,0.997,5.428,1.145c1.477,0.099,3.15,0.111,5.021,0.037
		c1.871-0.074,3.619-0.406,5.243-0.997s3.015-1.501,4.172-2.732c1.156-1.23,1.784-2.929,1.883-5.095
		c0.148-1.772-0.147-3.212-0.886-4.32c-0.739-1.107-1.724-2.005-2.954-2.695c-1.133-0.639-2.302-1.119-3.508-1.44
		c-1.207-0.32-2.4-0.554-3.582-0.702c-0.147-0.048-0.295-0.074-0.443-0.074c-0.148,0-0.271-0.024-0.369-0.074
		c-0.641-0.098-1.157-0.222-1.551-0.369c-0.395-0.148-0.714-0.295-0.96-0.443c-0.69-0.492-1.17-1.034-1.44-1.625
		c-0.271-0.591-0.456-1.156-0.554-1.699c-0.099-0.59-0.099-1.145,0-1.661c0.098-0.517,0.196-0.898,0.295-1.145
		c0.246-0.787,0.528-1.514,0.849-2.178c0.32-0.665,0.652-1.267,0.997-1.809c0.689-1.083,1.403-1.994,2.142-2.732
		s1.403-1.304,1.994-1.699c0.689-0.491,1.378-0.86,2.068-1.107c0.246-0.098,0.517-0.196,0.813-0.295
		c0.491-0.148,1.206-0.222,2.141-0.222c0.591,0,1.193,0.111,1.81,0.333c0.615,0.222,1.182,0.627,1.698,1.218
		c0.517,0.591,0.972,1.379,1.366,2.363c0.394,0.985,0.639,2.265,0.738,3.84v0.369c0,0.148-0.049,0.321-0.147,0.517
		c-0.69,0.838-1.354,1.44-1.994,1.809c-0.641,0.369-1.207,0.604-1.699,0.702c-0.542,0.148-1.083,0.124-1.625-0.074l-0.148-0.148
		c-0.099-0.098-0.123-0.246-0.074-0.443c0.049-0.148,0.148-0.233,0.295-0.258c0.148-0.024,0.27-0.259,0.369-0.702
		c0.344-1.477,0.504-2.904,0.48-4.283c-0.025-1.377-0.529-2.313-1.514-2.806h-0.147c-0.493-0.196-0.997-0.098-1.514,0.295
		c-0.517,0.395-1.046,1.01-1.587,1.846c-0.295,0.493-0.542,0.985-0.739,1.477c-0.247,0.542-0.554,1.231-0.923,2.067
		c-0.369,0.838-0.727,1.822-1.071,2.954C66.881,209.042,66.783,209.362,66.685,209.607z M103.313,222.9
		c0.394,0.247,0.688,0.48,0.886,0.701c0.196,0.222,0.344,0.456,0.443,0.702c0.147,0.247,0.246,0.493,0.295,0.738
		c-0.247,1.822-0.702,3.336-1.366,4.542c-0.665,1.207-1.342,2.154-2.031,2.843c-0.838,0.838-1.698,1.477-2.584,1.92
		c-1.674-0.394-3.065-0.923-4.172-1.587c-1.108-0.665-1.735-1.464-1.883-2.4c-0.099-0.443-0.147-0.935-0.147-1.477
		c0-0.542,0.024-1.083,0.074-1.625c-0.295,0.788-0.579,1.576-0.849,2.363c-0.271,0.788-0.53,1.49-0.775,2.104
		c-0.247,0.616-0.469,1.133-0.665,1.551c-0.197,0.419-0.345,0.677-0.443,0.775c-1.083,0.197-2.067,0.246-2.954,0.148
		c-0.788-0.098-1.576-0.32-2.363-0.665c-0.788-0.344-1.377-1.009-1.772-1.994c-0.098-0.591-0.148-1.23-0.148-1.92
		c0-0.591,0.013-1.304,0.037-2.142c0.025-0.836,0.111-1.747,0.258-2.732c0.197-1.329,0.504-2.707,0.923-4.135
		c0.417-1.427,0.923-2.732,1.514-3.914c0.591-1.182,1.267-2.153,2.031-2.917c0.763-0.763,1.636-1.169,2.622-1.219
		c0.639-0.048,1.279,0,1.92,0.148c0.541,0.099,1.156,0.271,1.846,0.517c0.689,0.247,1.354,0.641,1.994,1.182
		c0,0.05,0.024,0.099,0.074,0.148v0.221c-0.1,0.1-0.173,0.148-0.222,0.148h-0.148c-0.443,0-0.973,0.063-1.587,0.185
		c-0.616,0.124-1.194,0.456-1.735,0.997c-0.739,0.738-1.403,1.748-1.994,3.027c-0.591,1.281-1.071,2.647-1.44,4.099
		c-0.369,1.453-0.604,2.917-0.702,4.394c-0.099,1.477-0.049,2.832,0.148,4.062c0.689-0.935,1.377-2.042,2.068-3.323
		c0.59-1.132,1.255-2.535,1.994-4.209c0.738-1.673,1.452-3.667,2.142-5.982c0.098-0.443,0.196-0.824,0.295-1.145
		c0.098-0.319,0.172-0.602,0.221-0.849c0.049-0.048,0.098-0.123,0.148-0.222c0.147-0.147,0.319-0.196,0.517-0.147
		c1.377,0.395,2.35,0.801,2.917,1.218c0.565,0.419,0.948,0.775,1.145,1.071c0,0.099,0.024,0.197,0.074,0.295
		c0,0.099,0.011,0.197,0.037,0.295c0.024,0.099,0.012,0.222-0.037,0.369c-0.69,2.315-1.182,4.296-1.477,5.945
		c-0.295,1.65-0.493,3.04-0.591,4.172c-0.147,1.281-0.173,2.363-0.074,3.249c1.28-0.541,2.289-1.354,3.028-2.437
		c0.738-1.082,1.304-2.142,1.698-3.175C102.944,225.583,103.214,224.278,103.313,222.9z M116.826,232.204
		c1.28-0.541,2.29-1.354,3.028-2.437c0.738-1.083,1.304-2.166,1.698-3.25c0.443-1.28,0.713-2.584,0.813-3.914
		c0.394,0.247,0.702,0.493,0.923,0.738c0.221,0.247,0.38,0.493,0.48,0.738c0.147,0.247,0.246,0.493,0.295,0.739
		c-0.295,1.822-0.775,3.323-1.44,4.504c-0.665,1.182-1.342,2.117-2.031,2.806c-0.837,0.838-1.698,1.477-2.584,1.92
		c-1.674-0.394-3.053-0.91-4.135-1.551c-1.083-0.639-1.724-1.451-1.92-2.437c-0.295-1.575-0.259-3.482,0.111-5.723
		c0.369-2.24,0.824-4.369,1.366-6.388c-1.133,1.379-2.13,2.966-2.991,4.763c-0.862,1.798-1.587,3.521-2.178,5.169
		c-0.591,1.65-1.034,3.064-1.329,4.246s-0.469,1.846-0.517,1.994c0,0.246-0.124,0.369-0.369,0.369c-0.345-0.1-0.85-0.21-1.514-0.333
		c-0.665-0.122-1.392-0.381-2.178-0.775c-0.148-0.048-0.222-0.147-0.222-0.295v-0.147c-0.098-1.083-0.085-2.387,0.037-3.914
		c0.124-1.525,0.332-3.138,0.627-4.837c0.295-1.698,0.639-3.445,1.034-5.243c0.393-1.796,0.787-3.507,1.181-5.132
		c0.049-0.246,0.037-0.417-0.037-0.517c-0.074-0.098-0.086-0.27-0.037-0.517c0.048-0.147,0.196-0.222,0.443-0.222h0.074h0.222h0.074
		c0.048,0.05,0.098,0.074,0.147,0.074h0.074c0.443,0.147,1.045,0.382,1.81,0.701c0.763,0.321,1.44,0.751,2.031,1.292l0.074,0.074
		c0.048,0,0.123,0.063,0.222,0.185c0.098,0.124,0.122,0.308,0.074,0.554c0,0.099-0.025,0.173-0.074,0.221v0.148
		c-0.099,0.295-0.148,0.468-0.148,0.517c-0.295,0.985-0.579,2.02-0.849,3.102c-0.271,1.083-0.53,2.167-0.775,3.25
		c1.132-2.363,2.301-4.357,3.508-5.981c1.206-1.625,2.153-2.831,2.843-3.619l0.074-0.074l0.443-0.443
		c0.196-0.196,0.418-0.295,0.665-0.295c0.148,0,0.295,0.025,0.443,0.074c0.491,0.197,1.045,0.443,1.661,0.738
		c0.615,0.295,1.169,0.665,1.662,1.108c0.098,0.049,0.196,0.147,0.295,0.295c0.098,0.147,0.098,0.395,0,0.738v0.074v0.074
		c-0.985,2.61-1.698,4.96-2.142,7.052c-0.443,2.093-0.738,3.853-0.886,5.28C116.703,229.423,116.679,230.925,116.826,232.204z
		 M141.712,222.9c0.394,0.247,0.688,0.48,0.886,0.701c0.196,0.222,0.344,0.456,0.443,0.702c0.147,0.247,0.246,0.493,0.295,0.738
		c-0.247,1.822-0.702,3.336-1.366,4.542c-0.665,1.207-1.342,2.154-2.031,2.843c-0.838,0.838-1.698,1.477-2.584,1.92
		c-1.674-0.394-3.065-0.923-4.172-1.587c-1.108-0.665-1.735-1.464-1.883-2.4c-0.099-0.443-0.147-0.935-0.147-1.477
		c0-0.542,0.024-1.083,0.074-1.625c-0.295,0.788-0.579,1.576-0.849,2.363c-0.271,0.788-0.53,1.49-0.775,2.104
		c-0.247,0.616-0.469,1.133-0.665,1.551c-0.197,0.419-0.345,0.677-0.443,0.775c-1.083,0.197-2.067,0.246-2.954,0.148
		c-0.788-0.098-1.576-0.32-2.363-0.665c-0.788-0.344-1.377-1.009-1.772-1.994c-0.098-0.591-0.148-1.23-0.148-1.92
		c0-0.591,0.013-1.304,0.037-2.142c0.025-0.836,0.111-1.747,0.258-2.732c0.197-1.329,0.504-2.707,0.923-4.135
		c0.417-1.427,0.923-2.732,1.514-3.914c0.591-1.182,1.267-2.153,2.031-2.917c0.763-0.763,1.636-1.169,2.622-1.219
		c0.591-0.048,1.182-0.024,1.772,0.074c0.542,0.099,1.108,0.247,1.699,0.443c0.591,0.197,1.206,0.517,1.846,0.96
		c0.394-1.575,0.763-3.002,1.107-4.283c0.344-1.279,0.64-2.337,0.886-3.175c0.148-0.492,0.172-0.799,0.074-0.923
		c-0.099-0.123-0.099-0.307,0-0.554c0.049-0.196,0.196-0.295,0.443-0.295c0.098,0,0.172,0.013,0.222,0.037
		c0.048,0.025,0.098,0.037,0.147,0.037c0.048,0,0.098,0.025,0.148,0.074c0.443,0.147,1.058,0.395,1.846,0.738
		c0.787,0.345,1.501,0.788,2.142,1.33c0.098,0.049,0.172,0.123,0.222,0.221c0.098,0.247,0.123,0.517,0.074,0.813
		c-0.247,0.738-0.64,2.081-1.181,4.024c-0.542,1.945-1.133,4.099-1.772,6.462c-0.099,0.542-0.222,1.059-0.369,1.551
		c-0.148,0.493-0.271,1.009-0.37,1.55c-0.099,0.345-0.185,0.678-0.258,0.997c-0.074,0.321-0.16,0.653-0.258,0.997
		c-0.345,1.477-0.579,2.769-0.702,3.877c-0.124,1.107-0.21,2.031-0.258,2.769c-0.05,0.886-0.025,1.601,0.074,2.142
		c1.28-0.541,2.289-1.354,3.028-2.437c0.738-1.082,1.304-2.142,1.698-3.175C141.343,225.583,141.613,224.278,141.712,222.9z
		 M132.999,218.026c0.098-0.541,0.221-1.058,0.369-1.551c0.147-0.492,0.27-1.008,0.369-1.551c-0.443,0-0.936,0.086-1.477,0.258
		c-0.542,0.173-1.034,0.48-1.477,0.923c-0.739,0.738-1.403,1.748-1.994,3.027c-0.591,1.281-1.071,2.647-1.44,4.099
		c-0.369,1.453-0.604,2.917-0.702,4.394c-0.099,1.477-0.049,2.832,0.148,4.062c0.689-0.935,1.377-2.042,2.068-3.323
		c0.59-1.132,1.255-2.535,1.994-4.209c0.738-1.673,1.452-3.667,2.142-5.982V218.026z M175.977,222.9
		c0.394,0.247,0.688,0.48,0.886,0.701c0.196,0.222,0.344,0.456,0.443,0.702c0.147,0.247,0.246,0.493,0.295,0.738
		c-0.247,1.822-0.702,3.336-1.366,4.542c-0.665,1.207-1.342,2.154-2.031,2.843c-0.838,0.838-1.698,1.477-2.584,1.92
		c-1.674-0.394-3.065-0.923-4.172-1.587c-1.108-0.665-1.735-1.464-1.883-2.4c-0.099-0.443-0.147-0.935-0.147-1.477
		c0-0.542,0.024-1.083,0.074-1.625c-0.295,0.788-0.579,1.576-0.849,2.363c-0.271,0.788-0.53,1.49-0.775,2.104
		c-0.247,0.616-0.469,1.133-0.665,1.551c-0.197,0.419-0.345,0.677-0.443,0.775c-1.083,0.197-2.067,0.246-2.954,0.148
		c-0.788-0.098-1.576-0.32-2.363-0.665c-0.788-0.344-1.377-1.009-1.772-1.994c-0.098-0.591-0.148-1.23-0.148-1.92
		c0-0.591,0.013-1.304,0.037-2.142c0.025-0.836,0.111-1.747,0.258-2.732c0.197-1.329,0.504-2.707,0.923-4.135
		c0.417-1.427,0.923-2.732,1.514-3.914c0.591-1.182,1.267-2.153,2.031-2.917c0.763-0.763,1.636-1.169,2.622-1.219
		c0.639-0.048,1.279,0,1.92,0.148c0.541,0.099,1.156,0.271,1.846,0.517c0.689,0.247,1.354,0.641,1.994,1.182
		c0,0.05,0.024,0.099,0.074,0.148v0.221c-0.1,0.1-0.173,0.148-0.222,0.148h-0.148c-0.443,0-0.973,0.063-1.587,0.185
		c-0.616,0.124-1.194,0.456-1.735,0.997c-0.739,0.738-1.403,1.748-1.994,3.027c-0.591,1.281-1.071,2.647-1.44,4.099
		c-0.369,1.453-0.604,2.917-0.702,4.394c-0.099,1.477-0.049,2.832,0.148,4.062c0.689-0.935,1.377-2.042,2.068-3.323
		c0.59-1.132,1.255-2.535,1.994-4.209c0.738-1.673,1.452-3.667,2.142-5.982c0.098-0.443,0.196-0.824,0.295-1.145
		c0.098-0.319,0.172-0.602,0.221-0.849c0.049-0.048,0.098-0.123,0.148-0.222c0.147-0.147,0.319-0.196,0.517-0.147
		c1.377,0.395,2.35,0.801,2.917,1.218c0.565,0.419,0.948,0.775,1.145,1.071c0,0.099,0.024,0.197,0.074,0.295
		c0,0.099,0.011,0.197,0.037,0.295c0.024,0.099,0.012,0.222-0.037,0.369c-0.69,2.315-1.182,4.296-1.477,5.945
		c-0.295,1.65-0.493,3.04-0.591,4.172c-0.147,1.281-0.173,2.363-0.074,3.249c1.28-0.541,2.289-1.354,3.028-2.437
		c0.738-1.082,1.304-2.142,1.698-3.175C175.607,225.583,175.877,224.278,175.977,222.9z M189.49,232.204
		c1.28-0.541,2.29-1.354,3.028-2.437c0.738-1.083,1.304-2.166,1.698-3.25c0.443-1.28,0.713-2.584,0.813-3.914
		c0.394,0.247,0.702,0.493,0.923,0.738c0.221,0.247,0.38,0.493,0.48,0.738c0.147,0.247,0.246,0.493,0.295,0.739
		c-0.295,1.822-0.775,3.323-1.44,4.504c-0.665,1.182-1.342,2.117-2.031,2.806c-0.837,0.838-1.698,1.477-2.584,1.92
		c-1.674-0.394-3.053-0.91-4.135-1.551c-1.083-0.639-1.724-1.451-1.92-2.437c-0.295-1.575-0.259-3.482,0.111-5.723
		c0.369-2.24,0.824-4.369,1.366-6.388c-1.133,1.379-2.13,2.966-2.991,4.763c-0.862,1.798-1.587,3.521-2.178,5.169
		c-0.591,1.65-1.034,3.064-1.329,4.246s-0.469,1.846-0.517,1.994c0,0.246-0.124,0.369-0.369,0.369c-0.345-0.1-0.85-0.21-1.514-0.333
		c-0.665-0.122-1.392-0.381-2.178-0.775c-0.148-0.048-0.222-0.147-0.222-0.295v-0.147c-0.098-1.083-0.085-2.387,0.037-3.914
		c0.124-1.525,0.332-3.138,0.627-4.837c0.295-1.698,0.639-3.445,1.034-5.243c0.393-1.796,0.787-3.507,1.181-5.132
		c0.049-0.246,0.037-0.417-0.037-0.517c-0.074-0.098-0.086-0.27-0.037-0.517c0.048-0.147,0.196-0.222,0.443-0.222h0.074h0.222h0.074
		c0.048,0.05,0.098,0.074,0.147,0.074h0.074c0.443,0.147,1.045,0.382,1.81,0.701c0.763,0.321,1.44,0.751,2.031,1.292l0.074,0.074
		c0.048,0,0.123,0.063,0.222,0.185c0.098,0.124,0.122,0.308,0.074,0.554c0,0.099-0.025,0.173-0.074,0.221v0.148
		c-0.099,0.295-0.148,0.468-0.148,0.517c-0.295,0.985-0.579,2.02-0.849,3.102c-0.271,1.083-0.53,2.167-0.775,3.25
		c1.132-2.363,2.301-4.357,3.508-5.981c1.206-1.625,2.153-2.831,2.843-3.619l0.074-0.074l0.443-0.443
		c0.196-0.196,0.418-0.295,0.665-0.295c0.148,0,0.295,0.025,0.443,0.074c0.491,0.197,1.045,0.443,1.661,0.738
		c0.615,0.295,1.169,0.665,1.662,1.108c0.098,0.049,0.196,0.147,0.295,0.295c0.098,0.147,0.098,0.395,0,0.738v0.074v0.074
		c-0.985,2.61-1.698,4.96-2.142,7.052c-0.443,2.093-0.738,3.853-0.886,5.28C189.366,229.423,189.342,230.925,189.49,232.204z
		 M214.376,222.9c0.394,0.247,0.688,0.48,0.886,0.701c0.196,0.222,0.344,0.456,0.443,0.702c0.147,0.247,0.246,0.493,0.295,0.738
		c-0.247,1.822-0.702,3.336-1.366,4.542c-0.665,1.207-1.342,2.154-2.031,2.843c-0.838,0.838-1.698,1.477-2.584,1.92
		c-1.674-0.394-3.065-0.923-4.172-1.587c-1.108-0.665-1.735-1.464-1.883-2.4c-0.099-0.443-0.147-0.935-0.147-1.477
		c0-0.542,0.024-1.083,0.074-1.625c-0.295,0.788-0.579,1.576-0.849,2.363c-0.271,0.788-0.53,1.49-0.775,2.104
		c-0.247,0.616-0.469,1.133-0.665,1.551c-0.197,0.419-0.345,0.677-0.443,0.775c-1.083,0.197-2.067,0.246-2.954,0.148
		c-0.788-0.098-1.576-0.32-2.363-0.665c-0.788-0.344-1.377-1.009-1.772-1.994c-0.098-0.591-0.148-1.23-0.148-1.92
		c0-0.591,0.013-1.304,0.037-2.142c0.025-0.836,0.111-1.747,0.258-2.732c0.197-1.329,0.504-2.707,0.923-4.135
		c0.417-1.427,0.923-2.732,1.514-3.914c0.591-1.182,1.267-2.153,2.031-2.917c0.763-0.763,1.636-1.169,2.622-1.219
		c0.591-0.048,1.182-0.024,1.772,0.074c0.542,0.099,1.108,0.247,1.699,0.443c0.591,0.197,1.206,0.517,1.846,0.96
		c0.394-1.575,0.763-3.002,1.107-4.283c0.344-1.279,0.64-2.337,0.886-3.175c0.148-0.492,0.172-0.799,0.074-0.923
		c-0.099-0.123-0.099-0.307,0-0.554c0.049-0.196,0.196-0.295,0.443-0.295c0.098,0,0.172,0.013,0.222,0.037
		c0.048,0.025,0.098,0.037,0.147,0.037c0.048,0,0.098,0.025,0.148,0.074c0.443,0.147,1.058,0.395,1.846,0.738
		c0.787,0.345,1.501,0.788,2.142,1.33c0.098,0.049,0.172,0.123,0.222,0.221c0.098,0.247,0.123,0.517,0.074,0.813
		c-0.247,0.738-0.64,2.081-1.181,4.024c-0.542,1.945-1.133,4.099-1.772,6.462c-0.099,0.542-0.222,1.059-0.369,1.551
		c-0.148,0.493-0.271,1.009-0.37,1.55c-0.099,0.345-0.185,0.678-0.258,0.997c-0.074,0.321-0.16,0.653-0.258,0.997
		c-0.345,1.477-0.579,2.769-0.702,3.877c-0.124,1.107-0.21,2.031-0.258,2.769c-0.05,0.886-0.025,1.601,0.074,2.142
		c1.28-0.541,2.289-1.354,3.028-2.437c0.738-1.082,1.304-2.142,1.698-3.175C214.007,225.583,214.277,224.278,214.376,222.9z
		 M205.662,218.026c0.098-0.541,0.221-1.058,0.369-1.551c0.147-0.492,0.27-1.008,0.369-1.551c-0.443,0-0.936,0.086-1.477,0.258
		c-0.542,0.173-1.034,0.48-1.477,0.923c-0.739,0.738-1.403,1.748-1.994,3.027c-0.591,1.281-1.071,2.647-1.44,4.099
		c-0.369,1.453-0.604,2.917-0.702,4.394c-0.099,1.477-0.049,2.832,0.148,4.062c0.689-0.935,1.377-2.042,2.068-3.323
		c0.59-1.132,1.255-2.535,1.994-4.209c0.738-1.673,1.452-3.667,2.142-5.982V218.026z M242.732,209.607
		c2.313,0.099,4.381,0.542,6.203,1.329c1.821,0.788,3.36,1.809,4.615,3.064s2.227,2.684,2.917,4.283
		c0.689,1.601,1.034,3.262,1.034,4.985c0,3.151-0.788,5.785-2.363,7.901c-1.576,2.117-3.84,3.766-6.794,4.948
		c-2.806,1.082-5.81,1.71-9.009,1.883c-3.201,0.172-6.277-0.258-9.231-1.292c-0.788-0.295-1.65-0.665-2.584-1.108
		c-0.936-0.443-1.785-0.936-2.548-1.477c-0.764-0.542-1.378-1.12-1.846-1.736c-0.469-0.615-0.628-1.243-0.48-1.883
		c0.148-0.639,0.381-1.354,0.702-2.142c0.32-0.787,0.665-1.563,1.034-2.326c0.369-0.763,0.775-1.477,1.218-2.142
		s0.861-1.218,1.255-1.662c0.639-0.639,1.514-1.021,2.622-1.145c1.107-0.122,1.957-0.159,2.548-0.111
		c0.196,0,0.319,0.111,0.369,0.333c0.048,0.222,0.074,0.406,0.074,0.554c0,0.05-0.074,0.148-0.222,0.295
		c-0.099,0.05-0.173,0.074-0.221,0.074c-0.542,0.1-1.194,0.321-1.957,0.665c-0.764,0.345-1.392,0.936-1.883,1.772
		c-0.345,0.591-0.432,1.305-0.258,2.142c0.172,0.838,0.639,1.674,1.403,2.511c0.763,0.838,1.871,1.563,3.323,2.179
		c1.452,0.616,3.261,0.997,5.428,1.145c1.477,0.099,3.15,0.111,5.021,0.037c1.871-0.074,3.619-0.406,5.243-0.997
		s3.015-1.501,4.172-2.732c1.156-1.23,1.784-2.929,1.883-5.095c0.148-1.772-0.147-3.212-0.886-4.32
		c-0.739-1.107-1.724-2.005-2.954-2.695c-1.133-0.639-2.302-1.119-3.508-1.44c-1.207-0.32-2.4-0.554-3.582-0.702
		c-0.147-0.048-0.295-0.074-0.443-0.074c-0.148,0-0.271-0.024-0.369-0.074c-0.641-0.098-1.157-0.222-1.551-0.369
		c-0.395-0.148-0.714-0.295-0.96-0.443c-0.69-0.492-1.17-1.034-1.44-1.625c-0.271-0.591-0.456-1.156-0.554-1.699
		c-0.099-0.59-0.099-1.145,0-1.661c0.098-0.517,0.196-0.898,0.295-1.145c0.246-0.787,0.528-1.514,0.849-2.178
		c0.32-0.665,0.652-1.267,0.997-1.809c0.689-1.083,1.403-1.994,2.142-2.732s1.403-1.304,1.994-1.699
		c0.689-0.491,1.378-0.86,2.068-1.107c0.246-0.098,0.517-0.196,0.813-0.295c0.491-0.148,1.206-0.222,2.141-0.222
		c0.591,0,1.193,0.111,1.81,0.333c0.615,0.222,1.182,0.627,1.698,1.218c0.517,0.591,0.972,1.379,1.366,2.363
		c0.394,0.985,0.639,2.265,0.738,3.84v0.369c0,0.148-0.049,0.321-0.147,0.517c-0.69,0.838-1.354,1.44-1.994,1.809
		c-0.641,0.369-1.207,0.604-1.699,0.702c-0.542,0.148-1.083,0.124-1.625-0.074l-0.148-0.148c-0.099-0.098-0.123-0.246-0.074-0.443
		c0.048-0.148,0.148-0.233,0.295-0.258c0.148-0.024,0.27-0.259,0.369-0.702c0.344-1.477,0.504-2.904,0.48-4.283
		c-0.025-1.377-0.529-2.313-1.514-2.806h-0.147c-0.493-0.196-0.997-0.098-1.514,0.295c-0.517,0.395-1.046,1.01-1.587,1.846
		c-0.295,0.493-0.542,0.985-0.739,1.477c-0.247,0.542-0.554,1.231-0.923,2.067c-0.369,0.838-0.727,1.822-1.071,2.954
		C242.929,209.042,242.831,209.362,242.732,209.607z M263.188,207.392c0.196-0.739,0.369-1.415,0.517-2.031
		c0.147-0.615,0.27-1.119,0.369-1.514c0.147-0.491,0.172-0.787,0.074-0.886c-0.099-0.098-0.099-0.295,0-0.591
		c0.048-0.196,0.196-0.27,0.443-0.222h0.37c0.048,0.05,0.098,0.074,0.147,0.074c0.443,0.148,1.058,0.395,1.846,0.739
		c0.787,0.345,1.501,0.788,2.142,1.329c0.098,0.099,0.172,0.197,0.222,0.295c0.098,0.247,0.122,0.493,0.074,0.738
		c-0.05,0.099-0.086,0.247-0.111,0.443c-0.025,0.197-0.086,0.418-0.185,0.665c1.87-0.394,3.593-0.763,5.169-1.108
		c1.575-0.344,2.757-0.615,3.545-0.812c3.002-0.787,5.28-0.85,6.831-0.185c1.551,0.665,2.449,1.711,2.695,3.139
		c0.098,0.591,0.062,1.121-0.111,1.588c-0.173,0.468-0.395,0.862-0.665,1.181c-0.271,0.321-0.542,0.58-0.812,0.775
		c-0.271,0.197-0.48,0.321-0.628,0.37c-0.049,0-0.099,0.025-0.147,0.074c-0.395,0.099-0.641,0.074-0.739-0.074
		c-0.049-0.098-0.074-0.222-0.074-0.37c0-0.048,0.024-0.122,0.074-0.221c0.148-0.246,0.172-0.418,0.074-0.517
		c-0.641-0.787-1.49-1.316-2.548-1.588c-1.059-0.27-2.289-0.38-3.692-0.332c-1.403,0.049-2.942,0.21-4.615,0.48
		c-1.674,0.271-3.422,0.53-5.243,0.775c-0.345,1.379-0.727,2.868-1.145,4.468c-0.419,1.6-0.825,3.114-1.219,4.542
		c-0.493,1.97-0.875,3.779-1.145,5.428c-0.271,1.65-0.456,3.09-0.554,4.32c-0.197,1.429-0.295,2.758-0.295,3.988
		c1.28-0.541,2.276-1.354,2.991-2.437c0.713-1.083,1.267-2.166,1.662-3.249c0.443-1.28,0.713-2.585,0.813-3.914
		c0.393,0.247,0.701,0.493,0.923,0.738c0.222,0.247,0.381,0.493,0.48,0.739c0.147,0.247,0.246,0.493,0.295,0.738
		c-0.295,1.822-0.775,3.323-1.44,4.505c-0.665,1.181-1.342,2.117-2.031,2.806c-0.838,0.837-1.699,1.477-2.584,1.92
		c-1.625-0.394-2.991-0.911-4.099-1.551c-1.108-0.639-1.735-1.452-1.883-2.437c-0.098-0.689-0.111-1.551-0.037-2.584
		c0.074-1.034,0.197-2.142,0.369-3.323c0.173-1.182,0.394-2.387,0.665-3.619c0.27-1.23,0.528-2.387,0.775-3.471
		c0.246-1.034,0.517-2.153,0.813-3.36c0.295-1.206,0.591-2.4,0.886-3.582c-1.871,0.147-3.371,0.185-4.504,0.111
		c-1.132-0.074-2.042-0.159-2.732-0.258c-0.787-0.148-1.377-0.32-1.772-0.517c-0.591-0.295-0.984-0.676-1.182-1.145
		c-0.196-0.467-0.295-0.947-0.295-1.44c0-0.492,0.049-0.911,0.147-1.255c0.1-0.344,0.148-0.565,0.148-0.665l0.147-0.074
		c0.247,0,0.345,0.173,0.295,0.517c0,0.197,0.025,0.406,0.074,0.627c0.05,0.222,0.148,0.406,0.295,0.554
		c0.838,0.64,2.179,0.973,4.025,0.997C258.941,207.75,260.972,207.639,263.188,207.392z M269.39,232.795
		c-0.147-0.098-0.258-0.246-0.332-0.443c-0.074-0.196-0.159-0.369-0.258-0.517c-0.098-0.196-0.148-0.394-0.148-0.591
		c-0.394-2.511-0.394-4.75,0-6.72c0.394-1.969,0.787-3.445,1.182-4.431c0.394-0.837,0.75-1.501,1.071-1.994
		c0.319-0.492,0.578-0.861,0.775-1.107c0.098-0.049,0.172-0.098,0.221-0.148c0.049-0.048,0.098-0.098,0.148-0.147l0.222-0.222
		c0.048-0.048,0.147-0.098,0.295-0.148c0.295-0.098,0.565-0.147,0.812-0.147c1.083,0.099,1.858,0.382,2.326,0.849
		c0.467,0.469,0.775,0.899,0.923,1.292v0.295c-0.1,0.295-0.247,0.517-0.443,0.665c-0.493,0.395-0.899,0.775-1.218,1.145
		c-0.321,0.369-0.604,0.751-0.849,1.145l-0.074,0.074c-0.443,0.838-0.788,1.749-1.034,2.732c-0.247,0.985-0.419,1.97-0.517,2.954
		c-0.197,1.428-0.234,2.647-0.11,3.655c0.122,1.01,0.38,1.539,0.775,1.588c0.295,0.049,0.676-0.012,1.145-0.185
		c0.467-0.172,0.971-0.48,1.514-0.923c0.541-0.443,1.095-1.021,1.662-1.735c0.565-0.713,1.071-1.588,1.514-2.622
		c0.098-0.246,0.196-0.504,0.295-0.775c0.098-0.27,0.196-0.554,0.295-0.849c0.689-2.559,0.96-4.505,0.813-5.834
		c-0.148-1.329-0.271-2.042-0.369-2.142c-0.198-0.639-0.517-1.23-0.96-1.772c-0.443-0.542-1.133-0.886-2.067-1.034
		c-0.05,0.099-0.148,0.173-0.295,0.222c-0.099,0.05-0.222,0.099-0.369,0.147c-0.148,0.05-0.271,0.025-0.369-0.074
		c-0.247-0.098-0.333-0.43-0.259-0.997c0.074-0.565,0.381-1.119,0.923-1.661c0.688-0.689,1.501-1.083,2.437-1.182
		c0.935-0.098,1.92,0.147,2.954,0.738c0.246,0.197,0.565,0.48,0.96,0.849c0.394,0.37,0.763,0.875,1.108,1.514
		c0.344,0.64,0.627,1.428,0.849,2.363c0.222,0.936,0.307,2.043,0.258,3.323c-0.247,2.314-0.714,4.32-1.403,6.019
		c-0.69,1.698-1.453,3.138-2.29,4.32c-0.837,1.182-1.687,2.142-2.547,2.88c-0.862,0.739-1.588,1.28-2.179,1.625
		c-0.493,0.295-1.01,0.443-1.551,0.443h-0.738c-1.429-0.247-2.536-0.616-3.323-1.107
		C270.375,233.633,269.784,233.189,269.39,232.795z M300.922,232.204c1.28-0.541,2.29-1.354,3.028-2.437
		c0.738-1.083,1.304-2.166,1.698-3.25c0.443-1.28,0.713-2.584,0.813-3.914c0.394,0.247,0.702,0.493,0.923,0.738
		c0.221,0.247,0.38,0.493,0.48,0.738c0.147,0.247,0.246,0.493,0.295,0.739c-0.295,1.822-0.775,3.323-1.44,4.504
		c-0.665,1.182-1.342,2.117-2.031,2.806c-0.837,0.838-1.698,1.477-2.584,1.92c-1.674-0.394-3.053-0.91-4.135-1.551
		c-1.083-0.639-1.724-1.451-1.92-2.437c-0.295-1.575-0.259-3.482,0.111-5.723c0.369-2.24,0.824-4.369,1.366-6.388
		c-1.133,1.379-2.13,2.966-2.991,4.763c-0.862,1.798-1.587,3.521-2.178,5.169c-0.591,1.65-1.034,3.064-1.329,4.246
		s-0.469,1.846-0.517,1.994c0,0.246-0.124,0.369-0.369,0.369c-0.345-0.1-0.85-0.21-1.514-0.333
		c-0.665-0.122-1.392-0.381-2.178-0.775c-0.148-0.048-0.222-0.147-0.222-0.295v-0.147c-0.098-1.083-0.085-2.387,0.037-3.914
		c0.124-1.525,0.332-3.138,0.627-4.837c0.295-1.698,0.639-3.445,1.034-5.243c0.393-1.796,0.787-3.507,1.181-5.132
		c0.049-0.246,0.037-0.417-0.037-0.517c-0.074-0.098-0.086-0.27-0.037-0.517c0.048-0.147,0.196-0.222,0.443-0.222h0.074h0.222h0.074
		c0.048,0.05,0.098,0.074,0.147,0.074h0.074c0.443,0.147,1.045,0.382,1.81,0.701c0.763,0.321,1.44,0.751,2.031,1.292l0.074,0.074
		c0.048,0,0.123,0.063,0.222,0.185c0.098,0.124,0.122,0.308,0.074,0.554c0,0.099-0.025,0.173-0.074,0.221v0.148
		c-0.099,0.295-0.148,0.468-0.148,0.517c-0.295,0.985-0.579,2.02-0.849,3.102c-0.271,1.083-0.53,2.167-0.775,3.25
		c1.132-2.363,2.301-4.357,3.508-5.981c1.206-1.625,2.153-2.831,2.843-3.619l0.074-0.074l0.443-0.443
		c0.196-0.196,0.418-0.295,0.665-0.295c0.148,0,0.295,0.025,0.443,0.074c0.491,0.197,1.045,0.443,1.661,0.738
		c0.615,0.295,1.169,0.665,1.662,1.108c0.098,0.049,0.196,0.147,0.295,0.295c0.098,0.147,0.098,0.395,0,0.738v0.074v0.074
		c-0.985,2.61-1.698,4.96-2.142,7.052c-0.443,2.093-0.738,3.853-0.886,5.28C300.798,229.423,300.774,230.925,300.922,232.204z
		 M323.962,225.484c-0.69,2.511-1.687,4.382-2.991,5.612c-1.305,1.231-2.647,2.093-4.025,2.584c-1.181,0.395-2.302,0.591-3.36,0.591
		c-1.059,0-1.859-0.048-2.4-0.147c-1.329-0.246-2.389-0.702-3.175-1.366c-0.788-0.665-1.366-1.44-1.735-2.326
		c-0.37-0.886-0.591-1.81-0.665-2.77c-0.074-0.96-0.061-1.883,0.037-2.769c0.099-1.034,0.271-1.981,0.517-2.843
		c0.246-0.861,0.491-1.562,0.738-2.104c0.443-1.034,0.935-2.005,1.477-2.917c0.541-0.91,1.132-1.71,1.772-2.4
		c0.639-0.689,1.292-1.23,1.957-1.625c0.665-0.394,1.366-0.565,2.105-0.517c0.639,0.099,1.279,0.247,1.92,0.443
		c0.541,0.197,1.132,0.468,1.772,0.812c0.64,0.345,1.23,0.838,1.772,1.477c0.048,0.049,0.185,0.222,0.406,0.517
		c0.222,0.295,0.381,0.714,0.48,1.255c0.098,0.542,0.061,1.181-0.111,1.92c-0.173,0.738-0.616,1.551-1.329,2.437
		c-0.714,0.886-1.772,1.858-3.175,2.917c-1.403,1.06-3.286,2.154-5.649,3.286c-0.099,0.739-0.136,1.379-0.111,1.92
		c0.024,0.542,0.085,1.009,0.185,1.403c0.098,0.443,0.196,0.788,0.295,1.034c0.196,0.295,0.541,0.505,1.034,0.628
		c0.492,0.124,1.034,0.16,1.625,0.111c0.591-0.048,1.168-0.135,1.735-0.259c0.565-0.122,1.045-0.258,1.44-0.406
		c0.984-0.394,1.809-0.935,2.474-1.625c0.665-0.688,1.219-1.403,1.662-2.141c0.443-0.739,0.775-1.44,0.997-2.105
		s0.381-1.193,0.48-1.587c0.048-0.246,0.098-0.467,0.147-0.665c0.049-0.196,0.074-0.37,0.074-0.517V222.9
		c0.688,0.395,1.156,0.862,1.403,1.403c0.148,0.247,0.246,0.493,0.295,0.738c0,0.197-0.025,0.321-0.074,0.37V225.484z
		 M311.777,222.235c-0.197,0.493-0.369,0.96-0.517,1.403c-0.147,0.443-0.295,0.862-0.443,1.255c0.787-0.492,1.735-1.119,2.843-1.883
		c1.108-0.763,2.105-1.562,2.991-2.4c0.886-0.836,1.501-1.698,1.846-2.584c0.344-0.886,0.196-1.673-0.443-2.363v-0.074
		c-0.395,0.05-0.764,0.124-1.108,0.222c-0.345,0.099-0.714,0.295-1.107,0.591c-0.788,0.542-1.527,1.329-2.215,2.363
		C312.934,219.798,312.318,220.956,311.777,222.235z"/>
</g>
</svg>
