<?xml version="1.0" encoding="utf-8"?>
<!-- Generator: Adobe Illustrator 16.0.0, SVG Export Plug-In . SVG Version: 6.00 Build 0)  -->
<!DOCTYPE svg PUBLIC "-//W3C//DTD SVG 1.1//EN" "http://www.w3.org/Graphics/SVG/1.1/DTD/svg11.dtd">
<svg version="1.1" xmlns="http://www.w3.org/2000/svg" xmlns:xlink="http://www.w3.org/1999/xlink" x="0px" y="0px" width="360px"
	 height="640px" viewBox="0 0 360 640" enable-background="new 0 0 360 640" xml:space="preserve">
<g id="Layer_1" display="none">
	
		<rect x="18" y="32" display="inline" fill="#FFFFFF" stroke="#000000" stroke-width="0.9" stroke-miterlimit="10" width="324" height="576"/>
</g>
<g id="Layer_2">
	<g>
		<path d="M72.797,206.183v2.164h1.859v0.766h-1.859v5.508c0,0.552,0.1,0.944,0.301,1.176c0.2,0.232,0.467,0.348,0.801,0.348
			c0.151,0,0.298-0.006,0.441-0.02c0.143-0.013,0.309-0.035,0.496-0.066l0.141,0.695c-0.156,0.067-0.347,0.12-0.57,0.156
			c-0.224,0.036-0.448,0.055-0.672,0.055c-0.594,0-1.056-0.188-1.387-0.563c-0.331-0.375-0.496-0.969-0.496-1.781v-5.508h-1.453
			v-0.766h1.453v-2.164H72.797z"/>
		<path d="M76.219,212.448c0-1.245,0.341-2.266,1.023-3.063c0.682-0.797,1.586-1.195,2.711-1.195c1.13,0,2.036,0.398,2.719,1.195
			c0.682,0.797,1.023,1.818,1.023,3.063v0.258c0,1.25-0.34,2.272-1.02,3.066c-0.68,0.794-1.582,1.191-2.707,1.191
			c-1.136,0-2.044-0.397-2.727-1.191c-0.683-0.794-1.023-1.816-1.023-3.066V212.448z M77.156,212.706
			c0,0.979,0.247,1.802,0.742,2.469c0.495,0.667,1.185,1,2.07,1c0.87,0,1.552-0.333,2.047-1c0.495-0.667,0.742-1.489,0.742-2.469
			v-0.258c0-0.963-0.249-1.781-0.746-2.453c-0.498-0.672-1.184-1.008-2.059-1.008s-1.56,0.336-2.055,1.008
			c-0.495,0.672-0.742,1.49-0.742,2.453V212.706z"/>
		<path d="M94.945,216.8c-0.063-0.286-0.107-0.534-0.133-0.742c-0.026-0.208-0.039-0.419-0.039-0.633
			c-0.313,0.443-0.729,0.81-1.25,1.102c-0.521,0.292-1.107,0.438-1.758,0.438c-0.828,0-1.469-0.213-1.922-0.641
			c-0.453-0.427-0.68-1.005-0.68-1.734c0-0.781,0.336-1.401,1.008-1.859c0.672-0.458,1.583-0.688,2.734-0.688h1.867v-1.117
			c0-0.604-0.194-1.078-0.582-1.422c-0.388-0.344-0.931-0.516-1.629-0.516c-0.469,0-0.897,0.064-1.285,0.191
			c-0.388,0.128-0.712,0.301-0.973,0.52l-0.078,1.133h-0.773l0.008-1.625c0.391-0.302,0.858-0.547,1.402-0.734
			c0.544-0.188,1.124-0.281,1.738-0.281c0.932,0,1.682,0.237,2.25,0.711c0.567,0.474,0.852,1.154,0.852,2.039v4.156
			c0,0.172,0.004,0.337,0.012,0.496c0.008,0.159,0.024,0.314,0.051,0.465l0.844,0.055v0.688H94.945z M91.867,216.136
			c0.677,0,1.273-0.156,1.789-0.469s0.888-0.716,1.117-1.211v-1.695h-1.883c-0.849,0-1.527,0.176-2.035,0.527
			s-0.762,0.796-0.762,1.332c0,0.453,0.157,0.819,0.473,1.098C90.881,215.997,91.315,216.136,91.867,216.136z"/>
		<path d="M97.75,205.308v-0.695h2.203v11.398l1.273,0.102v0.688H97.75v-0.688l1.273-0.102v-10.602L97.75,205.308z"/>
		<path d="M102.516,205.308v-0.695h2.203v11.398l1.273,0.102v0.688h-3.477v-0.688l1.273-0.102v-10.602L102.516,205.308z"/>
		<path d="M113.875,209.042l-1.063,0.086l1.367,4.93l0.32,1.508h0.047l0.398-1.508l1.805-5.711h0.797l1.805,5.711l0.406,1.547h0.047
			l0.352-1.547l1.328-4.93l-1.063-0.086v-0.695h2.844v0.695l-0.82,0.063l-2.242,7.695h-0.797l-1.883-5.781l-0.367-1.461h-0.047
			l-0.367,1.461l-1.852,5.781h-0.797l-2.234-7.695l-0.82-0.063v-0.695h2.836V209.042z"/>
		<path d="M124.289,205.308v-0.695h2.203v5.18c0.281-0.505,0.656-0.898,1.125-1.18s1.016-0.422,1.641-0.422
			c0.891,0,1.574,0.276,2.051,0.828c0.477,0.552,0.715,1.409,0.715,2.57v4.422l1.273,0.102v0.688h-3.484v-0.688l1.273-0.102v-4.438
			c0-0.917-0.181-1.574-0.543-1.973c-0.362-0.398-0.861-0.598-1.496-0.598c-0.641,0-1.176,0.168-1.605,0.504
			s-0.746,0.783-0.949,1.34v5.164l1.273,0.102v0.688h-3.477v-0.688l1.273-0.102v-10.602L124.289,205.308z"/>
		<path d="M134.625,212.448c0-1.245,0.341-2.266,1.023-3.063c0.682-0.797,1.586-1.195,2.711-1.195c1.13,0,2.036,0.398,2.719,1.195
			c0.682,0.797,1.023,1.818,1.023,3.063v0.258c0,1.25-0.34,2.272-1.02,3.066c-0.68,0.794-1.582,1.191-2.707,1.191
			c-1.136,0-2.044-0.397-2.727-1.191c-0.683-0.794-1.023-1.816-1.023-3.066V212.448z M135.563,212.706
			c0,0.979,0.247,1.802,0.742,2.469c0.495,0.667,1.185,1,2.07,1c0.87,0,1.552-0.333,2.047-1c0.495-0.667,0.742-1.489,0.742-2.469
			v-0.258c0-0.963-0.249-1.781-0.746-2.453c-0.498-0.672-1.184-1.008-2.059-1.008s-1.56,0.336-2.055,1.008
			c-0.495,0.672-0.742,1.49-0.742,2.453V212.706z"/>
		<path d="M143.422,209.042v-0.695h2.102l0.086,1.398c0.271-0.495,0.633-0.877,1.086-1.148c0.453-0.271,0.992-0.406,1.617-0.406
			c0.646,0,1.185,0.158,1.617,0.473c0.432,0.315,0.742,0.796,0.93,1.441c0.255-0.594,0.618-1.061,1.09-1.402
			c0.471-0.341,1.045-0.512,1.723-0.512c0.901,0,1.598,0.3,2.09,0.898c0.492,0.599,0.738,1.526,0.738,2.781v4.133l1.273,0.109v0.688
			h-3.492v-0.688l1.273-0.109v-4.148c0-1.042-0.184-1.777-0.551-2.207s-0.879-0.645-1.535-0.645c-0.729,0-1.291,0.232-1.684,0.695
			c-0.394,0.464-0.637,1.055-0.73,1.773c0,0.042,0.001,0.081,0.004,0.117c0.002,0.037,0.004,0.083,0.004,0.141v4.281l1.273,0.102
			v0.688h-3.484v-0.688l1.273-0.102v-4.156c0-1.021-0.187-1.751-0.559-2.191c-0.373-0.44-0.884-0.66-1.535-0.66
			c-0.667,0-1.194,0.168-1.582,0.504c-0.388,0.336-0.66,0.788-0.816,1.355v5.148l1.273,0.102v0.688h-3.484v-0.688l1.273-0.102
			v-6.867L143.422,209.042z"/>
		<path d="M165.336,209.042l-1.063,0.086l1.367,4.93l0.32,1.508h0.047l0.398-1.508l1.805-5.711h0.797l1.805,5.711l0.406,1.547h0.047
			l0.352-1.547l1.328-4.93l-1.063-0.086v-0.695h2.844v0.695l-0.82,0.063l-2.242,7.695h-0.797l-1.883-5.781l-0.367-1.461h-0.047
			l-0.367,1.461l-1.852,5.781h-0.797l-2.234-7.695l-0.82-0.063v-0.695h2.836V209.042z"/>
		<path d="M179.75,216.964c-1.063,0-1.943-0.389-2.641-1.168c-0.698-0.778-1.047-1.77-1.047-2.973v-0.43
			c0-1.208,0.348-2.211,1.043-3.008s1.535-1.195,2.52-1.195c1.036,0,1.852,0.328,2.445,0.984s0.891,1.531,0.891,2.625v0.797h-5.969
			v0.227c0,0.948,0.254,1.744,0.762,2.387c0.508,0.644,1.173,0.965,1.996,0.965c0.578,0,1.073-0.081,1.484-0.242
			c0.411-0.161,0.763-0.393,1.055-0.695l0.398,0.641c-0.318,0.333-0.719,0.598-1.203,0.793S180.422,216.964,179.75,216.964z
			 M179.625,208.987c-0.688,0-1.267,0.265-1.738,0.793c-0.472,0.529-0.746,1.191-0.824,1.988l0.016,0.039h4.953v-0.234
			c0-0.734-0.216-1.349-0.648-1.844C180.95,209.235,180.364,208.987,179.625,208.987z"/>
		<path d="M188.523,212.644c0-1.349,0.285-2.428,0.855-3.238c0.57-0.81,1.366-1.215,2.387-1.215c0.583,0,1.09,0.121,1.52,0.363
			s0.788,0.59,1.074,1.043l0.094-1.25h0.82v10.906l1.273,0.102v0.695h-3.484v-0.695l1.273-0.102v-3.563
			c-0.287,0.412-0.646,0.727-1.078,0.945c-0.433,0.219-0.935,0.328-1.508,0.328c-1.011,0-1.801-0.377-2.371-1.133
			c-0.57-0.755-0.855-1.763-0.855-3.023V212.644z M189.469,212.808c0,1.021,0.204,1.837,0.613,2.449
			c0.409,0.612,1.024,0.918,1.848,0.918c0.583,0,1.074-0.131,1.473-0.395c0.398-0.263,0.709-0.624,0.934-1.082v-4.125
			c-0.219-0.463-0.522-0.844-0.91-1.141c-0.388-0.297-0.882-0.445-1.48-0.445c-0.823,0-1.441,0.34-1.855,1.02
			s-0.621,1.559-0.621,2.637V212.808z"/>
		<path d="M203.672,215.409c-0.266,0.495-0.629,0.878-1.09,1.148s-1.004,0.406-1.629,0.406c-0.891,0-1.587-0.302-2.09-0.906
			c-0.503-0.604-0.754-1.542-0.754-2.813v-4.102l-1.047-0.102v-0.695h1.047h0.93v4.914c0,1.031,0.176,1.771,0.527,2.219
			c0.352,0.448,0.85,0.672,1.496,0.672c0.708,0,1.272-0.156,1.691-0.469c0.419-0.313,0.715-0.745,0.887-1.297v-5.242l-1.203-0.102
			v-0.695h1.203h0.938v7.664l1.133,0.102v0.688h-1.953L203.672,215.409z"/>
		<path d="M212.922,216.8c-0.063-0.286-0.107-0.534-0.133-0.742c-0.026-0.208-0.039-0.419-0.039-0.633
			c-0.313,0.443-0.729,0.81-1.25,1.102c-0.521,0.292-1.107,0.438-1.758,0.438c-0.828,0-1.469-0.213-1.922-0.641
			c-0.453-0.427-0.68-1.005-0.68-1.734c0-0.781,0.336-1.401,1.008-1.859c0.672-0.458,1.583-0.688,2.734-0.688h1.867v-1.117
			c0-0.604-0.194-1.078-0.582-1.422c-0.388-0.344-0.931-0.516-1.629-0.516c-0.469,0-0.897,0.064-1.285,0.191
			c-0.388,0.128-0.712,0.301-0.973,0.52l-0.078,1.133h-0.773l0.008-1.625c0.391-0.302,0.858-0.547,1.402-0.734
			c0.544-0.188,1.124-0.281,1.738-0.281c0.932,0,1.682,0.237,2.25,0.711c0.567,0.474,0.852,1.154,0.852,2.039v4.156
			c0,0.172,0.004,0.337,0.012,0.496c0.008,0.159,0.024,0.314,0.051,0.465l0.844,0.055v0.688H212.922z M209.844,216.136
			c0.677,0,1.273-0.156,1.789-0.469s0.888-0.716,1.117-1.211v-1.695h-1.883c-0.849,0-1.527,0.176-2.035,0.527
			s-0.762,0.796-0.762,1.332c0,0.453,0.157,0.819,0.473,1.098C208.858,215.997,209.292,216.136,209.844,216.136z"/>
		<path d="M217.938,208.347l0.117,1.406v0.102c0.239-0.521,0.566-0.928,0.98-1.223c0.414-0.294,0.905-0.441,1.473-0.441
			c0.12,0,0.235,0.009,0.348,0.027c0.112,0.019,0.204,0.038,0.277,0.059l-0.125,0.875l-0.695-0.047
			c-0.589,0-1.072,0.166-1.449,0.496c-0.378,0.331-0.647,0.785-0.809,1.363v5.047l1.273,0.102v0.688h-3.477v-0.688l1.273-0.102
			v-6.867l-1.273-0.102v-0.695h1.273H217.938z"/>
		<path d="M224.367,208.347l0.117,1.406v0.102c0.239-0.521,0.566-0.928,0.98-1.223c0.414-0.294,0.905-0.441,1.473-0.441
			c0.12,0,0.235,0.009,0.348,0.027c0.112,0.019,0.204,0.038,0.277,0.059l-0.125,0.875l-0.695-0.047
			c-0.589,0-1.072,0.166-1.449,0.496c-0.378,0.331-0.647,0.785-0.809,1.363v5.047l1.273,0.102v0.688h-3.477v-0.688l1.273-0.102
			v-6.867l-1.273-0.102v-0.695h1.273H224.367z"/>
		<path d="M232.352,216.964c-1.063,0-1.943-0.389-2.641-1.168c-0.698-0.778-1.047-1.77-1.047-2.973v-0.43
			c0-1.208,0.348-2.211,1.043-3.008s1.535-1.195,2.52-1.195c1.036,0,1.852,0.328,2.445,0.984s0.891,1.531,0.891,2.625v0.797h-5.969
			v0.227c0,0.948,0.254,1.744,0.762,2.387c0.508,0.644,1.173,0.965,1.996,0.965c0.578,0,1.073-0.081,1.484-0.242
			c0.411-0.161,0.763-0.393,1.055-0.695l0.398,0.641c-0.318,0.333-0.719,0.598-1.203,0.793S233.023,216.964,232.352,216.964z
			 M232.227,208.987c-0.688,0-1.267,0.265-1.738,0.793c-0.472,0.529-0.746,1.191-0.824,1.988l0.016,0.039h4.953v-0.234
			c0-0.734-0.216-1.349-0.648-1.844C233.552,209.235,232.966,208.987,232.227,208.987z"/>
		<path d="M237.047,205.308v-0.695h2.203v11.398l1.273,0.102v0.688h-3.477v-0.688l1.273-0.102v-10.602L237.047,205.308z"/>
		<path d="M248.406,209.042l-1.063,0.086l1.367,4.93l0.32,1.508h0.047l0.398-1.508l1.805-5.711h0.797l1.805,5.711l0.406,1.547h0.047
			l0.352-1.547l1.328-4.93l-1.063-0.086v-0.695h2.844v0.695l-0.82,0.063l-2.242,7.695h-0.797l-1.883-5.781l-0.367-1.461h-0.047
			l-0.367,1.461l-1.852,5.781h-0.797l-2.234-7.695l-0.82-0.063v-0.695h2.836V209.042z"/>
		<path d="M259.031,216.112l1.273-0.102v-6.867l-1.273-0.102v-0.695h2.203v7.664l1.273,0.102v0.688h-3.477V216.112z
			 M261.234,205.925h-0.93v-1.313h0.93V205.925z"/>
		<path d="M266.227,206.183v2.164h1.859v0.766h-1.859v5.508c0,0.552,0.1,0.944,0.301,1.176c0.2,0.232,0.467,0.348,0.801,0.348
			c0.151,0,0.298-0.006,0.441-0.02c0.143-0.013,0.309-0.035,0.496-0.066l0.141,0.695c-0.156,0.067-0.347,0.12-0.57,0.156
			c-0.224,0.036-0.448,0.055-0.672,0.055c-0.594,0-1.056-0.188-1.387-0.563c-0.331-0.375-0.496-0.969-0.496-1.781v-5.508h-1.453
			v-0.766h1.453v-2.164H266.227z"/>
		<path d="M269.531,205.308v-0.695h2.203v5.18c0.281-0.505,0.656-0.898,1.125-1.18s1.016-0.422,1.641-0.422
			c0.891,0,1.574,0.276,2.051,0.828c0.477,0.552,0.715,1.409,0.715,2.57v4.422l1.273,0.102v0.688h-3.484v-0.688l1.273-0.102v-4.438
			c0-0.917-0.181-1.574-0.543-1.973c-0.362-0.398-0.861-0.598-1.496-0.598c-0.641,0-1.176,0.168-1.605,0.504
			s-0.746,0.783-0.949,1.34v5.164l1.273,0.102v0.688h-3.477v-0.688l1.273-0.102v-10.602L269.531,205.308z"/>
		<path d="M281.391,216.8h-1.07v-1.281h1.07V216.8z"/>
		<path d="M285.031,216.8h-1.07v-1.281h1.07V216.8z"/>
		<path d="M288.672,216.8h-1.07v-1.281h1.07V216.8z"/>
	</g>
</g>
</svg>
