<?xml version="1.0" encoding="utf-8"?>
<!-- Generator: Adobe Illustrator 16.0.0, SVG Export Plug-In . SVG Version: 6.00 Build 0)  -->
<!DOCTYPE svg PUBLIC "-//W3C//DTD SVG 1.1//EN" "http://www.w3.org/Graphics/SVG/1.1/DTD/svg11.dtd">
<svg version="1.1" xmlns="http://www.w3.org/2000/svg" xmlns:xlink="http://www.w3.org/1999/xlink" x="0px" y="0px" width="360px"
	 height="640px" viewBox="0 0 360 640" enable-background="new 0 0 360 640" xml:space="preserve">
<g id="Layer_1" display="none">
	
		<rect x="18" y="32" display="inline" fill="#FFFFFF" stroke="#000000" stroke-width="0.9" stroke-miterlimit="10" width="324" height="576"/>
</g>
<g id="Layer_2">
	<g>
		<path d="M43.219,197.6v-0.688l1.273-0.102v-9.789l-1.273-0.102v-0.695h1.273h0.938h1.273v0.695l-1.273,0.102v9.789h4.727
			l0.07-1.602h0.828v2.391H43.219z"/>
		<path d="M56.352,197.764c-1.063,0-1.942-0.389-2.641-1.168s-1.047-1.77-1.047-2.973v-0.43c0-1.208,0.348-2.211,1.043-3.008
			s1.535-1.195,2.52-1.195c1.036,0,1.852,0.328,2.445,0.984s0.891,1.531,0.891,2.625v0.797h-5.969v0.227
			c0,0.948,0.254,1.744,0.762,2.387s1.173,0.965,1.996,0.965c0.578,0,1.073-0.081,1.484-0.242s0.763-0.393,1.055-0.695l0.398,0.641
			c-0.317,0.333-0.719,0.598-1.203,0.793S57.023,197.764,56.352,197.764z M56.227,189.788c-0.688,0-1.267,0.264-1.738,0.793
			s-0.746,1.191-0.824,1.988l0.016,0.039h4.953v-0.234c0-0.734-0.216-1.349-0.648-1.844S56.966,189.788,56.227,189.788z"/>
		<path d="M67.07,197.6c-0.063-0.287-0.106-0.534-0.133-0.742s-0.039-0.419-0.039-0.633c-0.313,0.443-0.729,0.81-1.25,1.102
			s-1.106,0.438-1.758,0.438c-0.828,0-1.469-0.213-1.922-0.641s-0.68-1.005-0.68-1.734c0-0.781,0.336-1.401,1.008-1.859
			s1.583-0.688,2.734-0.688h1.867v-1.117c0-0.604-0.194-1.078-0.582-1.422s-0.931-0.516-1.629-0.516
			c-0.469,0-0.897,0.064-1.285,0.191s-0.712,0.301-0.973,0.52l-0.078,1.133h-0.773l0.008-1.625c0.391-0.302,0.858-0.547,1.402-0.734
			s1.124-0.281,1.738-0.281c0.933,0,1.683,0.237,2.25,0.711s0.852,1.154,0.852,2.039v4.156c0,0.172,0.004,0.337,0.012,0.496
			s0.024,0.314,0.051,0.465l0.844,0.055v0.688H67.07z M63.992,196.936c0.677,0,1.273-0.156,1.789-0.469s0.888-0.716,1.117-1.211
			v-1.695h-1.883c-0.849,0-1.527,0.176-2.035,0.527s-0.762,0.795-0.762,1.332c0,0.453,0.157,0.819,0.473,1.098
			S63.44,196.936,63.992,196.936z"/>
		<path d="M72.086,189.147l0.117,1.406v0.102c0.239-0.521,0.566-0.928,0.98-1.223s0.905-0.441,1.473-0.441
			c0.12,0,0.235,0.009,0.348,0.027s0.204,0.038,0.277,0.059l-0.125,0.875l-0.695-0.047c-0.589,0-1.071,0.166-1.449,0.496
			s-0.647,0.785-0.809,1.363v5.047l1.273,0.102v0.688H70v-0.688l1.273-0.102v-6.867L70,189.842v-0.695h1.273H72.086z"/>
		<path d="M76.32,196.913l1.273-0.102v-6.867l-1.273-0.102v-0.695h2.102l0.086,1.477c0.271-0.521,0.637-0.923,1.098-1.207
			s1.007-0.426,1.637-0.426c0.917,0,1.614,0.28,2.094,0.84s0.719,1.434,0.719,2.621v4.359l1.273,0.102v0.688h-3.484v-0.688
			l1.273-0.102v-4.352c0-0.969-0.181-1.654-0.543-2.055s-0.876-0.602-1.543-0.602c-0.656,0-1.191,0.173-1.605,0.52
			s-0.712,0.806-0.895,1.379v5.109l1.273,0.102v0.688H76.32V196.913z"/>
		<path d="M92.836,186.983v2.164h1.859v0.766h-1.859v5.508c0,0.552,0.101,0.944,0.301,1.176s0.468,0.348,0.801,0.348
			c0.151,0,0.298-0.006,0.441-0.02s0.309-0.035,0.496-0.066l0.141,0.695c-0.156,0.068-0.347,0.12-0.57,0.156
			s-0.448,0.055-0.672,0.055c-0.594,0-1.056-0.188-1.387-0.563s-0.496-0.969-0.496-1.781v-5.508h-1.453v-0.766h1.453v-2.164H92.836z
			"/>
		<path d="M96.258,193.249c0-1.245,0.341-2.266,1.023-3.063s1.586-1.195,2.711-1.195c1.13,0,2.036,0.398,2.719,1.195
			s1.023,1.818,1.023,3.063v0.258c0,1.25-0.34,2.272-1.02,3.066s-1.582,1.191-2.707,1.191c-1.136,0-2.044-0.397-2.727-1.191
			s-1.023-1.816-1.023-3.066V193.249z M97.195,193.506c0,0.979,0.247,1.802,0.742,2.469s1.185,1,2.07,1c0.87,0,1.552-0.333,2.047-1
			s0.742-1.49,0.742-2.469v-0.258c0-0.963-0.249-1.781-0.746-2.453s-1.184-1.008-2.059-1.008s-1.56,0.336-2.055,1.008
			s-0.742,1.49-0.742,2.453V193.506z"/>
		<path d="M111.664,189.842l-1.063,0.086l1.367,4.93l0.32,1.508h0.047l0.398-1.508l1.805-5.711h0.797l1.805,5.711l0.406,1.547h0.047
			l0.352-1.547l1.328-4.93l-1.063-0.086v-0.695h2.844v0.695l-0.82,0.063l-2.242,7.695h-0.797l-1.883-5.781l-0.367-1.461h-0.047
			l-0.367,1.461l-1.852,5.781h-0.797l-2.234-7.695l-0.82-0.063v-0.695h2.836V189.842z"/>
		<path d="M124.375,189.147l0.117,1.406v0.102c0.239-0.521,0.566-0.928,0.98-1.223s0.905-0.441,1.473-0.441
			c0.12,0,0.235,0.009,0.348,0.027s0.204,0.038,0.277,0.059l-0.125,0.875l-0.695-0.047c-0.589,0-1.071,0.166-1.449,0.496
			s-0.647,0.785-0.809,1.363v5.047l1.273,0.102v0.688h-3.477v-0.688l1.273-0.102v-6.867l-1.273-0.102v-0.695h1.273H124.375z"/>
		<path d="M128.719,196.913l1.273-0.102v-6.867l-1.273-0.102v-0.695h2.203v7.664l1.273,0.102v0.688h-3.477V196.913z
			 M130.922,186.725h-0.93v-1.313h0.93V186.725z"/>
		<path d="M135.914,186.983v2.164h1.859v0.766h-1.859v5.508c0,0.552,0.101,0.944,0.301,1.176s0.468,0.348,0.801,0.348
			c0.151,0,0.298-0.006,0.441-0.02s0.309-0.035,0.496-0.066l0.141,0.695c-0.156,0.068-0.347,0.12-0.57,0.156
			s-0.448,0.055-0.672,0.055c-0.594,0-1.056-0.188-1.387-0.563s-0.496-0.969-0.496-1.781v-5.508h-1.453v-0.766h1.453v-2.164H135.914
			z"/>
		<path d="M143.219,197.764c-1.063,0-1.942-0.389-2.641-1.168s-1.047-1.77-1.047-2.973v-0.43c0-1.208,0.348-2.211,1.043-3.008
			s1.535-1.195,2.52-1.195c1.036,0,1.852,0.328,2.445,0.984s0.891,1.531,0.891,2.625v0.797h-5.969v0.227
			c0,0.948,0.254,1.744,0.762,2.387s1.173,0.965,1.996,0.965c0.578,0,1.073-0.081,1.484-0.242s0.763-0.393,1.055-0.695l0.398,0.641
			c-0.317,0.333-0.719,0.598-1.203,0.793S143.891,197.764,143.219,197.764z M143.094,189.788c-0.688,0-1.267,0.264-1.738,0.793
			s-0.746,1.191-0.824,1.988l0.016,0.039h4.953v-0.234c0-0.734-0.216-1.349-0.648-1.844S143.833,189.788,143.094,189.788z"/>
		<path d="M160.102,189.842l-0.859,0.07l-3.414,9.039c-0.219,0.573-0.503,1.06-0.852,1.461s-0.859,0.602-1.531,0.602
			c-0.109,0-0.242-0.012-0.398-0.035s-0.271-0.048-0.344-0.074l0.109-0.781c0.063,0.01,0.163,0.022,0.301,0.035
			s0.235,0.02,0.293,0.02c0.411,0,0.737-0.143,0.977-0.43s0.45-0.659,0.633-1.117l0.438-1.133l-3-7.586l-0.859-0.07v-0.695h2.906
			v0.695l-1.008,0.078l2.063,5.391l0.297,1.016h0.047l2.313-6.406l-1.031-0.078v-0.695h2.922V189.842z"/>
		<path d="M161.047,193.249c0-1.245,0.341-2.266,1.023-3.063s1.586-1.195,2.711-1.195c1.13,0,2.036,0.398,2.719,1.195
			s1.023,1.818,1.023,3.063v0.258c0,1.25-0.34,2.272-1.02,3.066s-1.582,1.191-2.707,1.191c-1.136,0-2.044-0.397-2.727-1.191
			s-1.023-1.816-1.023-3.066V193.249z M161.984,193.506c0,0.979,0.247,1.802,0.742,2.469s1.185,1,2.07,1c0.87,0,1.552-0.333,2.047-1
			s0.742-1.49,0.742-2.469v-0.258c0-0.963-0.249-1.781-0.746-2.453s-1.184-1.008-2.059-1.008s-1.56,0.336-2.055,1.008
			s-0.742,1.49-0.742,2.453V193.506z"/>
		<path d="M176.258,196.209c-0.266,0.495-0.629,0.877-1.09,1.148s-1.004,0.406-1.629,0.406c-0.891,0-1.587-0.302-2.09-0.906
			s-0.754-1.542-0.754-2.813v-4.102l-1.047-0.102v-0.695h1.047h0.93v4.914c0,1.031,0.176,1.771,0.527,2.219s0.851,0.672,1.496,0.672
			c0.708,0,1.272-0.156,1.691-0.469s0.715-0.745,0.887-1.297v-5.242l-1.203-0.102v-0.695h1.203h0.938v7.664l1.133,0.102v0.688
			h-1.953L176.258,196.209z"/>
		<path d="M181.695,189.147l0.117,1.406v0.102c0.239-0.521,0.566-0.928,0.98-1.223s0.905-0.441,1.473-0.441
			c0.12,0,0.235,0.009,0.348,0.027s0.204,0.038,0.277,0.059l-0.125,0.875l-0.695-0.047c-0.589,0-1.071,0.166-1.449,0.496
			s-0.647,0.785-0.809,1.363v5.047l1.273,0.102v0.688h-3.477v-0.688l1.273-0.102v-6.867l-1.273-0.102v-0.695h1.273H181.695z"/>
		<path d="M189.719,186.108v-0.695h2.203v5.18c0.281-0.505,0.656-0.898,1.125-1.18s1.016-0.422,1.641-0.422
			c0.891,0,1.574,0.276,2.051,0.828s0.715,1.409,0.715,2.57v4.422l1.273,0.102v0.688h-3.484v-0.688l1.273-0.102v-4.438
			c0-0.917-0.181-1.574-0.543-1.973s-0.86-0.598-1.496-0.598c-0.641,0-1.176,0.168-1.605,0.504s-0.746,0.783-0.949,1.34v5.164
			l1.273,0.102v0.688h-3.477v-0.688l1.273-0.102v-10.602L189.719,186.108z"/>
		<path d="M206.344,196.209c-0.266,0.495-0.629,0.877-1.09,1.148s-1.004,0.406-1.629,0.406c-0.891,0-1.587-0.302-2.09-0.906
			s-0.754-1.542-0.754-2.813v-4.102l-1.047-0.102v-0.695h1.047h0.93v4.914c0,1.031,0.176,1.771,0.527,2.219s0.851,0.672,1.496,0.672
			c0.708,0,1.272-0.156,1.691-0.469s0.715-0.745,0.887-1.297v-5.242l-1.203-0.102v-0.695h1.203h0.938v7.664l1.133,0.102v0.688
			h-1.953L206.344,196.209z"/>
		<path d="M211.781,189.147l0.117,1.406v0.102c0.239-0.521,0.566-0.928,0.98-1.223s0.905-0.441,1.473-0.441
			c0.12,0,0.235,0.009,0.348,0.027s0.204,0.038,0.277,0.059l-0.125,0.875l-0.695-0.047c-0.589,0-1.071,0.166-1.449,0.496
			s-0.647,0.785-0.809,1.363v5.047l1.273,0.102v0.688h-3.477v-0.688l1.273-0.102v-6.867l-1.273-0.102v-0.695h1.273H211.781z"/>
		<path d="M218.586,186.983v2.164h1.859v0.766h-1.859v5.508c0,0.552,0.101,0.944,0.301,1.176s0.468,0.348,0.801,0.348
			c0.151,0,0.298-0.006,0.441-0.02s0.309-0.035,0.496-0.066l0.141,0.695c-0.156,0.068-0.347,0.12-0.57,0.156
			s-0.448,0.055-0.672,0.055c-0.594,0-1.056-0.188-1.387-0.563s-0.496-0.969-0.496-1.781v-5.508h-1.453v-0.766h1.453v-2.164H218.586
			z"/>
		<path d="M228.297,191.756h-0.766l-0.109-1.195c-0.234-0.245-0.53-0.435-0.887-0.57s-0.767-0.203-1.23-0.203
			c-0.683,0-1.194,0.147-1.535,0.441s-0.512,0.639-0.512,1.035c0,0.391,0.147,0.713,0.441,0.969s0.882,0.479,1.762,0.672
			c1.005,0.224,1.758,0.53,2.258,0.918s0.75,0.916,0.75,1.582c0,0.703-0.285,1.272-0.855,1.707s-1.324,0.652-2.262,0.652
			c-0.625,0-1.194-0.087-1.707-0.262s-0.957-0.42-1.332-0.738v-1.703h0.758l0.133,1.203c0.25,0.25,0.566,0.431,0.949,0.543
			s0.782,0.168,1.199,0.168c0.677,0,1.211-0.148,1.602-0.445s0.586-0.656,0.586-1.078c0-0.396-0.163-0.742-0.488-1.039
			s-0.913-0.539-1.762-0.727c-1.005-0.219-1.751-0.509-2.238-0.871s-0.73-0.869-0.73-1.52c0-0.646,0.273-1.191,0.82-1.637
			s1.269-0.668,2.164-0.668c0.62,0,1.187,0.095,1.699,0.285s0.931,0.447,1.254,0.77L228.297,191.756z"/>
		<path d="M234,196.913l1.273-0.102v-6.867L234,189.842v-0.695h2.203v7.664l1.273,0.102v0.688H234V196.913z M236.203,186.725h-0.93
			v-1.313h0.93V186.725z"/>
		<path d="M238.875,196.913l1.273-0.102v-6.867l-1.273-0.102v-0.695h2.102l0.086,1.477c0.271-0.521,0.637-0.923,1.098-1.207
			s1.007-0.426,1.637-0.426c0.917,0,1.614,0.28,2.094,0.84s0.719,1.434,0.719,2.621v4.359l1.273,0.102v0.688h-3.484v-0.688
			l1.273-0.102v-4.352c0-0.969-0.181-1.654-0.543-2.055s-0.876-0.602-1.543-0.602c-0.656,0-1.191,0.173-1.605,0.52
			s-0.712,0.806-0.895,1.379v5.109l1.273,0.102v0.688h-3.484V196.913z"/>
		<path d="M255.391,186.983v2.164h1.859v0.766h-1.859v5.508c0,0.552,0.101,0.944,0.301,1.176s0.468,0.348,0.801,0.348
			c0.151,0,0.298-0.006,0.441-0.02s0.309-0.035,0.496-0.066l0.141,0.695c-0.156,0.068-0.347,0.12-0.57,0.156
			s-0.448,0.055-0.672,0.055c-0.594,0-1.056-0.188-1.387-0.563s-0.496-0.969-0.496-1.781v-5.508h-1.453v-0.766h1.453v-2.164H255.391
			z"/>
		<path d="M258.695,186.108v-0.695h2.203v5.18c0.281-0.505,0.656-0.898,1.125-1.18s1.016-0.422,1.641-0.422
			c0.891,0,1.574,0.276,2.051,0.828s0.715,1.409,0.715,2.57v4.422l1.273,0.102v0.688h-3.484v-0.688l1.273-0.102v-4.438
			c0-0.917-0.181-1.574-0.543-1.973s-0.86-0.598-1.496-0.598c-0.641,0-1.176,0.168-1.605,0.504s-0.746,0.783-0.949,1.34v5.164
			l1.273,0.102v0.688h-3.477v-0.688l1.273-0.102v-10.602L258.695,186.108z"/>
		<path d="M272.758,197.764c-1.063,0-1.942-0.389-2.641-1.168s-1.047-1.77-1.047-2.973v-0.43c0-1.208,0.348-2.211,1.043-3.008
			s1.535-1.195,2.52-1.195c1.036,0,1.852,0.328,2.445,0.984s0.891,1.531,0.891,2.625v0.797H270v0.227
			c0,0.948,0.254,1.744,0.762,2.387s1.173,0.965,1.996,0.965c0.578,0,1.073-0.081,1.484-0.242s0.763-0.393,1.055-0.695l0.398,0.641
			c-0.317,0.333-0.719,0.598-1.203,0.793S273.43,197.764,272.758,197.764z M272.633,189.788c-0.688,0-1.267,0.264-1.738,0.793
			s-0.746,1.191-0.824,1.988l0.016,0.039h4.953v-0.234c0-0.734-0.216-1.349-0.648-1.844S273.372,189.788,272.633,189.788z"/>
		<path d="M287.664,191.756h-0.766l-0.109-1.195c-0.234-0.245-0.53-0.435-0.887-0.57s-0.767-0.203-1.23-0.203
			c-0.683,0-1.194,0.147-1.535,0.441s-0.512,0.639-0.512,1.035c0,0.391,0.147,0.713,0.441,0.969s0.882,0.479,1.762,0.672
			c1.005,0.224,1.758,0.53,2.258,0.918s0.75,0.916,0.75,1.582c0,0.703-0.285,1.272-0.855,1.707s-1.324,0.652-2.262,0.652
			c-0.625,0-1.194-0.087-1.707-0.262s-0.957-0.42-1.332-0.738v-1.703h0.758l0.133,1.203c0.25,0.25,0.566,0.431,0.949,0.543
			s0.782,0.168,1.199,0.168c0.677,0,1.211-0.148,1.602-0.445s0.586-0.656,0.586-1.078c0-0.396-0.163-0.742-0.488-1.039
			s-0.913-0.539-1.762-0.727c-1.005-0.219-1.751-0.509-2.238-0.871s-0.73-0.869-0.73-1.52c0-0.646,0.273-1.191,0.82-1.637
			s1.269-0.668,2.164-0.668c0.62,0,1.187,0.095,1.699,0.285s0.931,0.447,1.254,0.77L287.664,191.756z"/>
		<path d="M295.375,197.6c-0.063-0.287-0.106-0.534-0.133-0.742s-0.039-0.419-0.039-0.633c-0.313,0.443-0.729,0.81-1.25,1.102
			s-1.106,0.438-1.758,0.438c-0.828,0-1.469-0.213-1.922-0.641s-0.68-1.005-0.68-1.734c0-0.781,0.336-1.401,1.008-1.859
			s1.583-0.688,2.734-0.688h1.867v-1.117c0-0.604-0.194-1.078-0.582-1.422s-0.931-0.516-1.629-0.516
			c-0.469,0-0.897,0.064-1.285,0.191s-0.712,0.301-0.973,0.52l-0.078,1.133h-0.773l0.008-1.625c0.391-0.302,0.858-0.547,1.402-0.734
			s1.124-0.281,1.738-0.281c0.933,0,1.683,0.237,2.25,0.711s0.852,1.154,0.852,2.039v4.156c0,0.172,0.004,0.337,0.012,0.496
			s0.024,0.314,0.051,0.465l0.844,0.055v0.688H295.375z M292.297,196.936c0.677,0,1.273-0.156,1.789-0.469s0.888-0.716,1.117-1.211
			v-1.695h-1.883c-0.849,0-1.527,0.176-2.035,0.527s-0.762,0.795-0.762,1.332c0,0.453,0.157,0.819,0.473,1.098
			S291.745,196.936,292.297,196.936z"/>
		<path d="M298.195,196.913l1.273-0.102v-6.867l-1.273-0.102v-0.695h2.102l0.086,1.477c0.271-0.521,0.637-0.923,1.098-1.207
			s1.007-0.426,1.637-0.426c0.917,0,1.614,0.28,2.094,0.84s0.719,1.434,0.719,2.621v4.359l1.273,0.102v0.688h-3.484v-0.688
			l1.273-0.102v-4.352c0-0.969-0.181-1.654-0.543-2.055s-0.876-0.602-1.543-0.602c-0.656,0-1.191,0.173-1.605,0.52
			s-0.712,0.806-0.895,1.379v5.109l1.273,0.102v0.688h-3.484V196.913z"/>
		<path d="M314.469,196.381c-0.281,0.443-0.644,0.784-1.086,1.023s-0.964,0.359-1.563,0.359c-1.011,0-1.801-0.377-2.371-1.133
			s-0.855-1.763-0.855-3.023v-0.164c0-1.349,0.285-2.428,0.855-3.238s1.366-1.215,2.387-1.215c0.589,0,1.099,0.124,1.531,0.371
			s0.792,0.6,1.078,1.059v-4.211l-1.273-0.102v-0.695h1.273h0.938v11.398l1.273,0.102v0.688h-2.109L314.469,196.381z
			 M309.539,193.608c0,1.021,0.204,1.833,0.613,2.438s1.024,0.906,1.848,0.906c0.599,0,1.101-0.135,1.504-0.406
			s0.718-0.643,0.941-1.117v-4c-0.208-0.479-0.509-0.87-0.902-1.172s-0.902-0.453-1.527-0.453c-0.823,0-1.441,0.337-1.855,1.012
			s-0.621,1.551-0.621,2.629V193.608z"/>
		<path d="M55.656,216.8c-0.063-0.286-0.106-0.534-0.133-0.742c-0.026-0.208-0.039-0.419-0.039-0.633
			c-0.313,0.443-0.729,0.81-1.25,1.102s-1.106,0.438-1.758,0.438c-0.828,0-1.469-0.213-1.922-0.641
			c-0.453-0.427-0.68-1.005-0.68-1.734c0-0.781,0.336-1.401,1.008-1.859c0.672-0.458,1.583-0.688,2.734-0.688h1.867v-1.117
			c0-0.604-0.194-1.078-0.582-1.422s-0.931-0.516-1.629-0.516c-0.469,0-0.897,0.064-1.285,0.191
			c-0.388,0.128-0.712,0.301-0.973,0.52l-0.078,1.133h-0.773l0.008-1.625c0.391-0.302,0.858-0.547,1.402-0.734
			s1.124-0.281,1.738-0.281c0.933,0,1.683,0.237,2.25,0.711c0.567,0.474,0.852,1.154,0.852,2.039v4.156
			c0,0.172,0.004,0.337,0.012,0.496c0.008,0.159,0.024,0.314,0.051,0.465l0.844,0.055v0.688H55.656z M52.578,216.136
			c0.677,0,1.273-0.156,1.789-0.469s0.888-0.716,1.117-1.211v-1.695h-1.883c-0.849,0-1.527,0.176-2.035,0.527
			s-0.762,0.796-0.762,1.332c0,0.453,0.157,0.819,0.473,1.098C51.593,215.997,52.026,216.136,52.578,216.136z"/>
		<path d="M58.477,216.112l1.273-0.102v-6.867l-1.273-0.102v-0.695h2.102l0.086,1.477c0.271-0.521,0.637-0.923,1.098-1.207
			c0.461-0.284,1.007-0.426,1.637-0.426c0.917,0,1.614,0.28,2.094,0.84c0.479,0.56,0.719,1.434,0.719,2.621v4.359l1.273,0.102v0.688
			H64v-0.688l1.273-0.102v-4.352c0-0.969-0.181-1.653-0.543-2.055c-0.362-0.401-0.876-0.602-1.543-0.602
			c-0.656,0-1.191,0.173-1.605,0.52c-0.414,0.347-0.712,0.806-0.895,1.379v5.109l1.273,0.102v0.688h-3.484V216.112z"/>
		<path d="M74.75,215.581c-0.281,0.443-0.644,0.784-1.086,1.023s-0.964,0.359-1.563,0.359c-1.011,0-1.801-0.377-2.371-1.133
			c-0.57-0.755-0.855-1.763-0.855-3.023v-0.164c0-1.349,0.285-2.428,0.855-3.238c0.57-0.81,1.366-1.215,2.387-1.215
			c0.589,0,1.099,0.124,1.531,0.371c0.433,0.248,0.792,0.601,1.078,1.059v-4.211l-1.273-0.102v-0.695h1.273h0.938v11.398
			l1.273,0.102v0.688h-2.109L74.75,215.581z M69.82,212.808c0,1.021,0.204,1.833,0.613,2.438c0.409,0.604,1.024,0.906,1.848,0.906
			c0.599,0,1.101-0.135,1.504-0.406c0.403-0.271,0.718-0.643,0.941-1.117v-4c-0.208-0.479-0.509-0.87-0.902-1.172
			c-0.394-0.302-0.902-0.453-1.527-0.453c-0.823,0-1.441,0.337-1.855,1.012c-0.414,0.675-0.621,1.551-0.621,2.629V212.808z"/>
		<path d="M84.414,206.183v2.164h1.859v0.766h-1.859v5.508c0,0.552,0.101,0.944,0.301,1.176c0.2,0.232,0.468,0.348,0.801,0.348
			c0.151,0,0.298-0.006,0.441-0.02c0.144-0.013,0.309-0.035,0.496-0.066l0.141,0.695c-0.156,0.067-0.347,0.12-0.57,0.156
			c-0.224,0.036-0.448,0.055-0.672,0.055c-0.594,0-1.056-0.188-1.387-0.563s-0.496-0.969-0.496-1.781v-5.508h-1.453v-0.766h1.453
			v-2.164H84.414z"/>
		<path d="M87.836,212.448c0-1.245,0.341-2.266,1.023-3.063s1.586-1.195,2.711-1.195c1.13,0,2.036,0.398,2.719,1.195
			s1.023,1.818,1.023,3.063v0.258c0,1.25-0.34,2.272-1.02,3.066c-0.68,0.794-1.582,1.191-2.707,1.191
			c-1.136,0-2.044-0.397-2.727-1.191c-0.683-0.794-1.023-1.816-1.023-3.066V212.448z M88.773,212.706
			c0,0.979,0.247,1.802,0.742,2.469c0.495,0.667,1.185,1,2.07,1c0.87,0,1.552-0.333,2.047-1c0.495-0.667,0.742-1.489,0.742-2.469
			v-0.258c0-0.963-0.249-1.781-0.746-2.453s-1.184-1.008-2.059-1.008s-1.56,0.336-2.055,1.008s-0.742,1.49-0.742,2.453V212.706z"/>
		<path d="M104.336,216.175c0.62,0,1.167-0.177,1.641-0.531c0.474-0.354,0.711-0.846,0.711-1.477h0.828l0.016,0.047
			c0.026,0.781-0.285,1.435-0.934,1.961c-0.648,0.526-1.402,0.789-2.262,0.789c-1.146,0-2.034-0.395-2.664-1.184
			s-0.945-1.803-0.945-3.043v-0.328c0-1.229,0.315-2.239,0.945-3.031c0.63-0.792,1.516-1.188,2.656-1.188
			c0.651,0,1.247,0.123,1.789,0.367c0.542,0.245,0.981,0.578,1.32,1l0.039,1.844h-0.797l-0.148-1.5
			c-0.25-0.281-0.562-0.504-0.934-0.668s-0.796-0.246-1.27-0.246c-0.906,0-1.577,0.324-2.012,0.973s-0.652,1.465-0.652,2.449v0.328
			c0,1,0.216,1.823,0.648,2.469C102.745,215.852,103.419,216.175,104.336,216.175z"/>
		<path d="M115.109,216.8c-0.063-0.286-0.106-0.534-0.133-0.742c-0.026-0.208-0.039-0.419-0.039-0.633
			c-0.313,0.443-0.729,0.81-1.25,1.102s-1.106,0.438-1.758,0.438c-0.828,0-1.469-0.213-1.922-0.641
			c-0.453-0.427-0.68-1.005-0.68-1.734c0-0.781,0.336-1.401,1.008-1.859c0.672-0.458,1.583-0.688,2.734-0.688h1.867v-1.117
			c0-0.604-0.194-1.078-0.582-1.422s-0.931-0.516-1.629-0.516c-0.469,0-0.897,0.064-1.285,0.191
			c-0.388,0.128-0.712,0.301-0.973,0.52l-0.078,1.133h-0.773l0.008-1.625c0.391-0.302,0.858-0.547,1.402-0.734
			s1.124-0.281,1.738-0.281c0.933,0,1.683,0.237,2.25,0.711c0.567,0.474,0.852,1.154,0.852,2.039v4.156
			c0,0.172,0.004,0.337,0.012,0.496c0.008,0.159,0.024,0.314,0.051,0.465l0.844,0.055v0.688H115.109z M112.031,216.136
			c0.677,0,1.273-0.156,1.789-0.469s0.888-0.716,1.117-1.211v-1.695h-1.883c-0.849,0-1.527,0.176-2.035,0.527
			s-0.762,0.796-0.762,1.332c0,0.453,0.157,0.819,0.473,1.098C111.046,215.997,111.479,216.136,112.031,216.136z"/>
		<path d="M120.125,208.347l0.117,1.406v0.102c0.239-0.521,0.566-0.928,0.98-1.223c0.414-0.294,0.905-0.441,1.473-0.441
			c0.12,0,0.235,0.009,0.348,0.027c0.112,0.019,0.204,0.038,0.277,0.059l-0.125,0.875l-0.695-0.047
			c-0.589,0-1.071,0.166-1.449,0.496c-0.378,0.331-0.647,0.785-0.809,1.363v5.047l1.273,0.102v0.688h-3.477v-0.688l1.273-0.102
			v-6.867l-1.273-0.102v-0.695h1.273H120.125z"/>
		<path d="M127.125,209.042l-1.055,0.078l2.109,5.563l0.273,0.992h0.047l0.297-0.992l2.078-5.563l-1.055-0.078v-0.695h2.844v0.695
			l-0.828,0.07l-2.984,7.688h-0.75l-2.992-7.688l-0.828-0.07v-0.695h2.844V209.042z"/>
		<path d="M137.32,216.964c-1.063,0-1.942-0.389-2.641-1.168c-0.698-0.778-1.047-1.77-1.047-2.973v-0.43
			c0-1.208,0.348-2.211,1.043-3.008s1.535-1.195,2.52-1.195c1.036,0,1.852,0.328,2.445,0.984s0.891,1.531,0.891,2.625v0.797h-5.969
			v0.227c0,0.948,0.254,1.744,0.762,2.387c0.508,0.644,1.173,0.965,1.996,0.965c0.578,0,1.073-0.081,1.484-0.242
			c0.411-0.161,0.763-0.393,1.055-0.695l0.398,0.641c-0.317,0.333-0.719,0.598-1.203,0.793S137.992,216.964,137.32,216.964z
			 M137.195,208.987c-0.688,0-1.267,0.265-1.738,0.793c-0.472,0.529-0.746,1.191-0.824,1.988l0.016,0.039h4.953v-0.234
			c0-0.734-0.216-1.349-0.648-1.844C138.521,209.235,137.935,208.987,137.195,208.987z"/>
		<path d="M154.203,209.042l-0.859,0.07l-3.414,9.039c-0.219,0.573-0.503,1.06-0.852,1.461c-0.349,0.401-0.859,0.602-1.531,0.602
			c-0.109,0-0.242-0.012-0.398-0.035s-0.271-0.048-0.344-0.074l0.109-0.781c0.063,0.01,0.163,0.022,0.301,0.035
			c0.138,0.013,0.235,0.02,0.293,0.02c0.411,0,0.737-0.144,0.977-0.43c0.239-0.287,0.45-0.659,0.633-1.117l0.438-1.133l-3-7.586
			l-0.859-0.07v-0.695h2.906v0.695l-1.008,0.078l2.063,5.391l0.297,1.016H150l2.313-6.406l-1.031-0.078v-0.695h2.922V209.042z"/>
		<path d="M155.148,212.448c0-1.245,0.341-2.266,1.023-3.063s1.586-1.195,2.711-1.195c1.13,0,2.036,0.398,2.719,1.195
			s1.023,1.818,1.023,3.063v0.258c0,1.25-0.34,2.272-1.02,3.066c-0.68,0.794-1.582,1.191-2.707,1.191
			c-1.136,0-2.044-0.397-2.727-1.191c-0.683-0.794-1.023-1.816-1.023-3.066V212.448z M156.086,212.706
			c0,0.979,0.247,1.802,0.742,2.469c0.495,0.667,1.185,1,2.07,1c0.87,0,1.552-0.333,2.047-1c0.495-0.667,0.742-1.489,0.742-2.469
			v-0.258c0-0.963-0.249-1.781-0.746-2.453s-1.184-1.008-2.059-1.008s-1.56,0.336-2.055,1.008s-0.742,1.49-0.742,2.453V212.706z"/>
		<path d="M170.359,215.409c-0.266,0.495-0.629,0.878-1.09,1.148s-1.004,0.406-1.629,0.406c-0.891,0-1.587-0.302-2.09-0.906
			c-0.503-0.604-0.754-1.542-0.754-2.813v-4.102l-1.047-0.102v-0.695h1.047h0.93v4.914c0,1.031,0.176,1.771,0.527,2.219
			c0.352,0.448,0.851,0.672,1.496,0.672c0.708,0,1.272-0.156,1.691-0.469s0.715-0.745,0.887-1.297v-5.242l-1.203-0.102v-0.695h1.203
			h0.938v7.664l1.133,0.102v0.688h-1.953L170.359,215.409z"/>
		<path d="M175.797,208.347l0.117,1.406v0.102c0.239-0.521,0.566-0.928,0.98-1.223c0.414-0.294,0.905-0.441,1.473-0.441
			c0.12,0,0.235,0.009,0.348,0.027c0.112,0.019,0.204,0.038,0.277,0.059l-0.125,0.875l-0.695-0.047
			c-0.589,0-1.071,0.166-1.449,0.496c-0.378,0.331-0.647,0.785-0.809,1.363v5.047l1.273,0.102v0.688h-3.477v-0.688l1.273-0.102
			v-6.867l-1.273-0.102v-0.695h1.273H175.797z"/>
		<path d="M191.359,212.808c0,1.266-0.286,2.275-0.859,3.027c-0.573,0.753-1.362,1.129-2.367,1.129c-0.62,0-1.153-0.124-1.602-0.371
			s-0.81-0.603-1.086-1.066l-0.102,1.273h-0.797v-11.391l-1.273-0.102v-0.695h2.203v5.063c0.281-0.474,0.641-0.84,1.078-1.098
			s0.958-0.387,1.563-0.387c1.016,0,1.81,0.405,2.383,1.215c0.573,0.81,0.859,1.89,0.859,3.238V212.808z M190.414,212.644
			c0-1.078-0.208-1.954-0.625-2.629c-0.417-0.674-1.031-1.012-1.844-1.012c-0.656,0-1.184,0.162-1.582,0.484
			c-0.398,0.323-0.694,0.737-0.887,1.242v3.82c0.208,0.49,0.52,0.879,0.934,1.168s0.931,0.434,1.551,0.434
			c0.813,0,1.425-0.302,1.836-0.906c0.411-0.604,0.617-1.417,0.617-2.438V212.644z"/>
		<path d="M196.672,216.964c-1.063,0-1.942-0.389-2.641-1.168c-0.698-0.778-1.047-1.77-1.047-2.973v-0.43
			c0-1.208,0.348-2.211,1.043-3.008s1.535-1.195,2.52-1.195c1.036,0,1.852,0.328,2.445,0.984s0.891,1.531,0.891,2.625v0.797h-5.969
			v0.227c0,0.948,0.254,1.744,0.762,2.387c0.508,0.644,1.173,0.965,1.996,0.965c0.578,0,1.073-0.081,1.484-0.242
			c0.411-0.161,0.763-0.393,1.055-0.695l0.398,0.641c-0.317,0.333-0.719,0.598-1.203,0.793S197.344,216.964,196.672,216.964z
			 M196.547,208.987c-0.688,0-1.267,0.265-1.738,0.793c-0.472,0.529-0.746,1.191-0.824,1.988l0.016,0.039h4.953v-0.234
			c0-0.734-0.216-1.349-0.648-1.844C197.872,209.235,197.286,208.987,196.547,208.987z"/>
		<path d="M201.383,216.112l1.273-0.102v-6.867l-1.273-0.102v-0.695h2.102l0.086,1.477c0.271-0.521,0.637-0.923,1.098-1.207
			c0.461-0.284,1.007-0.426,1.637-0.426c0.917,0,1.614,0.28,2.094,0.84c0.479,0.56,0.719,1.434,0.719,2.621v4.359l1.273,0.102v0.688
			h-3.484v-0.688l1.273-0.102v-4.352c0-0.969-0.181-1.653-0.543-2.055c-0.362-0.401-0.876-0.602-1.543-0.602
			c-0.656,0-1.191,0.173-1.605,0.52c-0.414,0.347-0.712,0.806-0.895,1.379v5.109l1.273,0.102v0.688h-3.484V216.112z"/>
		<path d="M215.508,216.964c-1.063,0-1.942-0.389-2.641-1.168c-0.698-0.778-1.047-1.77-1.047-2.973v-0.43
			c0-1.208,0.348-2.211,1.043-3.008s1.535-1.195,2.52-1.195c1.036,0,1.852,0.328,2.445,0.984s0.891,1.531,0.891,2.625v0.797h-5.969
			v0.227c0,0.948,0.254,1.744,0.762,2.387c0.508,0.644,1.173,0.965,1.996,0.965c0.578,0,1.073-0.081,1.484-0.242
			c0.411-0.161,0.763-0.393,1.055-0.695l0.398,0.641c-0.317,0.333-0.719,0.598-1.203,0.793S216.18,216.964,215.508,216.964z
			 M215.383,208.987c-0.688,0-1.267,0.265-1.738,0.793c-0.472,0.529-0.746,1.191-0.824,1.988l0.016,0.039h4.953v-0.234
			c0-0.734-0.216-1.349-0.648-1.844C216.708,209.235,216.122,208.987,215.383,208.987z"/>
		<path d="M220.219,216.112l1.273-0.102v-6.898h-1.398v-0.766h1.398v-1.078c0-0.901,0.249-1.596,0.746-2.086
			c0.497-0.489,1.187-0.734,2.066-0.734c0.344,0,0.695,0.039,1.055,0.117s0.724,0.193,1.094,0.344l-0.148,0.805
			c-0.313-0.13-0.62-0.231-0.922-0.305c-0.302-0.073-0.644-0.109-1.023-0.109c-0.636,0-1.116,0.169-1.441,0.508
			c-0.325,0.339-0.488,0.826-0.488,1.461v1.078h4.852v7.664l1.273,0.102v0.688h-3.477v-0.688l1.273-0.102v-6.898h-3.922v6.898
			l1.273,0.102v0.688h-3.484V216.112z"/>
		<path d="M231.984,206.183v2.164h1.859v0.766h-1.859v5.508c0,0.552,0.101,0.944,0.301,1.176c0.2,0.232,0.468,0.348,0.801,0.348
			c0.151,0,0.298-0.006,0.441-0.02c0.144-0.013,0.309-0.035,0.496-0.066l0.141,0.695c-0.156,0.067-0.347,0.12-0.57,0.156
			c-0.224,0.036-0.448,0.055-0.672,0.055c-0.594,0-1.056-0.188-1.387-0.563s-0.496-0.969-0.496-1.781v-5.508h-1.453v-0.766h1.453
			v-2.164H231.984z"/>
		<path d="M241.695,210.956h-0.766l-0.109-1.195c-0.234-0.245-0.53-0.435-0.887-0.57c-0.356-0.135-0.767-0.203-1.23-0.203
			c-0.683,0-1.194,0.147-1.535,0.441c-0.341,0.294-0.512,0.64-0.512,1.035c0,0.391,0.147,0.714,0.441,0.969
			c0.294,0.255,0.882,0.479,1.762,0.672c1.005,0.224,1.758,0.53,2.258,0.918c0.5,0.388,0.75,0.916,0.75,1.582
			c0,0.703-0.285,1.272-0.855,1.707c-0.57,0.435-1.324,0.652-2.262,0.652c-0.625,0-1.194-0.087-1.707-0.262s-0.957-0.42-1.332-0.738
			v-1.703h0.758l0.133,1.203c0.25,0.25,0.566,0.431,0.949,0.543c0.383,0.112,0.782,0.168,1.199,0.168
			c0.677,0,1.211-0.148,1.602-0.445s0.586-0.656,0.586-1.078c0-0.396-0.163-0.742-0.488-1.039s-0.913-0.539-1.762-0.727
			c-1.005-0.219-1.751-0.509-2.238-0.871c-0.487-0.362-0.73-0.868-0.73-1.52c0-0.646,0.273-1.191,0.82-1.637
			s1.269-0.668,2.164-0.668c0.62,0,1.187,0.095,1.699,0.285c0.513,0.19,0.931,0.447,1.254,0.77L241.695,210.956z"/>
		<path d="M247.398,216.112l1.273-0.102v-6.867l-1.273-0.102v-0.695h2.203v7.664l1.273,0.102v0.688h-3.477V216.112z
			 M249.602,205.925h-0.93v-1.313h0.93V205.925z"/>
		<path d="M252.273,216.112l1.273-0.102v-6.867l-1.273-0.102v-0.695h2.102l0.086,1.477c0.271-0.521,0.637-0.923,1.098-1.207
			c0.461-0.284,1.007-0.426,1.637-0.426c0.917,0,1.614,0.28,2.094,0.84c0.479,0.56,0.719,1.434,0.719,2.621v4.359l1.273,0.102v0.688
			h-3.484v-0.688l1.273-0.102v-4.352c0-0.969-0.181-1.653-0.543-2.055c-0.362-0.401-0.876-0.602-1.543-0.602
			c-0.656,0-1.191,0.173-1.605,0.52c-0.414,0.347-0.712,0.806-0.895,1.379v5.109l1.273,0.102v0.688h-3.484V216.112z"/>
		<path d="M272.773,210.956h-0.766l-0.109-1.195c-0.234-0.245-0.53-0.435-0.887-0.57c-0.356-0.135-0.767-0.203-1.23-0.203
			c-0.683,0-1.194,0.147-1.535,0.441c-0.341,0.294-0.512,0.64-0.512,1.035c0,0.391,0.147,0.714,0.441,0.969
			c0.294,0.255,0.882,0.479,1.762,0.672c1.005,0.224,1.758,0.53,2.258,0.918c0.5,0.388,0.75,0.916,0.75,1.582
			c0,0.703-0.285,1.272-0.855,1.707c-0.57,0.435-1.324,0.652-2.262,0.652c-0.625,0-1.194-0.087-1.707-0.262s-0.957-0.42-1.332-0.738
			v-1.703h0.758l0.133,1.203c0.25,0.25,0.566,0.431,0.949,0.543c0.383,0.112,0.782,0.168,1.199,0.168
			c0.677,0,1.211-0.148,1.602-0.445s0.586-0.656,0.586-1.078c0-0.396-0.163-0.742-0.488-1.039s-0.913-0.539-1.762-0.727
			c-1.005-0.219-1.751-0.509-2.238-0.871c-0.487-0.362-0.73-0.868-0.73-1.52c0-0.646,0.273-1.191,0.82-1.637
			s1.269-0.668,2.164-0.668c0.62,0,1.187,0.095,1.699,0.285c0.513,0.19,0.931,0.447,1.254,0.77L272.773,210.956z"/>
		<path d="M276.797,206.183v2.164h1.859v0.766h-1.859v5.508c0,0.552,0.101,0.944,0.301,1.176c0.2,0.232,0.468,0.348,0.801,0.348
			c0.151,0,0.298-0.006,0.441-0.02c0.144-0.013,0.309-0.035,0.496-0.066l0.141,0.695c-0.156,0.067-0.347,0.12-0.57,0.156
			c-0.224,0.036-0.448,0.055-0.672,0.055c-0.594,0-1.056-0.188-1.387-0.563s-0.496-0.969-0.496-1.781v-5.508h-1.453v-0.766h1.453
			v-2.164H276.797z"/>
		<path d="M280.219,212.448c0-1.245,0.341-2.266,1.023-3.063s1.586-1.195,2.711-1.195c1.13,0,2.036,0.398,2.719,1.195
			s1.023,1.818,1.023,3.063v0.258c0,1.25-0.34,2.272-1.02,3.066c-0.68,0.794-1.582,1.191-2.707,1.191
			c-1.136,0-2.044-0.397-2.727-1.191c-0.683-0.794-1.023-1.816-1.023-3.066V212.448z M281.156,212.706
			c0,0.979,0.247,1.802,0.742,2.469c0.495,0.667,1.185,1,2.07,1c0.87,0,1.552-0.333,2.047-1c0.495-0.667,0.742-1.489,0.742-2.469
			v-0.258c0-0.963-0.249-1.781-0.746-2.453s-1.184-1.008-2.059-1.008s-1.56,0.336-2.055,1.008s-0.742,1.49-0.742,2.453V212.706z"/>
		<path d="M289.047,216.112l1.273-0.102v-6.867l-1.273-0.102v-0.695h2.102l0.086,1.477c0.271-0.521,0.637-0.923,1.098-1.207
			c0.461-0.284,1.007-0.426,1.637-0.426c0.917,0,1.614,0.28,2.094,0.84c0.479,0.56,0.719,1.434,0.719,2.621v4.359l1.273,0.102v0.688
			h-3.484v-0.688l1.273-0.102v-4.352c0-0.969-0.181-1.653-0.543-2.055c-0.362-0.401-0.876-0.602-1.543-0.602
			c-0.656,0-1.191,0.173-1.605,0.52c-0.414,0.347-0.712,0.806-0.895,1.379v5.109l1.273,0.102v0.688h-3.484V216.112z"/>
		<path d="M303.172,216.964c-1.063,0-1.942-0.389-2.641-1.168c-0.698-0.778-1.047-1.77-1.047-2.973v-0.43
			c0-1.208,0.348-2.211,1.043-3.008s1.535-1.195,2.52-1.195c1.036,0,1.852,0.328,2.445,0.984s0.891,1.531,0.891,2.625v0.797h-5.969
			v0.227c0,0.948,0.254,1.744,0.762,2.387c0.508,0.644,1.173,0.965,1.996,0.965c0.578,0,1.073-0.081,1.484-0.242
			c0.411-0.161,0.763-0.393,1.055-0.695l0.398,0.641c-0.317,0.333-0.719,0.598-1.203,0.793S303.844,216.964,303.172,216.964z
			 M303.047,208.987c-0.688,0-1.267,0.265-1.738,0.793c-0.472,0.529-0.746,1.191-0.824,1.988l0.016,0.039h4.953v-0.234
			c0-0.734-0.216-1.349-0.648-1.844C304.372,209.235,303.786,208.987,303.047,208.987z"/>
		<path d="M309.5,216.8h-1.07v-1.281h1.07V216.8z"/>
	</g>
</g>
</svg>
