<?xml version="1.0" encoding="utf-8"?>
<!-- Generator: Adobe Illustrator 16.0.0, SVG Export Plug-In . SVG Version: 6.00 Build 0)  -->
<!DOCTYPE svg PUBLIC "-//W3C//DTD SVG 1.1//EN" "http://www.w3.org/Graphics/SVG/1.1/DTD/svg11.dtd">
<svg version="1.1" id="Layer_1" xmlns="http://www.w3.org/2000/svg" xmlns:xlink="http://www.w3.org/1999/xlink" x="0px" y="0px"
	 width="612px" height="792px" viewBox="0 0 612 792" enable-background="new 0 0 612 792" xml:space="preserve">
<g>
	<line fill="none" stroke="#00A651" stroke-width="0.095" x1="596.7" y1="-75.2" x2="596.7" y2="867.2"/>
	<line fill="none" stroke="#00A651" stroke-width="0.095" x1="15.3" y1="-75.2" x2="15.3" y2="867.2"/>
	<line fill="none" stroke="#00A651" stroke-width="0.095" x1="-79.7" y1="772.2" x2="691.7" y2="772.2"/>
	<line fill="none" stroke="#00A651" stroke-width="0.095" x1="-79.7" y1="19.8" x2="691.7" y2="19.8"/>
</g>
<linearGradient id="SVGID_1_" gradientUnits="userSpaceOnUse" x1="29.5103" y1="253.1509" x2="579.9453" y2="253.1509">
	<stop  offset="0" style="stop-color:#67C292"/>
	<stop  offset="1" style="stop-color:#0F3443"/>
</linearGradient>
<path fill="url(#SVGID_1_)" d="M75.643,203.151c5.066,0,10.131,0.3,15.2,0.9c5.065,0.6,10.166,1.234,15.3,1.9
	c5.131,0.668,10.3,1.3,15.5,1.9c5.2,0.6,10.466,0.9,15.8,0.9c6.266,0,12.2-0.666,17.8-2c5.6-1.331,10.5-3.2,14.7-5.6
	c4.2-2.4,7.5-5.266,9.9-8.6c2.4-3.332,3.6-7,3.6-11c0-0.266-0.134-0.4-0.4-0.4c0.666,0,1.531,0.2,2.6,0.6
	c1.066,0.4,2.131,1.069,3.2,2c1.065,0.935,1.966,2.269,2.7,4c0.731,1.734,1.1,3.869,1.1,6.4c0,1.6-1.068,4.169-3.2,7.7
	c-2.134,3.534-5.334,7.034-9.6,10.5c-4.269,3.469-9.7,6.534-16.3,9.2c-6.6,2.668-14.435,4-23.5,4c-5.869,0-11.834-0.466-17.9-1.4
	c-6.068-0.931-12.068-1.965-18-3.1c-5.934-1.131-11.769-2.166-17.5-3.1c-5.734-0.931-11.269-1.4-16.6-1.4c-3.2,0-6.535,0.369-10,1.1
	c-3.469,0.734-6.635,1.834-9.5,3.3c-2.869,1.469-5.231,3.369-7.1,5.7c-1.866,2.334-2.8,5.1-2.8,8.3c0,0.934,0.234,2.069,0.7,3.4
	c0.469,1.334,1.2,2.634,2.2,3.9c1,1.269,2.331,2.369,4,3.3c1.666,0.934,3.631,1.4,5.9,1.4c4.8,0,9.366-1.231,13.7-3.7
	c4.332-2.465,7.766-6.031,10.3-10.7c0.266,0,0.766,0.4,1.5,1.2c0.731,0.8,1.465,1.769,2.2,2.9c0.731,1.135,1.366,2.369,1.9,3.7
	c0.531,1.334,0.8,2.534,0.8,3.6c0,0.4-0.034,0.8-0.1,1.2c-0.069,0.4-0.168,0.869-0.3,1.4c0-0.131-0.369,0.6-1.1,2.2
	c-0.734,1.6-2.034,3.4-3.9,5.4c-1.869,2-4.4,3.834-7.6,5.5c-3.2,1.669-7.269,2.5-12.2,2.5c-2.4,0-5.234-0.4-8.5-1.2
	c-3.269-0.8-6.4-2.166-9.4-4.1c-3-1.931-5.565-4.466-7.7-7.6c-2.131-3.131-3.266-7.031-3.4-11.7c-0.531-6.531,0.535-12,3.2-16.4
	c2.669-4.4,6.234-7.931,10.7-10.6c4.465-2.666,9.531-4.566,15.2-5.7C64.408,203.72,70.043,203.151,75.643,203.151z M107.643,235.951
	c0,0.534-0.369,2.7-1.1,6.5c-0.734,3.8-1.535,8.234-2.4,13.3c-0.869,5.069-1.668,10.3-2.4,15.7c-0.734,5.4-1.1,9.9-1.1,13.5
	c0,0.668,0.066,2.5,0.2,5.5c0.131,3,0.8,5.831,2,8.5c0.266,0.4,0.6,0.8,1,1.2c0.4,0.4,0.6,0.8,0.6,1.2c-0.269,0.8-1.2,1.2-2.8,1.2
	c-2.134,0-4.034-0.569-5.7-1.7c-1.669-1.134-3.1-2.6-4.3-4.4c-1.2-1.8-2.1-3.769-2.7-5.9c-0.6-2.131-0.9-4.131-0.9-6
	c-0.135-3.332,0.031-7.866,0.5-13.6c0.465-5.731,0.865-11.731,1.2-18c0.332-6.266,0.431-12.3,0.3-18.1
	c-0.135-5.8-0.869-10.431-2.2-13.9c3.2,0,6.031,0.234,8.5,0.7c2.466,0.469,5.031,1.769,7.7,3.9c0.666,0.668,1.266,1.534,1.8,2.6
	c0.4,0.935,0.8,2.035,1.2,3.3C107.443,232.72,107.643,234.22,107.643,235.951z M152.64,303.351c-0.269,1.466-1.6,2.2-4,2.2
	c-1.469,0-3-0.3-4.6-0.9c-1.6-0.6-3.1-1.5-4.5-2.7c-1.4-1.2-2.535-2.7-3.4-4.5c-0.869-1.8-1.3-3.9-1.3-6.3l1.2-31.4
	c0-0.4-0.069-0.866-0.2-1.4c-0.269-1.065-0.8-1.6-1.6-1.6c-1.069,0-2.434,0.834-4.1,2.5c-1.668,1.669-3.3,3.6-4.9,5.8
	c-1.6,2.2-3,4.369-4.2,6.5c-1.2,2.134-1.8,3.734-1.8,4.8c0,0.669,0.066,2.5,0.2,5.5c0.131,3,0.8,5.834,2,8.5
	c0.266,0.4,0.6,0.8,1,1.2c0.4,0.4,0.6,0.8,0.6,1.2c-0.269,0.8-1.135,1.2-2.6,1.2c-2.134,0-4.1-0.234-5.9-0.7
	c-1.8-0.469-3.3-1.334-4.5-2.6c-1.2-1.266-2.1-3.065-2.7-5.4c-0.6-2.331-0.769-5.431-0.5-9.3c-0.134,0.534-0.069-0.466,0.2-3
	c0.266-2.531,0.565-6,0.9-10.4c0.331-4.4,0.666-9.4,1-15c0.331-5.6,0.5-11.2,0.5-16.8s-0.2-10.866-0.6-15.8
	c-0.4-4.931-1.134-9-2.2-12.2c2.4,0,4.766,0.2,7.1,0.6c2.332,0.4,4.466,1.169,6.4,2.3c1.932,1.135,3.466,2.669,4.6,4.6
	c1.131,1.935,1.7,4.369,1.7,7.3c0,0.4,0,0.834,0,1.3c0,0.469-0.069,0.969-0.2,1.5c-0.668,3.869-1.269,7.935-1.8,12.2
	c-0.535,3.6-1.134,7.568-1.8,11.9c-0.668,4.334-1.269,8.634-1.8,12.9c0.931-1.2,2.166-2.6,3.7-4.2c1.531-1.6,3.266-3.131,5.2-4.6
	c1.931-1.466,3.966-2.7,6.1-3.7c2.131-1,4.331-1.5,6.6-1.5c0.131,0,0.631,0.034,1.5,0.1c0.866,0.069,1.766,0.434,2.7,1.1
	c0.932,0.668,1.766,1.734,2.5,3.2c0.731,1.469,1.1,3.6,1.1,6.4c-0.269,3.069-0.668,6.869-1.2,11.4c-0.535,4.534-0.869,9.2-1,14
	c-0.135,4.8,0.1,9.369,0.7,13.7C149.34,297.583,150.64,300.951,152.64,303.351z M193.039,258.951c0.131,2-0.269,4-1.2,6
	c-0.935,2-2.269,3.834-4,5.5c-1.734,1.668-3.869,3-6.4,4c-2.535,1-5.269,1.5-8.2,1.5c-2,0-3.8-0.266-5.4-0.8
	c0.4,1.869,1.031,3.369,1.9,4.5c0.866,1.135,1.766,2,2.7,2.6c0.931,0.6,1.865,1,2.8,1.2c0.931,0.2,1.731,0.369,2.4,0.5
	c1.866,0.269,3.531,0.034,5-0.7c1.466-0.731,2.766-1.565,3.9-2.5c1.131-0.931,2.066-1.831,2.8-2.7c0.731-0.866,1.3-1.3,1.7-1.3
	c0.531,0,0.8,0.469,0.8,1.4c0,2.269-0.6,4.269-1.8,6c-1.2,1.734-2.769,3.2-4.7,4.4c-1.935,1.2-4.134,2.1-6.6,2.7
	c-2.469,0.6-4.969,0.832-7.5,0.7c-5.734-0.269-10.2-2.131-13.4-5.6c-3.2-3.466-4.935-8.131-5.2-14c0-8,2.1-14.565,6.3-19.7
	c4.2-5.131,9.9-7.7,17.1-7.7c4.932,0,9,1.069,12.2,3.2C191.439,250.286,193.039,253.885,193.039,258.951z M167.239,271.351
	c1.331-0.4,2.731-0.866,4.2-1.4c1.465-0.531,2.831-1.266,4.1-2.2c1.266-0.931,2.3-2,3.1-3.2c0.8-1.2,1.2-2.731,1.2-4.6
	c0-1.866-0.435-3.5-1.3-4.9c-0.869-1.4-2.1-2.1-3.7-2.1c-2.269,0-4.134,1.234-5.6,3.7c-1.469,2.469-2.2,6.5-2.2,12.1
	c0,0.535,0.031,1,0.1,1.4C167.205,270.551,167.239,270.951,167.239,271.351z M214.637,238.951c-2.131-1.866-3.865-3.966-5.2-6.3
	c-1.332-2.331-2-5.166-2-8.5c0-0.931,1.1-2.931,3.3-6c2.2-3.065,5.5-6.3,9.9-9.7c4.4-3.4,9.834-6.431,16.3-9.1
	c6.465-2.666,13.9-4,22.3-4c10.8,0,18.9,2.269,24.3,6.8c5.4,4.535,8.1,10.6,8.1,18.2c0,3.469-0.668,6.469-2,9l3,0.6
	c6.266,1.2,11.366,3.3,15.3,6.3c3.932,3,7,6.5,9.199,10.5c2.201,4,3.601,8.369,4.201,13.1c0.6,4.734,0.631,9.369,0.1,13.9
	c-0.669,5.6-2.2,10.669-4.6,15.2c-2.4,4.531-5.535,8.4-9.4,11.6c-3.869,3.2-8.269,5.666-13.2,7.4c-4.934,1.731-10.2,2.6-15.8,2.6
	c-6.535,0-11.6-0.569-15.2-1.7c-3.6-1.134-6.269-2.5-8-4.1c-1.734-1.6-2.769-3.3-3.1-5.1c-0.334-1.8-0.5-3.369-0.5-4.7
	c0-0.535,0-1.234,0-2.1c0-0.869,0.031-1.731,0.1-2.6c0.066-0.866,0.166-1.6,0.3-2.2c0.131-0.6,0.331-0.9,0.6-0.9
	c2.131,2,5.1,3.569,8.9,4.7c3.8,1.131,9.231,1.7,16.3,1.7c3.466,0,6.966-0.4,10.5-1.2c3.531-0.8,6.7-2.2,9.5-4.2s5.065-4.8,6.8-8.4
	c1.731-3.6,2.6-8.2,2.6-13.8c0-3.6-0.6-7.031-1.8-10.3c-1.2-3.266-2.834-6.2-4.9-8.8c-2.069-2.6-4.5-4.8-7.3-6.6
	c-2.8-1.8-5.8-2.9-9-3.3c-0.8-0.131-2.5-0.166-5.1-0.1c-2.6,0.069-5.3,0.069-8.1,0c-2.8-0.065-5.3-0.266-7.5-0.6
	c-2.2-0.331-3.3-0.9-3.3-1.7c0.266-2.266,2.131-3.8,5.6-4.6h-0.2c0.266,0,1.2-0.066,2.8-0.2c1.6-0.131,3.3-0.465,5.1-1
	c1.8-0.531,3.4-1.266,4.8-2.2c1.4-0.932,2.1-2.2,2.1-3.8c0-3.331-1.1-6.2-3.3-8.6c-2.2-2.4-6.434-3.6-12.7-3.6
	c-4,0-7.869,0.469-11.6,1.4c-3.734,0.934-7.234,2.069-10.5,3.4c-3.269,1.334-6.2,2.769-8.8,4.3c-2.6,1.535-4.631,2.834-6.1,3.9
	c-2.131,1.869-4.066,3.668-5.8,5.4c-1.465,1.6-2.9,3.3-4.3,5.1C215.938,235.851,215.038,237.485,214.637,238.951z M252.038,235.351
	c-0.535,9.069-1.069,17.469-1.6,25.2c-0.269,3.334-0.469,6.668-0.6,10c-0.134,3.334-0.269,6.469-0.4,9.4
	c-0.134,2.934-0.234,5.534-0.3,7.8c-0.068,2.269-0.1,4-0.1,5.2c0,0.666,0.065,2.166,0.2,4.5c0.131,2.331,0.866,4.631,2.2,6.9
	c0.266,0.266,0.565,0.531,0.9,0.8c0.331,0.266,0.5,0.531,0.5,0.8c0,0.8-0.935,1.2-2.8,1.2c-4.4,0.131-7.6-1.269-9.6-4.2
	c-2-2.935-3.3-6.769-3.9-11.5c-0.6-4.731-0.769-10.166-0.5-16.3c0.266-6.131,0.465-12.4,0.6-18.8c0.131-6.4-0.034-12.666-0.5-18.8
	c-0.469-6.131-1.7-11.6-3.7-16.4h5.2c4,0.4,7.432,1.535,10.3,3.4C250.803,226.42,252.168,230.02,252.038,235.351z M367.637,254.751
	c0.131,0.669-0.069,2.869-0.601,6.6c-0.534,3.734-1.034,7.8-1.5,12.2c-0.469,4.4-0.769,8.534-0.899,12.4
	c-0.135,3.869,0.33,6.331,1.399,7.4c-1.2,0.666-2.5,0.931-3.899,0.8c-1.4-0.134-2.701-0.5-3.9-1.1c-1.2-0.6-2.234-1.435-3.1-2.5
	c-0.869-1.066-1.5-2.266-1.9-3.6c-2,1.869-4.2,3.369-6.6,4.5c-2.4,1.131-4.801,1.7-7.201,1.7c-4.668,0-7.934-1.634-9.799-4.9
	c-1.869-3.266-3-7.166-3.4-11.7c-0.4-4.531-0.369-9.266,0.1-14.2c0.466-4.931,0.7-9.065,0.7-12.4c0-1.332-0.069-2.6-0.2-3.8
	c-0.135-1.065-0.269-2.1-0.4-3.1c-0.134-1-0.334-1.832-0.6-2.5c1.066,0,2.5-0.031,4.301-0.1c1.799-0.066,3.531,0.1,5.199,0.5
	c1.666,0.4,3.131,1.2,4.4,2.4c1.266,1.2,1.9,3.069,1.9,5.6c-0.936,4.134-1.67,8.134-2.201,12c-0.668,3.334-1.199,6.769-1.6,10.3
	c-0.4,3.535-0.6,6.5-0.6,8.9c0,2.269,0.266,3.669,0.8,4.2c0.531,0.534,1.331,0.8,2.399,0.8c3.332,0,5.866-0.731,7.601-2.2
	c1.731-1.466,2.966-3.531,3.7-6.2c0.73-2.666,1.131-5.766,1.199-9.3c0.066-3.531,0.101-7.431,0.101-11.7c0-1.331-0.069-2.666-0.2-4
	c-0.269-2.4-0.6-4.4-1-6c0.801,0,2.1-0.031,3.9-0.1c1.8-0.065,3.565,0.1,5.3,0.5c1.731,0.4,3.266,1.234,4.601,2.5
	C366.967,249.92,367.637,251.951,367.637,254.751z M434.635,209.151c1.201,2.8,1.865,5.669,2,8.6c0.131,2.935-0.299,5.634-1.299,8.1
	c-1,2.469-2.635,4.5-4.9,6.1c-2.27,1.6-5.201,2.4-8.801,2.4c-1.199,0-2.934-0.065-5.199-0.2c-2.27-0.131-5.201-0.331-8.801-0.6
	c-0.533,3.869-1.234,8.168-2.1,12.9c-0.869,4.734-1.734,9.334-2.6,13.8c-0.869,4.469-1.6,8.5-2.201,12.1
	c-0.6,3.6-0.898,6.269-0.898,8c0,0.4,0,1.1,0,2.1s0.064,2.034,0.199,3.1c0.131,1.068,0.332,2.068,0.6,3
	c0.266,0.934,0.666,1.6,1.201,2c0.131,0.134-0.469,0.269-1.801,0.4c-1.334,0.134-2.734,0.2-4.2,0.2c-2.534,0-4.2-1.131-5-3.4
	c-0.8-2.266-1.2-5.531-1.2-9.8c0-7.6,0.301-15.2,0.9-22.8c0.6-7.6,0.365-15.4-0.7-23.4c-0.669-0.131-1.269-0.231-1.8-0.3
	c-0.535-0.066-1.135-0.1-1.801-0.1c-0.399,4-0.868,8.469-1.399,13.4c-0.534,4.935-1.069,9.769-1.601,14.5
	c-0.533,4.734-0.969,9-1.299,12.8c-0.335,3.8-0.5,6.568-0.5,8.3c0,0.4,0,1.1,0,2.1s0.064,2.034,0.199,3.1
	c0.131,1.068,0.332,2.068,0.6,3c0.266,0.934,0.666,1.6,1.201,2c0.131,0.134-0.469,0.269-1.801,0.4c-1.334,0.134-2.734,0.2-4.199,0.2
	c-2.27,0-3.969-1.266-5.101-3.8c-1.134-2.531-1.899-5.8-2.3-9.8s-0.535-8.432-0.4-13.3c0.131-4.866,0.231-9.6,0.301-14.2
	c0.064-4.6,0-8.766-0.201-12.5c-0.199-3.731-0.699-6.531-1.5-8.4c-1.465-0.131-3.064-0.365-4.799-0.7
	c-1.732-0.332-3.432-0.5-5.101-0.5c-1.665,0-3.266,0.269-4.8,0.8c-1.531,0.535-2.9,1.6-4.1,3.2c-0.4-0.666-0.801-1.332-1.201-2
	c-0.266-0.666-0.531-1.4-0.799-2.2c-0.266-0.8-0.4-1.731-0.4-2.8c0-1.332,0.6-2.466,1.8-3.4c1.2-0.932,2.769-1.7,4.7-2.3
	c1.934-0.6,4.135-1.065,6.6-1.4c2.469-0.331,4.969-0.5,7.5-0.5c-0.266-2-0.766-4.131-1.5-6.4c-0.73-2.266-2.031-3.931-3.9-5h2.4
	c0.669,0,1.469-0.031,2.4-0.1c0.934-0.065,1.932-0.1,3-0.1c1.865,0,3.73,0.1,5.6,0.3c1.865,0.2,3.6,0.734,5.2,1.6
	c1.601,0.869,2.966,2.169,4.101,3.9c1.131,1.734,1.83,4.134,2.1,7.2c1.065,0,1.865,0.069,2.4,0.2c-0.27-2.266-0.801-4.7-1.601-7.3
	c-0.8-2.6-2.2-4.5-4.2-5.7h1.2c0.399,0,0.866-0.031,1.399-0.1c0.531-0.065,1.132-0.1,1.801-0.1c2,0,4.1,0.035,6.3,0.1
	c2.2,0.069,4.266,0.435,6.2,1.1c1.932,0.668,3.631,1.869,5.1,3.6c1.467,1.734,2.4,4.269,2.801,7.6c2-0.131,4.23-0.331,6.699-0.6
	c2.467-0.266,4.932-0.7,7.4-1.3c2.465-0.6,4.801-1.465,7-2.6C431.734,212.52,433.436,211.02,434.635,209.151z M443.434,258.951
	c0.131,2-0.27,4-1.201,6c-0.934,2-2.268,3.834-4,5.5c-1.734,1.668-3.867,3-6.398,4c-2.535,1-5.27,1.5-8.201,1.5
	c-2,0-3.799-0.266-5.4-0.8c0.4,1.869,1.031,3.369,1.9,4.5c0.865,1.135,1.766,2,2.701,2.6c0.93,0.6,1.865,1,2.799,1.2
	c0.932,0.2,1.732,0.369,2.4,0.5c1.865,0.269,3.531,0.034,5-0.7c1.465-0.731,2.766-1.565,3.9-2.5c1.131-0.931,2.064-1.831,2.799-2.7
	c0.732-0.866,1.301-1.3,1.701-1.3c0.531,0,0.799,0.469,0.799,1.4c0,2.269-0.6,4.269-1.799,6c-1.201,1.734-2.77,3.2-4.701,4.4
	c-1.934,1.2-4.133,2.1-6.6,2.7c-2.469,0.6-4.969,0.832-7.5,0.7c-5.734-0.269-10.199-2.131-13.4-5.6
	c-3.199-3.466-4.934-8.131-5.199-14c0-8,2.1-14.565,6.301-19.7c4.199-5.131,9.898-7.7,17.1-7.7c4.932,0,9,1.069,12.199,3.2
	C441.834,250.286,443.434,253.885,443.434,258.951z M417.633,271.351c1.332-0.4,2.732-0.866,4.201-1.4
	c1.465-0.531,2.83-1.266,4.1-2.2c1.266-0.931,2.299-2,3.1-3.2c0.801-1.2,1.199-2.731,1.199-4.6c0-1.866-0.434-3.5-1.299-4.9
	c-0.869-1.4-2.1-2.1-3.701-2.1c-2.268,0-4.133,1.234-5.6,3.7c-1.469,2.469-2.199,6.5-2.199,12.1c0,0.535,0.031,1,0.1,1.4
	C417.6,270.551,417.633,270.951,417.633,271.351z M466.434,277.751c4.266,3.469,7.566,6.169,9.9,8.1c2.332,1.935,4.332,3.6,6,5
	c1.666,1.4,3.365,2.731,5.1,4c1.732,1.266,4.066,2.966,7,5.1c0.932,0.666,0.967,1.666,0.1,3c-0.867,1.331-2.234,2.531-4.1,3.6
	c-1.869,1.065-3.934,1.7-6.199,1.9c-2.27,0.2-4.201-0.435-5.801-1.9c-1.6-1.069-3.135-2.5-4.6-4.3c-1.469-1.8-3.035-3.8-4.699-6
	c-1.67-2.2-3.469-4.6-5.4-7.2c-1.936-2.6-4.234-5.3-6.9-8.1c-0.668,0.134-1.168,0.734-1.5,1.8c-0.334,1.069-0.5,2.3-0.5,3.7
	s0.131,2.734,0.4,4c0.266,1.266,0.73,2.1,1.4,2.5c-0.27,0.131-0.67,0.266-1.201,0.4c-0.533,0.131-1.734,0.2-3.6,0.2
	c-1.734,0-3.535-0.834-5.4-2.5c-1.869-1.666-2.799-3.832-2.799-6.5c0.131-2,0.465-5.1,1-9.3c0.531-4.2,0.965-8.565,1.299-13.1
	c0.332-4.531,0.467-8.831,0.4-12.9c-0.068-4.065-0.699-6.965-1.9-8.7c0.531,0,1.266-0.031,2.201-0.1c0.93-0.066,1.93-0.1,3-0.1
	c1.6,0,3.131,0.069,4.6,0.2c1.465,0.134,2.73,0.5,3.799,1.1c1.066,0.6,1.832,1.469,2.301,2.6c0.465,1.134,0.432,2.634-0.1,4.5
	c2.266-1.065,4.6-1.9,7-2.5s4.73-0.9,7-0.9c3.6,0,6.4,0.834,8.4,2.5c2,1.669,3,4.435,3,8.3c0,1.869-0.234,3.769-0.701,5.7
	c-0.469,1.935-1.369,3.8-2.699,5.6c-1.334,1.8-3.27,3.569-5.801,5.3C473.9,274.485,470.564,276.151,466.434,277.751z
	 M456.834,273.151c0,1.2,0.465,1.8,1.4,1.8c0.932,0,2.199-0.4,3.799-1.2c1.602-0.8,3.201-1.866,4.801-3.2
	c1.6-1.332,3-2.832,4.199-4.5c1.201-1.666,1.801-3.3,1.801-4.9c0-2.131-0.5-3.431-1.5-3.9c-1-0.465-2.234-0.7-3.699-0.7
	c-2.801,0-5.035,1.334-6.701,4C459.266,263.22,457.9,267.42,456.834,273.151z M508.631,228.351c0-0.131,0.232-0.2,0.701-0.2
	c0.465,0,1.1-0.465,1.9-1.4c0.531-0.531,1.064-1.666,1.6-3.4c0.531-1.731,0.865-3.5,1-5.3c0.131-1.8-0.035-3.4-0.5-4.8
	c-0.469-1.4-1.369-2.1-2.701-2.1c-1.469,0-2.398,1.7-2.799,5.1s-1,8.7-1.801,15.9c2,0,3.932-0.1,5.801-0.3
	c1.865-0.2,3.73-0.631,5.6-1.3c-0.27,1.469-0.668,2.8-1.199,4c-0.4,1.068-0.969,2-1.701,2.8c-0.734,0.8-1.699,1.334-2.9,1.6
	c-1.068,0.269-2.168,0.5-3.299,0.7c-1.135,0.2-2.234,0.3-3.301,0.3c-0.268,8.934-0.5,16.534-0.699,22.8
	c-0.201,6.269-0.4,11.9-0.6,16.9c-0.201,5-0.336,9.769-0.4,14.3c-0.068,4.531-0.1,9.531-0.1,15c0,1.331,0.1,3.231,0.299,5.7
	c0.201,2.466,0.766,4.832,1.701,7.1c0.266,0.266,0.564,0.6,0.898,1c0.332,0.4,0.5,0.8,0.5,1.2c0,0.8-0.734,1.2-2.199,1.2
	c-2,0-3.801-0.6-5.4-1.8s-2.969-2.734-4.1-4.6c-1.135-1.869-1.969-3.869-2.5-6c-0.535-2.134-0.801-4.2-0.801-6.2
	c0-3.869-0.033-8.269-0.1-13.2c-0.068-4.931-0.168-10.266-0.299-16c-0.135-5.731-0.27-11.7-0.4-17.9c-0.135-6.2-0.27-12.5-0.4-18.9
	c-1.469,0.134-3.301,0.3-5.5,0.5c-2.199,0.2-4.031,0.3-5.5,0.3c-0.932,0-1.465-0.331-1.6-1c-0.131-0.666-0.201-1.531-0.201-2.6
	c0-1.331,0.17-2.3,0.5-2.9c0.336-0.6,0.969-1.031,1.9-1.3c0.936-0.266,2.234-0.4,3.9-0.4c1.668,0,3.9-0.131,6.699-0.4
	c0-4.4-0.168-8.8-0.5-13.2c-0.334-4.4-0.5-8.932-0.5-13.6c0-2.931,0.801-4.9,2.4-5.9s3.4-1.5,5.4-1.5c2.666,0,5.566,0.568,8.699,1.7
	c3.133,1.134,6.031,2.669,8.701,4.6c2.666,1.935,4.865,4.269,6.6,7c1.73,2.734,2.6,5.7,2.6,8.9c0,2-0.533,3.634-1.6,4.9
	c-1.068,1.269-2.199,2.234-3.4,2.9c-1.469,0.8-3.068,1.334-4.799,1.6h-1c-0.67,0-1.4-0.1-2.201-0.3
	c-0.799-0.2-1.533-0.631-2.199-1.3L508.631,228.351z M520.49,202.751c2.4,0,4.766,0.2,7.1,0.6c2.332,0.4,4.465,1.169,6.4,2.3
	c1.932,1.135,3.465,2.669,4.6,4.6c1.131,1.935,1.699,4.369,1.699,7.3c0,0.269-0.168,1.634-0.5,4.1c-0.334,2.469-0.768,5.5-1.299,9.1
	c-0.535,3.6-1.135,7.634-1.801,12.1c-0.668,4.469-1.268,8.9-1.799,13.3c-0.535,4.4-0.969,8.5-1.301,12.3c-0.334,3.8-0.5,6.9-0.5,9.3
	c0,0.669,0.066,2.5,0.199,5.5s0.801,5.834,2,8.5c0.266,0.4,0.602,0.8,1,1.2c0.4,0.4,0.602,0.8,0.602,1.2
	c-0.27,0.8-1.135,1.2-2.602,1.2c-2.533,0-4.668-0.6-6.398-1.8c-1.734-1.2-3.135-2.766-4.201-4.7c-1.068-1.931-1.834-4.031-2.299-6.3
	c-0.469-2.266-0.701-4.531-0.701-6.8c0-6.266,0.301-12.366,0.9-18.3c0.6-5.931,1.1-11.9,1.5-17.9s0.465-12.031,0.199-18.1
	C523.021,215.385,522.09,209.151,520.49,202.751z M579.889,266.151c0.133,0.535,0.031,2.069-0.299,4.6
	c-0.334,2.535-0.701,5.569-1.1,9.1c-0.4,3.534-0.836,7.269-1.301,11.2c-0.469,3.931-0.801,7.6-1,11c-0.199,3.4-0.234,6.266-0.1,8.6
	c0.131,2.332,0.531,3.7,1.199,4.1c-0.268,0.131-0.668,0.266-1.199,0.4c-0.535,0.131-1.734,0.2-3.6,0.2c-1.734,0-3.535-0.8-5.4-2.4
	c-1.869-1.6-2.801-3.669-2.801-6.2c0.131-1.734,0.266-3.6,0.4-5.6c0.131-1.734,0.23-3.734,0.301-6c0.064-2.269,0.23-4.666,0.5-7.2
	c-1.869,1.6-3.9,2.869-6.102,3.8c-2.199,0.931-4.434,1.4-6.699,1.4c-3.068,0-5.5-0.769-7.301-2.3c-1.799-1.531-3.168-3.531-4.1-6
	c-0.934-2.466-1.5-5.266-1.699-8.4c-0.201-3.131-0.234-6.3-0.1-9.5c0.131-3.2,0.33-6.3,0.6-9.3c0.266-3,0.4-5.565,0.4-7.7
	c0-1.332-0.07-2.6-0.201-3.8c-0.135-1.065-0.299-2.1-0.5-3.1c-0.199-1-0.434-1.832-0.699-2.5c1.064,0,2.5-0.031,4.299-0.1
	c1.801-0.066,3.566,0.1,5.301,0.5c1.73,0.4,3.23,1.2,4.5,2.4c1.266,1.2,1.9,3.069,1.9,5.6c-0.936,4.269-1.67,8.334-2.201,12.2
	c-0.668,3.334-1.199,6.769-1.6,10.3c-0.4,3.534-0.6,6.5-0.6,8.9c0,2.269,0.23,3.634,0.699,4.1c0.467,0.469,1.232,0.7,2.301,0.7
	c2.266,0,4.166-0.6,5.699-1.8c1.531-1.2,2.801-2.7,3.801-4.5s1.73-3.831,2.199-6.1c0.467-2.266,0.701-4.465,0.701-6.6
	c0-1.065-0.1-2.531-0.301-4.4c-0.199-1.866-0.768-3.331-1.699-4.4c1.199,0,2.666-0.031,4.4-0.1c1.73-0.065,3.465,0.1,5.199,0.5
	c1.73,0.4,3.199,1.234,4.4,2.5C579.289,261.52,579.889,263.485,579.889,266.151z"/>
</svg>
