<?xml version="1.0" encoding="utf-8"?>
<!-- Generator: Adobe Illustrator 16.0.0, SVG Export Plug-In . SVG Version: 6.00 Build 0)  -->
<!DOCTYPE svg PUBLIC "-//W3C//DTD SVG 1.1//EN" "http://www.w3.org/Graphics/SVG/1.1/DTD/svg11.dtd">
<svg version="1.1" xmlns="http://www.w3.org/2000/svg" xmlns:xlink="http://www.w3.org/1999/xlink" x="0px" y="0px" width="360px"
	 height="640px" viewBox="0 0 360 640" enable-background="new 0 0 360 640" xml:space="preserve">
<g id="Layer_1" display="none">
	
		<rect x="18" y="32" display="inline" fill="#FFFFFF" stroke="#000000" stroke-width="0.8111" stroke-miterlimit="10" width="324" height="576"/>
</g>
<g id="Layer_2">
	<g>
		<path d="M60.602,38.578c0,1.708-0.456,3.098-1.367,4.168s-2.097,1.605-3.555,1.605c-1.438,0-2.605-0.536-3.504-1.609
			c-0.898-1.073-1.348-2.461-1.348-4.164V38.43c0-1.703,0.448-3.092,1.344-4.168c0.896-1.075,2.063-1.613,3.5-1.613
			c1.458,0,2.645,0.538,3.559,1.613c0.914,1.076,1.371,2.465,1.371,4.168V38.578z M59.664,38.414c0-1.474-0.359-2.667-1.078-3.578
			c-0.719-0.911-1.69-1.367-2.914-1.367c-1.203,0-2.155,0.456-2.855,1.367c-0.7,0.912-1.051,2.104-1.051,3.578v0.164
			c0,1.484,0.352,2.683,1.055,3.594c0.703,0.912,1.656,1.367,2.859,1.367c1.234,0,2.207-0.454,2.918-1.363
			c0.711-0.909,1.066-2.108,1.066-3.598V38.414z"/>
		<path d="M68.438,42.797c-0.266,0.495-0.629,0.878-1.09,1.148s-1.004,0.406-1.629,0.406c-0.891,0-1.587-0.302-2.09-0.906
			c-0.503-0.604-0.754-1.542-0.754-2.813v-4.102l-1.047-0.102v-0.695h1.047h0.93v4.914c0,1.031,0.176,1.771,0.527,2.219
			c0.352,0.448,0.851,0.672,1.496,0.672c0.708,0,1.272-0.156,1.691-0.469s0.715-0.745,0.887-1.297v-5.242l-1.203-0.102v-0.695h1.203
			h0.938v7.664l1.133,0.102v0.688h-1.953L68.438,42.797z"/>
		<path d="M73.875,35.734l0.117,1.406v0.102c0.239-0.521,0.566-0.928,0.98-1.223c0.414-0.294,0.905-0.441,1.473-0.441
			c0.12,0,0.235,0.009,0.348,0.027c0.112,0.019,0.204,0.038,0.277,0.059l-0.125,0.875l-0.695-0.047
			c-0.589,0-1.071,0.166-1.449,0.496c-0.378,0.331-0.647,0.785-0.809,1.363v5.047l1.273,0.102v0.688h-3.477V43.5l1.273-0.102v-6.867
			l-1.273-0.102v-0.695h1.273H73.875z"/>
		<path d="M88.032,38.344h-0.766l-0.109-1.195c-0.234-0.245-0.53-0.435-0.887-0.57c-0.356-0.135-0.767-0.203-1.23-0.203
			c-0.683,0-1.194,0.147-1.535,0.441c-0.341,0.294-0.512,0.64-0.512,1.035c0,0.391,0.147,0.714,0.441,0.969
			c0.294,0.255,0.882,0.479,1.762,0.672c1.005,0.224,1.758,0.53,2.258,0.918c0.5,0.388,0.75,0.916,0.75,1.582
			c0,0.703-0.285,1.272-0.855,1.707c-0.57,0.435-1.324,0.652-2.262,0.652c-0.625,0-1.194-0.087-1.707-0.262s-0.957-0.42-1.332-0.738
			v-1.703h0.758l0.133,1.203c0.25,0.25,0.566,0.431,0.949,0.543c0.383,0.112,0.782,0.168,1.199,0.168
			c0.677,0,1.211-0.148,1.602-0.445s0.586-0.656,0.586-1.078c0-0.396-0.163-0.742-0.488-1.039s-0.913-0.539-1.762-0.727
			c-1.005-0.219-1.751-0.509-2.238-0.871c-0.487-0.362-0.73-0.868-0.73-1.52c0-0.646,0.273-1.191,0.82-1.637
			s1.269-0.668,2.164-0.668c0.62,0,1.187,0.095,1.699,0.285c0.513,0.19,0.931,0.447,1.254,0.77L88.032,38.344z"/>
		<path d="M92.056,33.57v2.164h1.859V36.5h-1.859v5.508c0,0.552,0.101,0.944,0.301,1.176c0.2,0.232,0.468,0.348,0.801,0.348
			c0.151,0,0.298-0.006,0.441-0.02c0.144-0.013,0.309-0.035,0.496-0.066l0.141,0.695c-0.156,0.067-0.347,0.12-0.57,0.156
			c-0.224,0.036-0.448,0.055-0.672,0.055c-0.594,0-1.056-0.188-1.387-0.563s-0.496-0.969-0.496-1.781V36.5h-1.453v-0.766h1.453
			V33.57H92.056z"/>
		<path d="M97.657,35.734l0.117,1.406v0.102c0.239-0.521,0.566-0.928,0.98-1.223c0.414-0.294,0.905-0.441,1.473-0.441
			c0.12,0,0.235,0.009,0.348,0.027c0.112,0.019,0.204,0.038,0.277,0.059l-0.125,0.875l-0.695-0.047
			c-0.589,0-1.071,0.166-1.449,0.496c-0.378,0.331-0.647,0.785-0.809,1.363v5.047l1.273,0.102v0.688h-3.477V43.5l1.273-0.102v-6.867
			l-1.273-0.102v-0.695h1.273H97.657z"/>
		<path d="M108.274,42.797c-0.266,0.495-0.629,0.878-1.09,1.148s-1.004,0.406-1.629,0.406c-0.891,0-1.587-0.302-2.09-0.906
			c-0.503-0.604-0.754-1.542-0.754-2.813v-4.102l-1.047-0.102v-0.695h1.047h0.93v4.914c0,1.031,0.176,1.771,0.527,2.219
			c0.352,0.448,0.851,0.672,1.496,0.672c0.708,0,1.272-0.156,1.691-0.469s0.715-0.745,0.887-1.297v-5.242l-1.203-0.102v-0.695h1.203
			h0.938v7.664l1.133,0.102v0.688h-1.953L108.274,42.797z"/>
		<path d="M111.728,40.031c0-1.349,0.288-2.428,0.863-3.238c0.575-0.81,1.374-1.215,2.395-1.215c0.599,0,1.118,0.132,1.559,0.395
			c0.44,0.263,0.804,0.634,1.09,1.113l0.109-1.352h0.789v8.344c0,1.088-0.294,1.948-0.883,2.578
			c-0.589,0.63-1.409,0.945-2.461,0.945c-0.406,0-0.84-0.05-1.301-0.148c-0.461-0.099-0.863-0.234-1.207-0.406l0.25-0.789
			c0.339,0.161,0.694,0.286,1.066,0.375c0.372,0.088,0.765,0.133,1.176,0.133c0.802,0,1.406-0.237,1.813-0.711
			c0.406-0.474,0.609-1.133,0.609-1.977v-1.07c-0.286,0.433-0.648,0.765-1.086,0.996s-0.95,0.348-1.539,0.348
			c-1.016,0-1.81-0.377-2.383-1.133c-0.573-0.755-0.859-1.763-0.859-3.023V40.031z M112.665,40.195c0,1.016,0.207,1.827,0.621,2.434
			c0.414,0.607,1.032,0.91,1.855,0.91c0.609,0,1.116-0.138,1.52-0.414c0.403-0.276,0.715-0.656,0.934-1.141v-3.922
			c-0.208-0.495-0.508-0.897-0.898-1.207c-0.391-0.31-0.903-0.465-1.539-0.465c-0.823,0-1.444,0.339-1.863,1.016
			c-0.419,0.677-0.629,1.552-0.629,2.625V40.195z"/>
		<path d="M120.696,40.031c0-1.349,0.288-2.428,0.863-3.238c0.575-0.81,1.374-1.215,2.395-1.215c0.599,0,1.118,0.132,1.559,0.395
			c0.44,0.263,0.804,0.634,1.09,1.113l0.109-1.352h0.789v8.344c0,1.088-0.294,1.948-0.883,2.578
			c-0.589,0.63-1.409,0.945-2.461,0.945c-0.406,0-0.84-0.05-1.301-0.148c-0.461-0.099-0.863-0.234-1.207-0.406l0.25-0.789
			c0.339,0.161,0.694,0.286,1.066,0.375c0.372,0.088,0.765,0.133,1.176,0.133c0.802,0,1.406-0.237,1.813-0.711
			c0.406-0.474,0.609-1.133,0.609-1.977v-1.07c-0.286,0.433-0.648,0.765-1.086,0.996s-0.95,0.348-1.539,0.348
			c-1.016,0-1.81-0.377-2.383-1.133c-0.573-0.755-0.859-1.763-0.859-3.023V40.031z M121.634,40.195c0,1.016,0.207,1.827,0.621,2.434
			c0.414,0.607,1.032,0.91,1.855,0.91c0.609,0,1.116-0.138,1.52-0.414c0.403-0.276,0.715-0.656,0.934-1.141v-3.922
			c-0.208-0.495-0.508-0.897-0.898-1.207c-0.391-0.31-0.903-0.465-1.539-0.465c-0.823,0-1.444,0.339-1.863,1.016
			c-0.419,0.677-0.629,1.552-0.629,2.625V40.195z"/>
		<path d="M129.438,32.695V32h2.203v11.398l1.273,0.102v0.688h-3.477V43.5l1.273-0.102V32.797L129.438,32.695z"/>
		<path d="M138.118,44.352c-1.063,0-1.942-0.389-2.641-1.168c-0.698-0.778-1.047-1.77-1.047-2.973v-0.43
			c0-1.208,0.348-2.211,1.043-3.008s1.535-1.195,2.52-1.195c1.036,0,1.852,0.328,2.445,0.984s0.891,1.531,0.891,2.625v0.797h-5.969
			v0.227c0,0.948,0.254,1.744,0.762,2.387c0.508,0.644,1.173,0.965,1.996,0.965c0.578,0,1.073-0.081,1.484-0.242
			c0.411-0.161,0.763-0.393,1.055-0.695l0.398,0.641c-0.317,0.333-0.719,0.598-1.203,0.793S138.79,44.352,138.118,44.352z
			 M137.993,36.375c-0.688,0-1.267,0.265-1.738,0.793c-0.472,0.529-0.746,1.191-0.824,1.988l0.016,0.039h4.953v-0.234
			c0-0.734-0.216-1.349-0.648-1.844C139.318,36.623,138.732,36.375,137.993,36.375z"/>
		<path d="M149.134,38.344h-0.766l-0.109-1.195c-0.234-0.245-0.53-0.435-0.887-0.57c-0.356-0.135-0.767-0.203-1.23-0.203
			c-0.683,0-1.194,0.147-1.535,0.441c-0.341,0.294-0.512,0.64-0.512,1.035c0,0.391,0.147,0.714,0.441,0.969
			c0.294,0.255,0.882,0.479,1.762,0.672c1.005,0.224,1.758,0.53,2.258,0.918c0.5,0.388,0.75,0.916,0.75,1.582
			c0,0.703-0.285,1.272-0.855,1.707c-0.57,0.435-1.324,0.652-2.262,0.652c-0.625,0-1.194-0.087-1.707-0.262s-0.957-0.42-1.332-0.738
			v-1.703h0.758l0.133,1.203c0.25,0.25,0.566,0.431,0.949,0.543c0.383,0.112,0.782,0.168,1.199,0.168
			c0.677,0,1.211-0.148,1.602-0.445s0.586-0.656,0.586-1.078c0-0.396-0.163-0.742-0.488-1.039s-0.913-0.539-1.762-0.727
			c-1.005-0.219-1.751-0.509-2.238-0.871c-0.487-0.362-0.73-0.868-0.73-1.52c0-0.646,0.273-1.191,0.82-1.637
			s1.269-0.668,2.164-0.668c0.62,0,1.187,0.095,1.699,0.285c0.513,0.19,0.931,0.447,1.254,0.77L149.134,38.344z"/>
		<path d="M154.564,43.5l1.273-0.102v-6.867l-1.273-0.102v-0.695h2.203v7.664l1.273,0.102v0.688h-3.477V43.5z M156.768,33.313h-0.93
			V32h0.93V33.313z"/>
		<path d="M159.439,43.5l1.273-0.102v-6.867l-1.273-0.102v-0.695h2.102l0.086,1.477c0.271-0.521,0.637-0.923,1.098-1.207
			c0.461-0.284,1.007-0.426,1.637-0.426c0.917,0,1.614,0.28,2.094,0.84c0.479,0.56,0.719,1.434,0.719,2.621v4.359l1.273,0.102v0.688
			h-3.484V43.5l1.273-0.102v-4.352c0-0.969-0.181-1.653-0.543-2.055c-0.362-0.401-0.876-0.602-1.543-0.602
			c-0.656,0-1.191,0.173-1.605,0.52c-0.414,0.347-0.712,0.806-0.895,1.379v5.109l1.273,0.102v0.688h-3.484V43.5z"/>
		<path d="M173.347,32.695V32h2.203v11.398l1.273,0.102v0.688h-3.477V43.5l1.273-0.102V32.797L173.347,32.695z"/>
		<path d="M178.237,43.5l1.273-0.102v-6.867l-1.273-0.102v-0.695h2.203v7.664l1.273,0.102v0.688h-3.477V43.5z M180.44,33.313h-0.93
			V32h0.93V33.313z"/>
		<path d="M183.151,36.5v-0.766h1.398V34.5c0-0.849,0.214-1.505,0.641-1.969c0.427-0.463,1.023-0.695,1.789-0.695
			c0.167,0,0.339,0.013,0.516,0.039c0.177,0.026,0.356,0.063,0.539,0.109l-0.117,0.773c-0.125-0.031-0.253-0.056-0.383-0.074
			c-0.13-0.018-0.284-0.027-0.461-0.027c-0.511,0-0.902,0.162-1.176,0.484c-0.273,0.323-0.41,0.776-0.41,1.359v1.234h2.016V36.5
			h-2.016v6.898l1.273,0.102v0.688h-3.484V43.5l1.273-0.102V36.5H183.151z"/>
		<path d="M192.487,44.352c-1.063,0-1.942-0.389-2.641-1.168c-0.698-0.778-1.047-1.77-1.047-2.973v-0.43
			c0-1.208,0.348-2.211,1.043-3.008s1.535-1.195,2.52-1.195c1.036,0,1.852,0.328,2.445,0.984s0.891,1.531,0.891,2.625v0.797h-5.969
			v0.227c0,0.948,0.254,1.744,0.762,2.387c0.508,0.644,1.173,0.965,1.996,0.965c0.578,0,1.073-0.081,1.484-0.242
			c0.411-0.161,0.763-0.393,1.055-0.695l0.398,0.641c-0.317,0.333-0.719,0.598-1.203,0.793S193.159,44.352,192.487,44.352z
			 M192.362,36.375c-0.688,0-1.267,0.265-1.738,0.793c-0.472,0.529-0.746,1.191-0.824,1.988l0.016,0.039h4.953v-0.234
			c0-0.734-0.216-1.349-0.648-1.844C193.688,36.623,193.102,36.375,192.362,36.375z"/>
		<path d="M200.716,32.695V32h2.203v5.18c0.281-0.505,0.656-0.898,1.125-1.18s1.016-0.422,1.641-0.422
			c0.891,0,1.574,0.276,2.051,0.828c0.477,0.552,0.715,1.409,0.715,2.57v4.422l1.273,0.102v0.688h-3.484V43.5l1.273-0.102v-4.438
			c0-0.917-0.181-1.574-0.543-1.973s-0.86-0.598-1.496-0.598c-0.641,0-1.176,0.168-1.605,0.504s-0.746,0.783-0.949,1.34v5.164
			l1.273,0.102v0.688h-3.477V43.5l1.273-0.102V32.797L200.716,32.695z"/>
		<path d="M214.778,44.352c-1.063,0-1.942-0.389-2.641-1.168c-0.698-0.778-1.047-1.77-1.047-2.973v-0.43
			c0-1.208,0.348-2.211,1.043-3.008s1.535-1.195,2.52-1.195c1.036,0,1.852,0.328,2.445,0.984s0.891,1.531,0.891,2.625v0.797h-5.969
			v0.227c0,0.948,0.254,1.744,0.762,2.387c0.508,0.644,1.173,0.965,1.996,0.965c0.578,0,1.073-0.081,1.484-0.242
			c0.411-0.161,0.763-0.393,1.055-0.695l0.398,0.641c-0.317,0.333-0.719,0.598-1.203,0.793S215.45,44.352,214.778,44.352z
			 M214.653,36.375c-0.688,0-1.267,0.265-1.738,0.793c-0.472,0.529-0.746,1.191-0.824,1.988l0.016,0.039h4.953v-0.234
			c0-0.734-0.216-1.349-0.648-1.844C215.979,36.623,215.393,36.375,214.653,36.375z"/>
		<path d="M219.474,32.695V32h2.203v11.398l1.273,0.102v0.688h-3.477V43.5l1.273-0.102V32.797L219.474,32.695z"/>
		<path d="M224.177,36.43v-0.695h2.055l0.117,1.313c0.286-0.469,0.652-0.831,1.098-1.086c0.445-0.255,0.968-0.383,1.566-0.383
			c1.016,0,1.81,0.405,2.383,1.215c0.573,0.81,0.859,1.89,0.859,3.238v0.164c0,1.266-0.286,2.275-0.859,3.027
			c-0.573,0.753-1.362,1.129-2.367,1.129c-0.594,0-1.113-0.113-1.559-0.34s-0.809-0.548-1.09-0.965v3.594l1.273,0.102v0.695h-3.477
			v-0.695l1.273-0.102V36.531L224.177,36.43z M231.317,40.031c0-1.073-0.214-1.948-0.641-2.625
			c-0.427-0.677-1.052-1.016-1.875-1.016c-0.63,0-1.142,0.15-1.535,0.449c-0.394,0.3-0.688,0.689-0.887,1.168v4.063
			c0.214,0.464,0.522,0.828,0.926,1.094s0.907,0.398,1.512,0.398c0.817,0,1.438-0.307,1.863-0.922
			c0.425-0.614,0.637-1.43,0.637-2.445V40.031z"/>
		<path d="M239.545,33.57v2.164h1.859V36.5h-1.859v5.508c0,0.552,0.101,0.944,0.301,1.176c0.2,0.232,0.468,0.348,0.801,0.348
			c0.151,0,0.298-0.006,0.441-0.02c0.144-0.013,0.309-0.035,0.496-0.066l0.141,0.695c-0.156,0.067-0.347,0.12-0.57,0.156
			c-0.224,0.036-0.448,0.055-0.672,0.055c-0.594,0-1.056-0.188-1.387-0.563s-0.496-0.969-0.496-1.781V36.5h-1.453v-0.766h1.453
			V33.57H239.545z"/>
		<path d="M242.967,39.836c0-1.245,0.341-2.266,1.023-3.063s1.586-1.195,2.711-1.195c1.13,0,2.036,0.398,2.719,1.195
			s1.023,1.818,1.023,3.063v0.258c0,1.25-0.34,2.272-1.02,3.066c-0.68,0.794-1.582,1.191-2.707,1.191
			c-1.136,0-2.044-0.397-2.727-1.191c-0.683-0.794-1.023-1.816-1.023-3.066V39.836z M243.904,40.094
			c0,0.979,0.247,1.802,0.742,2.469c0.495,0.667,1.185,1,2.07,1c0.87,0,1.552-0.333,2.047-1c0.495-0.667,0.742-1.489,0.742-2.469
			v-0.258c0-0.963-0.249-1.781-0.746-2.453s-1.184-1.008-2.059-1.008s-1.56,0.336-2.055,1.008s-0.742,1.49-0.742,2.453V40.094z"/>
		<path d="M261.46,42.969c-0.281,0.443-0.644,0.784-1.086,1.023s-0.964,0.359-1.563,0.359c-1.011,0-1.801-0.377-2.371-1.133
			c-0.57-0.755-0.855-1.763-0.855-3.023v-0.164c0-1.349,0.285-2.428,0.855-3.238c0.57-0.81,1.366-1.215,2.387-1.215
			c0.589,0,1.099,0.124,1.531,0.371c0.433,0.248,0.792,0.601,1.078,1.059v-4.211l-1.273-0.102V32h1.273h0.938v11.398l1.273,0.102
			v0.688h-2.109L261.46,42.969z M256.53,40.195c0,1.021,0.204,1.833,0.613,2.438c0.409,0.604,1.024,0.906,1.848,0.906
			c0.599,0,1.101-0.135,1.504-0.406c0.403-0.271,0.718-0.643,0.941-1.117v-4c-0.208-0.479-0.509-0.87-0.902-1.172
			c-0.394-0.302-0.902-0.453-1.527-0.453c-0.823,0-1.441,0.337-1.855,1.012c-0.414,0.675-0.621,1.551-0.621,2.629V40.195z"/>
		<path d="M268.812,44.352c-1.063,0-1.942-0.389-2.641-1.168c-0.698-0.778-1.047-1.77-1.047-2.973v-0.43
			c0-1.208,0.348-2.211,1.043-3.008s1.535-1.195,2.52-1.195c1.036,0,1.852,0.328,2.445,0.984s0.891,1.531,0.891,2.625v0.797h-5.969
			v0.227c0,0.948,0.254,1.744,0.762,2.387c0.508,0.644,1.173,0.965,1.996,0.965c0.578,0,1.073-0.081,1.484-0.242
			c0.411-0.161,0.763-0.393,1.055-0.695l0.398,0.641c-0.317,0.333-0.719,0.598-1.203,0.793S269.483,44.352,268.812,44.352z
			 M268.687,36.375c-0.688,0-1.267,0.265-1.738,0.793c-0.472,0.529-0.746,1.191-0.824,1.988l0.016,0.039h4.953v-0.234
			c0-0.734-0.216-1.349-0.648-1.844C270.012,36.623,269.426,36.375,268.687,36.375z"/>
		<path d="M276.046,36.43l-1.055,0.078l2.109,5.563l0.273,0.992h0.047l0.297-0.992l2.078-5.563l-1.055-0.078v-0.695h2.844v0.695
			l-0.828,0.07l-2.984,7.688h-0.75L274.03,36.5l-0.828-0.07v-0.695h2.844V36.43z"/>
		<path d="M286.241,44.352c-1.063,0-1.942-0.389-2.641-1.168c-0.698-0.778-1.047-1.77-1.047-2.973v-0.43
			c0-1.208,0.348-2.211,1.043-3.008s1.535-1.195,2.52-1.195c1.036,0,1.852,0.328,2.445,0.984s0.891,1.531,0.891,2.625v0.797h-5.969
			v0.227c0,0.948,0.254,1.744,0.762,2.387c0.508,0.644,1.173,0.965,1.996,0.965c0.578,0,1.073-0.081,1.484-0.242
			c0.411-0.161,0.763-0.393,1.055-0.695l0.398,0.641c-0.317,0.333-0.719,0.598-1.203,0.793S286.913,44.352,286.241,44.352z
			 M286.116,36.375c-0.688,0-1.267,0.265-1.738,0.793c-0.472,0.529-0.746,1.191-0.824,1.988l0.016,0.039h4.953v-0.234
			c0-0.734-0.216-1.349-0.648-1.844C287.441,36.623,286.855,36.375,286.116,36.375z"/>
		<path d="M290.937,32.695V32h2.203v11.398l1.273,0.102v0.688h-3.477V43.5l1.273-0.102V32.797L290.937,32.695z"/>
		<path d="M295.733,39.836c0-1.245,0.341-2.266,1.023-3.063s1.586-1.195,2.711-1.195c1.13,0,2.036,0.398,2.719,1.195
			s1.023,1.818,1.023,3.063v0.258c0,1.25-0.34,2.272-1.02,3.066c-0.68,0.794-1.582,1.191-2.707,1.191
			c-1.136,0-2.044-0.397-2.727-1.191c-0.683-0.794-1.023-1.816-1.023-3.066V39.836z M296.671,40.094
			c0,0.979,0.247,1.802,0.742,2.469c0.495,0.667,1.185,1,2.07,1c0.87,0,1.552-0.333,2.047-1c0.495-0.667,0.742-1.489,0.742-2.469
			v-0.258c0-0.963-0.249-1.781-0.746-2.453s-1.184-1.008-2.059-1.008s-1.56,0.336-2.055,1.008s-0.742,1.49-0.742,2.453V40.094z"/>
		<path d="M304.483,36.43v-0.695h2.055l0.117,1.313c0.286-0.469,0.652-0.831,1.098-1.086c0.445-0.255,0.968-0.383,1.566-0.383
			c1.016,0,1.81,0.405,2.383,1.215c0.573,0.81,0.859,1.89,0.859,3.238v0.164c0,1.266-0.286,2.275-0.859,3.027
			c-0.573,0.753-1.362,1.129-2.367,1.129c-0.594,0-1.113-0.113-1.559-0.34s-0.809-0.548-1.09-0.965v3.594l1.273,0.102v0.695h-3.477
			v-0.695l1.273-0.102V36.531L304.483,36.43z M311.624,40.031c0-1.073-0.214-1.948-0.641-2.625
			c-0.427-0.677-1.052-1.016-1.875-1.016c-0.63,0-1.142,0.15-1.535,0.449c-0.394,0.3-0.688,0.689-0.887,1.168v4.063
			c0.214,0.464,0.522,0.828,0.926,1.094s0.907,0.398,1.512,0.398c0.817,0,1.438-0.307,1.863-0.922
			c0.425-0.614,0.637-1.43,0.637-2.445V40.031z"/>
		<path d="M317.703,39.836c0-1.245,0.341-2.266,1.023-3.063s1.586-1.195,2.711-1.195c1.13,0,2.036,0.398,2.719,1.195
			s1.023,1.818,1.023,3.063v0.258c0,1.25-0.34,2.272-1.02,3.066c-0.68,0.794-1.582,1.191-2.707,1.191
			c-1.136,0-2.044-0.397-2.727-1.191c-0.683-0.794-1.023-1.816-1.023-3.066V39.836z M318.641,40.094
			c0,0.979,0.247,1.802,0.742,2.469c0.495,0.667,1.185,1,2.07,1c0.87,0,1.552-0.333,2.047-1c0.495-0.667,0.742-1.489,0.742-2.469
			v-0.258c0-0.963-0.249-1.781-0.746-2.453s-1.184-1.008-2.059-1.008s-1.56,0.336-2.055,1.008s-0.742,1.49-0.742,2.453V40.094z"/>
		<path d="M332.914,42.797c-0.266,0.495-0.629,0.878-1.09,1.148s-1.004,0.406-1.629,0.406c-0.891,0-1.587-0.302-2.09-0.906
			c-0.503-0.604-0.754-1.542-0.754-2.813v-4.102l-1.047-0.102v-0.695h1.047h0.93v4.914c0,1.031,0.176,1.771,0.527,2.219
			c0.352,0.448,0.851,0.672,1.496,0.672c0.708,0,1.272-0.156,1.691-0.469s0.715-0.745,0.887-1.297v-5.242l-1.203-0.102v-0.695h1.203
			h0.938v7.664l1.133,0.102v0.688H333L332.914,42.797z"/>
		<path d="M338.352,35.734l0.117,1.406v0.102c0.239-0.521,0.566-0.928,0.98-1.223c0.414-0.294,0.905-0.441,1.473-0.441
			c0.12,0,0.235,0.009,0.348,0.027c0.112,0.019,0.204,0.038,0.277,0.059l-0.125,0.875l-0.695-0.047
			c-0.589,0-1.071,0.166-1.449,0.496c-0.378,0.331-0.647,0.785-0.809,1.363v5.047l1.273,0.102v0.688h-3.477V43.5l1.273-0.102v-6.867
			l-1.273-0.102v-0.695h1.273H338.352z"/>
		<path d="M24.891,57.544h-0.766l-0.109-1.195c-0.234-0.245-0.53-0.435-0.887-0.57c-0.356-0.135-0.767-0.203-1.23-0.203
			c-0.683,0-1.194,0.147-1.535,0.441c-0.341,0.294-0.512,0.64-0.512,1.035c0,0.391,0.147,0.714,0.441,0.969
			c0.294,0.255,0.882,0.479,1.762,0.672c1.005,0.224,1.758,0.53,2.258,0.918c0.5,0.388,0.75,0.916,0.75,1.582
			c0,0.703-0.285,1.272-0.855,1.707c-0.57,0.435-1.324,0.652-2.262,0.652c-0.625,0-1.194-0.087-1.707-0.262s-0.957-0.42-1.332-0.738
			v-1.703h0.758l0.133,1.203c0.25,0.25,0.566,0.431,0.949,0.543c0.383,0.112,0.782,0.168,1.199,0.168
			c0.677,0,1.211-0.148,1.602-0.445s0.586-0.656,0.586-1.078c0-0.396-0.163-0.742-0.488-1.039s-0.913-0.539-1.762-0.727
			c-1.005-0.219-1.751-0.509-2.238-0.871c-0.487-0.362-0.73-0.868-0.73-1.52c0-0.646,0.273-1.191,0.82-1.637
			s1.269-0.668,2.164-0.668c0.62,0,1.187,0.095,1.699,0.285c0.513,0.19,0.931,0.447,1.254,0.77L24.891,57.544z"/>
		<path d="M28.914,52.771v2.164h1.859V55.7h-1.859v5.508c0,0.552,0.101,0.944,0.301,1.176c0.2,0.232,0.468,0.348,0.801,0.348
			c0.151,0,0.298-0.006,0.441-0.02c0.144-0.013,0.309-0.035,0.496-0.066l0.141,0.695c-0.156,0.067-0.347,0.12-0.57,0.156
			c-0.224,0.036-0.448,0.055-0.672,0.055c-0.594,0-1.056-0.188-1.387-0.563s-0.496-0.969-0.496-1.781V55.7h-1.453v-0.766h1.453
			v-2.164H28.914z"/>
		<path d="M34.516,54.935l0.117,1.406v0.102c0.239-0.521,0.566-0.928,0.98-1.223c0.414-0.294,0.905-0.441,1.473-0.441
			c0.12,0,0.235,0.009,0.348,0.027c0.112,0.019,0.204,0.038,0.277,0.059l-0.125,0.875l-0.695-0.047
			c-0.589,0-1.071,0.166-1.449,0.496c-0.378,0.331-0.647,0.785-0.809,1.363v5.047l1.273,0.102v0.688H32.43V62.7l1.273-0.102v-6.867
			L32.43,55.63v-0.695h1.273H34.516z"/>
		<path d="M42.5,63.552c-1.063,0-1.942-0.389-2.641-1.168c-0.698-0.778-1.047-1.77-1.047-2.973v-0.43
			c0-1.208,0.348-2.211,1.043-3.008s1.535-1.195,2.52-1.195c1.036,0,1.852,0.328,2.445,0.984s0.891,1.531,0.891,2.625v0.797h-5.969
			v0.227c0,0.948,0.254,1.744,0.762,2.387c0.508,0.644,1.173,0.965,1.996,0.965c0.578,0,1.073-0.081,1.484-0.242
			c0.411-0.161,0.763-0.393,1.055-0.695l0.398,0.641c-0.317,0.333-0.719,0.598-1.203,0.793S43.172,63.552,42.5,63.552z
			 M42.375,55.575c-0.688,0-1.267,0.265-1.738,0.793c-0.472,0.529-0.746,1.191-0.824,1.988l0.016,0.039h4.953v-0.234
			c0-0.734-0.216-1.349-0.648-1.844C43.7,55.823,43.114,55.575,42.375,55.575z"/>
		<path d="M47.211,62.7l1.273-0.102v-6.867l-1.273-0.102v-0.695h2.102l0.086,1.477c0.271-0.521,0.637-0.923,1.098-1.207
			c0.461-0.284,1.007-0.426,1.637-0.426c0.917,0,1.614,0.28,2.094,0.84c0.479,0.56,0.719,1.434,0.719,2.621v4.359l1.273,0.102v0.688
			h-3.484V62.7l1.273-0.102v-4.352c0-0.969-0.181-1.653-0.543-2.055c-0.362-0.401-0.876-0.602-1.543-0.602
			c-0.656,0-1.191,0.173-1.605,0.52c-0.414,0.347-0.712,0.806-0.895,1.379v5.109l1.273,0.102v0.688h-3.484V62.7z"/>
		<path d="M57.648,59.231c0-1.349,0.288-2.428,0.863-3.238c0.575-0.81,1.374-1.215,2.395-1.215c0.599,0,1.118,0.132,1.559,0.395
			c0.44,0.263,0.804,0.634,1.09,1.113l0.109-1.352h0.789v8.344c0,1.088-0.294,1.948-0.883,2.578
			c-0.589,0.63-1.409,0.945-2.461,0.945c-0.406,0-0.84-0.05-1.301-0.148c-0.461-0.099-0.863-0.234-1.207-0.406l0.25-0.789
			c0.339,0.161,0.694,0.286,1.066,0.375c0.372,0.088,0.765,0.133,1.176,0.133c0.802,0,1.406-0.237,1.813-0.711
			c0.406-0.474,0.609-1.133,0.609-1.977v-1.07c-0.286,0.433-0.648,0.765-1.086,0.996s-0.95,0.348-1.539,0.348
			c-1.016,0-1.81-0.377-2.383-1.133c-0.573-0.755-0.859-1.763-0.859-3.023V59.231z M58.586,59.396c0,1.016,0.207,1.827,0.621,2.434
			c0.414,0.607,1.032,0.91,1.855,0.91c0.609,0,1.116-0.138,1.52-0.414c0.403-0.276,0.715-0.656,0.934-1.141v-3.922
			c-0.208-0.495-0.508-0.897-0.898-1.207c-0.391-0.31-0.903-0.465-1.539-0.465c-0.823,0-1.444,0.339-1.863,1.016
			c-0.419,0.677-0.629,1.552-0.629,2.625V59.396z"/>
		<path d="M68.727,52.771v2.164h1.859V55.7h-1.859v5.508c0,0.552,0.101,0.944,0.301,1.176c0.2,0.232,0.468,0.348,0.801,0.348
			c0.151,0,0.298-0.006,0.441-0.02c0.144-0.013,0.309-0.035,0.496-0.066l0.141,0.695c-0.156,0.067-0.347,0.12-0.57,0.156
			c-0.224,0.036-0.448,0.055-0.672,0.055c-0.594,0-1.056-0.188-1.387-0.563s-0.496-0.969-0.496-1.781V55.7h-1.453v-0.766h1.453
			v-2.164H68.727z"/>
		<path d="M72.031,51.896V51.2h2.203v5.18c0.281-0.505,0.656-0.898,1.125-1.18s1.016-0.422,1.641-0.422
			c0.891,0,1.574,0.276,2.051,0.828c0.477,0.552,0.715,1.409,0.715,2.57v4.422l1.273,0.102v0.688h-3.484V62.7l1.273-0.102v-4.438
			c0-0.917-0.181-1.574-0.543-1.973s-0.86-0.598-1.496-0.598c-0.641,0-1.176,0.168-1.605,0.504s-0.746,0.783-0.949,1.34v5.164
			l1.273,0.102v0.688h-3.477V62.7l1.273-0.102V51.997L72.031,51.896z"/>
		<path d="M88.578,57.544h-0.766l-0.109-1.195c-0.234-0.245-0.53-0.435-0.887-0.57c-0.356-0.135-0.767-0.203-1.23-0.203
			c-0.683,0-1.194,0.147-1.535,0.441c-0.341,0.294-0.512,0.64-0.512,1.035c0,0.391,0.147,0.714,0.441,0.969
			c0.294,0.255,0.882,0.479,1.762,0.672c1.005,0.224,1.758,0.53,2.258,0.918c0.5,0.388,0.75,0.916,0.75,1.582
			c0,0.703-0.285,1.272-0.855,1.707c-0.57,0.435-1.324,0.652-2.262,0.652c-0.625,0-1.194-0.087-1.707-0.262s-0.957-0.42-1.332-0.738
			v-1.703h0.758l0.133,1.203c0.25,0.25,0.566,0.431,0.949,0.543c0.383,0.112,0.782,0.168,1.199,0.168
			c0.677,0,1.211-0.148,1.602-0.445s0.586-0.656,0.586-1.078c0-0.396-0.163-0.742-0.488-1.039s-0.913-0.539-1.762-0.727
			c-1.005-0.219-1.751-0.509-2.238-0.871c-0.487-0.362-0.73-0.868-0.73-1.52c0-0.646,0.273-1.191,0.82-1.637
			s1.269-0.668,2.164-0.668c0.62,0,1.187,0.095,1.699,0.285c0.513,0.19,0.931,0.447,1.254,0.77L88.578,57.544z"/>
		<path d="M91.898,63.388h-1.07v-1.281h1.07V63.388z"/>
		<path d="M109.572,52.708l-1.156,0.086l1.797,7.375l0.344,1.734h0.047l0.422-1.734l2.5-8.156h0.883l2.492,8.156l0.414,1.758
			l0.047-0.008l0.367-1.75l1.773-7.375l-1.156-0.086v-0.695h2.969v0.695l-0.852,0.063l-2.648,10.617h-0.883l-2.648-8.727
			l-0.297-1.195h-0.047l-0.281,1.195l-2.672,8.727h-0.883l-2.648-10.617l-0.852-0.063v-0.695h2.969V52.708z"/>
		<path d="M122.096,62.7l1.273-0.102v-6.867l-1.273-0.102v-0.695h2.203v7.664l1.273,0.102v0.688h-3.477V62.7z M124.299,52.513h-0.93
			V51.2h0.93V52.513z"/>
		<path d="M129.291,52.771v2.164h1.859V55.7h-1.859v5.508c0,0.552,0.101,0.944,0.301,1.176c0.2,0.232,0.468,0.348,0.801,0.348
			c0.151,0,0.298-0.006,0.441-0.02c0.144-0.013,0.309-0.035,0.496-0.066l0.141,0.695c-0.156,0.067-0.347,0.12-0.57,0.156
			c-0.224,0.036-0.448,0.055-0.672,0.055c-0.594,0-1.056-0.188-1.387-0.563s-0.496-0.969-0.496-1.781V55.7h-1.453v-0.766h1.453
			v-2.164H129.291z"/>
		<path d="M132.596,51.896V51.2h2.203v5.18c0.281-0.505,0.656-0.898,1.125-1.18s1.016-0.422,1.641-0.422
			c0.891,0,1.574,0.276,2.051,0.828c0.477,0.552,0.715,1.409,0.715,2.57v4.422l1.273,0.102v0.688h-3.484V62.7l1.273-0.102v-4.438
			c0-0.917-0.181-1.574-0.543-1.973s-0.86-0.598-1.496-0.598c-0.641,0-1.176,0.168-1.605,0.504s-0.746,0.783-0.949,1.34v5.164
			l1.273,0.102v0.688h-3.477V62.7l1.273-0.102V51.997L132.596,51.896z"/>
		<path d="M142.932,59.036c0-1.245,0.341-2.266,1.023-3.063s1.586-1.195,2.711-1.195c1.13,0,2.036,0.398,2.719,1.195
			s1.023,1.818,1.023,3.063v0.258c0,1.25-0.34,2.272-1.02,3.066c-0.68,0.794-1.582,1.191-2.707,1.191
			c-1.136,0-2.044-0.397-2.727-1.191c-0.683-0.794-1.023-1.816-1.023-3.066V59.036z M143.869,59.294
			c0,0.979,0.247,1.802,0.742,2.469c0.495,0.667,1.185,1,2.07,1c0.87,0,1.552-0.333,2.047-1c0.495-0.667,0.742-1.489,0.742-2.469
			v-0.258c0-0.963-0.249-1.781-0.746-2.453s-1.184-1.008-2.059-1.008s-1.56,0.336-2.055,1.008s-0.742,1.49-0.742,2.453V59.294z"/>
		<path d="M158.143,61.997c-0.266,0.495-0.629,0.878-1.09,1.148s-1.004,0.406-1.629,0.406c-0.891,0-1.587-0.302-2.09-0.906
			c-0.503-0.604-0.754-1.542-0.754-2.813v-4.102l-1.047-0.102v-0.695h1.047h0.93v4.914c0,1.031,0.176,1.771,0.527,2.219
			c0.352,0.448,0.851,0.672,1.496,0.672c0.708,0,1.272-0.156,1.691-0.469s0.715-0.745,0.887-1.297v-5.242l-1.203-0.102v-0.695h1.203
			h0.938v7.664l1.133,0.102v0.688h-1.953L158.143,61.997z"/>
		<path d="M163.705,52.771v2.164h1.859V55.7h-1.859v5.508c0,0.552,0.101,0.944,0.301,1.176c0.2,0.232,0.468,0.348,0.801,0.348
			c0.151,0,0.298-0.006,0.441-0.02c0.144-0.013,0.309-0.035,0.496-0.066l0.141,0.695c-0.156,0.067-0.347,0.12-0.57,0.156
			c-0.224,0.036-0.448,0.055-0.672,0.055c-0.594,0-1.056-0.188-1.387-0.563s-0.496-0.969-0.496-1.781V55.7h-1.453v-0.766h1.453
			v-2.164H163.705z"/>
		<path d="M186.348,57.544h-0.766l-0.109-1.195c-0.234-0.245-0.53-0.435-0.887-0.57c-0.356-0.135-0.767-0.203-1.23-0.203
			c-0.683,0-1.194,0.147-1.535,0.441c-0.341,0.294-0.512,0.64-0.512,1.035c0,0.391,0.147,0.714,0.441,0.969
			c0.294,0.255,0.882,0.479,1.762,0.672c1.005,0.224,1.758,0.53,2.258,0.918c0.5,0.388,0.75,0.916,0.75,1.582
			c0,0.703-0.285,1.272-0.855,1.707c-0.57,0.435-1.324,0.652-2.262,0.652c-0.625,0-1.194-0.087-1.707-0.262s-0.957-0.42-1.332-0.738
			v-1.703h0.758l0.133,1.203c0.25,0.25,0.566,0.431,0.949,0.543c0.383,0.112,0.782,0.168,1.199,0.168
			c0.677,0,1.211-0.148,1.602-0.445s0.586-0.656,0.586-1.078c0-0.396-0.163-0.742-0.488-1.039s-0.913-0.539-1.762-0.727
			c-1.005-0.219-1.751-0.509-2.238-0.871c-0.487-0.362-0.73-0.868-0.73-1.52c0-0.646,0.273-1.191,0.82-1.637
			s1.269-0.668,2.164-0.668c0.62,0,1.187,0.095,1.699,0.285c0.513,0.19,0.931,0.447,1.254,0.77L186.348,57.544z"/>
		<path d="M190.371,52.771v2.164h1.859V55.7h-1.859v5.508c0,0.552,0.101,0.944,0.301,1.176c0.2,0.232,0.468,0.348,0.801,0.348
			c0.151,0,0.298-0.006,0.441-0.02c0.144-0.013,0.309-0.035,0.496-0.066l0.141,0.695c-0.156,0.067-0.347,0.12-0.57,0.156
			c-0.224,0.036-0.448,0.055-0.672,0.055c-0.594,0-1.056-0.188-1.387-0.563s-0.496-0.969-0.496-1.781V55.7h-1.453v-0.766h1.453
			v-2.164H190.371z"/>
		<path d="M195.973,54.935l0.117,1.406v0.102c0.239-0.521,0.566-0.928,0.98-1.223c0.414-0.294,0.905-0.441,1.473-0.441
			c0.12,0,0.235,0.009,0.348,0.027c0.112,0.019,0.204,0.038,0.277,0.059l-0.125,0.875l-0.695-0.047
			c-0.589,0-1.071,0.166-1.449,0.496c-0.378,0.331-0.647,0.785-0.809,1.363v5.047l1.273,0.102v0.688h-3.477V62.7l1.273-0.102v-6.867
			l-1.273-0.102v-0.695h1.273H195.973z"/>
		<path d="M206.59,61.997c-0.266,0.495-0.629,0.878-1.09,1.148s-1.004,0.406-1.629,0.406c-0.891,0-1.587-0.302-2.09-0.906
			c-0.503-0.604-0.754-1.542-0.754-2.813v-4.102l-1.047-0.102v-0.695h1.047h0.93v4.914c0,1.031,0.176,1.771,0.527,2.219
			c0.352,0.448,0.851,0.672,1.496,0.672c0.708,0,1.272-0.156,1.691-0.469s0.715-0.745,0.887-1.297v-5.242l-1.203-0.102v-0.695h1.203
			h0.938v7.664l1.133,0.102v0.688h-1.953L206.59,61.997z"/>
		<path d="M210.043,59.231c0-1.349,0.288-2.428,0.863-3.238c0.575-0.81,1.374-1.215,2.395-1.215c0.599,0,1.118,0.132,1.559,0.395
			c0.44,0.263,0.804,0.634,1.09,1.113l0.109-1.352h0.789v8.344c0,1.088-0.294,1.948-0.883,2.578
			c-0.589,0.63-1.409,0.945-2.461,0.945c-0.406,0-0.84-0.05-1.301-0.148c-0.461-0.099-0.863-0.234-1.207-0.406l0.25-0.789
			c0.339,0.161,0.694,0.286,1.066,0.375c0.372,0.088,0.765,0.133,1.176,0.133c0.802,0,1.406-0.237,1.813-0.711
			c0.406-0.474,0.609-1.133,0.609-1.977v-1.07c-0.286,0.433-0.648,0.765-1.086,0.996s-0.95,0.348-1.539,0.348
			c-1.016,0-1.81-0.377-2.383-1.133c-0.573-0.755-0.859-1.763-0.859-3.023V59.231z M210.98,59.396c0,1.016,0.207,1.827,0.621,2.434
			c0.414,0.607,1.032,0.91,1.855,0.91c0.609,0,1.116-0.138,1.52-0.414c0.403-0.276,0.715-0.656,0.934-1.141v-3.922
			c-0.208-0.495-0.508-0.897-0.898-1.207c-0.391-0.31-0.903-0.465-1.539-0.465c-0.823,0-1.444,0.339-1.863,1.016
			c-0.419,0.677-0.629,1.552-0.629,2.625V59.396z"/>
		<path d="M219.012,59.231c0-1.349,0.288-2.428,0.863-3.238c0.575-0.81,1.374-1.215,2.395-1.215c0.599,0,1.118,0.132,1.559,0.395
			c0.44,0.263,0.804,0.634,1.09,1.113l0.109-1.352h0.789v8.344c0,1.088-0.294,1.948-0.883,2.578
			c-0.589,0.63-1.409,0.945-2.461,0.945c-0.406,0-0.84-0.05-1.301-0.148c-0.461-0.099-0.863-0.234-1.207-0.406l0.25-0.789
			c0.339,0.161,0.694,0.286,1.066,0.375c0.372,0.088,0.765,0.133,1.176,0.133c0.802,0,1.406-0.237,1.813-0.711
			c0.406-0.474,0.609-1.133,0.609-1.977v-1.07c-0.286,0.433-0.648,0.765-1.086,0.996s-0.95,0.348-1.539,0.348
			c-1.016,0-1.81-0.377-2.383-1.133c-0.573-0.755-0.859-1.763-0.859-3.023V59.231z M219.949,59.396c0,1.016,0.207,1.827,0.621,2.434
			c0.414,0.607,1.032,0.91,1.855,0.91c0.609,0,1.116-0.138,1.52-0.414c0.403-0.276,0.715-0.656,0.934-1.141v-3.922
			c-0.208-0.495-0.508-0.897-0.898-1.207c-0.391-0.31-0.903-0.465-1.539-0.465c-0.823,0-1.444,0.339-1.863,1.016
			c-0.419,0.677-0.629,1.552-0.629,2.625V59.396z"/>
		<path d="M227.754,51.896V51.2h2.203v11.398l1.273,0.102v0.688h-3.477V62.7l1.273-0.102V51.997L227.754,51.896z"/>
		<path d="M236.434,63.552c-1.063,0-1.942-0.389-2.641-1.168c-0.698-0.778-1.047-1.77-1.047-2.973v-0.43
			c0-1.208,0.348-2.211,1.043-3.008s1.535-1.195,2.52-1.195c1.036,0,1.852,0.328,2.445,0.984s0.891,1.531,0.891,2.625v0.797h-5.969
			v0.227c0,0.948,0.254,1.744,0.762,2.387c0.508,0.644,1.173,0.965,1.996,0.965c0.578,0,1.073-0.081,1.484-0.242
			c0.411-0.161,0.763-0.393,1.055-0.695l0.398,0.641c-0.317,0.333-0.719,0.598-1.203,0.793S237.105,63.552,236.434,63.552z
			 M236.309,55.575c-0.688,0-1.267,0.265-1.738,0.793c-0.472,0.529-0.746,1.191-0.824,1.988l0.016,0.039h4.953v-0.234
			c0-0.734-0.216-1.349-0.648-1.844C237.634,55.823,237.048,55.575,236.309,55.575z"/>
		<path d="M247.449,57.544h-0.766l-0.109-1.195c-0.234-0.245-0.53-0.435-0.887-0.57c-0.356-0.135-0.767-0.203-1.23-0.203
			c-0.683,0-1.194,0.147-1.535,0.441c-0.341,0.294-0.512,0.64-0.512,1.035c0,0.391,0.147,0.714,0.441,0.969
			c0.294,0.255,0.882,0.479,1.762,0.672c1.005,0.224,1.758,0.53,2.258,0.918c0.5,0.388,0.75,0.916,0.75,1.582
			c0,0.703-0.285,1.272-0.855,1.707c-0.57,0.435-1.324,0.652-2.262,0.652c-0.625,0-1.194-0.087-1.707-0.262s-0.957-0.42-1.332-0.738
			v-1.703h0.758l0.133,1.203c0.25,0.25,0.566,0.431,0.949,0.543c0.383,0.112,0.782,0.168,1.199,0.168
			c0.677,0,1.211-0.148,1.602-0.445s0.586-0.656,0.586-1.078c0-0.396-0.163-0.742-0.488-1.039s-0.913-0.539-1.762-0.727
			c-1.005-0.219-1.751-0.509-2.238-0.871c-0.487-0.362-0.73-0.868-0.73-1.52c0-0.646,0.273-1.191,0.82-1.637
			s1.269-0.668,2.164-0.668c0.62,0,1.187,0.095,1.699,0.285c0.513,0.19,0.931,0.447,1.254,0.77L247.449,57.544z"/>
		<path d="M250.684,63.013c0,0.479-0.098,0.948-0.293,1.406c-0.195,0.458-0.462,0.846-0.801,1.164l-0.555-0.406
			c0.245-0.344,0.426-0.685,0.543-1.023c0.117-0.339,0.176-0.714,0.176-1.125v-1.109h0.93V63.013z"/>
		<path d="M267.834,55.63l-1.063,0.086l1.367,4.93l0.32,1.508h0.047l0.398-1.508l1.805-5.711h0.797l1.805,5.711l0.406,1.547h0.047
			l0.352-1.547l1.328-4.93l-1.063-0.086v-0.695h2.844v0.695l-0.82,0.063l-2.242,7.695h-0.797l-1.883-5.781l-0.367-1.461h-0.047
			l-0.367,1.461l-1.852,5.781h-0.797l-2.234-7.695l-0.82-0.063v-0.695h2.836V55.63z"/>
		<path d="M282.248,63.552c-1.063,0-1.942-0.389-2.641-1.168c-0.698-0.778-1.047-1.77-1.047-2.973v-0.43
			c0-1.208,0.348-2.211,1.043-3.008s1.535-1.195,2.52-1.195c1.036,0,1.852,0.328,2.445,0.984s0.891,1.531,0.891,2.625v0.797h-5.969
			v0.227c0,0.948,0.254,1.744,0.762,2.387c0.508,0.644,1.173,0.965,1.996,0.965c0.578,0,1.073-0.081,1.484-0.242
			c0.411-0.161,0.763-0.393,1.055-0.695l0.398,0.641c-0.317,0.333-0.719,0.598-1.203,0.793S282.92,63.552,282.248,63.552z
			 M282.123,55.575c-0.688,0-1.267,0.265-1.738,0.793c-0.472,0.529-0.746,1.191-0.824,1.988l0.016,0.039h4.953v-0.234
			c0-0.734-0.216-1.349-0.648-1.844C283.448,55.823,282.862,55.575,282.123,55.575z"/>
		<path d="M299.891,62.7l1.273-0.102v-6.867l-1.273-0.102v-0.695h2.102l0.086,1.477c0.271-0.521,0.637-0.923,1.098-1.207
			c0.461-0.284,1.007-0.426,1.637-0.426c0.917,0,1.614,0.28,2.094,0.84c0.479,0.56,0.719,1.434,0.719,2.621v4.359l1.273,0.102v0.688
			h-3.484V62.7l1.273-0.102v-4.352c0-0.969-0.181-1.653-0.543-2.055c-0.362-0.401-0.876-0.602-1.543-0.602
			c-0.656,0-1.191,0.173-1.605,0.52c-0.414,0.347-0.712,0.806-0.895,1.379v5.109l1.273,0.102v0.688h-3.484V62.7z"/>
		<path d="M314.016,63.552c-1.063,0-1.942-0.389-2.641-1.168c-0.698-0.778-1.047-1.77-1.047-2.973v-0.43
			c0-1.208,0.348-2.211,1.043-3.008s1.535-1.195,2.52-1.195c1.036,0,1.852,0.328,2.445,0.984s0.891,1.531,0.891,2.625v0.797h-5.969
			v0.227c0,0.948,0.254,1.744,0.762,2.387c0.508,0.644,1.173,0.965,1.996,0.965c0.578,0,1.073-0.081,1.484-0.242
			c0.411-0.161,0.763-0.393,1.055-0.695l0.398,0.641c-0.317,0.333-0.719,0.598-1.203,0.793S314.688,63.552,314.016,63.552z
			 M313.891,55.575c-0.688,0-1.267,0.265-1.738,0.793c-0.472,0.529-0.746,1.191-0.824,1.988l0.016,0.039h4.953v-0.234
			c0-0.734-0.216-1.349-0.648-1.844C315.216,55.823,314.63,55.575,313.891,55.575z"/>
		<path d="M321.25,55.63l-1.055,0.078l2.109,5.563l0.273,0.992h0.047l0.297-0.992L325,55.708l-1.055-0.078v-0.695h2.844v0.695
			l-0.828,0.07l-2.984,7.688h-0.75l-2.992-7.688l-0.828-0.07v-0.695h2.844V55.63z"/>
		<path d="M331.445,63.552c-1.063,0-1.942-0.389-2.641-1.168c-0.698-0.778-1.047-1.77-1.047-2.973v-0.43
			c0-1.208,0.348-2.211,1.043-3.008s1.535-1.195,2.52-1.195c1.036,0,1.852,0.328,2.445,0.984s0.891,1.531,0.891,2.625v0.797h-5.969
			v0.227c0,0.948,0.254,1.744,0.762,2.387c0.508,0.644,1.173,0.965,1.996,0.965c0.578,0,1.073-0.081,1.484-0.242
			c0.411-0.161,0.763-0.393,1.055-0.695l0.398,0.641c-0.317,0.333-0.719,0.598-1.203,0.793S332.117,63.552,331.445,63.552z
			 M331.32,55.575c-0.688,0-1.267,0.265-1.738,0.793c-0.472,0.529-0.746,1.191-0.824,1.988l0.016,0.039h4.953v-0.234
			c0-0.734-0.216-1.349-0.648-1.844C332.646,55.823,332.06,55.575,331.32,55.575z"/>
		<path d="M338.352,54.935l0.117,1.406v0.102c0.239-0.521,0.566-0.928,0.98-1.223c0.414-0.294,0.905-0.441,1.473-0.441
			c0.12,0,0.235,0.009,0.348,0.027c0.112,0.019,0.204,0.038,0.277,0.059l-0.125,0.875l-0.695-0.047
			c-0.589,0-1.071,0.166-1.449,0.496c-0.378,0.331-0.647,0.785-0.809,1.363v5.047l1.273,0.102v0.688h-3.477V62.7l1.273-0.102v-6.867
			l-1.273-0.102v-0.695h1.273H338.352z"/>
		<path d="M18.797,78.431c0-1.349,0.288-2.428,0.863-3.238s1.374-1.215,2.395-1.215c0.599,0,1.118,0.131,1.559,0.395
			s0.804,0.634,1.09,1.113l0.109-1.352h0.789v8.344c0,1.088-0.294,1.948-0.883,2.578s-1.409,0.945-2.461,0.945
			c-0.406,0-0.84-0.049-1.301-0.148s-0.863-0.234-1.207-0.406L20,84.658c0.339,0.162,0.694,0.287,1.066,0.375
			s0.765,0.133,1.176,0.133c0.802,0,1.406-0.237,1.813-0.711s0.609-1.133,0.609-1.977v-1.07c-0.286,0.432-0.648,0.764-1.086,0.996
			s-0.95,0.348-1.539,0.348c-1.016,0-1.81-0.377-2.383-1.133s-0.859-1.763-0.859-3.023V78.431z M19.734,78.595
			c0,1.016,0.207,1.827,0.621,2.434s1.032,0.91,1.855,0.91c0.609,0,1.116-0.138,1.52-0.414s0.715-0.656,0.934-1.141v-3.922
			c-0.208-0.495-0.508-0.897-0.898-1.207s-0.903-0.465-1.539-0.465c-0.823,0-1.444,0.338-1.863,1.016s-0.629,1.552-0.629,2.625
			V78.595z"/>
		<path d="M29.75,74.134l0.117,1.406v0.102c0.239-0.521,0.566-0.928,0.98-1.223s0.905-0.441,1.473-0.441
			c0.12,0,0.235,0.009,0.348,0.027s0.204,0.038,0.277,0.059l-0.125,0.875l-0.695-0.047c-0.589,0-1.071,0.166-1.449,0.496
			s-0.647,0.785-0.809,1.363v5.047l1.273,0.102v0.688h-3.477V81.9l1.273-0.102v-6.867l-1.273-0.102v-0.695h1.273H29.75z"/>
		<path d="M34,78.236c0-1.245,0.341-2.266,1.023-3.063s1.586-1.195,2.711-1.195c1.13,0,2.036,0.398,2.719,1.195
			s1.023,1.818,1.023,3.063v0.258c0,1.25-0.34,2.272-1.02,3.066s-1.582,1.191-2.707,1.191c-1.136,0-2.044-0.397-2.727-1.191
			S34,79.744,34,78.494V78.236z M34.938,78.494c0,0.979,0.247,1.802,0.742,2.469s1.185,1,2.07,1c0.87,0,1.552-0.333,2.047-1
			s0.742-1.49,0.742-2.469v-0.258c0-0.963-0.249-1.781-0.746-2.453s-1.184-1.008-2.059-1.008s-1.56,0.336-2.055,1.008
			s-0.742,1.49-0.742,2.453V78.494z"/>
		<path d="M45.516,74.83l-1.063,0.086l1.367,4.93l0.32,1.508h0.047l0.398-1.508l1.805-5.711h0.797l1.805,5.711l0.406,1.547h0.047
			l0.352-1.547l1.328-4.93l-1.063-0.086v-0.695h2.844v0.695l-0.82,0.063l-2.242,7.695h-0.797l-1.883-5.781l-0.367-1.461H48.75
			l-0.367,1.461l-1.852,5.781h-0.797L43.5,74.892l-0.82-0.063v-0.695h2.836V74.83z"/>
		<path d="M66.954,82.587c-0.063-0.287-0.106-0.534-0.133-0.742s-0.039-0.419-0.039-0.633c-0.313,0.443-0.729,0.81-1.25,1.102
			s-1.106,0.438-1.758,0.438c-0.828,0-1.469-0.213-1.922-0.641s-0.68-1.005-0.68-1.734c0-0.781,0.336-1.401,1.008-1.859
			s1.583-0.688,2.734-0.688h1.867v-1.117c0-0.604-0.194-1.078-0.582-1.422s-0.931-0.516-1.629-0.516
			c-0.469,0-0.897,0.064-1.285,0.191s-0.712,0.301-0.973,0.52l-0.078,1.133h-0.773l0.008-1.625c0.391-0.302,0.858-0.547,1.402-0.734
			s1.124-0.281,1.738-0.281c0.933,0,1.683,0.237,2.25,0.711s0.852,1.154,0.852,2.039v4.156c0,0.172,0.004,0.337,0.012,0.496
			s0.024,0.314,0.051,0.465l0.844,0.055v0.688H66.954z M63.876,81.923c0.677,0,1.273-0.156,1.789-0.469s0.888-0.716,1.117-1.211
			v-1.695h-1.883c-0.849,0-1.527,0.176-2.035,0.527s-0.762,0.795-0.762,1.332c0,0.453,0.157,0.819,0.473,1.098
			S63.324,81.923,63.876,81.923z"/>
		<path d="M69.774,81.9l1.273-0.102v-6.867l-1.273-0.102v-0.695h2.102l0.086,1.477c0.271-0.521,0.637-0.923,1.098-1.207
			s1.007-0.426,1.637-0.426c0.917,0,1.614,0.28,2.094,0.84s0.719,1.434,0.719,2.621v4.359l1.273,0.102v0.688h-3.484V81.9
			l1.273-0.102v-4.352c0-0.969-0.181-1.654-0.543-2.055s-0.876-0.602-1.543-0.602c-0.656,0-1.191,0.173-1.605,0.52
			s-0.712,0.806-0.895,1.379v5.109l1.273,0.102v0.688h-3.484V81.9z"/>
		<path d="M86.048,81.369c-0.281,0.443-0.644,0.784-1.086,1.023s-0.964,0.359-1.563,0.359c-1.011,0-1.801-0.377-2.371-1.133
			s-0.855-1.763-0.855-3.023v-0.164c0-1.349,0.285-2.428,0.855-3.238s1.366-1.215,2.387-1.215c0.589,0,1.099,0.124,1.531,0.371
			s0.792,0.6,1.078,1.059v-4.211l-1.273-0.102V70.4h1.273h0.938v11.398l1.273,0.102v0.688h-2.109L86.048,81.369z M81.118,78.595
			c0,1.021,0.204,1.833,0.613,2.438s1.024,0.906,1.848,0.906c0.599,0,1.101-0.135,1.504-0.406s0.718-0.643,0.941-1.117v-4
			c-0.208-0.479-0.509-0.87-0.902-1.172s-0.902-0.453-1.527-0.453c-0.823,0-1.441,0.337-1.855,1.012s-0.621,1.551-0.621,2.629
			V78.595z"/>
		<path d="M94.627,78.431c0-1.349,0.288-2.428,0.863-3.238s1.374-1.215,2.395-1.215c0.599,0,1.118,0.131,1.559,0.395
			s0.804,0.634,1.09,1.113l0.109-1.352h0.789v8.344c0,1.088-0.294,1.948-0.883,2.578s-1.409,0.945-2.461,0.945
			c-0.406,0-0.84-0.049-1.301-0.148s-0.863-0.234-1.207-0.406l0.25-0.789c0.339,0.162,0.694,0.287,1.066,0.375
			s0.765,0.133,1.176,0.133c0.802,0,1.406-0.237,1.813-0.711s0.609-1.133,0.609-1.977v-1.07c-0.286,0.432-0.648,0.764-1.086,0.996
			s-0.95,0.348-1.539,0.348c-1.016,0-1.81-0.377-2.383-1.133s-0.859-1.763-0.859-3.023V78.431z M95.564,78.595
			c0,1.016,0.207,1.827,0.621,2.434s1.032,0.91,1.855,0.91c0.609,0,1.116-0.138,1.52-0.414s0.715-0.656,0.934-1.141v-3.922
			c-0.208-0.495-0.508-0.897-0.898-1.207s-0.903-0.465-1.539-0.465c-0.823,0-1.444,0.338-1.863,1.016s-0.629,1.552-0.629,2.625
			V78.595z"/>
		<path d="M107.283,82.751c-1.063,0-1.942-0.389-2.641-1.168s-1.047-1.77-1.047-2.973v-0.43c0-1.208,0.348-2.211,1.043-3.008
			s1.535-1.195,2.52-1.195c1.036,0,1.852,0.328,2.445,0.984s0.891,1.531,0.891,2.625v0.797h-5.969v0.227
			c0,0.948,0.254,1.744,0.762,2.387s1.173,0.965,1.996,0.965c0.578,0,1.073-0.081,1.484-0.242s0.763-0.393,1.055-0.695l0.398,0.641
			c-0.317,0.333-0.719,0.598-1.203,0.793S107.955,82.751,107.283,82.751z M107.158,74.775c-0.688,0-1.267,0.264-1.738,0.793
			s-0.746,1.191-0.824,1.988l0.016,0.039h4.953v-0.234c0-0.734-0.216-1.349-0.648-1.844S107.897,74.775,107.158,74.775z"/>
		<path d="M114.314,71.97v2.164h1.859V74.9h-1.859v5.508c0,0.552,0.101,0.944,0.301,1.176s0.468,0.348,0.801,0.348
			c0.151,0,0.298-0.006,0.441-0.02s0.309-0.035,0.496-0.066l0.141,0.695c-0.156,0.068-0.347,0.12-0.57,0.156
			s-0.448,0.055-0.672,0.055c-0.594,0-1.056-0.188-1.387-0.563s-0.496-0.969-0.496-1.781V74.9h-1.453v-0.766h1.453V71.97H114.314z"
			/>
		<path d="M128.94,76.744h-0.766l-0.109-1.195c-0.234-0.245-0.53-0.435-0.887-0.57s-0.767-0.203-1.23-0.203
			c-0.683,0-1.194,0.147-1.535,0.441s-0.512,0.639-0.512,1.035c0,0.391,0.147,0.713,0.441,0.969s0.882,0.479,1.762,0.672
			c1.005,0.224,1.758,0.53,2.258,0.918s0.75,0.916,0.75,1.582c0,0.703-0.285,1.272-0.855,1.707s-1.324,0.652-2.262,0.652
			c-0.625,0-1.194-0.087-1.707-0.262s-0.957-0.42-1.332-0.738v-1.703h0.758l0.133,1.203c0.25,0.25,0.566,0.431,0.949,0.543
			s0.782,0.168,1.199,0.168c0.677,0,1.211-0.148,1.602-0.445s0.586-0.656,0.586-1.078c0-0.396-0.163-0.742-0.488-1.039
			s-0.913-0.539-1.762-0.727c-1.005-0.219-1.751-0.509-2.238-0.871s-0.73-0.869-0.73-1.52c0-0.646,0.273-1.191,0.82-1.637
			s1.269-0.668,2.164-0.668c0.62,0,1.187,0.095,1.699,0.285s0.931,0.447,1.254,0.77L128.94,76.744z"/>
		<path d="M132.964,71.97v2.164h1.859V74.9h-1.859v5.508c0,0.552,0.101,0.944,0.301,1.176s0.468,0.348,0.801,0.348
			c0.151,0,0.298-0.006,0.441-0.02s0.309-0.035,0.496-0.066l0.141,0.695c-0.156,0.068-0.347,0.12-0.57,0.156
			s-0.448,0.055-0.672,0.055c-0.594,0-1.056-0.188-1.387-0.563s-0.496-0.969-0.496-1.781V74.9h-1.453v-0.766h1.453V71.97H132.964z"
			/>
		<path d="M138.565,74.134l0.117,1.406v0.102c0.239-0.521,0.566-0.928,0.98-1.223s0.905-0.441,1.473-0.441
			c0.12,0,0.235,0.009,0.348,0.027s0.204,0.038,0.277,0.059l-0.125,0.875l-0.695-0.047c-0.589,0-1.071,0.166-1.449,0.496
			s-0.647,0.785-0.809,1.363v5.047l1.273,0.102v0.688h-3.477V81.9l1.273-0.102v-6.867l-1.273-0.102v-0.695h1.273H138.565z"/>
		<path d="M142.815,78.236c0-1.245,0.341-2.266,1.023-3.063s1.586-1.195,2.711-1.195c1.13,0,2.036,0.398,2.719,1.195
			s1.023,1.818,1.023,3.063v0.258c0,1.25-0.34,2.272-1.02,3.066s-1.582,1.191-2.707,1.191c-1.136,0-2.044-0.397-2.727-1.191
			s-1.023-1.816-1.023-3.066V78.236z M143.753,78.494c0,0.979,0.247,1.802,0.742,2.469s1.185,1,2.07,1c0.87,0,1.552-0.333,2.047-1
			s0.742-1.49,0.742-2.469v-0.258c0-0.963-0.249-1.781-0.746-2.453s-1.184-1.008-2.059-1.008s-1.56,0.336-2.055,1.008
			s-0.742,1.49-0.742,2.453V78.494z"/>
		<path d="M151.644,81.9l1.273-0.102v-6.867l-1.273-0.102v-0.695h2.102l0.086,1.477c0.271-0.521,0.637-0.923,1.098-1.207
			s1.007-0.426,1.637-0.426c0.917,0,1.614,0.28,2.094,0.84s0.719,1.434,0.719,2.621v4.359l1.273,0.102v0.688h-3.484V81.9
			l1.273-0.102v-4.352c0-0.969-0.181-1.654-0.543-2.055s-0.876-0.602-1.543-0.602c-0.656,0-1.191,0.173-1.605,0.52
			s-0.712,0.806-0.895,1.379v5.109l1.273,0.102v0.688h-3.484V81.9z"/>
		<path d="M162.081,78.431c0-1.349,0.288-2.428,0.863-3.238s1.374-1.215,2.395-1.215c0.599,0,1.118,0.131,1.559,0.395
			s0.804,0.634,1.09,1.113l0.109-1.352h0.789v8.344c0,1.088-0.294,1.948-0.883,2.578s-1.409,0.945-2.461,0.945
			c-0.406,0-0.84-0.049-1.301-0.148s-0.863-0.234-1.207-0.406l0.25-0.789c0.339,0.162,0.694,0.287,1.066,0.375
			s0.765,0.133,1.176,0.133c0.802,0,1.406-0.237,1.813-0.711s0.609-1.133,0.609-1.977v-1.07c-0.286,0.432-0.648,0.764-1.086,0.996
			s-0.95,0.348-1.539,0.348c-1.016,0-1.81-0.377-2.383-1.133s-0.859-1.763-0.859-3.023V78.431z M163.019,78.595
			c0,1.016,0.207,1.827,0.621,2.434s1.032,0.91,1.855,0.91c0.609,0,1.116-0.138,1.52-0.414s0.715-0.656,0.934-1.141v-3.922
			c-0.208-0.495-0.508-0.897-0.898-1.207s-0.903-0.465-1.539-0.465c-0.823,0-1.444,0.338-1.863,1.016s-0.629,1.552-0.629,2.625
			V78.595z"/>
		<path d="M174.737,82.751c-1.063,0-1.942-0.389-2.641-1.168s-1.047-1.77-1.047-2.973v-0.43c0-1.208,0.348-2.211,1.043-3.008
			s1.535-1.195,2.52-1.195c1.036,0,1.852,0.328,2.445,0.984s0.891,1.531,0.891,2.625v0.797h-5.969v0.227
			c0,0.948,0.254,1.744,0.762,2.387s1.173,0.965,1.996,0.965c0.578,0,1.073-0.081,1.484-0.242s0.763-0.393,1.055-0.695l0.398,0.641
			c-0.317,0.333-0.719,0.598-1.203,0.793S175.409,82.751,174.737,82.751z M174.612,74.775c-0.688,0-1.267,0.264-1.738,0.793
			s-0.746,1.191-0.824,1.988l0.016,0.039h4.953v-0.234c0-0.734-0.216-1.349-0.648-1.844S175.352,74.775,174.612,74.775z"/>
		<path d="M181.644,74.134l0.117,1.406v0.102c0.239-0.521,0.566-0.928,0.98-1.223s0.905-0.441,1.473-0.441
			c0.12,0,0.235,0.009,0.348,0.027s0.204,0.038,0.277,0.059l-0.125,0.875l-0.695-0.047c-0.589,0-1.071,0.166-1.449,0.496
			s-0.647,0.785-0.809,1.363v5.047l1.273,0.102v0.688h-3.477V81.9l1.273-0.102v-6.867l-1.273-0.102v-0.695h1.273H181.644z"/>
		<path d="M186.448,82.212c0,0.479-0.098,0.948-0.293,1.406s-0.462,0.846-0.801,1.164l-0.555-0.406
			c0.245-0.344,0.426-0.685,0.543-1.023s0.176-0.713,0.176-1.125v-1.109h0.93V82.212z"/>
		<path d="M199.2,76.744h-0.766l-0.109-1.195c-0.234-0.245-0.53-0.435-0.887-0.57s-0.767-0.203-1.23-0.203
			c-0.683,0-1.194,0.147-1.535,0.441s-0.512,0.639-0.512,1.035c0,0.391,0.147,0.713,0.441,0.969s0.882,0.479,1.762,0.672
			c1.005,0.224,1.758,0.53,2.258,0.918s0.75,0.916,0.75,1.582c0,0.703-0.285,1.272-0.855,1.707s-1.324,0.652-2.262,0.652
			c-0.625,0-1.194-0.087-1.707-0.262s-0.957-0.42-1.332-0.738v-1.703h0.758l0.133,1.203c0.25,0.25,0.566,0.431,0.949,0.543
			s0.782,0.168,1.199,0.168c0.677,0,1.211-0.148,1.602-0.445s0.586-0.656,0.586-1.078c0-0.396-0.163-0.742-0.488-1.039
			s-0.913-0.539-1.762-0.727c-1.005-0.219-1.751-0.509-2.238-0.871s-0.73-0.869-0.73-1.52c0-0.646,0.273-1.191,0.82-1.637
			s1.269-0.668,2.164-0.668c0.62,0,1.187,0.095,1.699,0.285s0.931,0.447,1.254,0.77L199.2,76.744z"/>
		<path d="M201.075,78.236c0-1.245,0.341-2.266,1.023-3.063s1.586-1.195,2.711-1.195c1.13,0,2.036,0.398,2.719,1.195
			s1.023,1.818,1.023,3.063v0.258c0,1.25-0.34,2.272-1.02,3.066s-1.582,1.191-2.707,1.191c-1.136,0-2.044-0.397-2.727-1.191
			s-1.023-1.816-1.023-3.066V78.236z M202.013,78.494c0,0.979,0.247,1.802,0.742,2.469s1.185,1,2.07,1c0.87,0,1.552-0.333,2.047-1
			s0.742-1.49,0.742-2.469v-0.258c0-0.963-0.249-1.781-0.746-2.453s-1.184-1.008-2.059-1.008s-1.56,0.336-2.055,1.008
			s-0.742,1.49-0.742,2.453V78.494z"/>
		<path d="M214.928,81.9l1.273-0.102v-6.867l-1.273-0.102v-0.695h2.203v7.664l1.273,0.102v0.688h-3.477V81.9z M217.131,71.712h-0.93
			V70.4h0.93V71.712z"/>
		<path d="M222.123,71.97v2.164h1.859V74.9h-1.859v5.508c0,0.552,0.101,0.944,0.301,1.176s0.468,0.348,0.801,0.348
			c0.151,0,0.298-0.006,0.441-0.02s0.309-0.035,0.496-0.066l0.141,0.695c-0.156,0.068-0.347,0.12-0.57,0.156
			s-0.448,0.055-0.672,0.055c-0.594,0-1.056-0.188-1.387-0.563s-0.496-0.969-0.496-1.781V74.9h-1.453v-0.766h1.453V71.97H222.123z"
			/>
		<path d="M227.076,71.767c0,0.49-0.098,0.963-0.293,1.422s-0.462,0.844-0.801,1.156l-0.555-0.406
			c0.245-0.338,0.426-0.677,0.543-1.016s0.176-0.716,0.176-1.133V70.4h0.93V71.767z"/>
		<path d="M234.053,76.744h-0.766l-0.109-1.195c-0.234-0.245-0.53-0.435-0.887-0.57s-0.767-0.203-1.23-0.203
			c-0.683,0-1.194,0.147-1.535,0.441s-0.512,0.639-0.512,1.035c0,0.391,0.147,0.713,0.441,0.969s0.882,0.479,1.762,0.672
			c1.005,0.224,1.758,0.53,2.258,0.918s0.75,0.916,0.75,1.582c0,0.703-0.285,1.272-0.855,1.707s-1.324,0.652-2.262,0.652
			c-0.625,0-1.194-0.087-1.707-0.262s-0.957-0.42-1.332-0.738v-1.703h0.758l0.133,1.203c0.25,0.25,0.566,0.431,0.949,0.543
			s0.782,0.168,1.199,0.168c0.677,0,1.211-0.148,1.602-0.445s0.586-0.656,0.586-1.078c0-0.396-0.163-0.742-0.488-1.039
			s-0.913-0.539-1.762-0.727c-1.005-0.219-1.751-0.509-2.238-0.871s-0.73-0.869-0.73-1.52c0-0.646,0.273-1.191,0.82-1.637
			s1.269-0.668,2.164-0.668c0.62,0,1.187,0.095,1.699,0.285s0.931,0.447,1.254,0.77L234.053,76.744z"/>
		<path d="M240.78,81.9l1.273-0.102v-6.867l-1.273-0.102v-0.695h2.203v7.664l1.273,0.102v0.688h-3.477V81.9z M242.983,71.712h-0.93
			V70.4h0.93V71.712z"/>
		<path d="M245.624,74.83v-0.695h2.102l0.086,1.398c0.271-0.495,0.633-0.877,1.086-1.148s0.992-0.406,1.617-0.406
			c0.646,0,1.185,0.158,1.617,0.473s0.742,0.795,0.93,1.441c0.255-0.594,0.618-1.061,1.09-1.402s1.046-0.512,1.723-0.512
			c0.901,0,1.598,0.299,2.09,0.898s0.738,1.526,0.738,2.781v4.133l1.273,0.109v0.688h-3.492V81.9l1.273-0.109v-4.148
			c0-1.042-0.184-1.777-0.551-2.207s-0.879-0.645-1.535-0.645c-0.729,0-1.29,0.232-1.684,0.695s-0.637,1.055-0.73,1.773
			c0,0.042,0.001,0.081,0.004,0.117s0.004,0.083,0.004,0.141v4.281l1.273,0.102v0.688h-3.484V81.9l1.273-0.102v-4.156
			c0-1.021-0.187-1.751-0.559-2.191s-0.884-0.66-1.535-0.66c-0.667,0-1.194,0.168-1.582,0.504s-0.66,0.788-0.816,1.355v5.148
			l1.273,0.102v0.688h-3.484V81.9l1.273-0.102v-6.867L245.624,74.83z"/>
		<path d="M260.882,74.83v-0.695h2.055l0.117,1.313c0.286-0.469,0.652-0.831,1.098-1.086s0.968-0.383,1.566-0.383
			c1.016,0,1.81,0.405,2.383,1.215s0.859,1.889,0.859,3.238v0.164c0,1.266-0.286,2.275-0.859,3.027s-1.362,1.129-2.367,1.129
			c-0.594,0-1.113-0.113-1.559-0.34s-0.809-0.548-1.09-0.965v3.594l1.273,0.102v0.695h-3.477v-0.695l1.273-0.102V74.931
			L260.882,74.83z M268.022,78.431c0-1.073-0.214-1.948-0.641-2.625s-1.052-1.016-1.875-1.016c-0.63,0-1.142,0.15-1.535,0.449
			s-0.688,0.689-0.887,1.168v4.063c0.214,0.463,0.522,0.828,0.926,1.094s0.907,0.398,1.512,0.398c0.817,0,1.438-0.307,1.863-0.922
			s0.637-1.43,0.637-2.445V78.431z"/>
		<path d="M270.483,78.236c0-1.245,0.341-2.266,1.023-3.063s1.586-1.195,2.711-1.195c1.13,0,2.036,0.398,2.719,1.195
			s1.023,1.818,1.023,3.063v0.258c0,1.25-0.34,2.272-1.02,3.066s-1.582,1.191-2.707,1.191c-1.136,0-2.044-0.397-2.727-1.191
			s-1.023-1.816-1.023-3.066V78.236z M271.421,78.494c0,0.979,0.247,1.802,0.742,2.469s1.185,1,2.07,1c0.87,0,1.552-0.333,2.047-1
			s0.742-1.49,0.742-2.469v-0.258c0-0.963-0.249-1.781-0.746-2.453s-1.184-1.008-2.059-1.008s-1.56,0.336-2.055,1.008
			s-0.742,1.49-0.742,2.453V78.494z"/>
		<path d="M281.507,74.134l0.117,1.406v0.102c0.239-0.521,0.566-0.928,0.98-1.223s0.905-0.441,1.473-0.441
			c0.12,0,0.235,0.009,0.348,0.027s0.204,0.038,0.277,0.059l-0.125,0.875l-0.695-0.047c-0.589,0-1.071,0.166-1.449,0.496
			s-0.647,0.785-0.809,1.363v5.047l1.273,0.102v0.688h-3.477V81.9l1.273-0.102v-6.867l-1.273-0.102v-0.695h1.273H281.507z"/>
		<path d="M288.312,71.97v2.164h1.859V74.9h-1.859v5.508c0,0.552,0.101,0.944,0.301,1.176s0.468,0.348,0.801,0.348
			c0.151,0,0.298-0.006,0.441-0.02s0.309-0.035,0.496-0.066l0.141,0.695c-0.156,0.068-0.347,0.12-0.57,0.156
			s-0.448,0.055-0.672,0.055c-0.594,0-1.056-0.188-1.387-0.563s-0.496-0.969-0.496-1.781V74.9h-1.453v-0.766h1.453V71.97H288.312z"
			/>
		<path d="M297.726,82.587c-0.063-0.287-0.106-0.534-0.133-0.742s-0.039-0.419-0.039-0.633c-0.313,0.443-0.729,0.81-1.25,1.102
			s-1.106,0.438-1.758,0.438c-0.828,0-1.469-0.213-1.922-0.641s-0.68-1.005-0.68-1.734c0-0.781,0.336-1.401,1.008-1.859
			s1.583-0.688,2.734-0.688h1.867v-1.117c0-0.604-0.194-1.078-0.582-1.422s-0.931-0.516-1.629-0.516
			c-0.469,0-0.897,0.064-1.285,0.191s-0.712,0.301-0.973,0.52l-0.078,1.133h-0.773l0.008-1.625c0.391-0.302,0.858-0.547,1.402-0.734
			s1.124-0.281,1.738-0.281c0.933,0,1.683,0.237,2.25,0.711s0.852,1.154,0.852,2.039v4.156c0,0.172,0.004,0.337,0.012,0.496
			s0.024,0.314,0.051,0.465l0.844,0.055v0.688H297.726z M294.647,81.923c0.677,0,1.273-0.156,1.789-0.469s0.888-0.716,1.117-1.211
			v-1.695h-1.883c-0.849,0-1.527,0.176-2.035,0.527s-0.762,0.795-0.762,1.332c0,0.453,0.157,0.819,0.473,1.098
			S294.096,81.923,294.647,81.923z"/>
		<path d="M300.546,81.9l1.273-0.102v-6.867l-1.273-0.102v-0.695h2.102l0.086,1.477c0.271-0.521,0.637-0.923,1.098-1.207
			s1.007-0.426,1.637-0.426c0.917,0,1.614,0.28,2.094,0.84s0.719,1.434,0.719,2.621v4.359l1.273,0.102v0.688h-3.484V81.9
			l1.273-0.102v-4.352c0-0.969-0.181-1.654-0.543-2.055s-0.876-0.602-1.543-0.602c-0.656,0-1.191,0.173-1.605,0.52
			s-0.712,0.806-0.895,1.379v5.109l1.273,0.102v0.688h-3.484V81.9z"/>
		<path d="M313.171,71.97v2.164h1.859V74.9h-1.859v5.508c0,0.552,0.101,0.944,0.301,1.176s0.468,0.348,0.801,0.348
			c0.151,0,0.298-0.006,0.441-0.02s0.309-0.035,0.496-0.066l0.141,0.695c-0.156,0.068-0.347,0.12-0.57,0.156
			s-0.448,0.055-0.672,0.055c-0.594,0-1.056-0.188-1.387-0.563s-0.496-0.969-0.496-1.781V74.9h-1.453v-0.766h1.453V71.97H313.171z"
			/>
		<path d="M321.531,74.9v-0.766h1.398V72.9c0-0.849,0.214-1.505,0.641-1.969s1.023-0.695,1.789-0.695
			c0.167,0,0.339,0.013,0.516,0.039s0.356,0.063,0.539,0.109l-0.117,0.773c-0.125-0.031-0.253-0.056-0.383-0.074
			s-0.284-0.027-0.461-0.027c-0.511,0-0.902,0.162-1.176,0.484s-0.41,0.776-0.41,1.359v1.234h2.016V74.9h-2.016v6.898l1.273,0.102
			v0.688h-3.484V81.9l1.273-0.102V74.9H321.531z"/>
		<path d="M327.328,78.236c0-1.245,0.341-2.266,1.023-3.063s1.586-1.195,2.711-1.195c1.13,0,2.036,0.398,2.719,1.195
			s1.023,1.818,1.023,3.063v0.258c0,1.25-0.34,2.272-1.02,3.066s-1.582,1.191-2.707,1.191c-1.136,0-2.044-0.397-2.727-1.191
			s-1.023-1.816-1.023-3.066V78.236z M328.266,78.494c0,0.979,0.247,1.802,0.742,2.469s1.185,1,2.07,1c0.87,0,1.552-0.333,2.047-1
			s0.742-1.49,0.742-2.469v-0.258c0-0.963-0.249-1.781-0.746-2.453s-1.184-1.008-2.059-1.008s-1.56,0.336-2.055,1.008
			s-0.742,1.49-0.742,2.453V78.494z"/>
		<path d="M338.352,74.134l0.117,1.406v0.102c0.239-0.521,0.566-0.928,0.98-1.223s0.905-0.441,1.473-0.441
			c0.12,0,0.235,0.009,0.348,0.027s0.204,0.038,0.277,0.059l-0.125,0.875l-0.695-0.047c-0.589,0-1.071,0.166-1.449,0.496
			s-0.647,0.785-0.809,1.363v5.047l1.273,0.102v0.688h-3.477V81.9l1.273-0.102v-6.867l-1.273-0.102v-0.695h1.273H338.352z"/>
		<path d="M24.969,100.397c-0.266,0.495-0.629,0.877-1.09,1.148s-1.004,0.406-1.629,0.406c-0.891,0-1.587-0.302-2.09-0.906
			s-0.754-1.542-0.754-2.813v-4.102l-1.047-0.102v-0.695h1.047h0.93v4.914c0,1.031,0.176,1.771,0.527,2.219s0.851,0.672,1.496,0.672
			c0.708,0,1.272-0.156,1.691-0.469s0.715-0.745,0.887-1.297v-5.242l-1.203-0.102v-0.695h1.203h0.938v7.664l1.133,0.102v0.688
			h-1.953L24.969,100.397z"/>
		<path d="M34.516,95.944H33.75l-0.109-1.195c-0.234-0.245-0.53-0.435-0.887-0.57s-0.767-0.203-1.23-0.203
			c-0.683,0-1.194,0.147-1.535,0.441s-0.512,0.639-0.512,1.035c0,0.391,0.147,0.713,0.441,0.969s0.882,0.479,1.762,0.672
			c1.005,0.224,1.758,0.53,2.258,0.918s0.75,0.916,0.75,1.582c0,0.703-0.285,1.272-0.855,1.707s-1.324,0.652-2.262,0.652
			c-0.625,0-1.194-0.087-1.707-0.262s-0.957-0.42-1.332-0.738v-1.703h0.758l0.133,1.203c0.25,0.25,0.566,0.431,0.949,0.543
			s0.782,0.168,1.199,0.168c0.677,0,1.211-0.148,1.602-0.445s0.586-0.656,0.586-1.078c0-0.396-0.163-0.742-0.488-1.039
			s-0.913-0.539-1.762-0.727c-1.005-0.219-1.751-0.509-2.238-0.871s-0.73-0.869-0.73-1.52c0-0.646,0.273-1.191,0.82-1.637
			s1.269-0.668,2.164-0.668c0.62,0,1.187,0.095,1.699,0.285s0.931,0.447,1.254,0.77L34.516,95.944z"/>
		<path d="M42.43,91.17v2.164h1.859V94.1H42.43v5.508c0,0.552,0.101,0.944,0.301,1.176s0.468,0.348,0.801,0.348
			c0.151,0,0.298-0.006,0.441-0.02s0.309-0.035,0.496-0.066l0.141,0.695c-0.156,0.068-0.347,0.12-0.57,0.156
			s-0.448,0.055-0.672,0.055c-0.594,0-1.056-0.188-1.387-0.563s-0.496-0.969-0.496-1.781V94.1h-1.453v-0.766h1.453V91.17H42.43z"/>
		<path d="M45.852,97.436c0-1.245,0.341-2.266,1.023-3.063s1.586-1.195,2.711-1.195c1.13,0,2.036,0.398,2.719,1.195
			s1.023,1.818,1.023,3.063v0.258c0,1.25-0.34,2.272-1.02,3.066s-1.582,1.191-2.707,1.191c-1.136,0-2.044-0.397-2.727-1.191
			s-1.023-1.816-1.023-3.066V97.436z M46.789,97.694c0,0.979,0.247,1.802,0.742,2.469s1.185,1,2.07,1c0.87,0,1.552-0.333,2.047-1
			s0.742-1.49,0.742-2.469v-0.258c0-0.963-0.249-1.781-0.746-2.453s-1.184-1.008-2.059-1.008s-1.56,0.336-2.055,1.008
			s-0.742,1.49-0.742,2.453V97.694z"/>
		<path d="M60.891,91.17v2.164h1.859V94.1h-1.859v5.508c0,0.552,0.101,0.944,0.301,1.176s0.468,0.348,0.801,0.348
			c0.151,0,0.298-0.006,0.441-0.02s0.309-0.035,0.496-0.066l0.141,0.695c-0.156,0.068-0.347,0.12-0.57,0.156
			s-0.448,0.055-0.672,0.055c-0.594,0-1.056-0.188-1.387-0.563s-0.496-0.969-0.496-1.781V94.1h-1.453v-0.766h1.453V91.17H60.891z"/>
		<path d="M70.305,101.788c-0.063-0.287-0.106-0.534-0.133-0.742s-0.039-0.419-0.039-0.633c-0.313,0.443-0.729,0.81-1.25,1.102
			s-1.106,0.438-1.758,0.438c-0.828,0-1.469-0.213-1.922-0.641s-0.68-1.005-0.68-1.734c0-0.781,0.336-1.401,1.008-1.859
			s1.583-0.688,2.734-0.688h1.867v-1.117c0-0.604-0.194-1.078-0.582-1.422s-0.931-0.516-1.629-0.516
			c-0.469,0-0.897,0.064-1.285,0.191s-0.712,0.301-0.973,0.52l-0.078,1.133h-0.773l0.008-1.625c0.391-0.302,0.858-0.547,1.402-0.734
			s1.124-0.281,1.738-0.281c0.933,0,1.683,0.237,2.25,0.711s0.852,1.154,0.852,2.039v4.156c0,0.172,0.004,0.337,0.012,0.496
			s0.024,0.314,0.051,0.465l0.844,0.055v0.688H70.305z M67.227,101.124c0.677,0,1.273-0.156,1.789-0.469s0.888-0.716,1.117-1.211
			v-1.695H68.25c-0.849,0-1.527,0.176-2.035,0.527s-0.762,0.795-0.762,1.332c0,0.453,0.157,0.819,0.473,1.098
			S66.675,101.124,67.227,101.124z"/>
		<path d="M76.906,101.163c0.62,0,1.167-0.177,1.641-0.531s0.711-0.846,0.711-1.477h0.828l0.016,0.047
			c0.026,0.781-0.285,1.435-0.934,1.961s-1.402,0.789-2.262,0.789c-1.146,0-2.034-0.395-2.664-1.184s-0.945-1.803-0.945-3.043
			v-0.328c0-1.229,0.315-2.24,0.945-3.031s1.516-1.188,2.656-1.188c0.651,0,1.247,0.123,1.789,0.367s0.981,0.578,1.32,1l0.039,1.844
			H79.25l-0.148-1.5c-0.25-0.281-0.562-0.504-0.934-0.668s-0.796-0.246-1.27-0.246c-0.906,0-1.577,0.324-2.012,0.973
			s-0.652,1.465-0.652,2.449v0.328c0,1,0.216,1.823,0.648,2.469S75.989,101.163,76.906,101.163z"/>
		<path d="M81.57,90.295V89.6h2.203v7.266h0.992l2.57-2.742l-0.016-0.039l-0.773-0.055v-0.695h2.977v0.695l-0.984,0.094l-2.891,3.07
			l3.289,3.82l0.938,0.086v0.688h-2.969V101.1l0.891-0.055l-2.938-3.375h-1.086v3.328l1.273,0.102v0.688H81.57V101.1l1.273-0.102
			V90.397L81.57,90.295z"/>
		<path d="M90.984,90.295V89.6h2.203v11.398l1.273,0.102v0.688h-3.477V101.1l1.273-0.102V90.397L90.984,90.295z"/>
		<path d="M99.664,101.952c-1.063,0-1.942-0.389-2.641-1.168s-1.047-1.77-1.047-2.973v-0.43c0-1.208,0.348-2.211,1.043-3.008
			s1.535-1.195,2.52-1.195c1.036,0,1.852,0.328,2.445,0.984s0.891,1.531,0.891,2.625v0.797h-5.969v0.227
			c0,0.948,0.254,1.744,0.762,2.387s1.173,0.965,1.996,0.965c0.578,0,1.073-0.081,1.484-0.242s0.763-0.393,1.055-0.695l0.398,0.641
			c-0.317,0.333-0.719,0.598-1.203,0.793S100.336,101.952,99.664,101.952z M99.539,93.975c-0.688,0-1.267,0.264-1.738,0.793
			s-0.746,1.191-0.824,1.988l0.016,0.039h4.953v-0.234c0-0.734-0.216-1.349-0.648-1.844S100.278,93.975,99.539,93.975z"/>
		<path d="M112.047,101.163c0.62,0,1.167-0.177,1.641-0.531s0.711-0.846,0.711-1.477h0.828l0.016,0.047
			c0.026,0.781-0.285,1.435-0.934,1.961s-1.402,0.789-2.262,0.789c-1.146,0-2.034-0.395-2.664-1.184s-0.945-1.803-0.945-3.043
			v-0.328c0-1.229,0.315-2.24,0.945-3.031s1.516-1.188,2.656-1.188c0.651,0,1.247,0.123,1.789,0.367s0.981,0.578,1.32,1l0.039,1.844
			h-0.797l-0.148-1.5c-0.25-0.281-0.562-0.504-0.934-0.668s-0.796-0.246-1.27-0.246c-0.906,0-1.577,0.324-2.012,0.973
			s-0.652,1.465-0.652,2.449v0.328c0,1,0.216,1.823,0.648,2.469S111.13,101.163,112.047,101.163z"/>
		<path d="M116.711,90.295V89.6h2.203v5.18c0.281-0.505,0.656-0.898,1.125-1.18s1.016-0.422,1.641-0.422
			c0.891,0,1.574,0.276,2.051,0.828s0.715,1.409,0.715,2.57v4.422l1.273,0.102v0.688h-3.484V101.1l1.273-0.102v-4.438
			c0-0.917-0.181-1.574-0.543-1.973s-0.86-0.598-1.496-0.598c-0.641,0-1.176,0.168-1.605,0.504s-0.746,0.783-0.949,1.34v5.164
			l1.273,0.102v0.688h-3.477V101.1l1.273-0.102V90.397L116.711,90.295z"/>
		<path d="M132.961,101.788c-0.063-0.287-0.106-0.534-0.133-0.742s-0.039-0.419-0.039-0.633c-0.313,0.443-0.729,0.81-1.25,1.102
			s-1.106,0.438-1.758,0.438c-0.828,0-1.469-0.213-1.922-0.641s-0.68-1.005-0.68-1.734c0-0.781,0.336-1.401,1.008-1.859
			s1.583-0.688,2.734-0.688h1.867v-1.117c0-0.604-0.194-1.078-0.582-1.422s-0.931-0.516-1.629-0.516
			c-0.469,0-0.897,0.064-1.285,0.191s-0.712,0.301-0.973,0.52l-0.078,1.133h-0.773l0.008-1.625c0.391-0.302,0.858-0.547,1.402-0.734
			s1.124-0.281,1.738-0.281c0.933,0,1.683,0.237,2.25,0.711s0.852,1.154,0.852,2.039v4.156c0,0.172,0.004,0.337,0.012,0.496
			s0.024,0.314,0.051,0.465l0.844,0.055v0.688H132.961z M129.883,101.124c0.677,0,1.273-0.156,1.789-0.469s0.888-0.716,1.117-1.211
			v-1.695h-1.883c-0.849,0-1.527,0.176-2.035,0.527s-0.762,0.795-0.762,1.332c0,0.453,0.157,0.819,0.473,1.098
			S129.331,101.124,129.883,101.124z"/>
		<path d="M135.766,90.295V89.6h2.203v11.398l1.273,0.102v0.688h-3.477V101.1l1.273-0.102V90.397L135.766,90.295z"/>
		<path d="M140.531,90.295V89.6h2.203v11.398l1.273,0.102v0.688h-3.477V101.1l1.273-0.102V90.397L140.531,90.295z"/>
		<path d="M149.211,101.952c-1.063,0-1.942-0.389-2.641-1.168s-1.047-1.77-1.047-2.973v-0.43c0-1.208,0.348-2.211,1.043-3.008
			s1.535-1.195,2.52-1.195c1.036,0,1.852,0.328,2.445,0.984s0.891,1.531,0.891,2.625v0.797h-5.969v0.227
			c0,0.948,0.254,1.744,0.762,2.387s1.173,0.965,1.996,0.965c0.578,0,1.073-0.081,1.484-0.242s0.763-0.393,1.055-0.695l0.398,0.641
			c-0.317,0.333-0.719,0.598-1.203,0.793S149.883,101.952,149.211,101.952z M149.086,93.975c-0.688,0-1.267,0.264-1.738,0.793
			s-0.746,1.191-0.824,1.988l0.016,0.039h4.953v-0.234c0-0.734-0.216-1.349-0.648-1.844S149.825,93.975,149.086,93.975z"/>
		<path d="M153.922,101.1l1.273-0.102v-6.867l-1.273-0.102v-0.695h2.102l0.086,1.477c0.271-0.521,0.637-0.923,1.098-1.207
			s1.007-0.426,1.637-0.426c0.917,0,1.614,0.28,2.094,0.84s0.719,1.434,0.719,2.621v4.359l1.273,0.102v0.688h-3.484V101.1
			l1.273-0.102v-4.352c0-0.969-0.181-1.654-0.543-2.055s-0.876-0.602-1.543-0.602c-0.656,0-1.191,0.173-1.605,0.52
			s-0.712,0.806-0.895,1.379v5.109l1.273,0.102v0.688h-3.484V101.1z"/>
		<path d="M164.359,97.631c0-1.349,0.288-2.428,0.863-3.238s1.374-1.215,2.395-1.215c0.599,0,1.118,0.131,1.559,0.395
			s0.804,0.634,1.09,1.113l0.109-1.352h0.789v8.344c0,1.088-0.294,1.948-0.883,2.578s-1.409,0.945-2.461,0.945
			c-0.406,0-0.84-0.049-1.301-0.148s-0.863-0.234-1.207-0.406l0.25-0.789c0.339,0.162,0.694,0.287,1.066,0.375
			s0.765,0.133,1.176,0.133c0.802,0,1.406-0.237,1.813-0.711s0.609-1.133,0.609-1.977v-1.07c-0.286,0.432-0.648,0.764-1.086,0.996
			s-0.95,0.348-1.539,0.348c-1.016,0-1.81-0.377-2.383-1.133s-0.859-1.763-0.859-3.023V97.631z M165.297,97.795
			c0,1.016,0.207,1.827,0.621,2.434s1.032,0.91,1.855,0.91c0.609,0,1.116-0.138,1.52-0.414s0.715-0.656,0.934-1.141v-3.922
			c-0.208-0.495-0.508-0.897-0.898-1.207s-0.903-0.465-1.539-0.465c-0.823,0-1.444,0.338-1.863,1.016s-0.629,1.552-0.629,2.625
			V97.795z"/>
		<path d="M177.016,101.952c-1.063,0-1.942-0.389-2.641-1.168s-1.047-1.77-1.047-2.973v-0.43c0-1.208,0.348-2.211,1.043-3.008
			s1.535-1.195,2.52-1.195c1.036,0,1.852,0.328,2.445,0.984s0.891,1.531,0.891,2.625v0.797h-5.969v0.227
			c0,0.948,0.254,1.744,0.762,2.387s1.173,0.965,1.996,0.965c0.578,0,1.073-0.081,1.484-0.242s0.763-0.393,1.055-0.695l0.398,0.641
			c-0.317,0.333-0.719,0.598-1.203,0.793S177.688,101.952,177.016,101.952z M176.891,93.975c-0.688,0-1.267,0.264-1.738,0.793
			s-0.746,1.191-0.824,1.988l0.016,0.039h4.953v-0.234c0-0.734-0.216-1.349-0.648-1.844S177.63,93.975,176.891,93.975z"/>
		<path d="M188.031,95.944h-0.766l-0.109-1.195c-0.234-0.245-0.53-0.435-0.887-0.57s-0.767-0.203-1.23-0.203
			c-0.683,0-1.194,0.147-1.535,0.441s-0.512,0.639-0.512,1.035c0,0.391,0.147,0.713,0.441,0.969s0.882,0.479,1.762,0.672
			c1.005,0.224,1.758,0.53,2.258,0.918s0.75,0.916,0.75,1.582c0,0.703-0.285,1.272-0.855,1.707s-1.324,0.652-2.262,0.652
			c-0.625,0-1.194-0.087-1.707-0.262s-0.957-0.42-1.332-0.738v-1.703h0.758l0.133,1.203c0.25,0.25,0.566,0.431,0.949,0.543
			s0.782,0.168,1.199,0.168c0.677,0,1.211-0.148,1.602-0.445s0.586-0.656,0.586-1.078c0-0.396-0.163-0.742-0.488-1.039
			s-0.913-0.539-1.762-0.727c-1.005-0.219-1.751-0.509-2.238-0.871s-0.73-0.869-0.73-1.52c0-0.646,0.273-1.191,0.82-1.637
			s1.269-0.668,2.164-0.668c0.62,0,1.187,0.095,1.699,0.285s0.931,0.447,1.254,0.77L188.031,95.944z"/>
		<path d="M193.797,97.436c0-1.245,0.341-2.266,1.023-3.063s1.586-1.195,2.711-1.195c1.13,0,2.036,0.398,2.719,1.195
			s1.023,1.818,1.023,3.063v0.258c0,1.25-0.34,2.272-1.02,3.066s-1.582,1.191-2.707,1.191c-1.136,0-2.044-0.397-2.727-1.191
			s-1.023-1.816-1.023-3.066V97.436z M194.734,97.694c0,0.979,0.247,1.802,0.742,2.469s1.185,1,2.07,1c0.87,0,1.552-0.333,2.047-1
			s0.742-1.49,0.742-2.469v-0.258c0-0.963-0.249-1.781-0.746-2.453s-1.184-1.008-2.059-1.008s-1.56,0.336-2.055,1.008
			s-0.742,1.49-0.742,2.453V97.694z"/>
		<path d="M202.625,101.1l1.273-0.102v-6.867l-1.273-0.102v-0.695h2.102l0.086,1.477c0.271-0.521,0.637-0.923,1.098-1.207
			s1.007-0.426,1.637-0.426c0.917,0,1.614,0.28,2.094,0.84s0.719,1.434,0.719,2.621v4.359l1.273,0.102v0.688h-3.484V101.1
			l1.273-0.102v-4.352c0-0.969-0.181-1.654-0.543-2.055s-0.876-0.602-1.543-0.602c-0.656,0-1.191,0.173-1.605,0.52
			s-0.712,0.806-0.895,1.379v5.109l1.273,0.102v0.688h-3.484V101.1z"/>
		<path d="M216.992,97.436c0-1.245,0.341-2.266,1.023-3.063s1.586-1.195,2.711-1.195c1.13,0,2.036,0.398,2.719,1.195
			s1.023,1.818,1.023,3.063v0.258c0,1.25-0.34,2.272-1.02,3.066s-1.582,1.191-2.707,1.191c-1.136,0-2.044-0.397-2.727-1.191
			s-1.023-1.816-1.023-3.066V97.436z M217.93,97.694c0,0.979,0.247,1.802,0.742,2.469s1.185,1,2.07,1c0.87,0,1.552-0.333,2.047-1
			s0.742-1.49,0.742-2.469v-0.258c0-0.963-0.249-1.781-0.746-2.453s-1.184-1.008-2.059-1.008s-1.56,0.336-2.055,1.008
			s-0.742,1.49-0.742,2.453V97.694z"/>
		<path d="M232.203,100.397c-0.266,0.495-0.629,0.877-1.09,1.148s-1.004,0.406-1.629,0.406c-0.891,0-1.587-0.302-2.09-0.906
			s-0.754-1.542-0.754-2.813v-4.102l-1.047-0.102v-0.695h1.047h0.93v4.914c0,1.031,0.176,1.771,0.527,2.219s0.851,0.672,1.496,0.672
			c0.708,0,1.272-0.156,1.691-0.469s0.715-0.745,0.887-1.297v-5.242l-1.203-0.102v-0.695h1.203h0.938v7.664l1.133,0.102v0.688
			h-1.953L232.203,100.397z"/>
		<path d="M237.641,93.334l0.117,1.406v0.102c0.239-0.521,0.566-0.928,0.98-1.223s0.905-0.441,1.473-0.441
			c0.12,0,0.235,0.009,0.348,0.027s0.204,0.038,0.277,0.059l-0.125,0.875l-0.695-0.047c-0.589,0-1.071,0.166-1.449,0.496
			s-0.647,0.785-0.809,1.363v5.047l1.273,0.102v0.688h-3.477V101.1l1.273-0.102v-6.867l-1.273-0.102v-0.695h1.273H237.641z"/>
		<path d="M245.938,97.436c0-1.245,0.341-2.266,1.023-3.063s1.586-1.195,2.711-1.195c1.13,0,2.036,0.398,2.719,1.195
			s1.023,1.818,1.023,3.063v0.258c0,1.25-0.34,2.272-1.02,3.066s-1.582,1.191-2.707,1.191c-1.136,0-2.044-0.397-2.727-1.191
			s-1.023-1.816-1.023-3.066V97.436z M246.875,97.694c0,0.979,0.247,1.802,0.742,2.469s1.185,1,2.07,1c0.87,0,1.552-0.333,2.047-1
			s0.742-1.49,0.742-2.469v-0.258c0-0.963-0.249-1.781-0.746-2.453s-1.184-1.008-2.059-1.008s-1.56,0.336-2.055,1.008
			s-0.742,1.49-0.742,2.453V97.694z"/>
		<path d="M257.453,94.03l-1.063,0.086l1.367,4.93l0.32,1.508h0.047l0.398-1.508l1.805-5.711h0.797l1.805,5.711l0.406,1.547h0.047
			l0.352-1.547l1.328-4.93L264,94.03v-0.695h2.844v0.695l-0.82,0.063l-2.242,7.695h-0.797l-1.883-5.781l-0.367-1.461h-0.047
			l-0.367,1.461l-1.852,5.781h-0.797l-2.234-7.695l-0.82-0.063v-0.695h2.836V94.03z"/>
		<path d="M267.969,101.1l1.273-0.102v-6.867l-1.273-0.102v-0.695h2.102l0.086,1.477c0.271-0.521,0.637-0.923,1.098-1.207
			s1.007-0.426,1.637-0.426c0.917,0,1.614,0.28,2.094,0.84s0.719,1.434,0.719,2.621v4.359l1.273,0.102v0.688h-3.484V101.1
			l1.273-0.102v-4.352c0-0.969-0.181-1.654-0.543-2.055s-0.876-0.602-1.543-0.602c-0.656,0-1.191,0.173-1.605,0.52
			s-0.712,0.806-0.895,1.379v5.109l1.273,0.102v0.688h-3.484V101.1z"/>
		<path d="M279.805,101.413c0,0.479-0.098,0.948-0.293,1.406s-0.462,0.846-0.801,1.164l-0.555-0.406
			c0.245-0.344,0.426-0.685,0.543-1.023s0.176-0.713,0.176-1.125v-1.109h0.93V101.413z"/>
		<path d="M291.234,101.788c-0.063-0.287-0.106-0.534-0.133-0.742s-0.039-0.419-0.039-0.633c-0.313,0.443-0.729,0.81-1.25,1.102
			s-1.106,0.438-1.758,0.438c-0.828,0-1.469-0.213-1.922-0.641s-0.68-1.005-0.68-1.734c0-0.781,0.336-1.401,1.008-1.859
			s1.583-0.688,2.734-0.688h1.867v-1.117c0-0.604-0.194-1.078-0.582-1.422s-0.931-0.516-1.629-0.516
			c-0.469,0-0.897,0.064-1.285,0.191s-0.712,0.301-0.973,0.52l-0.078,1.133h-0.773l0.008-1.625c0.391-0.302,0.858-0.547,1.402-0.734
			s1.124-0.281,1.738-0.281c0.933,0,1.683,0.237,2.25,0.711s0.852,1.154,0.852,2.039v4.156c0,0.172,0.004,0.337,0.012,0.496
			s0.024,0.314,0.051,0.465l0.844,0.055v0.688H291.234z M288.156,101.124c0.677,0,1.273-0.156,1.789-0.469s0.888-0.716,1.117-1.211
			v-1.695h-1.883c-0.849,0-1.527,0.176-2.035,0.527s-0.762,0.795-0.762,1.332c0,0.453,0.157,0.819,0.473,1.098
			S287.604,101.124,288.156,101.124z"/>
		<path d="M294.055,101.1l1.273-0.102v-6.867l-1.273-0.102v-0.695h2.102l0.086,1.477c0.271-0.521,0.637-0.923,1.098-1.207
			s1.007-0.426,1.637-0.426c0.917,0,1.614,0.28,2.094,0.84s0.719,1.434,0.719,2.621v4.359l1.273,0.102v0.688h-3.484V101.1
			l1.273-0.102v-4.352c0-0.969-0.181-1.654-0.543-2.055s-0.876-0.602-1.543-0.602c-0.656,0-1.191,0.173-1.605,0.52
			s-0.712,0.806-0.895,1.379v5.109l1.273,0.102v0.688h-3.484V101.1z"/>
		<path d="M310.328,100.569c-0.281,0.443-0.644,0.784-1.086,1.023s-0.964,0.359-1.563,0.359c-1.011,0-1.801-0.377-2.371-1.133
			s-0.855-1.763-0.855-3.023v-0.164c0-1.349,0.285-2.428,0.855-3.238s1.366-1.215,2.387-1.215c0.589,0,1.099,0.124,1.531,0.371
			s0.792,0.6,1.078,1.059v-4.211l-1.273-0.102V89.6h1.273h0.938v11.398l1.273,0.102v0.688h-2.109L310.328,100.569z M305.398,97.795
			c0,1.021,0.204,1.833,0.613,2.438s1.024,0.906,1.848,0.906c0.599,0,1.101-0.135,1.504-0.406s0.718-0.643,0.941-1.117v-4
			c-0.208-0.479-0.509-0.87-0.902-1.172s-0.902-0.453-1.527-0.453c-0.823,0-1.441,0.337-1.855,1.012s-0.621,1.551-0.621,2.629
			V97.795z"/>
		<path d="M317.672,101.1l1.273-0.102v-6.867l-1.273-0.102v-0.695h2.102l0.086,1.477c0.271-0.521,0.637-0.923,1.098-1.207
			s1.007-0.426,1.637-0.426c0.917,0,1.614,0.28,2.094,0.84s0.719,1.434,0.719,2.621v4.359l1.273,0.102v0.688h-3.484V101.1
			l1.273-0.102v-4.352c0-0.969-0.181-1.654-0.543-2.055s-0.876-0.602-1.543-0.602c-0.656,0-1.191,0.173-1.605,0.52
			s-0.712,0.806-0.895,1.379v5.109l1.273,0.102v0.688h-3.484V101.1z"/>
		<path d="M328.07,97.436c0-1.245,0.341-2.266,1.023-3.063s1.586-1.195,2.711-1.195c1.13,0,2.036,0.398,2.719,1.195
			s1.023,1.818,1.023,3.063v0.258c0,1.25-0.34,2.272-1.02,3.066s-1.582,1.191-2.707,1.191c-1.136,0-2.044-0.397-2.727-1.191
			s-1.023-1.816-1.023-3.066V97.436z M329.008,97.694c0,0.979,0.247,1.802,0.742,2.469s1.185,1,2.07,1c0.87,0,1.552-0.333,2.047-1
			s0.742-1.49,0.742-2.469v-0.258c0-0.963-0.249-1.781-0.746-2.453s-1.184-1.008-2.059-1.008s-1.56,0.336-2.055,1.008
			s-0.742,1.49-0.742,2.453V97.694z"/>
		<path d="M339.219,91.17v2.164h1.859V94.1h-1.859v5.508c0,0.552,0.101,0.944,0.301,1.176s0.468,0.348,0.801,0.348
			c0.151,0,0.298-0.006,0.441-0.02s0.309-0.035,0.496-0.066l0.141,0.695c-0.156,0.068-0.347,0.12-0.57,0.156
			s-0.448,0.055-0.672,0.055c-0.594,0-1.056-0.188-1.387-0.563s-0.496-0.969-0.496-1.781V94.1h-1.453v-0.766h1.453V91.17H339.219z"
			/>
		<path d="M20.781,112.534l0.117,1.406v0.102c0.239-0.521,0.566-0.928,0.98-1.223c0.414-0.294,0.905-0.441,1.473-0.441
			c0.12,0,0.235,0.009,0.348,0.027c0.112,0.019,0.204,0.038,0.277,0.059l-0.125,0.875l-0.695-0.047
			c-0.589,0-1.071,0.166-1.449,0.496c-0.378,0.331-0.647,0.785-0.809,1.363v5.047l1.273,0.102v0.688h-3.477V120.3l1.273-0.102
			v-6.867l-1.273-0.102v-0.695h1.273H20.781z"/>
		<path d="M28.766,121.151c-1.063,0-1.942-0.389-2.641-1.168c-0.698-0.778-1.047-1.77-1.047-2.973v-0.43
			c0-1.208,0.348-2.211,1.043-3.008s1.535-1.195,2.52-1.195c1.036,0,1.852,0.328,2.445,0.984s0.891,1.531,0.891,2.625v0.797h-5.969
			v0.227c0,0.948,0.254,1.744,0.762,2.387c0.508,0.644,1.173,0.965,1.996,0.965c0.578,0,1.073-0.081,1.484-0.242
			c0.411-0.161,0.763-0.393,1.055-0.695l0.398,0.641c-0.317,0.333-0.719,0.598-1.203,0.793S29.438,121.151,28.766,121.151z
			 M28.641,113.175c-0.688,0-1.267,0.265-1.738,0.793c-0.472,0.529-0.746,1.191-0.824,1.988l0.016,0.039h4.953v-0.234
			c0-0.734-0.216-1.349-0.648-1.844C29.966,113.422,29.38,113.175,28.641,113.175z"/>
		<path d="M33.461,109.495V108.8h2.203v11.398l1.273,0.102v0.688h-3.477V120.3l1.273-0.102v-10.602L33.461,109.495z"/>
		<path d="M46.523,113.229l-0.859,0.07l-3.414,9.039c-0.219,0.573-0.503,1.06-0.852,1.461c-0.349,0.401-0.859,0.602-1.531,0.602
			c-0.109,0-0.242-0.012-0.398-0.035s-0.271-0.048-0.344-0.074l0.109-0.781c0.063,0.01,0.163,0.022,0.301,0.035
			c0.138,0.013,0.235,0.02,0.293,0.02c0.411,0,0.737-0.144,0.977-0.43c0.239-0.287,0.45-0.659,0.633-1.117l0.438-1.133l-3-7.586
			l-0.859-0.07v-0.695h2.906v0.695l-1.008,0.078l2.063,5.391l0.297,1.016h0.047l2.313-6.406l-1.031-0.078v-0.695h2.922V113.229z"/>
		<path d="M51.477,116.636c0-1.245,0.341-2.266,1.023-3.063s1.586-1.195,2.711-1.195c1.13,0,2.036,0.398,2.719,1.195
			s1.023,1.818,1.023,3.063v0.258c0,1.25-0.34,2.272-1.02,3.066c-0.68,0.794-1.582,1.191-2.707,1.191
			c-1.136,0-2.044-0.397-2.727-1.191c-0.683-0.794-1.023-1.816-1.023-3.066V116.636z M52.414,116.894
			c0,0.979,0.247,1.802,0.742,2.469c0.495,0.667,1.185,1,2.07,1c0.87,0,1.552-0.333,2.047-1c0.495-0.667,0.742-1.489,0.742-2.469
			v-0.258c0-0.963-0.249-1.781-0.746-2.453s-1.184-1.008-2.059-1.008s-1.56,0.336-2.055,1.008s-0.742,1.49-0.742,2.453V116.894z"/>
		<path d="M60.305,120.3l1.273-0.102v-6.867l-1.273-0.102v-0.695h2.102l0.086,1.477c0.271-0.521,0.637-0.923,1.098-1.207
			c0.461-0.284,1.007-0.426,1.637-0.426c0.917,0,1.614,0.28,2.094,0.84c0.479,0.56,0.719,1.434,0.719,2.621v4.359l1.273,0.102v0.688
			h-3.484V120.3l1.273-0.102v-4.352c0-0.969-0.181-1.653-0.543-2.055c-0.362-0.401-0.876-0.602-1.543-0.602
			c-0.656,0-1.191,0.173-1.605,0.52c-0.414,0.347-0.712,0.806-0.895,1.379v5.109l1.273,0.102v0.688h-3.484V120.3z"/>
		<path d="M74.398,109.495V108.8h2.203v5.18c0.281-0.505,0.656-0.898,1.125-1.18s1.016-0.422,1.641-0.422
			c0.891,0,1.574,0.276,2.051,0.828c0.477,0.552,0.715,1.409,0.715,2.57v4.422l1.273,0.102v0.688h-3.484V120.3l1.273-0.102v-4.438
			c0-0.917-0.181-1.574-0.543-1.973s-0.86-0.598-1.496-0.598c-0.641,0-1.176,0.168-1.605,0.504s-0.746,0.783-0.949,1.34v5.164
			l1.273,0.102v0.688h-3.477V120.3l1.273-0.102v-10.602L74.398,109.495z"/>
		<path d="M88.461,121.151c-1.063,0-1.942-0.389-2.641-1.168c-0.698-0.778-1.047-1.77-1.047-2.973v-0.43
			c0-1.208,0.348-2.211,1.043-3.008s1.535-1.195,2.52-1.195c1.036,0,1.852,0.328,2.445,0.984s0.891,1.531,0.891,2.625v0.797h-5.969
			v0.227c0,0.948,0.254,1.744,0.762,2.387c0.508,0.644,1.173,0.965,1.996,0.965c0.578,0,1.073-0.081,1.484-0.242
			c0.411-0.161,0.763-0.393,1.055-0.695l0.398,0.641c-0.317,0.333-0.719,0.598-1.203,0.793S89.133,121.151,88.461,121.151z
			 M88.336,113.175c-0.688,0-1.267,0.265-1.738,0.793c-0.472,0.529-0.746,1.191-0.824,1.988l0.016,0.039h4.953v-0.234
			c0-0.734-0.216-1.349-0.648-1.844C89.661,113.422,89.075,113.175,88.336,113.175z"/>
		<path d="M93.156,109.495V108.8h2.203v11.398l1.273,0.102v0.688h-3.477V120.3l1.273-0.102v-10.602L93.156,109.495z"/>
		<path d="M97.859,113.229v-0.695h2.055l0.117,1.313c0.286-0.469,0.652-0.831,1.098-1.086c0.445-0.255,0.968-0.383,1.566-0.383
			c1.016,0,1.81,0.405,2.383,1.215c0.573,0.81,0.859,1.89,0.859,3.238v0.164c0,1.266-0.286,2.275-0.859,3.027
			c-0.573,0.753-1.362,1.129-2.367,1.129c-0.594,0-1.113-0.113-1.559-0.34s-0.809-0.548-1.09-0.965v3.594l1.273,0.102v0.695h-3.477
			v-0.695l1.273-0.102v-10.109L97.859,113.229z M105,116.831c0-1.073-0.214-1.948-0.641-2.625c-0.427-0.677-1.052-1.016-1.875-1.016
			c-0.63,0-1.142,0.15-1.535,0.449c-0.394,0.3-0.688,0.689-0.887,1.168v4.063c0.214,0.464,0.522,0.828,0.926,1.094
			s0.907,0.398,1.512,0.398c0.817,0,1.438-0.307,1.863-0.922c0.425-0.614,0.637-1.43,0.637-2.445V116.831z"/>
		<path d="M111.219,113.3v-0.766h1.398V111.3c0-0.849,0.214-1.505,0.641-1.969c0.427-0.463,1.023-0.695,1.789-0.695
			c0.167,0,0.339,0.013,0.516,0.039c0.177,0.026,0.356,0.063,0.539,0.109l-0.117,0.773c-0.125-0.031-0.253-0.056-0.383-0.074
			c-0.13-0.018-0.284-0.027-0.461-0.027c-0.511,0-0.902,0.162-1.176,0.484c-0.273,0.323-0.41,0.776-0.41,1.359v1.234h2.016v0.766
			h-2.016v6.898l1.273,0.102v0.688h-3.484V120.3l1.273-0.102V113.3H111.219z"/>
		<path d="M119.039,112.534l0.117,1.406v0.102c0.239-0.521,0.566-0.928,0.98-1.223c0.414-0.294,0.905-0.441,1.473-0.441
			c0.12,0,0.235,0.009,0.348,0.027c0.112,0.019,0.204,0.038,0.277,0.059l-0.125,0.875l-0.695-0.047
			c-0.589,0-1.071,0.166-1.449,0.496c-0.378,0.331-0.647,0.785-0.809,1.363v5.047l1.273,0.102v0.688h-3.477V120.3l1.273-0.102
			v-6.867l-1.273-0.102v-0.695h1.273H119.039z"/>
		<path d="M123.289,116.636c0-1.245,0.341-2.266,1.023-3.063s1.586-1.195,2.711-1.195c1.13,0,2.036,0.398,2.719,1.195
			s1.023,1.818,1.023,3.063v0.258c0,1.25-0.34,2.272-1.02,3.066c-0.68,0.794-1.582,1.191-2.707,1.191
			c-1.136,0-2.044-0.397-2.727-1.191c-0.683-0.794-1.023-1.816-1.023-3.066V116.636z M124.227,116.894
			c0,0.979,0.247,1.802,0.742,2.469c0.495,0.667,1.185,1,2.07,1c0.87,0,1.552-0.333,2.047-1c0.495-0.667,0.742-1.489,0.742-2.469
			v-0.258c0-0.963-0.249-1.781-0.746-2.453s-1.184-1.008-2.059-1.008s-1.56,0.336-2.055,1.008s-0.742,1.49-0.742,2.453V116.894z"/>
		<path d="M132.086,113.229v-0.695h2.102l0.086,1.398c0.271-0.495,0.633-0.877,1.086-1.148c0.453-0.271,0.992-0.406,1.617-0.406
			c0.646,0,1.185,0.158,1.617,0.473c0.433,0.315,0.742,0.796,0.93,1.441c0.255-0.594,0.618-1.061,1.09-1.402
			c0.472-0.341,1.046-0.512,1.723-0.512c0.901,0,1.598,0.3,2.09,0.898c0.492,0.599,0.738,1.526,0.738,2.781v4.133l1.273,0.109v0.688
			h-3.492V120.3l1.273-0.109v-4.148c0-1.042-0.184-1.777-0.551-2.207s-0.879-0.645-1.535-0.645c-0.729,0-1.29,0.232-1.684,0.695
			c-0.394,0.464-0.637,1.055-0.73,1.773c0,0.042,0.001,0.081,0.004,0.117c0.003,0.037,0.004,0.083,0.004,0.141v4.281L141,120.3
			v0.688h-3.484V120.3l1.273-0.102v-4.156c0-1.021-0.187-1.751-0.559-2.191c-0.372-0.44-0.884-0.66-1.535-0.66
			c-0.667,0-1.194,0.168-1.582,0.504s-0.66,0.788-0.816,1.355v5.148l1.273,0.102v0.688h-3.484V120.3l1.273-0.102v-6.867
			L132.086,113.229z"/>
		<path d="M151.484,116.636c0-1.245,0.341-2.266,1.023-3.063s1.586-1.195,2.711-1.195c1.13,0,2.036,0.398,2.719,1.195
			s1.023,1.818,1.023,3.063v0.258c0,1.25-0.34,2.272-1.02,3.066c-0.68,0.794-1.582,1.191-2.707,1.191
			c-1.136,0-2.044-0.397-2.727-1.191c-0.683-0.794-1.023-1.816-1.023-3.066V116.636z M152.422,116.894
			c0,0.979,0.247,1.802,0.742,2.469c0.495,0.667,1.185,1,2.07,1c0.87,0,1.552-0.333,2.047-1c0.495-0.667,0.742-1.489,0.742-2.469
			v-0.258c0-0.963-0.249-1.781-0.746-2.453s-1.184-1.008-2.059-1.008s-1.56,0.336-2.055,1.008s-0.742,1.49-0.742,2.453V116.894z"/>
		<path d="M162.633,110.37v2.164h1.859v0.766h-1.859v5.508c0,0.552,0.101,0.944,0.301,1.176c0.2,0.232,0.468,0.348,0.801,0.348
			c0.151,0,0.298-0.006,0.441-0.02c0.144-0.013,0.309-0.035,0.496-0.066l0.141,0.695c-0.156,0.067-0.347,0.12-0.57,0.156
			c-0.224,0.036-0.448,0.055-0.672,0.055c-0.594,0-1.056-0.188-1.387-0.563s-0.496-0.969-0.496-1.781V113.3h-1.453v-0.766h1.453
			v-2.164H162.633z"/>
		<path d="M165.938,109.495V108.8h2.203v5.18c0.281-0.505,0.656-0.898,1.125-1.18s1.016-0.422,1.641-0.422
			c0.891,0,1.574,0.276,2.051,0.828c0.477,0.552,0.715,1.409,0.715,2.57v4.422l1.273,0.102v0.688h-3.484V120.3l1.273-0.102v-4.438
			c0-0.917-0.181-1.574-0.543-1.973s-0.86-0.598-1.496-0.598c-0.641,0-1.176,0.168-1.605,0.504s-0.746,0.783-0.949,1.34v5.164
			l1.273,0.102v0.688h-3.477V120.3l1.273-0.102v-10.602L165.938,109.495z"/>
		<path d="M180,121.151c-1.063,0-1.942-0.389-2.641-1.168c-0.698-0.778-1.047-1.77-1.047-2.973v-0.43
			c0-1.208,0.348-2.211,1.043-3.008s1.535-1.195,2.52-1.195c1.036,0,1.852,0.328,2.445,0.984s0.891,1.531,0.891,2.625v0.797h-5.969
			v0.227c0,0.948,0.254,1.744,0.762,2.387c0.508,0.644,1.173,0.965,1.996,0.965c0.578,0,1.073-0.081,1.484-0.242
			c0.411-0.161,0.763-0.393,1.055-0.695l0.398,0.641c-0.317,0.333-0.719,0.598-1.203,0.793S180.672,121.151,180,121.151z
			 M179.875,113.175c-0.688,0-1.267,0.265-1.738,0.793c-0.472,0.529-0.746,1.191-0.824,1.988l0.016,0.039h4.953v-0.234
			c0-0.734-0.216-1.349-0.648-1.844C181.2,113.422,180.614,113.175,179.875,113.175z"/>
		<path d="M186.906,112.534l0.117,1.406v0.102c0.239-0.521,0.566-0.928,0.98-1.223c0.414-0.294,0.905-0.441,1.473-0.441
			c0.12,0,0.235,0.009,0.348,0.027c0.112,0.019,0.204,0.038,0.277,0.059l-0.125,0.875l-0.695-0.047
			c-0.589,0-1.071,0.166-1.449,0.496c-0.378,0.331-0.647,0.785-0.809,1.363v5.047l1.273,0.102v0.688h-3.477V120.3l1.273-0.102
			v-6.867l-1.273-0.102v-0.695h1.273H186.906z"/>
		<path d="M197.445,115.144h-0.766l-0.109-1.195c-0.234-0.245-0.53-0.435-0.887-0.57c-0.356-0.135-0.767-0.203-1.23-0.203
			c-0.683,0-1.194,0.147-1.535,0.441c-0.341,0.294-0.512,0.64-0.512,1.035c0,0.391,0.147,0.714,0.441,0.969
			c0.294,0.255,0.882,0.479,1.762,0.672c1.005,0.224,1.758,0.53,2.258,0.918c0.5,0.388,0.75,0.916,0.75,1.582
			c0,0.703-0.285,1.272-0.855,1.707c-0.57,0.435-1.324,0.652-2.262,0.652c-0.625,0-1.194-0.087-1.707-0.262s-0.957-0.42-1.332-0.738
			v-1.703h0.758l0.133,1.203c0.25,0.25,0.566,0.431,0.949,0.543c0.383,0.112,0.782,0.168,1.199,0.168
			c0.677,0,1.211-0.148,1.602-0.445s0.586-0.656,0.586-1.078c0-0.396-0.163-0.742-0.488-1.039s-0.913-0.539-1.762-0.727
			c-1.005-0.219-1.751-0.509-2.238-0.871c-0.487-0.362-0.73-0.868-0.73-1.52c0-0.646,0.273-1.191,0.82-1.637
			s1.269-0.668,2.164-0.668c0.62,0,1.187,0.095,1.699,0.285c0.513,0.19,0.931,0.447,1.254,0.77L197.445,115.144z"/>
		<path d="M209.047,120.987c-0.063-0.286-0.106-0.534-0.133-0.742c-0.026-0.208-0.039-0.419-0.039-0.633
			c-0.313,0.443-0.729,0.81-1.25,1.102s-1.106,0.438-1.758,0.438c-0.828,0-1.469-0.213-1.922-0.641
			c-0.453-0.427-0.68-1.005-0.68-1.734c0-0.781,0.336-1.401,1.008-1.859c0.672-0.458,1.583-0.688,2.734-0.688h1.867v-1.117
			c0-0.604-0.194-1.078-0.582-1.422s-0.931-0.516-1.629-0.516c-0.469,0-0.897,0.064-1.285,0.191
			c-0.388,0.128-0.712,0.301-0.973,0.52l-0.078,1.133h-0.773l0.008-1.625c0.391-0.302,0.858-0.547,1.402-0.734
			s1.124-0.281,1.738-0.281c0.933,0,1.683,0.237,2.25,0.711c0.567,0.474,0.852,1.154,0.852,2.039v4.156
			c0,0.172,0.004,0.337,0.012,0.496c0.008,0.159,0.024,0.314,0.051,0.465l0.844,0.055v0.688H209.047z M205.969,120.323
			c0.677,0,1.273-0.156,1.789-0.469s0.888-0.716,1.117-1.211v-1.695h-1.883c-0.849,0-1.527,0.176-2.035,0.527
			s-0.762,0.796-0.762,1.332c0,0.453,0.157,0.819,0.473,1.098C204.983,120.184,205.417,120.323,205.969,120.323z"/>
		<path d="M211.852,109.495V108.8h2.203v11.398l1.273,0.102v0.688h-3.477V120.3l1.273-0.102v-10.602L211.852,109.495z"/>
		<path d="M216.617,109.495V108.8h2.203v11.398l1.273,0.102v0.688h-3.477V120.3l1.273-0.102v-10.602L216.617,109.495z"/>
		<path d="M227.609,110.37v2.164h1.859v0.766h-1.859v5.508c0,0.552,0.101,0.944,0.301,1.176c0.2,0.232,0.468,0.348,0.801,0.348
			c0.151,0,0.298-0.006,0.441-0.02c0.144-0.013,0.309-0.035,0.496-0.066l0.141,0.695c-0.156,0.067-0.347,0.12-0.57,0.156
			c-0.224,0.036-0.448,0.055-0.672,0.055c-0.594,0-1.056-0.188-1.387-0.563s-0.496-0.969-0.496-1.781V113.3h-1.453v-0.766h1.453
			v-2.164H227.609z"/>
		<path d="M230.914,109.495V108.8h2.203v5.18c0.281-0.505,0.656-0.898,1.125-1.18s1.016-0.422,1.641-0.422
			c0.891,0,1.574,0.276,2.051,0.828c0.477,0.552,0.715,1.409,0.715,2.57v4.422l1.273,0.102v0.688h-3.484V120.3l1.273-0.102v-4.438
			c0-0.917-0.181-1.574-0.543-1.973s-0.86-0.598-1.496-0.598c-0.641,0-1.176,0.168-1.605,0.504s-0.746,0.783-0.949,1.34v5.164
			l1.273,0.102v0.688h-3.477V120.3l1.273-0.102v-10.602L230.914,109.495z"/>
		<path d="M244.977,121.151c-1.063,0-1.942-0.389-2.641-1.168c-0.698-0.778-1.047-1.77-1.047-2.973v-0.43
			c0-1.208,0.348-2.211,1.043-3.008s1.535-1.195,2.52-1.195c1.036,0,1.852,0.328,2.445,0.984s0.891,1.531,0.891,2.625v0.797h-5.969
			v0.227c0,0.948,0.254,1.744,0.762,2.387c0.508,0.644,1.173,0.965,1.996,0.965c0.578,0,1.073-0.081,1.484-0.242
			c0.411-0.161,0.763-0.393,1.055-0.695l0.398,0.641c-0.317,0.333-0.719,0.598-1.203,0.793S245.648,121.151,244.977,121.151z
			 M244.852,113.175c-0.688,0-1.267,0.265-1.738,0.793c-0.472,0.529-0.746,1.191-0.824,1.988l0.016,0.039h4.953v-0.234
			c0-0.734-0.216-1.349-0.648-1.844C246.177,113.422,245.591,113.175,244.852,113.175z"/>
		<path d="M255.898,110.37v2.164h1.859v0.766h-1.859v5.508c0,0.552,0.101,0.944,0.301,1.176c0.2,0.232,0.468,0.348,0.801,0.348
			c0.151,0,0.298-0.006,0.441-0.02c0.144-0.013,0.309-0.035,0.496-0.066l0.141,0.695c-0.156,0.067-0.347,0.12-0.57,0.156
			c-0.224,0.036-0.448,0.055-0.672,0.055c-0.594,0-1.056-0.188-1.387-0.563s-0.496-0.969-0.496-1.781V113.3H253.5v-0.766h1.453
			v-2.164H255.898z"/>
		<path d="M259.414,120.3l1.273-0.102v-6.867l-1.273-0.102v-0.695h2.203v7.664l1.273,0.102v0.688h-3.477V120.3z M261.617,110.112
			h-0.93V108.8h0.93V110.112z"/>
		<path d="M264.258,113.229v-0.695h2.102l0.086,1.398c0.271-0.495,0.633-0.877,1.086-1.148c0.453-0.271,0.992-0.406,1.617-0.406
			c0.646,0,1.185,0.158,1.617,0.473c0.433,0.315,0.742,0.796,0.93,1.441c0.255-0.594,0.618-1.061,1.09-1.402
			c0.472-0.341,1.046-0.512,1.723-0.512c0.901,0,1.598,0.3,2.09,0.898c0.492,0.599,0.738,1.526,0.738,2.781v4.133l1.273,0.109v0.688
			h-3.492V120.3l1.273-0.109v-4.148c0-1.042-0.184-1.777-0.551-2.207s-0.879-0.645-1.535-0.645c-0.729,0-1.29,0.232-1.684,0.695
			c-0.394,0.464-0.637,1.055-0.73,1.773c0,0.042,0.001,0.081,0.004,0.117c0.003,0.037,0.004,0.083,0.004,0.141v4.281l1.273,0.102
			v0.688h-3.484V120.3l1.273-0.102v-4.156c0-1.021-0.187-1.751-0.559-2.191c-0.372-0.44-0.884-0.66-1.535-0.66
			c-0.667,0-1.194,0.168-1.582,0.504s-0.66,0.788-0.816,1.355v5.148l1.273,0.102v0.688h-3.484V120.3l1.273-0.102v-6.867
			L264.258,113.229z"/>
		<path d="M283.414,121.151c-1.063,0-1.942-0.389-2.641-1.168c-0.698-0.778-1.047-1.77-1.047-2.973v-0.43
			c0-1.208,0.348-2.211,1.043-3.008s1.535-1.195,2.52-1.195c1.036,0,1.852,0.328,2.445,0.984s0.891,1.531,0.891,2.625v0.797h-5.969
			v0.227c0,0.948,0.254,1.744,0.762,2.387c0.508,0.644,1.173,0.965,1.996,0.965c0.578,0,1.073-0.081,1.484-0.242
			c0.411-0.161,0.763-0.393,1.055-0.695l0.398,0.641c-0.317,0.333-0.719,0.598-1.203,0.793S284.086,121.151,283.414,121.151z
			 M283.289,113.175c-0.688,0-1.267,0.265-1.738,0.793c-0.472,0.529-0.746,1.191-0.824,1.988l0.016,0.039h4.953v-0.234
			c0-0.734-0.216-1.349-0.648-1.844C284.614,113.422,284.028,113.175,283.289,113.175z"/>
		<path d="M289.742,120.987h-1.07v-1.281h1.07V120.987z"/>
	</g>
</g>
</svg>
