<?xml version="1.0" encoding="utf-8"?>
<!-- Generator: Adobe Illustrator 16.0.0, SVG Export Plug-In . SVG Version: 6.00 Build 0)  -->
<!DOCTYPE svg PUBLIC "-//W3C//DTD SVG 1.1//EN" "http://www.w3.org/Graphics/SVG/1.1/DTD/svg11.dtd">
<svg version="1.1" xmlns="http://www.w3.org/2000/svg" xmlns:xlink="http://www.w3.org/1999/xlink" x="0px" y="0px" width="360px"
	 height="640px" viewBox="0 0 360 640" enable-background="new 0 0 360 640" xml:space="preserve">
<g id="Layer_2" display="none">
	<rect x="17.5" y="32.5" display="inline" fill="#FFFFFF" stroke="#000000" stroke-miterlimit="10" width="324" height="576"/>
</g>
<g id="Layer_1">
	<g>
		<path d="M148.883,293.645v0.695l-1.273,0.102v7.352c0,1.037-0.309,1.861-0.926,2.473s-1.416,0.918-2.395,0.918
			c-1.068,0-1.912-0.276-2.531-0.828c-0.62-0.552-0.917-1.359-0.891-2.422l0.016-0.047h0.875c0,0.823,0.219,1.447,0.656,1.871
			s1.063,0.637,1.875,0.637c0.692,0,1.263-0.236,1.711-0.707c0.448-0.471,0.672-1.103,0.672-1.895v-7.352l-1.273-0.102v-0.695h2.211
			H148.883z"/>
		<path d="M154.844,293.645c1.192,0,2.116,0.303,2.77,0.91c0.653,0.607,0.98,1.41,0.98,2.41c0,1.01-0.327,1.818-0.98,2.422
			c-0.654,0.604-1.577,0.906-2.77,0.906h-2.594v3.938l1.273,0.102v0.688h-3.477v-0.688l1.273-0.102v-9.789l-1.273-0.102v-0.695
			h1.273H154.844z M152.25,299.497h2.594c0.938,0,1.642-0.238,2.113-0.715c0.471-0.477,0.707-1.077,0.707-1.801
			c0-0.729-0.234-1.334-0.703-1.816s-1.175-0.723-2.117-0.723h-2.594V299.497z"/>
		<path d="M163.781,304.333l0.836-0.063l4.039-10.625h0.883l4,10.625l0.852,0.063v0.688h-2.805v-0.688l0.992-0.078l-0.938-2.547
			h-5.109l-0.945,2.547l0.992,0.078v0.688h-2.797V304.333z M166.844,300.872h4.492l-2.211-6.016h-0.047L166.844,300.872z"/>
		<path d="M175.75,300.864c0-1.349,0.288-2.428,0.863-3.238c0.575-0.81,1.374-1.215,2.395-1.215c0.599,0,1.118,0.131,1.559,0.395
			c0.44,0.263,0.803,0.634,1.09,1.113l0.109-1.352h0.789v8.344c0,1.088-0.294,1.948-0.883,2.578
			c-0.589,0.63-1.409,0.945-2.461,0.945c-0.406,0-0.84-0.049-1.301-0.148s-0.863-0.234-1.207-0.406l0.25-0.789
			c0.338,0.162,0.694,0.287,1.066,0.375c0.372,0.088,0.764,0.133,1.176,0.133c0.802,0,1.406-0.237,1.813-0.711
			s0.609-1.133,0.609-1.977v-1.07c-0.287,0.432-0.648,0.764-1.086,0.996s-0.951,0.348-1.539,0.348c-1.016,0-1.81-0.377-2.383-1.133
			c-0.573-0.755-0.859-1.763-0.859-3.023V300.864z M176.688,301.028c0,1.016,0.207,1.827,0.621,2.434s1.032,0.91,1.855,0.91
			c0.609,0,1.116-0.138,1.52-0.414c0.403-0.276,0.715-0.656,0.934-1.141v-3.922c-0.208-0.495-0.508-0.897-0.898-1.207
			s-0.904-0.465-1.539-0.465c-0.823,0-1.444,0.338-1.863,1.016c-0.419,0.677-0.629,1.552-0.629,2.625V301.028z"/>
		<path d="M190.891,303.629c-0.266,0.495-0.629,0.877-1.09,1.148s-1.004,0.406-1.629,0.406c-0.891,0-1.587-0.302-2.09-0.906
			c-0.503-0.604-0.754-1.542-0.754-2.813v-4.102l-1.047-0.102v-0.695h1.047h0.93v4.914c0,1.031,0.176,1.771,0.527,2.219
			s0.85,0.672,1.496,0.672c0.708,0,1.272-0.156,1.691-0.469c0.419-0.313,0.715-0.745,0.887-1.297v-5.242l-1.203-0.102v-0.695h1.203
			h0.938v7.664l1.133,0.102v0.688h-1.953L190.891,303.629z"/>
		<path d="M194.242,304.333l1.273-0.102v-6.867l-1.273-0.102v-0.695h2.203v7.664l1.273,0.102v0.688h-3.477V304.333z
			 M196.445,294.145h-0.93v-1.313h0.93V294.145z"/>
		<path d="M199.102,293.528v-0.695h2.203v11.398l1.273,0.102v0.688h-3.477v-0.688l1.273-0.102v-10.602L199.102,293.528z"/>
		<path d="M209.891,305.02c-0.063-0.287-0.107-0.534-0.133-0.742c-0.026-0.208-0.039-0.419-0.039-0.633
			c-0.313,0.443-0.729,0.81-1.25,1.102c-0.521,0.292-1.107,0.438-1.758,0.438c-0.828,0-1.469-0.213-1.922-0.641
			s-0.68-1.005-0.68-1.734c0-0.781,0.336-1.401,1.008-1.859s1.583-0.688,2.734-0.688h1.867v-1.117c0-0.604-0.194-1.078-0.582-1.422
			c-0.388-0.344-0.931-0.516-1.629-0.516c-0.469,0-0.897,0.064-1.285,0.191c-0.388,0.127-0.712,0.301-0.973,0.52l-0.078,1.133
			h-0.773l0.008-1.625c0.391-0.302,0.858-0.547,1.402-0.734c0.544-0.188,1.124-0.281,1.738-0.281c0.932,0,1.682,0.237,2.25,0.711
			c0.567,0.474,0.852,1.154,0.852,2.039v4.156c0,0.172,0.004,0.337,0.012,0.496s0.024,0.314,0.051,0.465l0.844,0.055v0.688H209.891z
			 M206.813,304.356c0.677,0,1.273-0.156,1.789-0.469s0.888-0.716,1.117-1.211v-1.695h-1.883c-0.849,0-1.527,0.176-2.035,0.527
			s-0.762,0.795-0.762,1.332c0,0.453,0.157,0.819,0.473,1.098C205.827,304.217,206.26,304.356,206.813,304.356z"/>
		<path d="M214.906,296.567l0.117,1.406v0.102c0.239-0.521,0.566-0.928,0.98-1.223s0.905-0.441,1.473-0.441
			c0.12,0,0.235,0.009,0.348,0.027c0.112,0.018,0.204,0.038,0.277,0.059l-0.125,0.875l-0.695-0.047
			c-0.589,0-1.072,0.166-1.449,0.496c-0.378,0.331-0.647,0.785-0.809,1.363v5.047l1.273,0.102v0.688h-3.477v-0.688l1.273-0.102
			v-6.867l-1.273-0.102v-0.695h1.273H214.906z"/>
	</g>
</g>
<g id="Layer_3">
	<g>
		<g>
			<linearGradient id="SVGID_1_" gradientUnits="userSpaceOnUse" x1="57.0684" y1="196.6357" x2="329.8848" y2="196.6357">
				<stop  offset="0" style="stop-color:#E55E88"/>
				<stop  offset="1" style="stop-color:#61C4E4"/>
			</linearGradient>
			<path fill="url(#SVGID_1_)" d="M104.938,183.787c-0.886-0.05-1.835-0.21-2.843-0.48c-1.01-0.271-1.711-0.702-2.104-1.292
				c-0.197-0.247-0.308-0.579-0.333-0.997c-0.025-0.419-0.013-0.874,0.037-1.366c0.048-0.491,0.122-0.971,0.221-1.44
				c0.098-0.467,0.172-0.897,0.222-1.292c0.246-1.772,0.603-3.667,1.071-5.687c0.467-2.018,0.947-3.914,1.44-5.686
				c-0.738-1.329-1.281-2.609-1.625-3.84c-0.345-1.23-0.591-2.313-0.738-3.25c-0.198-1.082-0.247-2.092-0.148-3.027
				c0-1.083,0.196-2.08,0.591-2.991c0.394-0.911,0.935-1.747,1.625-2.511c0.689-0.763,1.489-1.451,2.4-2.067
				c0.911-0.615,1.858-1.169,2.843-1.662c0.098-0.886,0-1.723-0.295-2.511c-0.05-0.098-0.074-0.196-0.074-0.295
				c0-0.147,0.122-0.246,0.369-0.295c1.525,0,3.002,0.419,4.431,1.255l0.074,0.074c1.132-0.344,2.179-0.602,3.139-0.775
				c0.96-0.172,1.735-0.283,2.326-0.332c0.886-0.048,1.895-0.074,3.028-0.074c1.132,0,2.215,0.074,3.249,0.221
				c1.034,0.148,1.944,0.395,2.732,0.739c0.787,0.345,1.304,0.812,1.551,1.403c0.492,1.231,0.861,2.61,1.107,4.135
				c0.246,1.527,0.246,2.832,0,3.914c-0.197,0.788-0.677,1.292-1.44,1.514c-0.764,0.222-1.489,0.382-2.178,0.48
				c-0.345,0.05-0.665-0.122-0.96-0.517c-0.05-0.148-0.025-0.27,0.074-0.37l0.147-0.147c0.443-0.246,0.85-0.504,1.219-0.775
				c0.369-0.27,0.528-0.824,0.48-1.662c0-0.591-0.333-1.193-0.997-1.809c-0.665-0.615-1.613-1.095-2.843-1.44
				c-1.231-0.344-2.696-0.492-4.394-0.443c-1.698,0.05-3.607,0.419-5.723,1.108c-0.147,0-0.247,0.025-0.295,0.074
				c-0.395,1.92-0.825,3.792-1.292,5.612c-0.469,1.822-0.973,3.644-1.514,5.465c0.689-0.098,1.391-0.159,2.104-0.185
				c0.713-0.024,1.514-0.062,2.4-0.111c0.443,0,0.897-0.024,1.366-0.074c0.467-0.049,0.923-0.196,1.366-0.443h0.222
				c0.098,0,0.196,0.074,0.295,0.222c0.295,1.182,0.222,2.363-0.222,3.544c-0.049,0.099-0.123,0.197-0.221,0.295
				c-0.197,0.197-0.469,0.295-0.813,0.295c-1.526,0.099-2.88,0.161-4.062,0.185c-1.182,0.025-2.413,0.136-3.692,0.333
				c-0.542,1.724-1.046,3.557-1.514,5.501c-0.469,1.945-0.825,3.729-1.071,5.354c-0.197,1.428-0.345,2.721-0.443,3.876
				c-0.099,1.156-0.049,2.351,0.148,3.582c0.048,0.148,0.048,0.27,0,0.37C105.281,183.687,105.133,183.787,104.938,183.787z
				 M103.165,157.571c-0.05,0.247,0.344,1.034,1.182,2.363c0.344-1.23,0.676-2.448,0.997-3.655c0.32-1.206,0.628-2.449,0.923-3.729
				c-1.329,0.985-2.179,1.933-2.548,2.843C103.35,156.304,103.165,157.03,103.165,157.571z"/>
			<linearGradient id="SVGID_2_" gradientUnits="userSpaceOnUse" x1="57.0684" y1="196.6357" x2="329.8848" y2="196.6357">
				<stop  offset="0" style="stop-color:#E55E88"/>
				<stop  offset="1" style="stop-color:#61C4E4"/>
			</linearGradient>
			<path fill="url(#SVGID_2_)" d="M135.103,160.377c0.122,0.147,0.135,0.395,0.037,0.738c-0.049,0-0.074,0.025-0.074,0.074v0.074
				c-0.493,1.281-0.899,2.511-1.218,3.692c-0.321,1.182-0.604,2.265-0.85,3.25c-0.049,0.247-0.173,0.418-0.369,0.517
				c-0.099,0.05-0.173,0.05-0.222,0c-1.133-0.196-2.006-0.43-2.621-0.701c-0.616-0.27-1.096-0.504-1.44-0.702
				c-0.247-0.098-0.369-0.295-0.369-0.591v-0.443l0.665-2.437c-1.083,1.281-2.043,2.757-2.88,4.431
				c-0.837,1.674-1.551,3.299-2.142,4.874c-0.591,1.576-1.046,2.979-1.366,4.209c-0.321,1.231-0.529,2.043-0.627,2.437v0.222
				c0,0.099-0.025,0.172-0.074,0.221c-0.1,0.098-0.197,0.148-0.295,0.148c-0.345-0.1-0.85-0.21-1.514-0.333
				c-0.665-0.122-1.392-0.381-2.178-0.775c-0.148-0.048-0.222-0.147-0.222-0.295v-0.147c-0.098-1.083-0.085-2.387,0.037-3.914
				c0.124-1.525,0.332-3.138,0.627-4.837c0.295-1.698,0.639-3.445,1.034-5.243c0.393-1.796,0.787-3.507,1.181-5.132
				c0.049-0.246,0.037-0.417-0.037-0.517c-0.074-0.098-0.086-0.27-0.037-0.517c0.048-0.147,0.196-0.222,0.443-0.222h0.074h0.222
				h0.074c0.048,0.05,0.098,0.074,0.147,0.074h0.074c0.443,0.147,1.045,0.382,1.81,0.701c0.763,0.321,1.44,0.751,2.031,1.292
				l0.074,0.074c0.048,0,0.123,0.063,0.222,0.185c0.098,0.124,0.122,0.308,0.074,0.554c0,0.099-0.025,0.173-0.074,0.221v0.148
				c-0.099,0.295-0.148,0.468-0.148,0.517c-0.247,0.985-0.517,1.994-0.812,3.028s-0.567,2.093-0.813,3.175
				c1.132-2.313,2.289-4.27,3.471-5.871c1.182-1.599,2.116-2.793,2.806-3.582c0.048,0,0.074-0.024,0.074-0.074
				c0.148-0.048,0.295-0.196,0.443-0.443c0.196-0.196,0.443-0.295,0.738-0.295c0.148,0,0.27,0.025,0.369,0.074
				c0.492,0.197,1.045,0.443,1.662,0.738c0.615,0.295,1.169,0.665,1.662,1.108h0.074
				C134.893,160.131,134.979,160.229,135.103,160.377z"/>
			<linearGradient id="SVGID_3_" gradientUnits="userSpaceOnUse" x1="57.0684" y1="196.6357" x2="329.8848" y2="196.6357">
				<stop  offset="0" style="stop-color:#E55E88"/>
				<stop  offset="1" style="stop-color:#61C4E4"/>
			</linearGradient>
			<path fill="url(#SVGID_3_)" d="M154.487,168.796c0.689,0.395,1.156,0.862,1.403,1.403c0.147,0.247,0.246,0.493,0.295,0.738
				c-0.295,1.822-0.775,3.336-1.44,4.542c-0.665,1.207-1.342,2.154-2.031,2.843c-0.838,0.838-1.699,1.477-2.585,1.92
				c-1.625-0.394-2.991-0.923-4.098-1.587c-1.108-0.665-1.735-1.464-1.883-2.4c-0.049-0.196-0.074-0.517-0.074-0.96
				c-0.542,1.133-1.034,2.043-1.477,2.732c-0.443,0.69-0.837,1.207-1.182,1.551c-0.395,0.443-0.764,0.713-1.107,0.813
				c-0.936-0.246-1.699-0.565-2.289-0.96c-0.591-0.394-1.083-0.813-1.477-1.255c-0.443-0.492-0.788-1.034-1.034-1.625
				c-0.344-2.363-0.443-4.542-0.295-6.535c0.147-1.994,0.406-3.766,0.775-5.317c0.369-1.551,0.775-2.867,1.218-3.951
				c0.443-1.083,0.787-1.846,1.034-2.29c0.048-0.098,0.123-0.196,0.222-0.295c0.246-0.246,0.492-0.417,0.738-0.517
				c0.591-0.196,1.169-0.222,1.735-0.074c0.565,0.147,1.071,0.345,1.514,0.59c0.541,0.247,0.96,0.542,1.255,0.886
				c0.295,0.345,0.541,0.641,0.738,0.886c0.098,0.197,0.048,0.345-0.147,0.443c-0.1,0.049-0.197,0.049-0.295,0
				c-0.148,0-0.271,0.049-0.369,0.147l-0.074,0.074c-1.083,1.576-1.859,3.323-2.326,5.243c-0.468,1.92-0.801,3.742-0.997,5.465
				c-0.197,1.969-0.247,3.987-0.148,6.055c0.541-0.196,1.119-0.897,1.735-2.104c0.615-1.206,1.193-2.572,1.735-4.099
				c0.542-1.525,1.034-3.064,1.477-4.615s0.787-2.793,1.034-3.729c0.148-0.591,0.283-1.132,0.406-1.625
				c0.123-0.492,0.233-0.935,0.333-1.329v-0.074c0.048-0.098,0.085-0.233,0.111-0.406c0.024-0.172,0.085-0.356,0.185-0.554
				c0-0.049,0.048-0.123,0.147-0.222c0.048-0.148,0.222-0.222,0.517-0.222c0.443,0.148,1.045,0.382,1.809,0.702
				c0.763,0.321,1.44,0.751,2.031,1.292h0.074c0.049,0.049,0.135,0.16,0.259,0.332c0.122,0.173,0.135,0.406,0.037,0.702
				c-0.049,0.049-0.074,0.099-0.074,0.147c-0.69,2.315-1.218,4.48-1.588,6.499c-0.369,2.02-0.653,3.792-0.849,5.317
				c-0.197,1.772-0.345,3.422-0.443,4.948c1.279-0.541,2.276-1.354,2.991-2.437c0.713-1.082,1.267-2.142,1.662-3.175
				C154.118,171.479,154.388,170.174,154.487,168.796z"/>
			<linearGradient id="SVGID_4_" gradientUnits="userSpaceOnUse" x1="57.0684" y1="196.6357" x2="329.8848" y2="196.6357">
				<stop  offset="0" style="stop-color:#E55E88"/>
				<stop  offset="1" style="stop-color:#61C4E4"/>
			</linearGradient>
			<path fill="url(#SVGID_4_)" d="M159.509,180.833c-1.625-0.395-3.003-0.923-4.135-1.587c-1.133-0.665-1.772-1.464-1.92-2.4
				c-0.148-0.886-0.135-2.092,0.037-3.618c0.173-1.525,0.419-3.126,0.739-4.8c0.319-1.673,0.652-3.273,0.997-4.8
				c0.344-1.525,0.639-2.732,0.886-3.619c0.098-0.393,0.098-0.652,0-0.775c-0.099-0.122-0.099-0.307,0-0.554
				c0.049-0.147,0.196-0.222,0.443-0.222h0.222h0.147c0.048,0.05,0.098,0.074,0.147,0.074c0.443,0.147,1.045,0.382,1.81,0.701
				c0.763,0.321,1.44,0.751,2.031,1.292c0.098,0.05,0.196,0.16,0.295,0.333c0.098,0.173,0.098,0.406,0,0.701v0.148
				c-0.69,2.314-1.219,4.504-1.588,6.572c-0.369,2.067-0.653,3.89-0.849,5.464c-0.197,1.872-0.345,3.594-0.443,5.169
				c1.279-0.541,2.289-1.378,3.027-2.511c0.739-1.132,1.304-2.264,1.699-3.397c0.443-1.28,0.713-2.683,0.812-4.209
				c0.689,0.395,1.156,0.862,1.403,1.403c0.147,0.247,0.246,0.493,0.295,0.738c-0.295,1.822-0.775,3.36-1.44,4.616
				c-0.665,1.255-1.342,2.277-2.031,3.064C161.256,179.503,160.395,180.242,159.509,180.833z M161.208,148.34
				c0.591,0.542,1.156,1.12,1.698,1.735c0.541,0.616,0.861,1.342,0.96,2.178v0.295c0,0.247-0.049,0.443-0.147,0.591
				c-0.591,0.886-1.034,1.846-1.329,2.88c0,0.099-0.025,0.173-0.074,0.221c-0.049,0.148-0.16,0.345-0.332,0.591
				c-0.173,0.247-0.432,0.345-0.775,0.295c-0.985-0.196-1.711-0.492-2.179-0.886c-0.468-0.394-0.801-0.787-0.997-1.182
				c-0.148-0.393-0.222-0.787-0.222-1.181c0-0.394,0.048-0.713,0.147-0.96c0.049-0.148,0.085-0.307,0.111-0.48
				c0.024-0.172,0.085-0.307,0.185-0.406c0.246-0.591,0.554-1.182,0.923-1.772s0.75-1.156,1.145-1.698
				c0.098-0.098,0.196-0.172,0.295-0.222C160.862,148.242,161.06,148.242,161.208,148.34z"/>
			<linearGradient id="SVGID_5_" gradientUnits="userSpaceOnUse" x1="57.0684" y1="196.6357" x2="329.8848" y2="196.6357">
				<stop  offset="0" style="stop-color:#E55E88"/>
				<stop  offset="1" style="stop-color:#61C4E4"/>
			</linearGradient>
			<path fill="url(#SVGID_5_)" d="M167.188,153.288c0.196-0.739,0.369-1.415,0.517-2.031c0.147-0.615,0.27-1.119,0.369-1.514
				c0.147-0.491,0.172-0.787,0.074-0.886c-0.099-0.098-0.099-0.295,0-0.591c0.048-0.196,0.196-0.27,0.443-0.222h0.37
				c0.048,0.05,0.098,0.074,0.147,0.074c0.443,0.148,1.058,0.395,1.846,0.739c0.787,0.345,1.501,0.788,2.142,1.329
				c0.098,0.099,0.172,0.197,0.222,0.295c0.098,0.247,0.122,0.493,0.074,0.738c-0.05,0.099-0.086,0.247-0.111,0.443
				c-0.025,0.197-0.086,0.418-0.185,0.665c1.87-0.394,3.593-0.763,5.169-1.108c1.575-0.344,2.757-0.615,3.545-0.812
				c3.002-0.787,5.28-0.85,6.831-0.185c1.551,0.665,2.449,1.711,2.695,3.139c0.098,0.591,0.062,1.121-0.111,1.588
				c-0.173,0.468-0.395,0.862-0.665,1.181c-0.271,0.321-0.542,0.58-0.812,0.775c-0.271,0.197-0.48,0.321-0.628,0.37
				c-0.049,0-0.099,0.025-0.147,0.074c-0.395,0.099-0.641,0.074-0.739-0.074c-0.049-0.098-0.074-0.222-0.074-0.37
				c0-0.048,0.024-0.122,0.074-0.221c0.148-0.246,0.172-0.418,0.074-0.517c-0.641-0.787-1.49-1.316-2.548-1.588
				c-1.059-0.27-2.289-0.38-3.692-0.332c-1.403,0.049-2.942,0.21-4.615,0.48c-1.674,0.271-3.422,0.53-5.243,0.775
				c-0.345,1.379-0.727,2.868-1.145,4.468c-0.419,1.6-0.825,3.114-1.219,4.542c-0.493,1.97-0.875,3.779-1.145,5.428
				c-0.271,1.65-0.456,3.09-0.554,4.32c-0.197,1.429-0.295,2.758-0.295,3.988c1.28-0.541,2.276-1.354,2.991-2.437
				c0.713-1.083,1.267-2.166,1.662-3.249c0.443-1.28,0.713-2.585,0.813-3.914c0.393,0.247,0.701,0.493,0.923,0.738
				c0.222,0.247,0.381,0.493,0.48,0.739c0.147,0.247,0.246,0.493,0.295,0.738c-0.295,1.822-0.775,3.323-1.44,4.505
				c-0.665,1.181-1.342,2.117-2.031,2.806c-0.838,0.837-1.699,1.477-2.584,1.92c-1.625-0.394-2.991-0.911-4.099-1.551
				c-1.108-0.639-1.735-1.452-1.883-2.437c-0.098-0.689-0.111-1.551-0.037-2.584c0.074-1.034,0.197-2.142,0.369-3.323
				c0.173-1.182,0.394-2.387,0.665-3.619c0.27-1.23,0.528-2.387,0.775-3.471c0.246-1.034,0.517-2.153,0.813-3.36
				c0.295-1.206,0.591-2.4,0.886-3.582c-1.871,0.147-3.371,0.185-4.504,0.111c-1.132-0.074-2.042-0.159-2.732-0.258
				c-0.787-0.148-1.377-0.32-1.772-0.517c-0.591-0.295-0.984-0.676-1.182-1.145c-0.196-0.467-0.295-0.947-0.295-1.44
				c0-0.492,0.049-0.911,0.147-1.255c0.1-0.344,0.148-0.565,0.148-0.665l0.147-0.074c0.247,0,0.345,0.173,0.295,0.517
				c0,0.197,0.025,0.406,0.074,0.627c0.05,0.222,0.148,0.406,0.295,0.554c0.838,0.64,2.179,0.973,4.025,0.997
				C162.942,153.646,164.973,153.535,167.188,153.288z"/>
			<linearGradient id="SVGID_6_" gradientUnits="userSpaceOnUse" x1="57.0684" y1="196.6357" x2="329.8848" y2="196.6357">
				<stop  offset="0" style="stop-color:#E55E88"/>
				<stop  offset="1" style="stop-color:#61C4E4"/>
			</linearGradient>
			<path fill="url(#SVGID_6_)" d="M187.717,171.823c-0.345,1.182-0.801,2.302-1.366,3.36c-0.567,1.059-1.318,1.994-2.252,2.806
				c-0.936,0.812-2.056,1.44-3.36,1.883c-1.305,0.443-2.843,0.639-4.615,0.591c-1.379-0.05-2.45-0.333-3.212-0.849
				c-0.763-0.517-1.279-1.182-1.551-1.994c-0.27-0.812-0.344-1.759-0.221-2.843c0.124-1.083,0.382-2.215,0.775-3.397
				c0.049-0.048,0.074-0.123,0.074-0.222l0.813-1.92c0.099-0.246,0.136-0.417,0.11-0.517c-0.024-0.098,0.013-0.27,0.111-0.517
				c0.048-0.098,0.196-0.148,0.443-0.148l0.074,0.074h0.295l0.147,0.148h0.074c0.393,0.247,1.034,0.604,1.92,1.071
				c0.886,0.468,1.551,1.022,1.994,1.662v0.074c0.048,0,0.098,0.074,0.148,0.222c0.048,0.147,0.024,0.321-0.074,0.517
				c0,0.099-0.025,0.173-0.074,0.222l-0.074,0.147c-0.197,0.295-0.295,0.469-0.295,0.517l-0.295,0.369
				c-0.295,0.641-0.554,1.292-0.775,1.957s-0.369,1.268-0.443,1.809c-0.074,0.542-0.05,0.985,0.074,1.33
				c0.122,0.345,0.356,0.517,0.702,0.517c1.034,0,1.931-0.258,2.695-0.775c0.763-0.517,1.415-1.169,1.957-1.957
				c0.542-0.787,0.984-1.625,1.33-2.511c0.344-0.886,0.615-1.698,0.812-2.437c0.295-1.23,0.196-2.129-0.295-2.696
				c-0.493-0.565-1.194-0.96-2.104-1.181c-0.912-0.222-1.982-0.307-3.212-0.259c-1.231,0.05-2.462,0.074-3.692,0.074
				c-0.198,0-0.295-0.098-0.295-0.295l0.147-0.074c0.148-0.787,0.209-1.525,0.185-2.215c-0.025-0.688-0.086-1.255-0.185-1.698
				c-0.05-0.098-0.013-0.196,0.111-0.295c0.122-0.098,0.185-0.172,0.185-0.222c1.377-1.279,2.978-2.276,4.8-2.991
				c1.821-0.713,3.717-1.218,5.687-1.514c0.984,0.049,1.821,0.665,2.511,1.846c0.098,0.345,0.147,0.714,0.147,1.107
				c0,0.345-0.074,0.714-0.222,1.108c-0.147,0.395-0.443,0.812-0.886,1.255l-0.295,0.147c-0.247,0.099-0.469,0.124-0.665,0.074
				c-0.05,0-0.074-0.098-0.074-0.295c0-0.098,0.024-0.196,0.074-0.295c0-0.098-0.136-0.27-0.406-0.517
				c-0.271-0.246-0.69-0.443-1.255-0.591c-0.567-0.147-1.305-0.147-2.215,0c-0.912,0.148-2.007,0.591-3.286,1.329
				c0.886,0,1.944,0.173,3.175,0.517c1.23,0.345,2.363,0.875,3.397,1.588c1.034,0.714,1.846,1.637,2.437,2.769
				C188.013,168.821,188.111,170.199,187.717,171.823z"/>
			<linearGradient id="SVGID_7_" gradientUnits="userSpaceOnUse" x1="57.0684" y1="196.6357" x2="329.8848" y2="196.6357">
				<stop  offset="0" style="stop-color:#E55E88"/>
				<stop  offset="1" style="stop-color:#61C4E4"/>
			</linearGradient>
			<path fill="url(#SVGID_7_)" d="M208.468,153.288c0.196-0.739,0.369-1.415,0.517-2.031c0.147-0.615,0.27-1.119,0.369-1.514
				c0.147-0.491,0.172-0.787,0.074-0.886c-0.099-0.098-0.099-0.295,0-0.591c0.048-0.196,0.196-0.27,0.443-0.222h0.37
				c0.048,0.05,0.098,0.074,0.147,0.074c0.443,0.148,1.058,0.395,1.846,0.739c0.787,0.345,1.501,0.788,2.142,1.329
				c0.098,0.099,0.172,0.197,0.222,0.295c0.098,0.247,0.122,0.493,0.074,0.738c-0.05,0.099-0.086,0.247-0.111,0.443
				c-0.025,0.197-0.086,0.418-0.185,0.665c1.87-0.394,3.593-0.763,5.169-1.108c1.575-0.344,2.757-0.615,3.545-0.812
				c3.002-0.787,5.28-0.85,6.831-0.185c1.551,0.665,2.449,1.711,2.695,3.139c0.098,0.591,0.062,1.121-0.111,1.588
				c-0.173,0.468-0.395,0.862-0.665,1.181c-0.271,0.321-0.542,0.58-0.812,0.775c-0.271,0.197-0.48,0.321-0.628,0.37
				c-0.049,0-0.099,0.025-0.147,0.074c-0.395,0.099-0.641,0.074-0.739-0.074c-0.049-0.098-0.074-0.222-0.074-0.37
				c0-0.048,0.024-0.122,0.074-0.221c0.148-0.246,0.172-0.418,0.074-0.517c-0.641-0.787-1.49-1.316-2.548-1.588
				c-1.059-0.27-2.289-0.38-3.692-0.332c-1.403,0.049-2.942,0.21-4.615,0.48c-1.674,0.271-3.422,0.53-5.243,0.775
				c-0.345,1.379-0.727,2.868-1.145,4.468c-0.419,1.6-0.825,3.114-1.219,4.542c-0.493,1.97-0.875,3.779-1.145,5.428
				c-0.271,1.65-0.456,3.09-0.554,4.32c-0.197,1.429-0.295,2.758-0.295,3.988c1.28-0.541,2.276-1.354,2.991-2.437
				c0.713-1.083,1.267-2.166,1.662-3.249c0.443-1.28,0.713-2.585,0.813-3.914c0.393,0.247,0.701,0.493,0.923,0.738
				c0.222,0.247,0.381,0.493,0.48,0.739c0.147,0.247,0.246,0.493,0.295,0.738c-0.295,1.822-0.775,3.323-1.44,4.505
				c-0.665,1.181-1.342,2.117-2.031,2.806c-0.838,0.837-1.699,1.477-2.584,1.92c-1.625-0.394-2.991-0.911-4.099-1.551
				c-1.108-0.639-1.735-1.452-1.883-2.437c-0.098-0.689-0.111-1.551-0.037-2.584c0.074-1.034,0.197-2.142,0.369-3.323
				c0.173-1.182,0.394-2.387,0.665-3.619c0.27-1.23,0.528-2.387,0.775-3.471c0.246-1.034,0.517-2.153,0.813-3.36
				c0.295-1.206,0.591-2.4,0.886-3.582c-1.871,0.147-3.371,0.185-4.504,0.111c-1.132-0.074-2.042-0.159-2.732-0.258
				c-0.787-0.148-1.377-0.32-1.772-0.517c-0.591-0.295-0.984-0.676-1.182-1.145c-0.196-0.467-0.295-0.947-0.295-1.44
				c0-0.492,0.049-0.911,0.147-1.255c0.1-0.344,0.148-0.565,0.148-0.665l0.147-0.074c0.247,0,0.345,0.173,0.295,0.517
				c0,0.197,0.025,0.406,0.074,0.627c0.05,0.222,0.148,0.406,0.295,0.554c0.838,0.64,2.179,0.973,4.025,0.997
				C204.222,153.646,206.252,153.535,208.468,153.288z"/>
			<linearGradient id="SVGID_8_" gradientUnits="userSpaceOnUse" x1="57.0684" y1="196.6357" x2="329.8848" y2="196.6357">
				<stop  offset="0" style="stop-color:#E55E88"/>
				<stop  offset="1" style="stop-color:#61C4E4"/>
			</linearGradient>
			<path fill="url(#SVGID_8_)" d="M213.637,172.562c0.395-2.56,0.898-5.194,1.514-7.902c0.615-2.707,1.243-5.267,1.883-7.68
				c0.639-2.412,1.156-4.258,1.551-5.539c0.147-0.492,0.172-0.8,0.074-0.923c-0.099-0.122-0.099-0.307,0-0.554
				c0.048-0.196,0.196-0.295,0.443-0.295c0.098,0,0.172,0.013,0.221,0.037c0.049,0.025,0.098,0.037,0.148,0.037
				c0.048,0,0.098,0.025,0.147,0.074c0.443,0.147,1.058,0.395,1.846,0.738c0.787,0.345,1.501,0.788,2.142,1.329
				c0.098,0.05,0.172,0.124,0.222,0.222c0.098,0.247,0.122,0.517,0.074,0.813c-0.147,0.493-0.382,1.292-0.702,2.4
				c-0.321,1.107-0.69,2.388-1.107,3.84c-0.419,1.453-0.862,3.003-1.33,4.652c-0.468,1.65-0.898,3.238-1.292,4.763
				c1.132-2.363,2.313-4.357,3.544-5.981c1.23-1.625,2.19-2.831,2.88-3.619l0.074-0.074c0.147-0.148,0.27-0.295,0.369-0.443
				c0.196-0.196,0.443-0.295,0.738-0.295c0.148,0,0.295,0.025,0.443,0.074c0.443,0.197,0.971,0.443,1.587,0.738
				c0.615,0.295,1.193,0.665,1.735,1.108c0.049,0.049,0.135,0.147,0.259,0.295c0.122,0.147,0.135,0.395,0.037,0.738l-0.074,0.074
				v0.074c-0.985,2.61-1.687,4.96-2.104,7.052c-0.419,2.093-0.702,3.853-0.849,5.28c-0.198,1.724-0.222,3.225-0.074,4.504
				c1.28-0.541,2.277-1.354,2.991-2.437c0.713-1.083,1.267-2.166,1.662-3.25c0.443-1.28,0.713-2.584,0.813-3.914
				c0.394,0.247,0.702,0.493,0.923,0.738c0.222,0.247,0.381,0.493,0.48,0.738c0.148,0.247,0.246,0.493,0.295,0.739
				c-0.295,1.822-0.775,3.323-1.44,4.504s-1.342,2.117-2.031,2.806c-0.837,0.838-1.698,1.477-2.584,1.92
				c-1.625-0.394-2.979-0.91-4.062-1.551c-1.083-0.639-1.724-1.451-1.92-2.437c-0.345-1.575-0.321-3.482,0.074-5.723
				c0.394-2.24,0.861-4.369,1.403-6.388c-1.181,1.379-2.204,2.966-3.064,4.763c-0.862,1.798-1.588,3.521-2.178,5.169
				c-0.591,1.65-1.034,3.064-1.33,4.246s-0.468,1.846-0.517,1.994c0,0.246-0.1,0.369-0.295,0.369c-0.345-0.1-0.862-0.21-1.551-0.333
				c-0.69-0.122-1.403-0.381-2.142-0.775c-0.148-0.048-0.222-0.147-0.222-0.295v-0.147
				C213.145,177.214,213.243,175.122,213.637,172.562z"/>
			<linearGradient id="SVGID_9_" gradientUnits="userSpaceOnUse" x1="57.0684" y1="196.6357" x2="329.8848" y2="196.6357">
				<stop  offset="0" style="stop-color:#E55E88"/>
				<stop  offset="1" style="stop-color:#61C4E4"/>
			</linearGradient>
			<path fill="url(#SVGID_9_)" d="M252.923,168.796c0.394,0.247,0.688,0.48,0.886,0.701c0.196,0.222,0.344,0.456,0.443,0.702
				c0.147,0.247,0.246,0.493,0.295,0.738c-0.247,1.822-0.702,3.336-1.366,4.542c-0.665,1.207-1.342,2.154-2.031,2.843
				c-0.838,0.838-1.698,1.477-2.584,1.92c-1.674-0.394-3.065-0.923-4.172-1.587c-1.108-0.665-1.735-1.464-1.883-2.4
				c-0.099-0.443-0.147-0.935-0.147-1.477c0-0.542,0.024-1.083,0.074-1.625c-0.295,0.788-0.579,1.576-0.849,2.363
				c-0.271,0.788-0.53,1.49-0.775,2.104c-0.247,0.616-0.469,1.133-0.665,1.551c-0.197,0.419-0.345,0.677-0.443,0.775
				c-1.083,0.197-2.067,0.246-2.954,0.148c-0.788-0.098-1.576-0.32-2.363-0.665c-0.788-0.344-1.377-1.009-1.772-1.994
				c-0.098-0.591-0.148-1.23-0.148-1.92c0-0.591,0.013-1.304,0.037-2.142c0.025-0.836,0.111-1.747,0.258-2.732
				c0.197-1.329,0.504-2.707,0.923-4.135c0.417-1.427,0.923-2.732,1.514-3.914c0.591-1.182,1.267-2.153,2.031-2.917
				c0.763-0.763,1.636-1.169,2.622-1.219c0.639-0.048,1.279,0,1.92,0.148c0.541,0.099,1.156,0.271,1.846,0.517
				c0.689,0.247,1.354,0.641,1.994,1.182c0,0.05,0.024,0.099,0.074,0.148v0.221c-0.1,0.1-0.173,0.148-0.222,0.148h-0.148
				c-0.443,0-0.973,0.063-1.587,0.185c-0.616,0.124-1.194,0.456-1.735,0.997c-0.739,0.738-1.403,1.748-1.994,3.027
				c-0.591,1.281-1.071,2.647-1.44,4.099c-0.369,1.453-0.604,2.917-0.702,4.394c-0.099,1.477-0.049,2.832,0.148,4.062
				c0.689-0.935,1.377-2.042,2.068-3.323c0.59-1.132,1.255-2.535,1.994-4.209c0.738-1.673,1.452-3.667,2.142-5.982
				c0.098-0.443,0.196-0.824,0.295-1.145c0.098-0.319,0.172-0.602,0.221-0.849c0.049-0.048,0.098-0.123,0.148-0.222
				c0.147-0.147,0.319-0.196,0.517-0.147c1.377,0.395,2.35,0.801,2.917,1.218c0.565,0.419,0.948,0.775,1.145,1.071
				c0,0.099,0.024,0.197,0.074,0.295c0,0.099,0.011,0.197,0.037,0.295c0.024,0.099,0.012,0.222-0.037,0.369
				c-0.69,2.315-1.182,4.296-1.477,5.945c-0.295,1.65-0.493,3.04-0.591,4.172c-0.147,1.281-0.173,2.363-0.074,3.249
				c1.28-0.541,2.289-1.354,3.028-2.437c0.738-1.082,1.304-2.142,1.698-3.175C252.554,171.479,252.824,170.174,252.923,168.796z"/>
			<linearGradient id="SVGID_10_" gradientUnits="userSpaceOnUse" x1="57.0684" y1="196.6357" x2="329.8848" y2="196.6357">
				<stop  offset="0" style="stop-color:#E55E88"/>
				<stop  offset="1" style="stop-color:#61C4E4"/>
			</linearGradient>
			<path fill="url(#SVGID_10_)" d="M256.319,153.288c0.196-0.739,0.369-1.415,0.517-2.031c0.147-0.615,0.27-1.119,0.369-1.514
				c0.147-0.491,0.172-0.787,0.074-0.886c-0.099-0.098-0.099-0.295,0-0.591c0.048-0.196,0.196-0.27,0.443-0.222h0.37
				c0.048,0.05,0.098,0.074,0.147,0.074c0.443,0.148,1.058,0.395,1.846,0.739c0.787,0.345,1.501,0.788,2.142,1.329
				c0.098,0.099,0.172,0.197,0.222,0.295c0.098,0.247,0.122,0.493,0.074,0.738c-0.05,0.099-0.086,0.247-0.111,0.443
				c-0.025,0.197-0.086,0.418-0.185,0.665c1.87-0.394,3.593-0.763,5.169-1.108c1.575-0.344,2.757-0.615,3.545-0.812
				c3.002-0.787,5.28-0.85,6.831-0.185c1.551,0.665,2.449,1.711,2.695,3.139c0.098,0.591,0.062,1.121-0.111,1.588
				c-0.173,0.468-0.395,0.862-0.665,1.181c-0.271,0.321-0.542,0.58-0.812,0.775c-0.271,0.197-0.48,0.321-0.628,0.37
				c-0.049,0-0.099,0.025-0.147,0.074c-0.395,0.099-0.641,0.074-0.739-0.074c-0.049-0.098-0.074-0.222-0.074-0.37
				c0-0.048,0.024-0.122,0.074-0.221c0.148-0.246,0.172-0.418,0.074-0.517c-0.641-0.787-1.49-1.316-2.548-1.588
				c-1.059-0.27-2.289-0.38-3.692-0.332c-1.403,0.049-2.942,0.21-4.615,0.48c-1.674,0.271-3.422,0.53-5.243,0.775
				c-0.345,1.379-0.727,2.868-1.145,4.468c-0.419,1.6-0.825,3.114-1.219,4.542c-0.493,1.97-0.875,3.779-1.145,5.428
				c-0.271,1.65-0.456,3.09-0.554,4.32c-0.197,1.429-0.295,2.758-0.295,3.988c1.28-0.541,2.276-1.354,2.991-2.437
				c0.713-1.083,1.267-2.166,1.662-3.249c0.443-1.28,0.713-2.585,0.813-3.914c0.393,0.247,0.701,0.493,0.923,0.738
				c0.222,0.247,0.381,0.493,0.48,0.739c0.147,0.247,0.246,0.493,0.295,0.738c-0.295,1.822-0.775,3.323-1.44,4.505
				c-0.665,1.181-1.342,2.117-2.031,2.806c-0.838,0.837-1.699,1.477-2.584,1.92c-1.625-0.394-2.991-0.911-4.099-1.551
				c-1.108-0.639-1.735-1.452-1.883-2.437c-0.098-0.689-0.111-1.551-0.037-2.584c0.074-1.034,0.197-2.142,0.369-3.323
				c0.173-1.182,0.394-2.387,0.665-3.619c0.27-1.23,0.528-2.387,0.775-3.471c0.246-1.034,0.517-2.153,0.813-3.36
				c0.295-1.206,0.591-2.4,0.886-3.582c-1.871,0.147-3.371,0.185-4.504,0.111c-1.132-0.074-2.042-0.159-2.732-0.258
				c-0.787-0.148-1.377-0.32-1.772-0.517c-0.591-0.295-0.984-0.676-1.182-1.145c-0.196-0.467-0.295-0.947-0.295-1.44
				c0-0.492,0.049-0.911,0.147-1.255c0.1-0.344,0.148-0.565,0.148-0.665l0.147-0.074c0.247,0,0.345,0.173,0.295,0.517
				c0,0.197,0.025,0.406,0.074,0.627c0.05,0.222,0.148,0.406,0.295,0.554c0.838,0.64,2.179,0.973,4.025,0.997
				C252.073,153.646,254.104,153.535,256.319,153.288z"/>
			<linearGradient id="SVGID_11_" gradientUnits="userSpaceOnUse" x1="57.0684" y1="196.6357" x2="329.8848" y2="196.6357">
				<stop  offset="0" style="stop-color:#E55E88"/>
				<stop  offset="1" style="stop-color:#61C4E4"/>
			</linearGradient>
			<path fill="url(#SVGID_11_)" d="M77.208,213.104c2.313,0.099,4.381,0.542,6.203,1.329c1.821,0.788,3.36,1.809,4.615,3.064
				s2.227,2.684,2.917,4.283c0.689,1.601,1.034,3.262,1.034,4.985c0,3.151-0.788,5.785-2.363,7.901
				c-1.576,2.117-3.84,3.766-6.794,4.948c-2.806,1.082-5.81,1.71-9.009,1.883c-3.201,0.172-6.277-0.258-9.231-1.292
				c-0.788-0.295-1.65-0.665-2.584-1.108c-0.936-0.443-1.785-0.936-2.548-1.477c-0.764-0.542-1.378-1.12-1.846-1.736
				c-0.469-0.615-0.628-1.243-0.48-1.883c0.148-0.639,0.381-1.354,0.702-2.142c0.32-0.787,0.665-1.563,1.034-2.326
				c0.369-0.763,0.775-1.477,1.218-2.142s0.861-1.218,1.255-1.662c0.639-0.639,1.514-1.021,2.622-1.145
				c1.107-0.122,1.957-0.159,2.548-0.111c0.196,0,0.319,0.111,0.369,0.333c0.048,0.222,0.074,0.406,0.074,0.554
				c0,0.05-0.074,0.148-0.222,0.295c-0.099,0.05-0.173,0.074-0.221,0.074c-0.542,0.1-1.194,0.321-1.957,0.665
				c-0.764,0.345-1.392,0.936-1.883,1.772c-0.345,0.591-0.432,1.305-0.258,2.142c0.172,0.838,0.639,1.674,1.403,2.511
				c0.763,0.838,1.871,1.563,3.323,2.179c1.452,0.616,3.261,0.997,5.428,1.145c1.477,0.099,3.15,0.111,5.021,0.037
				c1.871-0.074,3.619-0.406,5.243-0.997s3.015-1.501,4.172-2.732c1.156-1.23,1.784-2.929,1.883-5.095
				c0.148-1.772-0.147-3.212-0.886-4.32c-0.739-1.107-1.724-2.005-2.954-2.695c-1.133-0.639-2.302-1.119-3.508-1.44
				c-1.207-0.32-2.4-0.554-3.582-0.702c-0.147-0.048-0.295-0.074-0.443-0.074c-0.148,0-0.271-0.024-0.369-0.074
				c-0.641-0.098-1.157-0.222-1.551-0.369c-0.395-0.148-0.714-0.295-0.96-0.443c-0.69-0.492-1.17-1.034-1.44-1.625
				c-0.271-0.591-0.456-1.156-0.554-1.699c-0.099-0.59-0.099-1.145,0-1.661c0.098-0.517,0.196-0.898,0.295-1.145
				c0.246-0.787,0.528-1.514,0.849-2.178c0.32-0.665,0.652-1.267,0.997-1.809c0.689-1.083,1.403-1.994,2.142-2.732
				s1.403-1.304,1.994-1.699c0.689-0.491,1.378-0.86,2.068-1.107c0.246-0.098,0.517-0.196,0.813-0.295
				c0.491-0.148,1.206-0.222,2.141-0.222c0.591,0,1.193,0.111,1.81,0.333c0.615,0.222,1.182,0.627,1.698,1.218
				c0.517,0.591,0.972,1.379,1.366,2.363c0.394,0.985,0.639,2.265,0.738,3.84v0.369c0,0.148-0.049,0.321-0.147,0.517
				c-0.69,0.838-1.354,1.44-1.994,1.809c-0.641,0.369-1.207,0.604-1.699,0.702c-0.542,0.148-1.083,0.124-1.625-0.074l-0.148-0.148
				c-0.099-0.098-0.123-0.246-0.074-0.443c0.048-0.148,0.148-0.233,0.295-0.258c0.148-0.024,0.27-0.259,0.369-0.702
				c0.344-1.477,0.504-2.904,0.48-4.283c-0.025-1.377-0.529-2.313-1.514-2.806h-0.147c-0.493-0.196-0.997-0.098-1.514,0.295
				c-0.517,0.395-1.046,1.01-1.587,1.846c-0.295,0.493-0.542,0.985-0.739,1.477c-0.247,0.542-0.554,1.231-0.923,2.067
				c-0.369,0.838-0.727,1.822-1.071,2.954C77.404,212.538,77.306,212.858,77.208,213.104z"/>
			<linearGradient id="SVGID_12_" gradientUnits="userSpaceOnUse" x1="57.0684" y1="196.6357" x2="329.8848" y2="196.6357">
				<stop  offset="0" style="stop-color:#E55E88"/>
				<stop  offset="1" style="stop-color:#61C4E4"/>
			</linearGradient>
			<path fill="url(#SVGID_12_)" d="M93.38,230.162c0.395-2.56,0.898-5.194,1.514-7.902c0.615-2.707,1.243-5.267,1.883-7.68
				c0.639-2.412,1.156-4.258,1.551-5.539c0.147-0.492,0.172-0.8,0.074-0.923c-0.099-0.122-0.099-0.307,0-0.554
				c0.048-0.196,0.196-0.295,0.443-0.295c0.098,0,0.172,0.013,0.221,0.037c0.049,0.025,0.098,0.037,0.148,0.037
				c0.048,0,0.098,0.025,0.147,0.074c0.443,0.147,1.058,0.395,1.846,0.738c0.787,0.345,1.501,0.788,2.142,1.329
				c0.098,0.05,0.172,0.124,0.222,0.222c0.098,0.247,0.122,0.517,0.074,0.813c-0.147,0.493-0.382,1.292-0.702,2.4
				c-0.321,1.107-0.69,2.388-1.107,3.84c-0.419,1.453-0.862,3.003-1.33,4.652c-0.468,1.65-0.898,3.238-1.292,4.763
				c1.132-2.363,2.313-4.357,3.544-5.981c1.23-1.625,2.19-2.831,2.88-3.619l0.074-0.074c0.147-0.148,0.27-0.295,0.369-0.443
				c0.196-0.196,0.443-0.295,0.738-0.295c0.148,0,0.295,0.025,0.443,0.074c0.443,0.197,0.971,0.443,1.587,0.738
				c0.615,0.295,1.193,0.665,1.735,1.108c0.049,0.049,0.135,0.147,0.259,0.295c0.122,0.147,0.135,0.395,0.037,0.738l-0.074,0.074
				v0.074c-0.985,2.61-1.687,4.96-2.104,7.052c-0.419,2.093-0.702,3.853-0.849,5.28c-0.198,1.724-0.222,3.225-0.074,4.504
				c1.28-0.541,2.277-1.354,2.991-2.437c0.713-1.083,1.267-2.166,1.662-3.25c0.443-1.28,0.713-2.584,0.813-3.914
				c0.394,0.247,0.702,0.493,0.923,0.738c0.222,0.247,0.381,0.493,0.48,0.738c0.148,0.247,0.246,0.493,0.295,0.739
				c-0.295,1.822-0.775,3.323-1.44,4.504s-1.342,2.117-2.031,2.806c-0.837,0.838-1.698,1.477-2.584,1.92
				c-1.625-0.394-2.979-0.91-4.062-1.551c-1.083-0.639-1.724-1.451-1.92-2.437c-0.345-1.575-0.321-3.482,0.074-5.723
				c0.394-2.24,0.861-4.369,1.403-6.388c-1.181,1.379-2.204,2.966-3.064,4.763c-0.862,1.798-1.588,3.521-2.178,5.169
				c-0.591,1.65-1.034,3.064-1.33,4.246s-0.468,1.846-0.517,1.994c0,0.246-0.1,0.369-0.295,0.369c-0.345-0.1-0.862-0.21-1.551-0.333
				c-0.69-0.122-1.403-0.381-2.142-0.775c-0.148-0.048-0.222-0.147-0.222-0.295v-0.147C92.888,234.814,92.986,232.722,93.38,230.162
				z"/>
			<linearGradient id="SVGID_13_" gradientUnits="userSpaceOnUse" x1="57.0684" y1="196.6357" x2="329.8848" y2="196.6357">
				<stop  offset="0" style="stop-color:#E55E88"/>
				<stop  offset="1" style="stop-color:#61C4E4"/>
			</linearGradient>
			<path fill="url(#SVGID_13_)" d="M132.666,226.396c0.394,0.247,0.688,0.48,0.886,0.701c0.196,0.222,0.344,0.456,0.443,0.702
				c0.147,0.247,0.246,0.493,0.295,0.738c-0.247,1.822-0.702,3.336-1.366,4.542c-0.665,1.207-1.342,2.154-2.031,2.843
				c-0.838,0.838-1.698,1.477-2.584,1.92c-1.674-0.394-3.065-0.923-4.172-1.587c-1.108-0.665-1.735-1.464-1.883-2.4
				c-0.099-0.443-0.147-0.935-0.147-1.477c0-0.542,0.024-1.083,0.074-1.625c-0.295,0.788-0.579,1.576-0.849,2.363
				c-0.271,0.788-0.53,1.49-0.775,2.104c-0.247,0.616-0.469,1.133-0.665,1.551c-0.197,0.419-0.345,0.677-0.443,0.775
				c-1.083,0.197-2.067,0.246-2.954,0.148c-0.788-0.098-1.576-0.32-2.363-0.665c-0.788-0.344-1.377-1.009-1.772-1.994
				c-0.098-0.591-0.148-1.23-0.148-1.92c0-0.591,0.013-1.304,0.037-2.142c0.025-0.836,0.111-1.747,0.258-2.732
				c0.197-1.329,0.504-2.707,0.923-4.135c0.417-1.427,0.923-2.732,1.514-3.914c0.591-1.182,1.267-2.153,2.031-2.917
				c0.763-0.763,1.636-1.169,2.622-1.219c0.639-0.048,1.279,0,1.92,0.148c0.541,0.099,1.156,0.271,1.846,0.517
				c0.689,0.247,1.354,0.641,1.994,1.182c0,0.05,0.024,0.099,0.074,0.148v0.221c-0.1,0.1-0.173,0.148-0.222,0.148h-0.148
				c-0.443,0-0.973,0.063-1.587,0.185c-0.616,0.124-1.194,0.456-1.735,0.997c-0.739,0.738-1.403,1.748-1.994,3.027
				c-0.591,1.281-1.071,2.647-1.44,4.099c-0.369,1.453-0.604,2.917-0.702,4.394c-0.099,1.477-0.049,2.832,0.148,4.062
				c0.689-0.935,1.377-2.042,2.068-3.323c0.59-1.132,1.255-2.535,1.994-4.209c0.738-1.673,1.452-3.667,2.142-5.982
				c0.098-0.443,0.196-0.824,0.295-1.145c0.098-0.319,0.172-0.602,0.221-0.849c0.049-0.048,0.098-0.123,0.148-0.222
				c0.147-0.147,0.319-0.196,0.517-0.147c1.377,0.395,2.35,0.801,2.917,1.218c0.565,0.419,0.948,0.775,1.145,1.071
				c0,0.099,0.024,0.197,0.074,0.295c0,0.099,0.011,0.197,0.037,0.295c0.024,0.099,0.012,0.222-0.037,0.369
				c-0.69,2.315-1.182,4.296-1.477,5.945c-0.295,1.65-0.493,3.04-0.591,4.172c-0.147,1.281-0.173,2.363-0.074,3.249
				c1.28-0.541,2.289-1.354,3.028-2.437c0.738-1.082,1.304-2.142,1.698-3.175C132.297,229.08,132.567,227.774,132.666,226.396z"/>
			<linearGradient id="SVGID_14_" gradientUnits="userSpaceOnUse" x1="57.0684" y1="196.6357" x2="329.8848" y2="196.6357">
				<stop  offset="0" style="stop-color:#E55E88"/>
				<stop  offset="1" style="stop-color:#61C4E4"/>
			</linearGradient>
			<path fill="url(#SVGID_14_)" d="M138.942,222.629c0.689-1.279,1.415-2.485,2.179-3.618c0.763-1.132,1.488-2.018,2.178-2.659
				c0.098-0.098,0.246-0.172,0.443-0.221c0.148-0.049,0.32-0.085,0.517-0.111c0.196-0.024,0.418,0.013,0.665,0.111
				c0.542,0.197,1.145,0.517,1.81,0.96c0.665,0.443,1.267,1.107,1.809,1.994c-0.247,3.102-0.764,5.933-1.551,8.492
				c-0.345,1.083-0.751,2.167-1.218,3.25c-0.469,1.083-1.034,2.093-1.699,3.027c-0.665,0.936-1.428,1.749-2.289,2.437
				c-0.862,0.69-1.835,1.182-2.917,1.477c-0.099,0.048-0.173,0.061-0.222,0.037c-0.049-0.025-0.099-0.037-0.147-0.037
				c-0.05,0-0.1-0.024-0.148-0.074c-0.295-0.196-0.69-0.542-1.182-1.034c-0.493-0.491-0.812-1.082-0.96-1.772
				c-0.049-0.148-0.025-0.27,0.074-0.369l0.147-0.148c0.295-0.147,0.775-0.48,1.44-0.997c0.665-0.517,1.366-1.34,2.104-2.474
				c0.739-1.132,1.452-2.609,2.142-4.431c0.689-1.821,1.206-4.062,1.551-6.72c-1.083,1.379-2.093,2.856-3.027,4.431
				c-0.838,1.33-1.687,2.819-2.548,4.468c-0.862,1.65-1.539,3.286-2.031,4.911c-0.69,2.806-1.305,5.624-1.846,8.456
				c-0.542,2.831-0.862,5.428-0.96,7.791c0,0.098-0.025,0.172-0.074,0.221c-0.1,0.098-0.197,0.148-0.295,0.148
				c-0.345-0.099-0.85-0.21-1.514-0.333c-0.665-0.124-1.39-0.382-2.178-0.775c-0.148-0.049-0.222-0.147-0.222-0.295v-0.147
				c-0.098-1.083-0.061-2.487,0.111-4.209c0.173-1.724,0.432-3.607,0.775-5.649c0.345-2.042,0.751-4.16,1.218-6.351
				c0.469-2.19,0.936-4.27,1.403-6.24c0.467-1.969,0.91-3.741,1.329-5.317c0.418-1.575,0.75-2.806,0.997-3.692
				c0.098-0.443,0.098-0.726,0-0.849c-0.099-0.123-0.099-0.307,0-0.554c0.048-0.196,0.222-0.295,0.517-0.295h0.37
				c0.048,0.05,0.098,0.074,0.147,0.074c0.443,0.147,1.058,0.395,1.846,0.738c0.787,0.345,1.477,0.788,2.068,1.329l0.295,0.295
				c0.147,0.148,0.172,0.395,0.074,0.739L138.942,222.629z"/>
			<linearGradient id="SVGID_15_" gradientUnits="userSpaceOnUse" x1="57.0684" y1="196.6357" x2="329.8848" y2="196.6357">
				<stop  offset="0" style="stop-color:#E55E88"/>
				<stop  offset="1" style="stop-color:#61C4E4"/>
			</linearGradient>
			<path fill="url(#SVGID_15_)" d="M167.89,228.98c-0.69,2.511-1.687,4.382-2.991,5.612c-1.305,1.231-2.647,2.093-4.025,2.584
				c-1.181,0.395-2.302,0.591-3.36,0.591c-1.059,0-1.859-0.048-2.4-0.147c-1.329-0.246-2.389-0.702-3.175-1.366
				c-0.788-0.665-1.366-1.44-1.735-2.326c-0.37-0.886-0.591-1.81-0.665-2.77c-0.074-0.96-0.061-1.883,0.037-2.769
				c0.099-1.034,0.271-1.981,0.517-2.843c0.246-0.861,0.491-1.562,0.738-2.104c0.443-1.034,0.935-2.005,1.477-2.917
				c0.541-0.91,1.132-1.71,1.772-2.4c0.639-0.689,1.292-1.23,1.957-1.625c0.665-0.394,1.366-0.565,2.105-0.517
				c0.639,0.099,1.279,0.247,1.92,0.443c0.541,0.197,1.132,0.468,1.772,0.812c0.64,0.345,1.23,0.838,1.772,1.477
				c0.048,0.049,0.185,0.222,0.406,0.517c0.222,0.295,0.381,0.714,0.48,1.255c0.098,0.542,0.061,1.181-0.111,1.92
				c-0.173,0.738-0.616,1.551-1.329,2.437c-0.714,0.886-1.772,1.858-3.175,2.917c-1.403,1.06-3.286,2.154-5.649,3.286
				c-0.099,0.739-0.136,1.379-0.111,1.92c0.024,0.542,0.085,1.009,0.185,1.403c0.098,0.443,0.196,0.788,0.295,1.034
				c0.196,0.295,0.541,0.505,1.034,0.628c0.492,0.124,1.034,0.16,1.625,0.111c0.591-0.048,1.168-0.135,1.735-0.259
				c0.565-0.122,1.045-0.258,1.44-0.406c0.984-0.394,1.809-0.935,2.474-1.625c0.665-0.688,1.219-1.403,1.662-2.141
				c0.443-0.739,0.775-1.44,0.997-2.105s0.381-1.193,0.48-1.587c0.048-0.246,0.098-0.467,0.147-0.665
				c0.049-0.196,0.074-0.37,0.074-0.517v-0.443c0.688,0.395,1.156,0.862,1.403,1.403c0.148,0.247,0.246,0.493,0.295,0.738
				c0,0.197-0.025,0.321-0.074,0.37V228.98z M155.705,225.731c-0.197,0.493-0.369,0.96-0.517,1.403
				c-0.147,0.443-0.295,0.862-0.443,1.255c0.787-0.492,1.735-1.119,2.843-1.883c1.108-0.763,2.105-1.562,2.991-2.4
				c0.886-0.836,1.501-1.698,1.846-2.584c0.344-0.886,0.196-1.673-0.443-2.363v-0.074c-0.395,0.05-0.764,0.124-1.108,0.222
				c-0.345,0.099-0.714,0.295-1.107,0.591c-0.788,0.542-1.527,1.329-2.215,2.363C156.861,223.294,156.246,224.452,155.705,225.731z"
				/>
			<linearGradient id="SVGID_16_" gradientUnits="userSpaceOnUse" x1="57.0684" y1="196.6357" x2="329.8848" y2="196.6357">
				<stop  offset="0" style="stop-color:#E55E88"/>
				<stop  offset="1" style="stop-color:#61C4E4"/>
			</linearGradient>
			<path fill="url(#SVGID_16_)" d="M185.76,226.396c0.394,0.247,0.688,0.48,0.886,0.701c0.196,0.222,0.344,0.456,0.443,0.702
				c0.147,0.247,0.246,0.493,0.295,0.738c-0.247,1.822-0.702,3.336-1.366,4.542c-0.665,1.207-1.342,2.154-2.031,2.843
				c-0.838,0.838-1.698,1.477-2.584,1.92c-1.674-0.394-3.065-0.923-4.172-1.587c-1.108-0.665-1.735-1.464-1.883-2.4
				c-0.099-0.443-0.147-0.935-0.147-1.477c0-0.542,0.024-1.083,0.074-1.625c-0.295,0.788-0.579,1.576-0.849,2.363
				c-0.271,0.788-0.53,1.49-0.775,2.104c-0.247,0.616-0.469,1.133-0.665,1.551c-0.197,0.419-0.345,0.677-0.443,0.775
				c-1.083,0.197-2.067,0.246-2.954,0.148c-0.788-0.098-1.576-0.32-2.363-0.665c-0.788-0.344-1.377-1.009-1.772-1.994
				c-0.098-0.591-0.148-1.23-0.148-1.92c0-0.591,0.013-1.304,0.037-2.142c0.025-0.836,0.111-1.747,0.258-2.732
				c0.197-1.329,0.504-2.707,0.923-4.135c0.417-1.427,0.923-2.732,1.514-3.914c0.591-1.182,1.267-2.153,2.031-2.917
				c0.763-0.763,1.636-1.169,2.622-1.219c0.591-0.048,1.182-0.024,1.772,0.074c0.542,0.099,1.108,0.247,1.699,0.443
				c0.591,0.197,1.206,0.517,1.846,0.96c0.394-1.575,0.763-3.002,1.107-4.283c0.344-1.279,0.64-2.337,0.886-3.175
				c0.148-0.492,0.172-0.799,0.074-0.923c-0.099-0.123-0.099-0.307,0-0.554c0.049-0.196,0.196-0.295,0.443-0.295
				c0.098,0,0.172,0.013,0.222,0.037c0.048,0.025,0.098,0.037,0.147,0.037c0.048,0,0.098,0.025,0.148,0.074
				c0.443,0.147,1.058,0.395,1.846,0.738c0.787,0.345,1.501,0.788,2.142,1.33c0.098,0.049,0.172,0.123,0.222,0.221
				c0.098,0.247,0.123,0.517,0.074,0.813c-0.247,0.738-0.64,2.081-1.181,4.024c-0.542,1.945-1.133,4.099-1.772,6.462
				c-0.099,0.542-0.222,1.059-0.369,1.551c-0.148,0.493-0.271,1.009-0.37,1.55c-0.099,0.345-0.185,0.678-0.258,0.997
				c-0.074,0.321-0.16,0.653-0.258,0.997c-0.345,1.477-0.579,2.769-0.702,3.877c-0.124,1.107-0.21,2.031-0.258,2.769
				c-0.05,0.886-0.025,1.601,0.074,2.142c1.28-0.541,2.289-1.354,3.028-2.437c0.738-1.082,1.304-2.142,1.698-3.175
				C185.391,229.08,185.661,227.774,185.76,226.396z M177.046,221.522c0.098-0.541,0.221-1.058,0.369-1.551
				c0.147-0.492,0.27-1.008,0.369-1.551c-0.443,0-0.936,0.086-1.477,0.258c-0.542,0.173-1.034,0.48-1.477,0.923
				c-0.739,0.738-1.403,1.748-1.994,3.027c-0.591,1.281-1.071,2.647-1.44,4.099c-0.369,1.453-0.604,2.917-0.702,4.394
				c-0.099,1.477-0.049,2.832,0.148,4.062c0.689-0.935,1.377-2.042,2.068-3.323c0.59-1.132,1.255-2.535,1.994-4.209
				c0.738-1.673,1.452-3.667,2.142-5.982V221.522z"/>
			<linearGradient id="SVGID_17_" gradientUnits="userSpaceOnUse" x1="57.0684" y1="196.6357" x2="329.8848" y2="196.6357">
				<stop  offset="0" style="stop-color:#E55E88"/>
				<stop  offset="1" style="stop-color:#61C4E4"/>
			</linearGradient>
			<path fill="url(#SVGID_17_)" d="M204.59,236.956c-0.295-0.443-0.493-0.935-0.591-1.477c-0.049-0.196-0.099-0.418-0.147-0.665
				c-0.05-2.216,0.295-4.086,1.034-5.612c0.739-1.525,1.625-2.757,2.659-3.692c1.034-0.935,2.079-1.649,3.138-2.142
				c1.058-0.492,1.883-0.813,2.474-0.96c0.147-0.049,0.319-0.074,0.517-0.074c0.148,0,0.307,0,0.48,0
				c0.172,0,0.357,0.05,0.554,0.148c1.427,0.542,2.622,1.305,3.582,2.289c0.96,0.985,1.636,1.772,2.031,2.363
				c0.048,0.099,0.074,0.197,0.074,0.295c0,0.099,0,0.197,0,0.295c0,0.099-0.05,0.197-0.148,0.295
				c-0.247,0.247-0.493,0.321-0.738,0.221c-0.147,0-0.271-0.048-0.369-0.147c-0.542-0.295-1.096-0.467-1.662-0.517
				c-0.566-0.048-1.071-0.024-1.514,0.074c-0.542,0.099-1.06,0.247-1.551,0.443c-1.527,0.542-2.732,1.305-3.619,2.289
				c-0.886,0.985-1.551,1.97-1.994,2.954c-0.542,1.182-0.912,2.388-1.108,3.618c1.575,0.197,3.15,0.161,4.726-0.11
				c1.575-0.27,3.052-0.85,4.431-1.736c2.658-1.772,4.898-3.741,6.72-5.907c1.821-2.166,3.298-4.406,4.431-6.72
				c-1.133-0.246-2.352-0.369-3.655-0.369c-1.305,0-2.671,0.173-4.099,0.517c-0.099,0.148-0.271,0.333-0.517,0.554
				c-0.247,0.221-0.517,0.308-0.813,0.258c-0.247,0-0.369-0.122-0.369-0.369v-0.369c0.246-0.689,0.665-1.612,1.255-2.77
				c0.591-1.156,1.427-2.178,2.511-3.064c0.689-0.541,1.699-0.75,3.028-0.628c1.329,0.124,2.854,0.628,4.578,1.514
				c0.591-1.92,0.96-3.729,1.108-5.428c0.148-1.699,0.159-3.187,0.037-4.468c-0.124-1.28-0.382-2.313-0.775-3.102
				c-0.395-0.787-0.862-1.182-1.403-1.182c-0.985-0.048-1.933,0.369-2.843,1.255c-0.912,0.886-1.736,1.896-2.474,3.028
				c-0.886,1.281-1.698,2.758-2.437,4.431c-0.493-0.147-0.936-0.369-1.329-0.665c-0.395-0.295-0.714-0.591-0.96-0.886
				c-0.295-0.344-0.566-0.688-0.813-1.034c-0.443-0.738-0.443-1.514,0-2.326c0.443-0.813,1.058-1.588,1.846-2.326
				c0.787-0.738,1.636-1.39,2.548-1.957c0.91-0.565,1.662-0.971,2.252-1.218c0.246-0.098,0.517-0.172,0.812-0.222
				c0.492-0.048,1.156-0.048,1.994,0c0.738,0.099,1.451,0.21,2.142,0.333c0.688,0.124,1.23,0.234,1.625,0.332
				c0.295,0.05,0.591,0.148,0.886,0.295c0.59,0.247,1.082,0.641,1.477,1.182c0.443,0.69,0.85,1.613,1.219,2.769
				c0.369,1.158,0.627,2.474,0.775,3.951c0.147,1.477,0.147,3.09,0,4.837c-0.148,1.748-0.517,3.557-1.108,5.428
				c1.132,0.936,2.301,2.006,3.508,3.212c1.206,1.207,2.4,2.598,3.582,4.172c0.541-2.264,1.145-4.615,1.809-7.052
				s1.292-4.701,1.883-6.794c0.591-2.092,1.107-3.888,1.551-5.391c0.443-1.501,0.738-2.498,0.886-2.991
				c0.246-0.836,0.393-1.525,0.443-2.068c0.048-0.541,0.024-0.935-0.074-1.182v-0.221c0-0.196,0.122-0.295,0.369-0.295
				c0.984,0,1.858,0.16,2.622,0.48c0.763,0.321,1.341,0.627,1.735,0.923c0.098,0.1,0.196,0.222,0.295,0.369
				c0.196,0.345,0.246,0.714,0.147,1.108c-0.099,0.295-0.234,0.764-0.406,1.403c-0.173,0.64-0.382,1.378-0.628,2.215
				c-0.247,0.837-0.505,1.748-0.775,2.732c-0.271,0.985-0.53,1.946-0.775,2.88c-0.591,2.265-1.255,4.726-1.994,7.384
				c-0.591,2.265-1.158,4.739-1.699,7.422c-0.542,2.684-0.985,5.083-1.329,7.2c-0.099,0.69-0.111,1.392-0.037,2.105
				c0.074,0.713,0.307,1.267,0.702,1.661l0.148,0.295c0.098,0.196,0.074,0.369-0.074,0.517c-0.197,0.196-0.418,0.406-0.665,0.627
				c-0.247,0.222-0.566,0.381-0.96,0.48c-0.147,0-0.247,0.024-0.295,0.074c-0.64,0.098-1.231,0.111-1.772,0.037
				c-0.542-0.074-1.009-0.185-1.403-0.332c-0.493-0.197-0.936-0.419-1.329-0.665c-0.05,0-0.074-0.025-0.074-0.074l-0.147-0.295
				c-0.099-0.247-0.173-0.69-0.222-1.329c-0.049-0.64,0-1.526,0.148-2.658c0.048-0.049,0.074-0.123,0.074-0.222
				c0.098-0.689,0.233-1.452,0.406-2.289c0.172-0.837,0.381-1.723,0.627-2.659c-0.837-1.132-1.908-2.35-3.212-3.655
				c-1.305-1.304-2.819-2.449-4.542-3.434c-1.281,2.806-2.732,5.219-4.357,7.237c-1.625,2.019-3.151,3.717-4.578,5.095
				c-1.674,1.625-3.373,2.978-5.096,4.062c-0.886,0.541-1.748,0.897-2.584,1.071c-0.837,0.172-1.576,0.258-2.215,0.258
				c-0.788,0-1.502-0.099-2.142-0.295c-2.167-0.591-3.829-1.392-4.984-2.4C205.906,238.494,205.082,237.646,204.59,236.956z"/>
			<linearGradient id="SVGID_18_" gradientUnits="userSpaceOnUse" x1="57.0684" y1="196.6357" x2="329.8848" y2="196.6357">
				<stop  offset="0" style="stop-color:#E55E88"/>
				<stop  offset="1" style="stop-color:#61C4E4"/>
			</linearGradient>
			<path fill="url(#SVGID_18_)" d="M267.285,228.98c-0.69,2.511-1.687,4.382-2.991,5.612c-1.305,1.231-2.647,2.093-4.025,2.584
				c-1.181,0.395-2.302,0.591-3.36,0.591c-1.059,0-1.859-0.048-2.4-0.147c-1.329-0.246-2.389-0.702-3.175-1.366
				c-0.788-0.665-1.366-1.44-1.735-2.326c-0.37-0.886-0.591-1.81-0.665-2.77c-0.074-0.96-0.061-1.883,0.037-2.769
				c0.099-1.034,0.271-1.981,0.517-2.843c0.246-0.861,0.491-1.562,0.738-2.104c0.443-1.034,0.935-2.005,1.477-2.917
				c0.541-0.91,1.132-1.71,1.772-2.4c0.639-0.689,1.292-1.23,1.957-1.625c0.665-0.394,1.366-0.565,2.105-0.517
				c0.639,0.099,1.279,0.247,1.92,0.443c0.541,0.197,1.132,0.468,1.772,0.812c0.64,0.345,1.23,0.838,1.772,1.477
				c0.048,0.049,0.185,0.222,0.406,0.517c0.222,0.295,0.381,0.714,0.48,1.255c0.098,0.542,0.061,1.181-0.111,1.92
				c-0.173,0.738-0.616,1.551-1.329,2.437c-0.714,0.886-1.772,1.858-3.175,2.917c-1.403,1.06-3.286,2.154-5.649,3.286
				c-0.099,0.739-0.136,1.379-0.111,1.92c0.024,0.542,0.085,1.009,0.185,1.403c0.098,0.443,0.196,0.788,0.295,1.034
				c0.196,0.295,0.541,0.505,1.034,0.628c0.492,0.124,1.034,0.16,1.625,0.111c0.591-0.048,1.168-0.135,1.735-0.259
				c0.565-0.122,1.045-0.258,1.44-0.406c0.984-0.394,1.809-0.935,2.474-1.625c0.665-0.688,1.219-1.403,1.662-2.141
				c0.443-0.739,0.775-1.44,0.997-2.105s0.381-1.193,0.48-1.587c0.048-0.246,0.098-0.467,0.147-0.665
				c0.049-0.196,0.074-0.37,0.074-0.517v-0.443c0.688,0.395,1.156,0.862,1.403,1.403c0.148,0.247,0.246,0.493,0.295,0.738
				c0,0.197-0.025,0.321-0.074,0.37V228.98z M255.101,225.731c-0.197,0.493-0.369,0.96-0.517,1.403
				c-0.147,0.443-0.295,0.862-0.443,1.255c0.787-0.492,1.735-1.119,2.843-1.883c1.108-0.763,2.105-1.562,2.991-2.4
				c0.886-0.836,1.501-1.698,1.846-2.584c0.344-0.886,0.196-1.673-0.443-2.363v-0.074c-0.395,0.05-0.764,0.124-1.108,0.222
				c-0.345,0.099-0.714,0.295-1.107,0.591c-0.788,0.542-1.527,1.329-2.215,2.363C256.257,223.294,255.642,224.452,255.101,225.731z"
				/>
			<linearGradient id="SVGID_19_" gradientUnits="userSpaceOnUse" x1="57.0684" y1="196.6357" x2="329.8848" y2="196.6357">
				<stop  offset="0" style="stop-color:#E55E88"/>
				<stop  offset="1" style="stop-color:#61C4E4"/>
			</linearGradient>
			<path fill="url(#SVGID_19_)" d="M285.155,226.396c0.394,0.247,0.688,0.48,0.886,0.701c0.196,0.222,0.344,0.456,0.443,0.702
				c0.147,0.247,0.246,0.493,0.295,0.738c-0.247,1.822-0.702,3.336-1.366,4.542c-0.665,1.207-1.342,2.154-2.031,2.843
				c-0.838,0.838-1.698,1.477-2.584,1.92c-1.674-0.394-3.065-0.923-4.172-1.587c-1.108-0.665-1.735-1.464-1.883-2.4
				c-0.099-0.443-0.147-0.935-0.147-1.477c0-0.542,0.024-1.083,0.074-1.625c-0.295,0.788-0.579,1.576-0.849,2.363
				c-0.271,0.788-0.53,1.49-0.775,2.104c-0.247,0.616-0.469,1.133-0.665,1.551c-0.197,0.419-0.345,0.677-0.443,0.775
				c-1.083,0.197-2.067,0.246-2.954,0.148c-0.788-0.098-1.576-0.32-2.363-0.665c-0.788-0.344-1.377-1.009-1.772-1.994
				c-0.098-0.591-0.148-1.23-0.148-1.92c0-0.591,0.013-1.304,0.037-2.142c0.025-0.836,0.111-1.747,0.258-2.732
				c0.197-1.329,0.504-2.707,0.923-4.135c0.417-1.427,0.923-2.732,1.514-3.914c0.591-1.182,1.267-2.153,2.031-2.917
				c0.763-0.763,1.636-1.169,2.622-1.219c0.639-0.048,1.279,0,1.92,0.148c0.541,0.099,1.156,0.271,1.846,0.517
				c0.689,0.247,1.354,0.641,1.994,1.182c0,0.05,0.024,0.099,0.074,0.148v0.221c-0.1,0.1-0.173,0.148-0.222,0.148h-0.148
				c-0.443,0-0.973,0.063-1.587,0.185c-0.616,0.124-1.194,0.456-1.735,0.997c-0.739,0.738-1.403,1.748-1.994,3.027
				c-0.591,1.281-1.071,2.647-1.44,4.099c-0.369,1.453-0.604,2.917-0.702,4.394c-0.099,1.477-0.049,2.832,0.148,4.062
				c0.689-0.935,1.377-2.042,2.068-3.323c0.59-1.132,1.255-2.535,1.994-4.209c0.738-1.673,1.452-3.667,2.142-5.982
				c0.098-0.443,0.196-0.824,0.295-1.145c0.098-0.319,0.172-0.602,0.221-0.849c0.049-0.048,0.098-0.123,0.148-0.222
				c0.147-0.147,0.319-0.196,0.517-0.147c1.377,0.395,2.35,0.801,2.917,1.218c0.565,0.419,0.948,0.775,1.145,1.071
				c0,0.099,0.024,0.197,0.074,0.295c0,0.099,0.011,0.197,0.037,0.295c0.024,0.099,0.012,0.222-0.037,0.369
				c-0.69,2.315-1.182,4.296-1.477,5.945c-0.295,1.65-0.493,3.04-0.591,4.172c-0.147,1.281-0.173,2.363-0.074,3.249
				c1.28-0.541,2.289-1.354,3.028-2.437c0.738-1.082,1.304-2.142,1.698-3.175C284.786,229.08,285.056,227.774,285.155,226.396z"/>
			<linearGradient id="SVGID_20_" gradientUnits="userSpaceOnUse" x1="57.0684" y1="196.6357" x2="329.8848" y2="196.6357">
				<stop  offset="0" style="stop-color:#E55E88"/>
				<stop  offset="1" style="stop-color:#61C4E4"/>
			</linearGradient>
			<path fill="url(#SVGID_20_)" d="M301.733,217.978c0.122,0.147,0.135,0.395,0.037,0.738c-0.049,0-0.074,0.025-0.074,0.074v0.074
				c-0.493,1.281-0.899,2.511-1.218,3.692c-0.321,1.182-0.604,2.265-0.85,3.25c-0.049,0.247-0.173,0.418-0.369,0.517
				c-0.099,0.05-0.173,0.05-0.222,0c-1.133-0.196-2.006-0.43-2.621-0.701c-0.616-0.27-1.096-0.504-1.44-0.702
				c-0.247-0.098-0.369-0.295-0.369-0.591v-0.443l0.665-2.437c-1.083,1.281-2.043,2.757-2.88,4.431
				c-0.837,1.674-1.551,3.299-2.142,4.874c-0.591,1.576-1.046,2.979-1.366,4.209c-0.321,1.231-0.529,2.043-0.627,2.437v0.222
				c0,0.099-0.025,0.172-0.074,0.221c-0.1,0.098-0.197,0.148-0.295,0.148c-0.345-0.1-0.85-0.21-1.514-0.333
				c-0.665-0.122-1.392-0.381-2.178-0.775c-0.148-0.048-0.222-0.147-0.222-0.295v-0.147c-0.098-1.083-0.085-2.387,0.037-3.914
				c0.124-1.525,0.332-3.138,0.627-4.837c0.295-1.698,0.639-3.445,1.034-5.243c0.393-1.796,0.787-3.507,1.181-5.132
				c0.049-0.246,0.037-0.417-0.037-0.517c-0.074-0.098-0.086-0.27-0.037-0.517c0.048-0.147,0.196-0.222,0.443-0.222h0.074h0.222
				h0.074c0.048,0.05,0.098,0.074,0.147,0.074h0.074c0.443,0.147,1.045,0.382,1.81,0.701c0.763,0.321,1.44,0.751,2.031,1.292
				l0.074,0.074c0.048,0,0.123,0.063,0.222,0.185c0.098,0.124,0.122,0.308,0.074,0.554c0,0.099-0.025,0.173-0.074,0.221v0.148
				c-0.099,0.295-0.148,0.468-0.148,0.517c-0.247,0.985-0.517,1.994-0.812,3.028s-0.567,2.093-0.813,3.175
				c1.132-2.313,2.289-4.27,3.471-5.871c1.182-1.599,2.116-2.793,2.806-3.582c0.048,0,0.074-0.024,0.074-0.074
				c0.148-0.048,0.295-0.196,0.443-0.443c0.196-0.196,0.443-0.295,0.738-0.295c0.148,0,0.27,0.025,0.369,0.074
				c0.492,0.197,1.045,0.443,1.662,0.738c0.615,0.295,1.169,0.665,1.662,1.108h0.074C301.523,217.731,301.61,217.83,301.733,217.978
				z"/>
			<linearGradient id="SVGID_21_" gradientUnits="userSpaceOnUse" x1="57.0684" y1="196.6357" x2="329.8848" y2="196.6357">
				<stop  offset="0" style="stop-color:#E55E88"/>
				<stop  offset="1" style="stop-color:#61C4E4"/>
			</linearGradient>
			<path fill="url(#SVGID_21_)" d="M305.684,210.888c0.196-0.739,0.369-1.415,0.517-2.031c0.147-0.615,0.27-1.119,0.369-1.514
				c0.147-0.491,0.172-0.787,0.074-0.886c-0.099-0.098-0.099-0.295,0-0.591c0.048-0.196,0.196-0.27,0.443-0.222h0.37
				c0.048,0.05,0.098,0.074,0.147,0.074c0.443,0.148,1.058,0.395,1.846,0.739c0.787,0.345,1.501,0.788,2.142,1.329
				c0.098,0.099,0.172,0.197,0.222,0.295c0.098,0.247,0.122,0.493,0.074,0.738c-0.05,0.099-0.086,0.247-0.111,0.443
				c-0.025,0.197-0.086,0.418-0.185,0.665c1.87-0.394,3.593-0.763,5.169-1.108c1.575-0.344,2.757-0.615,3.545-0.812
				c3.002-0.787,5.28-0.85,6.831-0.185c1.551,0.665,2.449,1.711,2.695,3.139c0.098,0.591,0.062,1.121-0.111,1.588
				c-0.173,0.468-0.395,0.862-0.665,1.181c-0.271,0.321-0.542,0.58-0.812,0.775c-0.271,0.197-0.48,0.321-0.628,0.37
				c-0.049,0-0.099,0.025-0.147,0.074c-0.395,0.099-0.641,0.074-0.739-0.074c-0.049-0.098-0.074-0.222-0.074-0.37
				c0-0.048,0.024-0.122,0.074-0.221c0.148-0.246,0.172-0.418,0.074-0.517c-0.641-0.787-1.49-1.316-2.548-1.588
				c-1.059-0.27-2.289-0.38-3.692-0.332c-1.403,0.049-2.942,0.21-4.615,0.48c-1.674,0.271-3.422,0.53-5.243,0.775
				c-0.345,1.379-0.727,2.868-1.145,4.468c-0.419,1.6-0.825,3.114-1.219,4.542c-0.493,1.97-0.875,3.779-1.145,5.428
				c-0.271,1.65-0.456,3.09-0.554,4.32c-0.197,1.429-0.295,2.758-0.295,3.988c1.28-0.541,2.276-1.354,2.991-2.437
				c0.713-1.083,1.267-2.166,1.662-3.249c0.443-1.28,0.713-2.585,0.813-3.914c0.393,0.247,0.701,0.493,0.923,0.738
				c0.222,0.247,0.381,0.493,0.48,0.739c0.147,0.247,0.246,0.493,0.295,0.738c-0.295,1.822-0.775,3.323-1.44,4.505
				c-0.665,1.181-1.342,2.117-2.031,2.806c-0.838,0.837-1.699,1.477-2.584,1.92c-1.625-0.394-2.991-0.911-4.099-1.551
				c-1.108-0.639-1.735-1.452-1.883-2.437c-0.098-0.689-0.111-1.551-0.037-2.584c0.074-1.034,0.197-2.142,0.369-3.323
				c0.173-1.182,0.394-2.387,0.665-3.619c0.27-1.23,0.528-2.387,0.775-3.471c0.246-1.034,0.517-2.153,0.813-3.36
				c0.295-1.206,0.591-2.4,0.886-3.582c-1.871,0.147-3.371,0.185-4.504,0.111c-1.132-0.074-2.042-0.159-2.732-0.258
				c-0.787-0.148-1.377-0.32-1.772-0.517c-0.591-0.295-0.984-0.676-1.182-1.145c-0.196-0.467-0.295-0.947-0.295-1.44
				c0-0.492,0.049-0.911,0.147-1.255c0.1-0.344,0.148-0.565,0.148-0.665l0.147-0.074c0.247,0,0.345,0.173,0.295,0.517
				c0,0.197,0.025,0.406,0.074,0.627c0.05,0.222,0.148,0.406,0.295,0.554c0.838,0.64,2.179,0.973,4.025,0.997
				C301.438,211.246,303.468,211.135,305.684,210.888z"/>
		</g>
	</g>
</g>
</svg>
