<?xml version="1.0" encoding="utf-8"?>
<!-- Generator: Adobe Illustrator 16.0.0, SVG Export Plug-In . SVG Version: 6.00 Build 0)  -->
<!DOCTYPE svg PUBLIC "-//W3C//DTD SVG 1.1//EN" "http://www.w3.org/Graphics/SVG/1.1/DTD/svg11.dtd">
<svg version="1.1" xmlns="http://www.w3.org/2000/svg" xmlns:xlink="http://www.w3.org/1999/xlink" x="0px" y="0px" width="360px"
	 height="640px" viewBox="0 0 360 640" enable-background="new 0 0 360 640" xml:space="preserve">
<g id="Layer_1" display="none">
	
		<rect x="18" y="32" display="inline" fill="#FFFFFF" stroke="#000000" stroke-width="0.81" stroke-miterlimit="10" width="324" height="576"/>
</g>
<g id="Layer_2">
	<g>
		<path d="M170.736,231.8h-2.004v-25.594h2.004V231.8z"/>
		<path d="M192.023,206.206v18.158c-0.012,2.473-0.677,4.389-1.995,5.748s-3.19,2.039-5.616,2.039c-2.461,0-4.345-0.671-5.651-2.013
			s-1.96-3.29-1.96-5.845v-18.088h2.004v18.018c0,4.043,1.869,6.064,5.607,6.064c3.68,0,5.543-1.963,5.59-5.889v-18.193H192.023z"/>
		<path d="M161.025,392.253c-2.556,0.036-6.694,0.288-8.566,0.468c-0.972,0.217-1.08,0.721-1.8,0.721
			c-0.972,0-5.003-1.729-5.003-2.304c0-0.108,0.144-0.181,0.396-0.181c0.18,0,0.468,0.036,0.792,0.108
			c2.34,0.252,5.219,0.359,8.279,0.359c5.363,0,11.302-0.287,15.909-0.575c1.908-0.252,1.368-0.792,3.096-0.792
			c0.972,0,3.815,0,3.815,1.188c0,0.432-0.432,0.864-1.151,0.937c-2.231-0.072-4.248-0.108-6.695-0.108
			c-1.907,0-4.104,0.036-6.839,0.108c0,8.53,0,11.878-0.72,14.109c-0.324,0.828-0.648,1.296-0.937,1.296
			c-0.324,0-0.54-0.611-0.576-2.016V392.253z M155.879,376.127c2.375,0,9.431-0.18,11.086-0.288
			c1.116-0.036,0.648-0.432,1.764-0.432c1.044,0,2.664,0.18,2.664,0.684c0,0.324-0.54,0.792-0.792,1.368
			c-0.72,2.664-1.332,5.184-1.728,7.343c1.115,0.072,1.584,0.433,1.584,0.721c0,0.504-0.828,0.504-1.62,0.504
			c-2.952,0-10.871,0.216-13.103,0.323c-0.18,1.225-0.684,1.98-1.115,1.98c-0.36,0-0.685-0.469-0.828-1.584
			c-0.072-1.116-0.504-6.264-0.792-8.783c0-0.684-1.476-1.26-1.979-1.476c-0.576-0.18-0.828-0.396-0.828-0.576
			c0-0.216,0.396-0.432,1.151-0.504c1.404,0.108,2.736,0.396,4.032,0.72H155.879z M165.633,385.09
			c0.792-0.107,1.152-0.18,1.944-0.359c0.18-2.269,0.432-6.588,0.432-8.027c-1.691,0.144-9.322,0.324-12.238,0.396
			c-0.144,0.145-0.396,0.145-0.396,0.576l0.323,7.703L165.633,385.09z"/>
		<path d="M206.961,390.021c1.476-0.18,1.331-0.828,3.239-0.828c1.008,0,3.743,0.072,3.743,1.26c0,0.433-0.504,0.864-1.296,0.864
			h-0.107c-1.692-0.145-3.672-0.18-5.651-0.18c-3.096,0-6.191,0.107-8.171,0.18c-3.132,0.144-7.235,0.359-9.935,0.576
			c-1.296,0.288-1.477,0.792-2.124,0.792c-0.684,0-4.751-1.656-4.751-2.34c0-0.108,0.144-0.216,0.432-0.216
			c0.18,0,0.432,0.035,0.72,0.107c1.296,0.36,3.491,0.504,6.228,0.504c4.392,0,10.259-0.359,16.197-0.647L206.961,390.021z
			 M209.192,406.039c-1.439-0.18-3.924-0.287-7.091-0.287c-3.132,0-6.947,0.107-11.087,0.432c-1.08,0.216-1.368,0.504-1.836,0.504
			c-0.756,0-3.924-1.44-3.924-1.908c0-0.107,0.217-0.18,0.648-0.18c0.216,0,0.468,0,0.756,0.036c2.16,0.252,4.499,0.324,6.768,0.324
			c2.339,0,4.679-0.072,7.271-0.181c0.216-0.792,0.612-2.304,0.936-4.499v-0.072c0-0.936-1.764-1.62-1.764-2.016
			c0-0.108,0.217-0.216,0.828-0.252c0.54,0,3.708,0.756,3.708,1.439c0,0.324-0.36,0.648-0.54,1.08
			c-0.828,2.052-1.332,3.24-1.908,4.248l2.448-0.036c1.331-0.181,1.26-0.756,2.844-0.756c0.611,0,3.599,0.071,3.599,1.296
			c0,0.468-0.504,0.827-1.367,0.827H209.192z M189.575,382.931c-0.072-0.685-1.116-0.937-2.34-1.225
			c-0.288-0.071-0.54-0.18-0.54-0.323c0-0.181,0.324-0.36,1.188-0.576c1.332,0,3.204,0.18,4.283,0.396
			c1.8,0,6.552-0.252,9.432-0.396c1.079-0.108,1.331-0.288,2.411-0.468c0.108-0.972,0.216-2.16,0.181-3.672
			c-3.276,0.18-7.596,0.396-11.591,0.684c-1.152,0.217-1.368,0.612-1.908,0.612c-0.647,0-3.779-1.332-3.779-1.8
			c0-0.107,0.144-0.18,0.396-0.18c0.145,0,0.288,0,0.469,0.036c1.548,0.18,3.239,0.252,5.003,0.252c3.168,0,6.551-0.216,9.646-0.433
			c1.225-0.107,1.044-0.432,2.844-0.432c0.685,0,1.98,0,1.98,0.576c0,0.359-0.648,0.863-0.9,1.26
			c-0.432,1.403-0.756,2.159-1.008,3.06c0.972,0.036,1.476,0.432,1.476,0.756c0,0.252-0.288,0.468-0.899,0.468
			c-4.823,0.216-9.539,0.396-13.282,0.576c-0.54,0.18-0.756-0.108-0.756,0.54c-0.036,0.684-0.036,1.044-0.036,2.52
			c0.036,0.54,0.216,0.72,1.08,0.756c2.483-0.036,5.938-0.072,8.998-0.36c2.484-0.216,1.08-1.079,4.319-1.079
			c1.296,0,1.8,0.504,1.8,0.936s-0.432,0.828-1.188,0.864c-5.472,0.252-11.519,0.504-14.47,0.504c-1.872,0-2.664-0.36-2.736-1.8
			L189.575,382.931z M202.317,395.853c1.403-0.072,1.439-0.72,3.167-0.72c1.513,0,2.808,0.288,2.808,1.044
			c0,0.396-0.432,0.72-1.151,0.72h-0.144c-1.009-0.072-2.808-0.072-4.859-0.072c-3.313,0-7.38,0.072-10.079,0.145
			c-0.936,0.216-1.152,0.504-1.584,0.504c-0.612,0-3.275-1.116-3.275-1.548c0-0.108,0.144-0.18,0.54-0.18
			c0.144,0,0.288,0,0.504,0.035c1.764,0.181,3.852,0.252,6.083,0.252c2.088,0,4.319-0.071,6.659-0.107L202.317,395.853z
			 M194.002,404.491c-0.396,0-0.756-0.396-0.936-1.188c-0.288-1.008-0.828-2.699-1.512-3.888c-0.216-0.323-0.324-0.611-0.324-0.756
			c0-0.144,0.072-0.216,0.216-0.216c0.576,0,3.528,2.376,3.528,4.319C194.975,403.268,194.65,404.491,194.002,404.491z"/>
		<path d="M174.68,428.596H171l-0.902,4.805h-1.16l0.902-4.805h-2.988v-1.09h3.188l0.973-5.168h-3.27v-1.125h3.48l0.926-4.875h1.16
			l-0.926,4.875h3.691l0.926-4.875h1.16l-0.926,4.875h2.695v1.125h-2.906l-0.973,5.168h3v1.09h-3.211l-0.902,4.805h-1.16
			L174.68,428.596z M171.199,427.506h3.691l0.973-5.168h-3.691L171.199,427.506z"/>
		<path d="M187.922,416.092c0.586,0,1.164,0.066,1.734,0.199s1.078,0.324,1.523,0.574l-0.34,1.125
			c-0.445-0.242-0.891-0.42-1.336-0.533s-0.973-0.17-1.582-0.17c-1.32,0-2.383,0.52-3.188,1.559s-1.207,2.617-1.207,4.734v0.574
			c0.469-0.609,1.066-1.098,1.793-1.465s1.531-0.551,2.414-0.551c1.531,0,2.742,0.527,3.633,1.582s1.336,2.43,1.336,4.125
			c0,1.68-0.479,3.066-1.436,4.16s-2.201,1.641-3.732,1.641c-1.586,0-2.883-0.596-3.891-1.787s-1.512-2.873-1.512-5.045v-3.105
			c0-2.484,0.541-4.375,1.623-5.672S186.227,416.092,187.922,416.092z M187.453,423.287c-0.945,0-1.771,0.246-2.479,0.738
			s-1.189,1.125-1.447,1.898v0.996c0,1.773,0.371,3.141,1.113,4.102s1.707,1.441,2.895,1.441c1.141,0,2.053-0.447,2.736-1.342
			s1.025-1.986,1.025-3.275c0-1.367-0.332-2.469-0.996-3.305S188.688,423.287,187.453,423.287z"/>
		<path d="M110.522,502.222h-1.635l-0.299-3.885c-0.68-0.809-1.564-1.462-2.654-1.96s-2.35-0.747-3.779-0.747
			c-2.859,0-5.133,1.04-6.82,3.12s-2.531,4.767-2.531,8.06v0.369c0,3.293,0.835,5.985,2.505,8.077s3.864,3.138,6.583,3.138
			c1.441,0,2.751-0.252,3.929-0.756s2.101-1.154,2.769-1.951l0.299-3.885h1.635v4.5c-0.797,1.102-1.96,2.021-3.489,2.76
			s-3.243,1.107-5.142,1.107c-3.281,0-5.965-1.216-8.051-3.647s-3.129-5.546-3.129-9.343v-0.334c0-3.809,1.04-6.929,3.12-9.36
			s4.802-3.647,8.165-3.647c1.898,0,3.595,0.372,5.089,1.116s2.64,1.667,3.437,2.769V502.222z"/>
		<path d="M113.704,493.942v-1.564h4.957v11.654c0.633-1.137,1.477-2.021,2.531-2.654s2.285-0.949,3.691-0.949
			c2.004,0,3.542,0.621,4.614,1.863s1.608,3.17,1.608,5.783v9.949l2.865,0.229v1.547h-7.84v-1.547l2.865-0.229v-9.984
			c0-2.063-0.407-3.542-1.222-4.438s-1.937-1.345-3.366-1.345c-1.441,0-2.646,0.378-3.612,1.134s-1.679,1.761-2.136,3.015v11.619
			l2.865,0.229v1.547h-7.822v-1.547l2.865-0.229v-23.854L113.704,493.942z"/>
		<path d="M150.267,519.8c-0.141-0.645-0.24-1.201-0.299-1.67s-0.088-0.943-0.088-1.424c-0.703,0.996-1.641,1.822-2.813,2.479
			s-2.49,0.984-3.955,0.984c-1.863,0-3.305-0.48-4.324-1.441s-1.529-2.262-1.529-3.902c0-1.758,0.756-3.152,2.268-4.184
			s3.563-1.547,6.152-1.547h4.201v-2.514c0-1.359-0.437-2.426-1.31-3.199s-2.095-1.16-3.665-1.16c-1.055,0-2.019,0.144-2.892,0.431
			s-1.603,0.677-2.188,1.169l-0.176,2.549h-1.74l0.018-3.656c0.879-0.68,1.931-1.23,3.155-1.652s2.528-0.633,3.911-0.633
			c2.098,0,3.785,0.533,5.063,1.6s1.916,2.596,1.916,4.588v9.352c0,0.387,0.009,0.759,0.026,1.116s0.056,0.706,0.114,1.046
			l1.898,0.123v1.547H150.267z M143.341,518.306c1.523,0,2.865-0.352,4.025-1.055s1.998-1.611,2.514-2.725v-3.814h-4.236
			c-1.91,0-3.437,0.396-4.579,1.187s-1.714,1.79-1.714,2.997c0,1.02,0.354,1.843,1.063,2.47S142.099,518.306,143.341,518.306z"/>
		<path d="M161.833,495.911v4.869h4.184v1.723h-4.184v12.393c0,1.242,0.226,2.124,0.677,2.646s1.052,0.782,1.802,0.782
			c0.34,0,0.671-0.015,0.993-0.044s0.694-0.079,1.116-0.149l0.316,1.564c-0.352,0.152-0.779,0.27-1.283,0.352
			s-1.008,0.123-1.512,0.123c-1.336,0-2.376-0.422-3.12-1.266s-1.116-2.18-1.116-4.008v-12.393h-3.27v-1.723h3.27v-4.869H161.833z"
			/>
		<path d="M179.288,509.78h-8.402v-1.775h8.402V509.78z"/>
		<path d="M201.437,501.8h-1.723l-0.299-3.621c-0.633-0.797-1.494-1.421-2.584-1.872s-2.367-0.677-3.832-0.677
			c-2.109,0-3.753,0.457-4.931,1.371s-1.767,2.051-1.767,3.41c0,1.289,0.53,2.364,1.591,3.226s2.897,1.62,5.511,2.276
			c2.754,0.703,4.849,1.652,6.284,2.848s2.153,2.771,2.153,4.729c0,2.039-0.832,3.662-2.496,4.869s-3.791,1.811-6.381,1.811
			c-1.828,0-3.524-0.322-5.089-0.967s-2.845-1.564-3.841-2.76v-4.482h1.723l0.299,3.744c0.773,0.879,1.764,1.547,2.971,2.004
			s2.52,0.686,3.938,0.686c2.016,0,3.647-0.445,4.896-1.336s1.872-2.068,1.872-3.533c0-1.395-0.521-2.534-1.564-3.419
			s-2.859-1.667-5.449-2.347c-2.801-0.703-4.922-1.617-6.363-2.742s-2.162-2.643-2.162-4.553c0-1.957,0.82-3.551,2.461-4.781
			s3.756-1.846,6.346-1.846c1.863,0,3.524,0.322,4.983,0.967s2.61,1.518,3.454,2.619V501.8z"/>
		<path d="M204.653,493.942v-1.564h4.957v11.654c0.633-1.137,1.477-2.021,2.531-2.654s2.285-0.949,3.691-0.949
			c2.004,0,3.542,0.621,4.614,1.863s1.608,3.17,1.608,5.783v9.949l2.865,0.229v1.547h-7.84v-1.547l2.865-0.229v-9.984
			c0-2.063-0.407-3.542-1.222-4.438s-1.937-1.345-3.366-1.345c-1.441,0-2.646,0.378-3.612,1.134s-1.679,1.761-2.136,3.015v11.619
			l2.865,0.229v1.547h-7.822v-1.547l2.865-0.229v-23.854L204.653,493.942z"/>
		<path d="M227.944,518.253l2.865-0.229v-15.451l-2.865-0.229v-1.564h4.957v17.244l2.865,0.229v1.547h-7.822V518.253z
			 M232.901,495.331h-2.092v-2.953h2.092V495.331z"/>
		<path d="M243.853,500.78l0.264,3.164v0.229c0.539-1.172,1.274-2.089,2.206-2.751s2.036-0.993,3.313-0.993
			c0.27,0,0.53,0.021,0.782,0.062s0.46,0.085,0.624,0.132l-0.281,1.969l-1.564-0.105c-1.324,0-2.411,0.372-3.261,1.116
			s-1.456,1.767-1.819,3.067v11.355l2.865,0.229v1.547h-7.822v-1.547l2.865-0.229v-15.451l-2.865-0.229v-1.564h2.865H243.853z"/>
		<path d="M261.817,520.169c-2.391,0-4.371-0.876-5.941-2.628s-2.355-3.981-2.355-6.688v-0.967c0-2.719,0.782-4.975,2.347-6.768
			s3.454-2.689,5.669-2.689c2.332,0,4.166,0.738,5.502,2.215s2.004,3.445,2.004,5.906v1.793h-13.43v0.51
			c0,2.133,0.571,3.923,1.714,5.37s2.64,2.171,4.491,2.171c1.301,0,2.414-0.182,3.34-0.545s1.717-0.885,2.373-1.564l0.896,1.441
			c-0.715,0.75-1.617,1.345-2.707,1.784S263.329,520.169,261.817,520.169z M261.536,502.222c-1.547,0-2.851,0.595-3.911,1.784
			s-1.679,2.681-1.854,4.474l0.035,0.088h11.145v-0.527c0-1.652-0.486-3.035-1.459-4.148S263.2,502.222,261.536,502.222z"/>
		<path d="M152.725,536.681c0-2.051,0.674-3.779,2.021-5.186s2.985-2.109,4.912-2.109c1.921,0,3.555,0.703,4.902,2.109
			s2.021,3.135,2.021,5.186c0,2.058-0.676,3.792-2.026,5.205s-2.983,2.119-4.897,2.119c-1.927,0-3.564-0.706-4.912-2.119
			S152.725,538.738,152.725,536.681z M153.555,536.681c0,1.816,0.594,3.352,1.782,4.604s2.629,1.88,4.321,1.88
			c1.673,0,3.105-0.627,4.297-1.88s1.787-2.788,1.787-4.604c0-1.804-0.594-3.328-1.782-4.575s-2.622-1.87-4.302-1.87
			c-1.692,0-3.133,0.623-4.321,1.87S153.555,534.877,153.555,536.681z M162.549,537.979l0.02,0.059
			c0.026,0.977-0.229,1.722-0.767,2.236s-1.287,0.771-2.251,0.771c-0.983,0-1.771-0.347-2.363-1.04s-0.889-1.606-0.889-2.739v-1.162
			c0-1.12,0.296-2.029,0.889-2.729s1.38-1.05,2.363-1.05c0.964,0,1.716,0.257,2.256,0.771s0.798,1.257,0.771,2.227l-0.02,0.059
			h-0.889c0-0.735-0.181-1.282-0.542-1.641s-0.887-0.537-1.577-0.537c-0.716,0-1.274,0.271-1.675,0.815s-0.601,1.235-0.601,2.075
			v1.172c0,0.859,0.2,1.558,0.601,2.095s0.959,0.806,1.675,0.806c0.696,0,1.223-0.176,1.577-0.527s0.532-0.905,0.532-1.66H162.549z"
			/>
		<path d="M173.252,543.8v-0.898l4.658-5.283c0.866-0.977,1.477-1.79,1.831-2.441s0.532-1.276,0.532-1.875
			c0-0.879-0.251-1.587-0.752-2.124s-1.204-0.806-2.109-0.806c-1.081,0-1.901,0.3-2.461,0.898s-0.84,1.399-0.84,2.402h-1.084
			l-0.02-0.059c-0.032-1.185,0.35-2.188,1.147-3.008s1.883-1.23,3.257-1.23c1.224,0,2.202,0.352,2.935,1.055
			s1.099,1.647,1.099,2.832c0,0.781-0.246,1.574-0.737,2.378s-1.174,1.701-2.046,2.69l-3.926,4.434l0.02,0.049h6.201l0.098-2.002
			h1.035v2.988H173.252z"/>
		<path d="M193.184,538.282c0,1.836-0.389,3.249-1.167,4.238s-1.86,1.484-3.247,1.484c-1.38,0-2.463-0.496-3.247-1.489
			s-1.177-2.404-1.177-4.233v-3.174c0-1.829,0.389-3.242,1.167-4.238s1.857-1.494,3.237-1.494c1.387,0,2.473,0.498,3.257,1.494
			s1.177,2.409,1.177,4.238V538.282z M192.012,534.913c0-1.458-0.278-2.58-0.835-3.364s-1.365-1.177-2.427-1.177
			c-1.055,0-1.858,0.394-2.412,1.182s-0.83,1.907-0.83,3.359v3.545c0,1.445,0.281,2.566,0.845,3.364s1.369,1.196,2.417,1.196
			c1.055,0,1.858-0.397,2.412-1.191s0.83-1.917,0.83-3.369V534.913z"/>
		<path d="M195.586,542.94l2.549-0.127v-11.992l-2.803,0.4v-0.82l3.975-0.859v13.271l2.549,0.127v0.859h-6.27V542.94z"/>
		<path d="M210.664,531.896l-0.117-1.23h-5.078l-0.527,5.068c0.358-0.325,0.752-0.576,1.182-0.752s1.013-0.273,1.748-0.293
			c1.211-0.02,2.188,0.388,2.93,1.221s1.113,1.953,1.113,3.359c0,1.438-0.361,2.588-1.084,3.447s-1.807,1.289-3.252,1.289
			c-1.172,0-2.146-0.327-2.925-0.981s-1.15-1.623-1.118-2.905l0.02-0.059h1.045c0,0.957,0.271,1.689,0.811,2.197
			s1.263,0.762,2.168,0.762c1.062,0,1.854-0.319,2.378-0.957s0.786-1.563,0.786-2.773c0-1.062-0.262-1.912-0.786-2.554
			s-1.258-0.962-2.202-0.962c-0.911,0-1.606,0.145-2.085,0.435s-0.825,0.728-1.04,1.313l-0.947-0.156l0.781-7.783h7.148v2.314
			H210.664z"/>
	</g>
</g>
</svg>
