<?xml version="1.0" encoding="utf-8"?>
<!-- Generator: Adobe Illustrator 16.0.0, SVG Export Plug-In . SVG Version: 6.00 Build 0)  -->
<!DOCTYPE svg PUBLIC "-//W3C//DTD SVG 1.1//EN" "http://www.w3.org/Graphics/SVG/1.1/DTD/svg11.dtd">
<svg version="1.1" xmlns="http://www.w3.org/2000/svg" xmlns:xlink="http://www.w3.org/1999/xlink" x="0px" y="0px" width="360px"
	 height="640px" viewBox="0 0 360 640" enable-background="new 0 0 360 640" xml:space="preserve">
<g id="Layer_1" display="none">
	
		<rect x="18" y="32" display="inline" fill="#FFFFFF" stroke="#000000" stroke-width="0.9" stroke-miterlimit="10" width="324" height="576"/>
</g>
<g id="Layer_2">
	<g>
		<path fill="#AA19CE" d="M169.71,158.05c2.52,0.072,6.192,0.504,7.776,1.008c0.576,0.144,0.937,0.576,0.937,1.08
			c0,1.152-0.792,2.088-1.44,2.376c-1.872-0.216-5.977-0.36-8.137-0.36c-2.448,0-11.809,0.072-21.17,0.216v13.393
			c0,3.672-0.576,10.369-1.44,14.186h-2.664c-0.144-3.24-0.288-9.361-0.288-12.745v-14.761c-8.065,0.072-15.266,0.216-16.85,0.288
			c-1.8,0.144-5.329,0.864-6.984,1.44c-2.592-0.792-5.113-2.16-6.841-3.528c-0.216-0.144-0.288-0.288-0.216-0.576l0.504-0.936
			c2.304,0.432,5.544,0.72,7.705,0.72c4.32,0.072,41.62-0.432,46.588-0.72L169.71,158.05z M127.298,130.184
			c-0.864-0.792-2.592-1.729-4.249-2.16l0.288-1.512c0.072-0.216,0.216-0.288,0.72-0.288c2.016,0,6.12,0.288,8.137,0.648
			c6.336,0,19.874-0.072,26.21-0.288l2.304-1.296c0.288-0.144,0.72-0.144,1.08,0c0.864,0.36,2.376,1.224,2.952,1.584
			c0.36,0.216,0.36,0.504,0.144,0.864l-0.864,2.232c-0.288,5.041-1.008,11.017-2.016,16.273l1.512,0.504
			c0.36,0.144,0.432,0.432,0.432,0.72c0,0.864-0.36,1.656-0.792,1.944l-30.603,0.288c-0.144,1.152-0.36,2.016-0.792,2.808h-2.521
			c-0.288-1.008-0.576-2.52-0.648-3.816L127.298,130.184z M132.626,146.961c6.913,0.072,19.154-0.144,24.482-0.36l1.296-0.36
			l0.72-16.849c-8.353,0-18.65,0.072-26.858,0.216L132.626,146.961z"/>
		<path fill="#AA19CE" d="M239.261,155.602c2.52,0.072,6.192,0.504,7.776,1.008c0.576,0.144,0.936,0.504,0.936,1.08
			c0,1.08-0.792,2.016-1.44,2.376c-1.872-0.216-5.977-0.36-8.137-0.36c-5.041-0.072-38.739,0.36-42.412,0.576
			c-1.8,0.144-5.329,0.792-6.984,1.368c-2.592-0.792-5.113-2.088-6.841-3.457c-0.216-0.144-0.288-0.36-0.216-0.576l0.504-0.936
			c2.304,0.432,5.544,0.72,7.705,0.72c4.32,0.072,41.62-0.432,46.588-0.72L239.261,155.602z M232.205,183.18
			c1.944,0.072,5.041,0.288,6.409,0.72c0.432,0.072,0.648,0.432,0.648,0.792c0,1.152-0.648,2.088-1.152,2.448
			c-1.368-0.216-5.041-0.288-6.625-0.288c-3.456,0-24.554,0.36-27.866,0.576c-1.368,0.072-4.249,0.648-5.544,1.152
			c-2.088-0.576-4.537-1.8-6.121-2.952c-0.216-0.144-0.288-0.36-0.216-0.576l0.432-0.864c2.088,0.432,5.185,0.648,6.913,0.648
			l5.617-0.072l-0.648-8.065c-0.72-1.008-2.088-1.944-3.745-2.736l0.432-1.296c0.072-0.216,0.288-0.36,0.72-0.288
			c1.944,0.216,4.68,0.936,6.192,1.656c0.504,0.288,0.648,0.576,0.648,1.08l-0.072,2.592l0.36,6.985l14.401-0.216l0.216-10.009
			c-0.72-0.72-2.088-1.368-3.744-1.872l0.432-1.512c0.072-0.216,0.216-0.288,0.72-0.288c1.944,0.072,4.681,0.576,6.193,1.08
			c0.504,0.216,0.648,0.504,0.648,1.008l-0.144,2.592l-0.432,8.929c1.44-0.072,2.592-0.144,3.168-0.144L232.205,183.18z
			 M196.345,139.904c-1.008-0.792-2.52-1.368-4.176-1.656l0.288-1.224c0.072-0.216,0.288-0.36,0.72-0.36
			c1.872,0,6.121,0.144,7.849,0.36c5.833-0.072,22.25-0.288,25.202-0.504l1.152-0.36c0.216-1.729,0.288-5.761,0.216-7.489
			c-4.752-0.072-19.658,0.216-22.826,0.432c-1.224,0.072-4.032,0.576-5.977,1.08c-2.232-0.72-4.32-1.8-5.833-2.88
			c-0.288-0.288-0.288-0.504-0.216-0.72l0.36-0.648c1.944,0.36,4.681,0.576,6.553,0.576c3.96,0.072,23.474-0.288,28.154-0.504
			l1.944-1.008c0.288-0.144,0.792-0.144,1.152,0c0.648,0.36,1.944,1.08,2.376,1.44c0.288,0.288,0.36,0.648,0.144,0.936l-0.72,1.584
			c-0.144,2.088-0.936,5.544-1.512,7.272l1.44,0.648c0.288,0.144,0.36,0.36,0.36,0.576c0,0.648-0.36,1.224-0.648,1.44l-31.395,0.504
			v7.488c0,0.792,0.288,1.152,1.224,1.152c5.905,0.072,20.81-0.216,25.13-0.504l2.088-1.08c1.944-0.072,4.896,0.216,6.192,0.432
			c0.432,0.144,0.792,0.36,0.792,0.792c0,1.08-0.432,1.8-0.72,2.088c-0.216,0.216-0.432,0.36-0.792,0.36l-33.483,0.504
			c-3.888-0.072-5.041-1.224-5.041-4.249V139.904z M229.684,165.035c2.017,0.072,5.041,0.432,6.409,0.936
			c0.36,0.144,0.648,0.504,0.648,0.792c0,1.08-0.648,2.016-1.152,2.232c-1.368-0.216-5.041-0.288-6.697-0.288
			c-3.024,0-21.026,0.288-23.978,0.504c-1.44,0.072-4.176,0.576-5.544,1.08c-2.088-0.576-4.536-1.8-6.121-3.024
			c-0.216-0.144-0.288-0.36-0.216-0.504l0.504-0.936c2.016,0.36,5.112,0.648,6.769,0.648c3.168,0,23.762-0.216,27.074-0.432
			L229.684,165.035z"/>
		<path d="M157.802,229.211c0,3.048-2.352,5.185-5.521,5.185c-3.192,0-5.568-2.136-5.568-5.185c0-3.024,2.376-5.16,5.568-5.16
			C155.45,224.051,157.802,226.187,157.802,229.211z M156.266,229.211c0-2.52-1.752-4.032-3.984-4.032
			c-2.256,0-3.984,1.512-3.984,4.032c0,2.521,1.728,4.033,3.984,4.033C154.513,233.244,156.266,231.731,156.266,229.211z
			 M165.842,229.115c0.696-0.024,1.656,0.024,2.112,0.12c0.168,0.072,0.312,0.216,0.312,0.384c0,0.384-0.144,0.672-0.288,0.768
			c-0.12,0.048-0.288,0.096-0.408,0.096l-4.272,0.048v7.345c0,1.344-0.192,3.432-0.504,4.752h-0.864
			c-0.072-1.032-0.096-3.168-0.096-4.201v-16.993c-0.456-0.504-1.224-0.912-2.064-1.2l0.144-0.504
			c0.024-0.096,0.096-0.12,0.264-0.12c0.816,0.024,2.256,0.336,2.904,0.576c0.192,0.072,0.264,0.24,0.264,0.456l-0.048,1.224v7.776
			l1.776-0.072L165.842,229.115z"/>
		<path d="M176.281,234.396c-3.144,0-5.497-2.112-5.497-5.136c0-3.048,2.353-5.113,5.497-5.113c3.121,0,5.425,2.064,5.425,5.113
			C181.706,232.283,179.401,234.396,176.281,234.396z M176.281,225.275c-2.208,0-3.912,1.488-3.912,3.984
			c0,2.496,1.704,3.96,3.912,3.96c2.208,0,3.913-1.464,3.913-3.96C180.193,226.763,178.489,225.275,176.281,225.275z
			 M186.314,242.628c-0.048-1.032-0.096-3.168-0.096-4.201v-16.993c-0.432-0.504-1.2-0.912-2.064-1.2l0.168-0.504
			c0.024-0.096,0.072-0.12,0.24-0.12c0.816,0.024,2.256,0.336,2.904,0.576c0.216,0.072,0.288,0.24,0.288,0.456l-0.072,1.224v16.009
			c0,1.344-0.192,3.432-0.48,4.752H186.314z"/>
		<path d="M211.346,231.779c0.84,0.024,2.064,0.168,2.592,0.336c0.192,0.048,0.313,0.168,0.313,0.36c0,0.36-0.264,0.696-0.48,0.792
			c-0.624-0.072-1.992-0.12-2.712-0.12c-0.504,0-1.92,0-3.648,0.024v4.825c0,1.2-0.192,3.36-0.48,4.608h-0.864
			c-0.096-1.056-0.12-3.048-0.12-4.128v-5.305c-1.824,0.024-3.84,0.048-5.496,0.096v4.224c0,1.2-0.192,3.36-0.48,4.608h-0.864
			c-0.096-1.056-0.144-3.048-0.144-4.152v-4.656c-1.008,0.024-1.776,0.024-2.04,0.048c-0.6,0.048-1.776,0.264-2.328,0.456
			c-0.864-0.24-1.705-0.696-2.28-1.152c-0.072-0.048-0.096-0.12-0.072-0.192l0.168-0.336c0.768,0.168,1.848,0.264,2.568,0.264
			c1.44,0.024,13.873-0.144,15.529-0.24L211.346,231.779z M197.521,225.755c0-2.808,2.568-4.656,5.664-4.656
			c3.072,0,5.665,1.848,5.665,4.656c0,2.784-2.592,4.608-5.665,4.608C200.088,230.363,197.521,228.539,197.521,225.755z
			 M199.032,225.755c0,2.28,1.944,3.528,4.152,3.528c2.208,0,4.152-1.248,4.152-3.528s-1.944-3.552-4.152-3.552
			C200.977,222.203,199.032,223.475,199.032,225.755z"/>
	</g>
</g>
</svg>
