<?xml version="1.0" encoding="utf-8"?>
<!-- Generator: Adobe Illustrator 16.0.0, SVG Export Plug-In . SVG Version: 6.00 Build 0)  -->
<!DOCTYPE svg PUBLIC "-//W3C//DTD SVG 1.1//EN" "http://www.w3.org/Graphics/SVG/1.1/DTD/svg11.dtd">
<svg version="1.1" id="Layer_1" xmlns="http://www.w3.org/2000/svg" xmlns:xlink="http://www.w3.org/1999/xlink" x="0px" y="0px"
	 width="595.28px" height="841.89px" viewBox="0 0 595.28 841.89" enable-background="new 0 0 595.28 841.89" xml:space="preserve">
<path fill-rule="evenodd" clip-rule="evenodd" fill="#E55E88" d="M192.395,204.035c-1.801,0.14-2.534,0.657-2.83,1.997
	c-0.34,1.54,0.128,2.513,1.773,3.352c1.902,0.972,3.865,1.825,5.767,2.795c2.57,1.311,4.883,2.957,6.683,5.269
	c1.128,1.449,1.783,3.079,2.133,4.855c0.128,0.87,0.103,1.74,0.012,2.611c-0.888,4.875-4.402,7.328-8.549,9.098
	c-3.578,1.526-7.399,1.671-11.214,1.436c-1.387-0.085-2.75-0.574-4.211-0.898c-0.031,0.697,0.248,1.297,0.437,1.912
	c0.199,0.386-0.061,0.842,0.19,1.219c0.002,0.384,0.003,0.769,0.005,1.153c-0.259,0.371-0.003,0.821-0.185,1.204
	c-0.536,3.396-3.044,5.154-5.692,6.748c-3.206,1.93-6.756,2.715-10.456,2.928c-0.552,0.17-1.147-0.097-1.69,0.167
	c-1.984,0.001-3.968,0.003-5.953,0.004c-0.619-0.283-1.293,0.013-1.92-0.178c-6.094-0.365-11.986-1.717-17.748-3.675
	c-4.203-1.428-8.24-3.197-11.721-6.034c-0.58-0.472-0.96-0.035-1.352,0.262c-1.583,1.196-3.141,2.43-4.879,3.401
	c-1.529,0.854-3.105,1.584-4.89,1.714c-0.709,0.125-1.42,0.104-2.131,0.012c-3.257-0.231-5.747-1.958-8.14-4.004
	c-2.39-2.043-4.059-4.526-5.24-7.397c-0.249-0.605-0.074-1.328-0.557-1.854c0-1.52,0-3.04,0-4.56
	c0.783-5.829,6.688-8.243,10.902-8.485c3.105-0.177,6.164,0.056,9.006,1.503c0.817,0.416,0.871-0.094,0.865-0.686
	c-0.029-2.876-0.188-5.751-0.335-8.621c-0.121-2.351-0.194-4.707-0.347-7.059c-0.281-4.304-0.621-8.603-0.91-12.906
	c-0.207-3.069-0.333-6.144-0.604-9.207c-0.283-3.198-0.342-6.388,0.058-9.572c0.571-4.551,1.994-8.735,5.501-11.936
	c1.706-1.557,3.668-2.544,6.045-2.508c0.406,0,0.812,0,1.217,0c0.652-0.063,1.321,0.137,1.96-0.124c0.16,0,0.32,0,0.48,0
	c0.949,0.689,2.125,0.759,3.186,1.14c5.479,1.966,8.751,6.064,10.961,11.209c0.878,2.044,1.362,4.201,1.742,6.384
	c0.178,0.388-0.066,0.839,0.181,1.216c-0.036,1.975,0.424,3.93,0.23,5.911c-0.222,0.393,0.003,0.849-0.176,1.248
	c-0.368,2.977-1.788,5.58-3.124,8.165c-1.348,2.607-3.929,3.815-6.583,4.736c-1.323,0.459-2.697,0.404-4.077,0.063
	c-1.825-0.452-2.384-1.873-2.8-3.431c-0.072-0.267,0.067-0.494,0.229-0.751c0.413-0.658,1.02-1.2,1.225-1.984
	c0.106-0.299,0.022-0.63,0.177-0.926c1.914-3.636,2.374-7.639,2.921-11.619c0.225-0.939,0.208-1.88,0.017-2.821
	c-0.2-1.422-0.439-2.836-0.91-4.199c-0.251-0.727-0.601-1.401-1.217-1.883c-0.826-0.645-1.472-0.388-1.712,0.626
	c-0.195,0.821-0.144,1.667-0.287,2.492c-0.166,0.481-0.143,0.979-0.134,1.475c0,0.386-0.021,0.77-0.1,1.148
	c-0.148,0.433-0.152,0.88-0.134,1.331c-0.057,0.991-0.25,1.965-0.331,2.953c-0.172,0.507-0.17,1.031-0.143,1.558
	c-0.001,0.537,0.006,1.075-0.099,1.605c-0.219,0.65-0.149,1.32-0.135,1.987c-0.003,0.616,0.019,1.233-0.099,1.843
	c-0.24,0.73-0.147,1.482-0.14,2.229c0.022,0.503-0.069,0.979-0.334,1.413c-0.01,0.301-0.021,0.602-0.032,0.903
	c-0.265,0.882,0.035,1.8-0.172,2.686c-0.022,1.105-0.045,2.21-0.068,3.314c-0.266,1.606,0.026,3.231-0.158,4.84
	c-0.008,0.809-0.015,1.618-0.022,2.427c0.485,0.882,0.332,1.846,0.33,2.782c-0.003,1.298,0.096,2.601-0.092,3.896
	c-0.094,0.385-0.181,0.767-0.181,1.171c0.003,4.447-0.008,8.894,0.008,13.34c0.001,0.199,0.024,0.396,0.083,0.585
	c-0.034,1.349,0.693,2.155,1.792,2.861c7.406,4.756,15.486,7.542,24.231,8.433c0.159,0.017,0.317,0.039,0.475,0.07
	c0.581,0.182,1.175,0.128,1.768,0.103c1.196-0.004,2.391-0.011,3.586-0.003c0.62-0.103,1.199,0.382,1.831,0.127
	c4.946-0.19,8.819-2.314,11.625-6.403c0.337-0.491,0.422-0.799,0.002-1.331c-1.036-1.311-1.324-2.897-1.386-4.532
	c-0.114-0.548-0.093-1.097-0.014-1.646c0.083-1.184,0.247-2.34,0.566-3.501c0.928-3.379,5.113-4.961,7.931-4.158
	c1.716,0.489,3.433,2.917,3.27,4.562c-0.047,0.475-0.431,0.558-0.769,0.609c-0.813,0.124-1.444,0.641-2.172,0.943
	c-0.619,0.258-0.994,0.776-1.107,1.456c-0.146,0.518-0.173,1.036,0.009,1.552c0.181,2.436,1.615,3.946,3.838,4.043
	c0.495,0.188,0.99,0.181,1.486,0.004c3.064,0.049,5.551-2.846,6.114-5.64c0.148-0.735-0.337-1.498-0.799-2.142
	c-1.963-2.739-4.712-4.381-7.831-5.41c-3.813-1.258-6.907-3.325-8.76-7.014c-0.348-0.693-0.411-1.415-0.557-2.137
	c-0.118-0.712-0.118-1.424,0-2.136c0.147-1.83,0.611-3.537,1.792-5.006c1.64-2.041,3.756-3.381,6.172-4.289
	c1.636-0.615,3.33-1.022,5.05-1.321c0.392-0.185,0.847,0.055,1.232-0.181c0.552-0.026,1.104-0.052,1.656-0.078
	c1.189-0.075,2.379-0.115,3.568,0.019c2.981,0.458,5.155,1.922,6.128,4.897c0.54,1.653,0.433,3.285-0.191,4.881
	c-0.422,1.082-1.346,1.645-2.395,1.974c-0.545,0.171-1.075,0.084-1.501-0.429c-0.958-1.151-2.229-1.811-3.666-2.176
	C194.052,203.858,193.224,203.858,192.395,204.035z"/>
<path fill-rule="evenodd" clip-rule="evenodd" fill="#61C4E4" d="M500.619,251.379c-3.16-0.31-6.45-3.239-6.244-7.205
	c0.237-0.384-0.008-0.84,0.186-1.23c0.018-0.71,0.036-1.42,0.055-2.13c0.234-0.384-0.003-0.836,0.18-1.228
	c0.021-1.111,0.04-2.222,0.06-3.333c0.271-0.629-0.038-1.314,0.186-1.949c-0.026-0.775,0.439-1.841-0.152-2.235
	c-0.449-0.299-1.239,0.617-1.9,0.945c-3.496,1.735-7.11,2.555-10.892,1.032c-2.703-1.089-4.017-3.453-5.02-6
	c-0.941-2.389-1.189-4.908-1.235-7.453c-0.235-0.878,0.094-1.795-0.187-2.669c0.002-0.365,0.005-0.73,0.006-1.096
	c0.264-0.799-0.042-1.64,0.176-2.443c0.02-1.031,0.039-2.062,0.059-3.093c0.235-0.383-0.003-0.836,0.181-1.227
	c0.101-1.749,0.201-3.498,0.302-5.247c0.238-0.468-0.003-0.991,0.166-1.467c0.006-0.893,0.012-1.785,0.018-2.678
	c-0.207-0.471,0.067-1.004-0.186-1.469c-0.01-1.188-0.356-2.31-0.653-3.445c-0.302-1.157-0.011-1.515,1.167-1.548
	c0.711-0.02,1.422-0.039,2.133-0.059c0.628-0.09,1.254-0.111,1.88,0.013c1.66,0.137,3.284,0.433,4.76,1.254
	c1.878,1.044,2.78,2.708,2.977,4.803c0.116,0.392,0.122,0.783-0.005,1.173c-1.105,5.355-2.038,10.738-2.72,16.167
	c-0.353,2.812-0.522,5.621-0.459,8.452c0.025,1.148,0.495,1.581,1.671,1.629c2.715,0.112,4.356-1.561,5.791-3.432
	c1.81-2.361,2.423-5.195,2.661-8.114c0.23-0.386-0.008-0.843,0.183-1.235c-0.001-0.571-0.003-1.141-0.005-1.711
	c-0.183-0.391,0.055-0.844-0.18-1.228c0.038-1.25-0.176-2.444-0.814-3.538c-0.226-0.386-0.431-0.765-0.16-1.212
	c0.193-0.464,0.685-0.285,1.009-0.467c2.214,0.052,4.442-0.113,6.622,0.461c2.641,0.695,4.433,2.201,4.866,5.027
	c0.25,0.372-0.07,0.848,0.221,1.212c0,0.4,0,0.8,0,1.2c-0.201,0.64-0.201,1.28,0,1.92c0,0.16,0,0.32,0,0.48
	c-0.691,1.097-0.525,2.381-0.679,3.569c-0.718,5.558-1.371,11.125-1.926,16.702c-0.356,3.576-0.417,7.175-0.263,10.77
	c0.021,0.509,0.155,1.024,0.311,1.513c0.441,1.385,0.282,1.641-1.181,1.762c-0.198,0.017-0.398,0.028-0.598,0.042
	C502.196,251.497,501.407,251.482,500.619,251.379z"/>
<path fill-rule="evenodd" clip-rule="evenodd" fill="#E55E88" d="M253.398,334.13c-0.455-0.615-0.697-1.278-0.697-2.07
	c0.014-15.957-0.007-31.914,0.043-47.871c0.004-1.312-0.475-2.086-1.544-2.632c-1.465-0.748-2.876-1.613-4.443-2.146
	c-0.574-0.195-1.027-0.523-1.001-1.146c0.028-0.673,0.718-0.574,1.122-0.655c2.062-0.413,4.019,0.266,5.971,0.756
	c1.355,0.34,2.841,0.418,3.923,1.501c0.387,1.354-0.101,2.679-0.121,4.017c-0.084,5.868-0.519,11.716-0.926,17.566
	c-0.108,1.552-0.226,3.122-0.201,4.659c0.068,4.202-0.423,8.368-0.593,12.552c-0.158,3.904-0.337,7.812-0.643,11.709
	c-0.056,0.719-0.041,1.437-0.045,2.155c-0.003,0.564-0.022,1.121-0.366,1.606C253.718,334.13,253.558,334.13,253.398,334.13z"/>
<path fill-rule="evenodd" clip-rule="evenodd" fill="#E2608A" d="M253.878,334.13c0.162-4.291,0.304-8.582,0.492-12.871
	c0.213-4.887,0.637-9.76,0.774-14.657c0.122-4.356,0.495-8.72,0.778-13.076c0.205-3.147,0.475-6.316,0.39-9.493
	c-0.037-1.384,0.295-2.778,0.459-4.167c0.779,0.494,0.346,1.277,0.46,1.929c-0.225,0.414-0.111,0.861-0.112,1.292
	c-0.008,6.423-0.006,12.847-0.006,19.271c0,1.884,0,1.884,1.891,1.905c0.666,0.728,0.218,1.473,0.033,2.213
	c-0.602,0.424-1.342-0.061-1.954,0.296c-0.029,2.071-0.074,4.141-0.083,6.212c-0.018,4.228-0.018,8.456-0.024,12.684
	c-0.227,0.476-0.003,1-0.158,1.483c-0.273,1.477-0.49,2.961-0.944,4.405c-0.333,1.06-0.857,1.93-1.757,2.574
	C254.038,334.13,253.958,334.13,253.878,334.13z"/>
<path fill-rule="evenodd" clip-rule="evenodd" fill="#68BDDE" d="M320.887,325.71c-0.021,0.715-0.04,1.431-0.061,2.147
	c-0.249,0.377,0.008,0.833-0.189,1.218c-0.316,1.866-0.816,3.652-2.198,5.055c-0.24,0-0.48,0-0.72,0c0-0.082,0-0.163,0-0.244
	c-0.204-1.013,0.102-2.01,0.128-3.017c0.101-3.896,0.316-7.786,0.372-11.686c0.021-1.406,0.14-2.851,0.483-4.269
	c0.305-1.258,0.269-2.615,0.258-3.909c-0.025-3.218,0.385-6.414,0.377-9.623c-0.007-2.587,0.325-5.14,0.521-7.707
	c0.123-1.614,0.003-3.242,0.023-4.865c0.013-0.969,0.275-1.896,0.324-2.853c0.014-0.275,0.014-0.619,0.405-0.61
	c0.422,0.009,0.338,0.375,0.34,0.636c0.01,1.28-0.008,2.559,0.008,3.839c0.013,1.078-0.064,2.157,0.045,3.234
	c0.018,5.773,0.035,11.546,0.055,17.318c0.003,1.036,0.011,2.071,0.018,3.106c-0.253,0.854-0.098,1.729-0.113,2.594
	C320.901,319.286,321.04,322.499,320.887,325.71z"/>
<path fill-rule="evenodd" clip-rule="evenodd" fill="#96D6EC" d="M507.318,216.53c-0.388-0.64-0.347-1.28,0-1.92
	C507.318,215.25,507.318,215.89,507.318,216.53z"/>
<path fill-rule="evenodd" clip-rule="evenodd" fill="#EB87A6" d="M133.398,157.97c-0.607,0.481-1.299,0.155-1.951,0.203
	c-0.053-0.054-0.066-0.103-0.04-0.145c0.025-0.039,0.048-0.058,0.071-0.058C132.118,157.97,132.758,157.97,133.398,157.97z"/>
<path fill-rule="evenodd" clip-rule="evenodd" fill="#F4BACC" d="M131.478,157.97c-0.008,0.068-0.019,0.136-0.031,0.203
	c-0.396,0.002-0.791,0.004-1.187,0.007c0.015-0.069,0.021-0.139,0.018-0.209C130.678,157.97,131.078,157.97,131.478,157.97z"/>
<path fill-rule="evenodd" clip-rule="evenodd" fill="#BFE7F4" d="M507.318,213.41c-0.377-0.349-0.204-0.798-0.221-1.212
	c0.073,0.009,0.146,0.013,0.221,0.012C507.318,212.61,507.318,213.01,507.318,213.41z"/>
<path fill-rule="evenodd" clip-rule="evenodd" fill="#E55E88" d="M220.747,227.6c-0.013,1.445,0.259,2.788,1.025,4.068
	c0.646,1.078-0.342,1.108-1.033,1.244c-0.391,0.151-0.833-0.074-1.211,0.167c-0.992,0.003-1.984,0.018-2.976,0.009
	c-2.131-0.02-3.476-1.021-4.196-3.085c-0.493-1.415-0.608-2.892-0.761-4.364c-0.179-0.399,0.045-0.855-0.176-1.248
	c-0.021-0.544-0.042-1.088-0.064-1.632c-0.218-1.047,0.089-2.124-0.177-3.167c-0.004-2.534-0.009-5.069-0.013-7.603
	c0.258-1.968,0.051-3.945,0.116-5.917c0.038-1.147-0.067-2.295,0.055-3.441c0.005-1.292,0.009-2.583,0.014-3.874
	c-0.213-0.966,0.099-1.963-0.171-2.926c-0.027-0.626-0.055-1.252-0.082-1.879c-0.141-0.402,0.055-0.848-0.158-1.241
	c-0.023-0.384-0.046-0.769-0.069-1.154c-0.182-0.382,0.074-0.833-0.185-1.204c-0.158-1.219-0.315-2.439-0.473-3.658
	c-0.072-0.554-0.234-1.014-0.944-0.896c-0.625-0.282-1.308,0.034-1.938-0.188c-0.158-0.016-0.316-0.031-0.474-0.047
	c-0.5-0.189-1-0.174-1.501-0.009c-1.452,0.077-2.665,0.677-3.687,1.689c-1.017,1.006-1.239,0.935-2.101-0.152
	c-0.773-0.976-0.821-2.094-0.951-3.221c-0.079-0.389-0.088-0.777,0.007-1.165c0.255-1.842,1.383-2.924,3.04-3.607
	c2.141-0.883,4.364-1.393,6.653-1.671c0.881-0.106,1.556-0.104,1.253-1.534c-0.529-2.49-1.023-4.894-3.215-6.495
	c-0.434-0.317-0.19-0.601-0.184-0.915c0.01-0.519,0.409-0.373,0.697-0.397c0.476-0.041,0.954-0.067,1.431-0.099
	c1.348-0.083,2.696-0.098,4.043,0.007c0.48,0.021,0.959,0.041,1.439,0.062c0.372,0.253,0.813,0.017,1.198,0.171
	c1.203,0.235,2.437,0.367,3.602,0.726c4.217,1.295,5.955,3.722,6.718,8.335c0.087,0.525,0.061,0.906,0.767,0.883
	c1.997-0.064,3.995-0.073,5.992-0.104c1.689-0.189,3.394,0.113,5.081-0.158c0.704-0.021,1.408-0.042,2.112-0.063
	c0.549-0.21,1.155,0.087,1.698-0.186c2.516,0.005,4.951-0.601,7.422-0.944c0.981-0.136,0.792-0.972,0.902-1.453
	c1.563-6.81,5.907-10.974,12.35-13.188c0.367-0.126,0.76-0.178,1.141-0.264c0.734,0.084,0.69,0.646,0.671,1.15
	c-0.176,4.558-0.538,9.108-0.606,13.671c-0.008,0.526-0.278,0.99-0.304,1.508c-0.016,0.64-0.031,1.28-0.046,1.92
	c0.003,3.382-0.417,6.74-0.575,10.113c-0.03,0.637-0.082,1.271-0.058,1.912c0.021,0.564-0.019,1.129-0.568,1.486
	c-0.7,0.043-1.4,0.077-2.098-0.02c-2.11-0.279-3.584-1.622-5.011-3.025c-0.436-0.429-0.824-0.862-1.511-0.576
	c-1.909,0.078-3.819,0.114-5.728-0.019c-0.549-0.02-1.098-0.04-1.646-0.059c-0.468-0.251-0.999,0.017-1.474-0.181
	c-0.39-0.02-0.779-0.039-1.168-0.059c-0.385-0.231-0.833-0.009-1.228-0.169c-0.395-0.022-0.791-0.044-1.186-0.066
	c-0.378-0.244-0.824-0.008-1.214-0.173c-0.399-0.021-0.799-0.042-1.199-0.062c-0.372-0.252-0.813-0.017-1.198-0.171
	c-0.4-0.023-0.801-0.046-1.202-0.069c-0.372-0.253-0.813-0.017-1.198-0.171c-0.401-0.023-0.801-0.046-1.202-0.069
	c-0.372-0.255-0.817-0.01-1.201-0.178c-1.76-0.181-3.52-0.361-5.279-0.542c-0.371-0.261-0.824,0.002-1.206-0.19
	c-0.083,0.015-0.167,0.029-0.25,0.043c-0.28,0.329-0.01,0.751-0.187,1.098c-0.021,0.32-0.041,0.639-0.062,0.958
	c-0.259,0.371-0.003,0.821-0.185,1.204c-0.579,4.319-1.15,8.64-1.74,12.958c-0.531,3.886-1.127,7.763-1.602,11.656
	c-0.158,1.295-0.451,2.592-0.322,3.917c-0.234,0.385-0.002,0.836-0.176,1.229c-0.018,0.399-0.037,0.797-0.055,1.196
	C220.554,223.889,220.563,225.744,220.747,227.6z"/>
<path fill-rule="evenodd" clip-rule="evenodd" fill="#61C4E4" d="M392.381,197.03c0.017-3.445-0.543-6.834-1.002-10.233
	c-0.092-0.685-0.438-1.176-1.258-1.033c-1.036,0.18-2.027-0.228-3.062-0.226c-1.654,0.002-3.016,0.585-4.178,1.699
	c-1.08,1.035-1.274,0.988-2.164-0.229c-0.647-0.886-0.812-1.865-0.889-2.897c-0.107-0.465-0.098-0.931-0.007-1.397
	c0.167-2.04,1.58-3.076,3.248-3.74c2.18-0.868,4.461-1.441,6.823-1.55c0.83-0.039,1.182-0.286,0.939-1.174
	c-0.27-0.989-0.411-2.012-0.671-3.004c-0.407-1.552-1.256-2.828-2.578-3.758c-0.271-0.191-0.579-0.304-0.372-0.723
	c0.172-0.348,0.26-0.699,0.809-0.709c1.352-0.027,2.703-0.146,4.054-0.227c0.466,0.248,0.991-0.01,1.465,0.174
	c1.813,0.16,3.626,0.315,5.406,0.721c4.918,1.122,6.745,3.94,7.535,8.375c0.146,0.819,0.372,1.085,1.172,1.059
	c1.869-0.063,3.74-0.059,5.609-0.082c1.042-0.196,2.109,0.104,3.146-0.166c1.349-0.019,2.696-0.038,4.045-0.057
	c0.39-0.193,0.846,0.052,1.229-0.185c4.993-0.509,10.047-0.709,14.665-3.042c1.112-0.562,2.134-1.22,2.83-2.274
	c0.265-0.402,0.591-0.493,1.015-0.427c0.443,0.068,0.378,0.438,0.436,0.738c0.382,1.979,0.85,3.944,0.974,5.966
	c0.115,1.189,0.126,2.378-0.005,3.567c-0.153,4.276-3.846,6.969-7.26,7.691c-1.498,0.317-3,0.092-4.494,0.228
	c-0.548-0.264-1.156,0.031-1.709-0.186c-4.202-0.068-8.352-0.762-12.537-1.059c-2.904-0.206-5.797-0.689-8.707-0.945
	c-0.706-0.062-0.8,0.229-0.851,0.758c-0.665,6.994-1.832,13.924-2.674,20.896c-0.527,4.372-1.347,8.711-1.43,13.132
	c-0.214,0.392-0.003,0.842-0.168,1.241c0.002,0.734,0.005,1.468,0.007,2.202c0.158,0.393-0.061,0.838,0.168,1.222
	c0.013,1.524,0.17,3.002,1.071,4.32c0.312,0.456,0.219,0.983-0.422,1.104c-2.044,0.383-4.122,0.525-6.159,0.1
	c-2.359-0.493-2.846-2.548-3.295-4.495c-0.428-1.853-0.521-3.757-0.596-5.656c-0.153-0.398,0.054-0.843-0.163-1.233
	c0-5.243,0-10.486,0-15.73c0.271-1.283-0.046-2.592,0.177-3.877c-0.003-0.893-0.004-1.785-0.007-2.678
	C392.349,198.508,392.636,197.748,392.381,197.03z"/>
<path fill-rule="evenodd" clip-rule="evenodd" fill="#61C4E4" d="M356.8,210.785c-0.003-2.171-0.007-4.343-0.011-6.515
	c-0.165-0.399,0.046-0.849-0.168-1.241c0.095-1.587-0.413-3.044-0.965-4.494c-0.4-1.052-0.192-1.408,0.937-1.4
	c2.424,0.017,4.853-0.259,7.257,0.4c2.47,0.677,4.376,1.878,5.001,4.541c0.131,0.557,0.361,0.482,0.728,0.164
	c1.703-1.48,3.56-2.749,5.521-3.856c2.609-1.472,5.438-2.021,8.396-1.732c2.27,0.222,3.702,1.91,4.29,4.783
	c0.032,0.156,0.042,0.316,0.063,0.475c0.169,0.395-0.053,0.844,0.172,1.23c0.001,0.128,0.002,0.257,0.003,0.386
	c-0.245,0.465,0.003,0.987-0.168,1.461c-0.471,4.459-1.056,8.91-1.036,13.408c-0.236,0.471,0.01,0.998-0.171,1.475
	c-0.022,2.31-0.045,4.62-0.067,6.93c-0.174,0.834-0.168,1.669-0.002,2.504c-0.119,4.188,0.426,8.242,2.335,12.044
	c0.668,1.329-0.088,2.479-1.624,2.512c-3.278,0.069-5.777-1.547-7.768-3.938c-2.179-2.619-3.113-5.688-3.032-9.145
	c0.107-4.592,0.004-9.188-0.009-13.783c-0.242-1.448,0.101-2.919-0.18-4.365c0.148-1.397-0.122-2.771-0.233-4.154
	c-0.067-0.835-0.618-1.084-1.318-0.6c-0.488,0.338-0.958,0.716-1.384,1.131c-1.971,1.921-3.971,3.813-5.733,5.938
	c-0.296,0.357-0.459,0.711-0.551,1.152c-0.695,3.342-1.136,6.723-1.604,10.101c-0.175,1.263-0.285,2.529-0.294,3.807
	c-0.008,1.177,0.104,2.318,0.761,3.329c0.411,0.633,0.174,1.056-0.385,1.38c-2.993,1.737-8.378,0.472-9.692-3.555
	c-0.593-1.817-0.496-3.655-0.277-5.527c0.201-1.726,0.379-3.463,0.491-5.194c0.171-2.648,0.624-5.278,0.534-7.943
	C356.878,211.946,356.584,211.338,356.8,210.785z"/>
<path fill-rule="evenodd" clip-rule="evenodd" fill="#61C4E4" d="M459.123,194.707c1.609,0.147,3.268,0.131,4.77,0.78
	c2.474,1.068,3.649,3.152,4.122,5.706c0.086,0.469,0.111,0.937-0.018,1.403c-0.129,1.767-0.685,3.231-2.54,3.898
	c-0.788,0.283-1.45,0.327-2.025-0.372c-0.938-1.141-2.188-1.753-3.598-2.085c-0.668-0.185-1.336-0.171-2.005-0.005
	c-1.116-0.044-2.163,0.077-2.82,1.157c-1.098,1.803-0.397,3.431,1.85,4.417c3.214,1.409,6.433,2.82,9.195,5.046
	c2.692,2.169,4.733,4.769,4.971,8.374c0.229,3.459-1.249,6.213-3.925,8.289c-3.678,2.854-7.914,4.119-12.555,4.189
	c-3.139,0.048-6.206-0.203-9.008-1.753c-2.918-1.614-4.625-4.022-4.686-7.468c-0.043-2.415-0.045-4.859,1.481-6.867
	c2.135-2.806,7.515-4.168,9.724,0.005c0.247,0.466,0.414,0.945,0.518,1.456c0.151,0.741-0.052,1.246-0.869,1.371
	c-0.117,0.018-0.233,0.057-0.346,0.098c-2.403,0.893-3.153,1.96-2.829,4.02c0.37,2.356,2.007,3.79,4.278,3.903
	c3.967,0.198,5.828-1.821,7.06-4.77c0.379-0.907,0.232-1.788-0.263-2.636c-1.147-1.962-2.86-3.292-4.788-4.41
	c-1.877-1.088-3.993-1.582-5.947-2.459c-3.237-1.452-5.69-3.733-6.636-7.285c-0.994-3.732,0.694-7.919,3.887-10.176
	c3.542-2.504,7.544-3.427,11.777-3.653C458.29,194.71,458.739,194.938,459.123,194.707z"/>
<path fill-rule="evenodd" clip-rule="evenodd" fill="#61C4E4" d="M381.336,307.773c-1.87-0.021-3.74-0.022-5.609-0.074
	c-0.664-0.018-0.902,0.196-0.899,0.88c0.016,4.497-0.004,8.993-0.011,13.49c-0.23,0.474,0.01,1-0.169,1.48
	c-0.218,2.81-0.219,5.651-1.218,8.347c-0.028,0.074-0.027,0.159-0.056,0.233c-0.314,0.81-0.76,1.712-1.694,1.601
	c-0.991-0.117-1.082-1.161-1.105-1.99c-0.051-1.797-0.034-3.597-0.035-5.395c-0.002-5.716-0.022-11.432,0.021-17.147
	c0.008-0.986-0.237-1.388-1.265-1.25c-0.708,0.095-1.436,0.047-2.154,0.063c-0.88,0.221-1.795-0.093-2.672,0.179
	c-2.065,0.006-4.132,0.033-6.197,0.009c-0.808-0.009-1.016,0.375-1.009,1.102c0.028,3.059,0.027,6.119,0.038,9.178
	c-0.264,0.795,0.033,1.632-0.18,2.432c-0.103,2.692-0.3,5.369-1.222,7.938c-0.191,0.533-0.421,1.026-0.839,1.416
	c-0.37,0.345-0.708,0.915-1.285,0.648c-0.51-0.236-0.695-0.809-0.74-1.381c-0.03-0.396-0.062-0.791-0.093-1.187
	c-0.092-5.986-0.115-11.973,0.013-17.959c0.102-1.782,0.094-1.862-1.665-1.702c-1.879,0.171-3.797,0.168-5.53,1.184
	c-1.281,0.75-2.505-0.133-3.636-0.557c-1.576-0.591-3.122-1.333-4.517-2.324c-0.363-0.258-0.803-0.497-0.622-1.023
	c0.163-0.477,0.646-0.402,1.034-0.388c1.786,0.068,3.522,0.689,5.335,0.489c0.465,0.245,0.987-0.003,1.461,0.168
	c4.575,0.129,9.151,0.111,13.727,0c0.802-0.186,1.635,0.09,2.432-0.164c1.666-0.02,3.333-0.039,5-0.058
	c0.559-0.212,1.17,0.068,1.726-0.18c1.265-0.022,2.53-0.043,3.796-0.065c0.475-0.195,1.005,0.066,1.474-0.178
	c1.029-0.023,2.06-0.045,3.089-0.068c0.395-0.169,0.844,0.053,1.23-0.172c1.641,0.083,3.226-0.131,4.79-0.674
	c1.513-0.525,3.115-0.501,4.7-0.522c0.393,0.22,0.849-0.008,1.245,0.179c0.819,0.125,1.633,0.259,2.39,0.635
	c0.588,0.292,0.975,0.732,0.938,1.383c-0.035,0.624-0.396,1.088-0.978,1.386c-0.725,0.372-1.486,0.493-2.286,0.456
	c-0.469-0.242-0.994,0.01-1.47-0.172c-1.188-0.023-2.377-0.046-3.564-0.07C382.5,307.699,381.894,307.977,381.336,307.773z"/>
<path fill-rule="evenodd" clip-rule="evenodd" fill="#7CADD0" d="M311.992,244.599c-0.734-0.147-1.381-0.472-1.95-0.956
	c0.162-2.825,0.276-5.654,0.469-8.474c0.164-2.427,0.13-4.859,0.378-7.287c0.577-5.637,0.51-11.314,0.918-16.965
	c0.252-3.492,0.328-6.996,0.568-10.487c0.214-3.105,0.322-6.219,0.444-9.321c0.155-3.939,0.577-7.861,0.609-11.813
	c0.023-2.932,0.072-5.898,0.702-8.798c1.032,0.236,2.064,0.472,3.097,0.708c0.238,0.438,0.324,0.922,0.21,1.39
	c-0.453,1.834-0.455,3.708-0.505,5.575c-0.015,0.538-0.15,0.928-0.656,1.147c-0.257,0.696-0.274,1.419-0.247,2.148
	c-0.253,0.373-0.001,0.823-0.186,1.207c-0.014,0.483-0.027,0.966-0.041,1.449c0.229,0.4,0.24,0.84,0.218,1.281
	c-0.171,3.459-0.329,6.92-0.499,10.377c-0.119,2.444-0.624,4.874-0.296,7.374c0.213,1.625-0.364,3.298-0.356,4.99
	c0.01,2.062-0.174,4.131-0.273,6.194c-0.106,2.224-0.122,4.464-0.398,6.686c-0.301,2.408-0.34,4.838-0.435,7.262
	c-0.199,5.043-0.451,10.084-0.784,15.121C312.941,243.97,313.219,244.951,311.992,244.599z"/>
<path fill-rule="evenodd" clip-rule="evenodd" fill="#86A5C9" d="M307.641,241.485c-0.803-0.934-1.618-1.859-1.885-3.117
	c0.383-0.781,0.481-1.602,0.326-2.452c-0.139-0.761-0.062-1.518,0.053-2.268c0.468-3.086,0.526-6.214,0.607-9.312
	c0.111-4.227,0.436-8.428,0.668-12.642c0.171-3.095,0.255-6.211,0.387-9.316c0.132-3.111,0.277-6.221,0.53-9.329
	c0.192-2.377,0.206-4.778,0.363-7.169c0.217-3.304,0.497-6.611,0.528-9.921c0.018-1.917,0.3-3.808,0.294-5.719
	c-0.001-0.284,0.053-0.559,0.287-0.759c0.676,0.023,1.322,0.155,1.918,0.49c0.699,1.424,0.357,2.924,0.154,4.35
	c-0.398,2.788-0.217,5.582-0.368,8.368c-0.134,2.47-0.382,4.929-0.451,7.409c-0.091,3.259-0.294,6.52-0.509,9.778
	c-0.287,4.342-0.393,8.697-0.637,13.038c-0.154,2.735-0.287,5.48-0.468,8.217c-0.353,5.339-0.493,10.691-0.95,16.025
	c-0.081,0.957,0,1.919-0.049,2.877C308.409,240.639,308.375,241.26,307.641,241.485z"/>
<path fill-rule="evenodd" clip-rule="evenodd" fill="#6CBBDC" d="M321.003,293.057c-0.368-2.098-0.058-4.214-0.173-6.318
	c-0.022-0.402,0.2-0.871-0.191-1.19c-0.664,1.661-0.364,3.443-0.546,5.157c-0.136,1.277,0.037,2.67-0.046,4.03
	c-0.117,1.918-0.531,3.834-0.468,5.724c0.054,1.578-0.04,3.168-0.054,4.729c-0.01,1.031,0.161,2.214-0.319,3.266
	c-0.283,0.62,0.146,1.23,0.126,1.873c-0.091,2.851-0.465,5.667-0.853,8.487c-0.128,0.929,0.234,1.858,0.073,2.803
	c-0.438,2.57,0.068,5.186-0.413,7.779c-0.155,0.833-0.349,1.885,0.061,2.772c0.354,0.765-0.761,1.029-0.481,1.718
	c-0.506-0.337-0.699-0.804-0.698-1.415c0.011-10.461,0.01-20.921,0.013-31.382c0-0.119,0.027-0.237,0.041-0.356
	c0.077-5.869,0.05-11.738,0.021-17.607c-0.008-1.485-0.208-3.042,0.622-4.428c1.205,0.265,2.426,0.495,3.341,1.435
	c0.263,0.541,0.126,1.1,0.075,1.655c-0.025,3.278-0.049,6.556-0.077,9.833C321.051,292.099,321.021,292.578,321.003,293.057z"/>
<path fill-rule="evenodd" clip-rule="evenodd" fill="#79B0D3" d="M311.992,244.599c0.425,0.028,0.699-0.107,0.684-0.595
	c-0.066-2.134,0.175-4.262,0.315-6.38c0.12-1.818-0.094-3.687,0.46-5.474c0.022-0.075,0.063-0.161,0.045-0.229
	c-0.579-2.104,0.09-4.192,0.095-6.289c0.006-1.947,0.265-3.893,0.349-5.842c0.1-2.283,0.386-4.55,0.265-6.854
	c-0.081-1.543,0.462-3.128,0.315-4.656c-0.208-2.175,0.823-4.253,0.246-6.443c-0.233-0.882-0.039-1.922,0.14-2.799
	c0.628-3.082,0.308-6.22,0.722-9.32c0.209-1.564,0.161-3.279,0.019-4.92c-0.023-0.268,0.081-0.458,0.157-0.678
	c0.485,0.022,0.972,0.045,1.457,0.067c0.69,0.092,0.904,0.494,0.865,1.167c-0.178,3.089-0.376,6.176-0.575,9.264
	c-0.03,0.464-0.291,0.81-0.435,1.215c-0.044,0.653,0.09,1.313-0.08,1.96c-0.015,0.798-0.03,1.596-0.045,2.394
	c-0.288,0.784,0.029,1.614-0.186,2.403c-0.021,0.793-0.041,1.586-0.062,2.379c-0.275,0.709,0.038,1.467-0.179,2.181
	c-0.019,0.719-0.036,1.438-0.055,2.157c-0.297,0.702,0.043,1.46-0.194,2.167c-0.015,0.638-0.03,1.275-0.045,1.913
	c-0.287,0.619,0.026,1.297-0.187,1.923c-0.018,0.639-0.036,1.277-0.055,1.916c-0.282,0.62,0.021,1.294-0.18,1.922
	c-0.02,0.72-0.04,1.439-0.06,2.159c-0.286,0.701,0.021,1.452-0.181,2.161c-0.021,0.874-0.044,1.749-0.065,2.623
	c-0.281,0.872,0.043,1.787-0.186,2.663c-0.016,1.118-0.032,2.236-0.048,3.354c-0.19,0.975-0.19,1.949-0.001,2.924
	c-0.052,1.444-0.001,2.881,0.245,4.308c0.162,1.608,0.207,3.213-0.054,4.817c-0.106,0.654-0.372,1.115-1.117,1.109
	C313.521,245.276,312.727,245.044,311.992,244.599z"/>
<path fill-rule="evenodd" clip-rule="evenodd" fill="#81A9CC" d="M307.641,241.485c0.314-0.424,0.517-0.861,0.488-1.427
	c-0.132-2.578,0.423-5.127,0.411-7.691c-0.016-3.79,0.548-7.542,0.558-11.328c0.006-2.164,0.116-4.339,0.278-6.489
	c0.251-3.305,0.257-6.616,0.496-9.914c0.174-2.393,0.395-4.802,0.473-7.186c0.053-1.6,0.199-3.233,0.278-4.821
	c0.153-3.084,0.047-6.186,0.492-9.281c0.273-1.905,0.154-3.936,0.144-5.912c-0.015-2.494,0.67-4.952,0.459-7.464
	c0.479,0.096,0.959,0.191,1.438,0.287c0.248,1.582,0.233,3.197,0.033,4.751c-0.481,3.734-0.575,7.484-0.686,11.231
	c-0.164,5.55-0.749,11.079-0.873,16.624c-0.094,4.231-0.485,8.442-0.64,12.668c-0.099,2.698-0.261,5.417-0.477,8.122
	c-0.251,3.126-0.259,6.291-0.452,9.432c-0.172,2.79-0.087,5.595-0.496,8.37c-0.076,0.519-0.09,1.061-0.73,1.24
	C308.349,242.38,307.944,241.982,307.641,241.485z"/>
<path fill-rule="evenodd" clip-rule="evenodd" fill="#81A9CC" d="M308.836,242.697c0.732-1.479,0.633-3.102,0.653-4.662
	c0.011-0.821-0.001-1.677,0.109-2.465c0.379-2.698,0.137-5.421,0.515-8.133c0.228-1.633-0.001-3.375,0.136-5.08
	c0.261-3.264,0.27-6.548,0.534-9.812c0.21-2.586,0.325-5.182,0.548-7.768c0.121-1.408,0.152-2.899,0.142-4.353
	c-0.017-2.186,0.283-4.353,0.388-6.523c0.09-1.858,0.403-3.722,0.146-5.622c-0.164-1.217,0.167-2.496,0.214-3.749
	c0.1-2.667,0.063-5.354,0.498-7.982c0.348-2.098-0.128-4.227,0.438-6.291c0.324,0.08,0.649,0.16,0.975,0.24
	c0.183,1.336,0.057,2.683-0.084,3.996c-0.258,2.43-0.242,4.864-0.362,7.296c-0.098,1.996-0.053,4.021-0.396,5.975
	c-0.239,1.36,0.059,2.659-0.071,4.003c-0.395,4.102-0.654,8.228-0.721,12.348c-0.063,3.949-0.553,7.864-0.637,11.811
	c-0.079,3.736-0.24,7.476-0.566,11.207c-0.115,1.321-0.298,2.647-0.313,3.987c-0.042,3.635-0.148,7.269-0.568,10.887
	c-0.066,0.572,0.143,1.173-0.369,1.635C309.635,243.333,309.113,243.171,308.836,242.697z"/>
<path fill-rule="evenodd" clip-rule="evenodd" fill="#8E9FC4" d="M304.046,217.469c-0.015-1.038-0.03-2.076-0.045-3.114
	c-0.18-1.516-0.031-3.038-0.079-4.555c0.246-1.528,0.463-3.076,0.408-4.613c-0.092-2.551,0.3-5.069,0.333-7.614
	c0.034-2.624,0.119-5.268,0.408-7.883c0.505-4.559,0.324-9.148,0.72-13.716c0.219-2.522,0.529-5.082,0.181-7.634
	c0.774,0.054,1.417,0.51,2.145,0.707c0.351,0.979,0.036,1.969,0.044,2.953c0.022,2.706-0.483,5.392-0.493,8.077
	c-0.009,2.396-0.343,4.77-0.255,7.163c0.044,1.196-0.115,2.392-0.192,3.585c-0.298,4.617-0.389,9.247-0.728,13.857
	c-0.308,4.181-0.327,8.372-0.662,12.549c-0.231,2.901-0.264,5.817-0.512,8.718c-0.039,0.454,0.206,1.22-0.739,1.136
	c-0.033-0.403-0.065-0.806-0.098-1.209c-0.243-0.956,0.104-1.95-0.189-2.903c-0.02-0.953-0.039-1.907-0.059-2.86
	C304.012,219.242,304.344,218.333,304.046,217.469z"/>
<path fill-rule="evenodd" clip-rule="evenodd" fill="#8AA3C7" d="M304.579,227.085c0.948-0.746,0.385-1.851,0.553-2.758
	c0.281-1.514,0.184-3.111,0.258-4.667c0.109-2.314,0.293-4.63,0.353-6.95c0.097-3.757,0.349-7.508,0.634-11.258
	c0.132-1.735,0.052-3.509,0.134-5.26c0.127-2.685,0.391-5.364,0.547-8.047c0.075-1.291-0.048-2.583,0.192-3.878
	c0.343-1.85,0.092-3.741,0.234-5.621c0.196-2.595,0.542-5.212,0.392-7.835c-0.035-0.608,0.061-1.189,0.241-1.763
	c0.34-0.034,0.688-0.111,0.948,0.21c0.36,1.664,0.19,3.354,0.037,5.003c-0.336,3.621-0.507,7.252-0.664,10.878
	c-0.242,5.614-0.531,11.226-0.836,16.835c-0.236,4.339-0.317,8.689-0.648,13.015c-0.359,4.697-0.236,9.414-0.778,14.102
	c-0.237,2.052-0.089,4.146-0.328,6.212c-0.061,0.529-0.019,1.077-0.762,1.12c-0.044-0.316-0.088-0.633-0.133-0.95
	c-0.207-0.545,0.095-1.146-0.187-1.683c-0.02-0.88-0.039-1.76-0.059-2.64c-0.208-0.873,0.111-1.78-0.179-2.647
	C304.545,228.03,304.562,227.558,304.579,227.085z"/>
<path fill-rule="evenodd" clip-rule="evenodd" fill="#64C0E1" d="M330.22,212.52c0.778,1.693,0.332,3.445,0.196,5.167
	c-0.181,2.303-0.151,4.626-0.422,6.908c-0.244,2.052,0.109,4.078-0.104,6.089c-0.091,0.853-0.429,1.739-0.639,2.615
	c-1.005,0.098-1.971-0.032-2.878-0.5c-0.313-1.168-0.175-2.338-0.147-3.529c0.057-2.578,0.173-5.157,0.379-7.718
	c0.2-2.481,0.094-4.978,0.465-7.444C328.009,213.358,329.23,213.169,330.22,212.52z"/>
<path fill-rule="evenodd" clip-rule="evenodd" fill="#89A3C7" d="M305.085,236.422c0.894-0.803,0.503-1.945,0.571-2.867
	c0.393-5.333,0.606-10.678,0.859-16.021c0.165-3.481,0.107-6.983,0.374-10.446c0.237-3.088,0.398-6.185,0.569-9.272
	c0.154-2.77,0.454-5.533,0.455-8.32c0.001-3.133,0.265-6.268,0.449-9.4c0.214-3.614,0.466-7.226,0.702-10.838
	c0.266,0.005,0.555-0.063,0.734,0.225c-0.167,3.817-0.32,7.635-0.506,11.452c-0.129,2.642-0.355,5.281-0.443,7.924
	c-0.119,3.562-0.401,7.115-0.56,10.675c-0.131,2.935-0.28,5.872-0.415,8.808c-0.142,3.096-0.43,6.183-0.652,9.272
	c-0.221,3.058-0.078,6.142-0.304,9.209c-0.188,2.555-0.084,5.132-0.527,7.665c-0.136,0.772,0.038,1.5,0.121,2.23
	c0.087,0.768-0.048,1.309-0.758,1.651C305.406,237.763,305.242,237.094,305.085,236.422z"/>
<path fill-rule="evenodd" clip-rule="evenodd" fill="#61C4E4" d="M332.837,171.887c2.499-0.873,4.925-1.905,7.131-3.385
	c0.47-0.315,0.739-0.093,1.033,0.179c0.958,0.887,0.843,2.026,0.601,3.117c-0.469,2.11-1.976,3.357-3.799,4.31
	c-1.659,0.866-3.404,1.496-5.204,1.986c-0.808-0.723-0.329-1.655-0.384-2.492C332.131,174.323,332.319,173.073,332.837,171.887z"/>
<path fill-rule="evenodd" clip-rule="evenodd" fill="#67BEDF" d="M327.069,214.106c0.26,2.265-0.077,4.515-0.123,6.764
	c-0.053,2.552-0.68,5.094-0.201,7.681c0.152,0.825-0.501,1.717-0.358,2.65c0.08,0.529,0.413,1.069-0.014,1.596
	c-1.211-0.269-2.205-0.932-3.133-1.716c-0.333-0.8-0.251-1.645-0.157-2.457c0.346-3.006,0.369-6.04,0.788-9.038
	c0.133-0.945-0.229-1.9,0.079-2.838C324.762,215.6,325.908,214.845,327.069,214.106z"/>
<path fill-rule="evenodd" clip-rule="evenodd" fill="#6EB9DA" d="M323.01,184.134c0.648,0.007,1.301,0.063,1.925-0.186
	c0.538,0.254,0.543,0.748,0.526,1.23c-0.11,3.348-0.494,6.683-0.451,10.037c0.004,0.325-0.093,0.632-0.332,0.874
	c-0.36,0.283-0.806,0.256-1.222,0.334c-0.71,0.089-1.418,0.127-2.125-0.021c-0.387-0.178-0.882,0.162-1.219-0.256
	c-0.429-1.173-0.022-2.366-0.009-3.538c0.028-2.666,0.521-5.318,0.349-8c-0.008-0.121,0.089-0.217,0.168-0.308
	C321.409,184.132,322.229,184.419,323.01,184.134z"/>
<path fill-rule="evenodd" clip-rule="evenodd" fill="#909EC2" d="M305.972,168.34c0.752,0.767,0.49,1.74,0.446,2.619
	c-0.143,2.87-0.508,5.734-0.531,8.603c-0.021,2.54-0.052,5.1-0.266,7.604c-0.229,2.667-0.226,5.351-0.553,8.014
	c-0.205,1.664-0.194,3.363-0.148,5.043c0.019,0.682,0.128,1.351-0.146,1.988c-0.541,1.261-0.023,2.556-0.132,3.838
	c-0.084,0.991-0.528,1.986-0.177,3.021c0.074,0.217-0.213,0.4-0.441,0.501c-0.076-0.125-0.11-0.26-0.101-0.406
	c-0.052-1.697,0.098-3.398-0.078-5.094c-0.016-3.21-0.025-6.42-0.056-9.63c-0.004-0.413,0.174-0.881-0.23-1.227
	c-0.146-1.906,0.082-3.801,0.205-5.696c0.181-2.788,0.384-5.575,0.41-8.368c0.032-3.229,0.489-6.434,0.465-9.665
	c-0.004-0.52,0.106-1.042,0.597-1.373C305.481,168.188,305.727,168.264,305.972,168.34z"/>
<path fill-rule="evenodd" clip-rule="evenodd" fill="#68BDDF" d="M324.678,196.089c-0.108-3.597,0.23-7.175,0.453-10.758
	c0.029-0.478,0.087-0.953-0.196-1.383c1.025-0.138,1.951-0.544,2.873-0.997c1.096-0.539,1.636-0.198,1.668,0.994
	c0.023,0.867,0.031,1.735,0.045,2.602c0.122,0.627,0.111,1.255,0.007,1.883c-0.255,2.133-0.696,4.18-2.142,5.903
	C326.643,195.221,325.783,195.816,324.678,196.089z"/>
<path fill-rule="evenodd" clip-rule="evenodd" fill="#E1618A" d="M262.524,178.142c-0.001-1.248-0.033-2.496,0.003-3.743
	c0.05-1.712,0.034-3.438,0.26-5.13c0.285-2.132,0.013-4.286,0.388-6.404c0.078-0.442-0.102-0.769-0.412-1.052
	c1.079-0.433,2.189-0.723,3.361-0.72c0.92-0.221,0.802,0.521,0.736,0.941c-0.375,2.373-0.303,4.769-0.47,7.152
	c-0.108,1.552-0.059,3.106-0.167,4.657c-0.033,0.473,0.032,0.968-0.347,1.351C264.446,175.821,263.233,176.694,262.524,178.142z"/>
<path fill-rule="evenodd" clip-rule="evenodd" fill="#DD648D" d="M265.876,175.193c0.081-3.34,0.137-6.681,0.259-10.019
	c0.035-0.938,0.293-1.867,0.393-2.806c0.048-0.456,0.382-1.061-0.403-1.275c0.343-0.345,0.822-0.136,1.21-0.298
	c0.391-0.114,0.791-0.039,1.186-0.061c1.776,0.001,1.968,0.289,1.631,2.038c-0.264,1.368-0.37,2.767-0.325,4.162
	c0.07,2.198-0.343,4.372-0.286,6.568c0.011,0.404-0.084,0.804-0.535,0.982C267.963,174.721,266.92,174.957,265.876,175.193z"/>
<path fill-rule="evenodd" clip-rule="evenodd" fill="#D96790" d="M269.007,174.484c0.073-0.185,0.204-0.367,0.211-0.554
	c0.097-2.284,0.176-4.568,0.261-6.852c0.061-1.646-0.046-3.299,0.507-4.908c0.306-0.893-0.203-1.293-1.533-1.354
	c-0.021-0.095,0.016-0.159,0.108-0.19c1.35,0.012,2.7,0.023,4.05,0.035c0.252,0.089,0.542,0.105,0.561,0.494
	c0.055,1.147,0.297,2.331,0.111,3.436c-0.488,2.908-0.396,5.847-0.685,8.762c-0.031,0.311,0.003,0.643-0.242,0.898
	c-0.244,0.029-0.488,0.058-0.732,0.086c-0.627,0.206-1.304-0.097-1.925,0.186C269.468,174.51,269.237,174.497,269.007,174.484z"/>
<path fill-rule="evenodd" clip-rule="evenodd" fill="#939BBF" d="M305.236,168.112c-0.413,1.618-0.247,3.268-0.313,4.908
	c-0.049,1.234-0.182,2.474-0.288,3.699c-0.132,1.508-0.052,3.013-0.183,4.517c-0.236,2.721-0.28,5.459-0.472,8.185
	c-0.089,1.267,0.112,2.574-0.422,3.793c-0.632-0.089-1.263-0.179-1.895-0.268c0.818-1.093,0.721-2.409,0.721-3.632
	c0.001-1.747,0.328-3.473,0.219-5.22c-0.028-0.45,0.153-0.854,0.465-1.189c0.174-1.235-0.441-2.364-0.479-3.571
	c0.169-3.306,0.371-6.609,0.624-9.909c0.044-0.573-0.12-1.235,0.575-1.577C304.312,167.713,304.738,168.106,305.236,168.112z"/>
<path fill-rule="evenodd" clip-rule="evenodd" fill="#76B4D6" d="M320.598,184.385c0.418,1.624,0.227,3.261,0.069,4.888
	c-0.131,1.355-0.287,2.708-0.246,4.07c0.028,0.953-0.161,1.874-0.309,2.803c-0.957-0.143-1.915-0.286-2.872-0.428
	c-0.07,0.053-0.141,0.055-0.211,0c0.458-1.679,0.367-3.425,0.478-5.128c0.113-1.753,0.237-3.521,0.308-5.284
	c0.024-0.628-0.194-0.832-0.555-1.117c0.228-0.018,0.456-0.035,0.684-0.053C318.805,184.468,319.738,184.03,320.598,184.385z"/>
<path fill-rule="evenodd" clip-rule="evenodd" fill="#6DBADC" d="M323.95,216.75c0.51,1.708,0.131,3.405-0.032,5.113
	c-0.133,1.384-0.138,2.774-0.325,4.163c-0.225,1.671-0.244,3.37-0.353,5.057c-1.552-0.988-2.304-2.605-2.551-4.236
	C320.109,223.01,321.092,219.542,323.95,216.75z"/>
<path fill-rule="evenodd" clip-rule="evenodd" fill="#65C0E1" d="M331.396,197.782c-0.403,2.252-0.812,4.499-0.496,6.809
	c0.13,0.948-0.011,1.901-0.223,2.836c-0.036,0.134-0.177,0.141-0.263,0.214c-0.877,0.144-1.755,0.288-2.632,0.432
	c-0.683-0.357-0.951-0.95-0.846-1.677c0.341-2.349,0.394-4.714,0.459-7.08c0.005-0.203,0.02-0.394,0.159-0.553
	c0.854-0.662,1.89-0.791,2.899-0.996C330.771,197.666,331.085,197.645,331.396,197.782z"/>
<path fill-rule="evenodd" clip-rule="evenodd" fill="#D46B93" d="M272.356,174.25c-0.201-2.197,0.195-4.371,0.283-6.556
	c0.086-2.15,0.463-4.287,0.279-6.455c-0.025-0.298-0.192-0.395-0.306-0.579c0.536-0.01,1.072-0.021,1.608-0.031
	c0.382,0.199,0.8,0.047,1.194,0.125c0.403,0.39,0.268,0.888,0.255,1.351c-0.06,2.218-0.316,4.426-0.399,6.64
	c-0.055,1.46-0.252,2.906-0.288,4.364c-0.009,0.384,0.099,0.81-0.225,1.139C273.957,174.25,273.156,174.25,272.356,174.25z"/>
<path fill-rule="evenodd" clip-rule="evenodd" fill="#E1618A" d="M261.319,193.518c0.127-1.751,0.28-3.502,0.377-5.255
	c0.153-2.745,0.218-5.497,0.782-8.201c0.402,1.813,1.419,3.315,2.428,4.822c0.377,2.217-0.132,4.432-0.034,6.651
	c0.023,0.526-0.043,1.143-0.667,1.431c-0.686,0.354-1.452,0.407-2.186,0.58C261.784,193.621,261.549,193.646,261.319,193.518z"/>
<path fill-rule="evenodd" clip-rule="evenodd" fill="#D06E96" d="M274.757,174.25c-0.063-1.122-0.101-2.223,0.135-3.353
	c0.18-0.862,0.003-1.789,0.085-2.696c0.222-2.439,0.341-4.888,0.5-7.333c0.138-0.162,0.299-0.142,0.468-0.061
	c0.542,0.239,1.116,0.307,1.7,0.321c0.644,0.486,0.413,1.196,0.31,1.758c-0.396,2.166-0.174,4.359-0.38,6.534
	c-0.126,1.332-0.348,2.683-0.178,4.042c0.052,0.414-0.135,0.783-0.587,0.934c-0.518-0.009-1.038,0.069-1.551-0.053
	C275.091,174.313,274.924,174.282,274.757,174.25z"/>
<path fill-rule="evenodd" clip-rule="evenodd" fill="#B284AA" d="M289.408,163.534c0.956,0.249,1.912,0.497,2.868,0.745
	c0.359,0.436,0.357,0.952,0.316,1.473c-0.234,3-0.308,6.007-0.45,9.012c-0.033,0.704-0.055,1.395-1.036,1.373
	c-0.611,0.213-1.113-0.343-1.708-0.239c-0.555-0.766-0.579-1.664-0.454-2.52c0.333-2.286,0.192-4.602,0.53-6.89
	C289.616,165.532,289.48,164.519,289.408,163.534z"/>
<path fill-rule="evenodd" clip-rule="evenodd" fill="#C07AA1" d="M284.382,175.183c-0.672,0.172-1.249-0.348-1.91-0.262
	c0.549-3.884,0.527-7.805,0.754-11.71c0.025-0.428-0.142-0.893,0.402-1.122c0.728,0.167,1.455,0.333,2.182,0.5
	c0.571,0.529,0.493,1.316,0.364,1.861c-0.584,2.465-0.301,4.956-0.404,7.433c-0.038,0.913-0.311,1.795-0.303,2.718
	C285.473,175.381,284.759,175.01,284.382,175.183z"/>
<path fill-rule="evenodd" clip-rule="evenodd" fill="#CD7199" d="M276.919,174.307c0.559-0.886,0.01-1.84,0.174-2.783
	c0.286-1.643,0.43-3.35,0.327-5.011c-0.113-1.818,0.428-3.581,0.225-5.384c0.826-0.182,1.587,0.24,2.391,0.258
	c0.25,0.264,0.219,0.585,0.17,0.901c-0.523,3.353-0.242,6.751-0.57,10.114c-0.07,0.715,0.17,1.537-0.551,2.089
	c-0.467,0.007-0.934,0.015-1.401,0.022C277.459,174.33,277.143,174.491,276.919,174.307z"/>
<path fill-rule="evenodd" clip-rule="evenodd" fill="#68BDDF" d="M327.556,198.763c0.525,1.847-0.202,3.676-0.08,5.508
	c0.084,1.267-0.713,2.614,0.308,3.802c-0.421,0.107-0.847,0.201-1.264,0.325c-1.503,0.449-2.152,0.083-2.606-1.486
	c-0.118-0.626-0.104-1.252-0.008-1.879c0.089-2.556,0.994-4.688,3.202-6.137C327.232,198.814,327.404,198.805,327.556,198.763z"/>
<path fill-rule="evenodd" clip-rule="evenodd" fill="#BB7DA4" d="M284.382,175.183c0.688-0.099,0.755-0.504,0.847-1.162
	c0.387-2.783,0.059-5.592,0.386-8.357c0.123-1.032,0.201-2.044,0.196-3.074c0.641,0.16,1.281,0.32,1.922,0.48
	c0.536,0.249,0.581,0.751,0.549,1.224c-0.24,3.617-0.392,7.238-0.576,10.858c-0.01,0.203-0.091,0.386-0.229,0.54
	C286.445,175.521,285.414,175.352,284.382,175.183z"/>
<path fill-rule="evenodd" clip-rule="evenodd" fill="#9D94B9" d="M300.678,177.613c-0.951-0.169-1.903-0.339-2.854-0.508
	c0.511-3.155,0.453-6.352,0.699-9.526c0.037-0.479,0.011-0.959,0.247-1.399c0.903,0.228,1.811,0.44,2.632,0.903
	c0.285,0.328,0.306,0.716,0.276,1.125c-0.182,2.54-0.354,5.081-0.435,7.626C301.222,176.471,301.159,177.113,300.678,177.613z"/>
<path fill-rule="evenodd" clip-rule="evenodd" fill="#77B3D5" d="M316.276,179.317c0.769-0.603,0.337-1.484,0.396-2.195
	c0.128-1.53,0.021-3.076,0.534-4.563c0.153-0.442-0.369-0.907,0.021-1.354c1.146,0.135,2.268,0.379,3.37,0.721
	c0.482,0.88-0.053,1.769-0.006,2.665c0.068,1.296-0.038,2.618-0.236,3.918c-0.063,0.417-0.131,0.791-0.599,0.93
	c-0.435-0.017-0.875,0.077-1.302-0.068C317.729,179.353,317.003,179.335,316.276,179.317z"/>
<path fill-rule="evenodd" clip-rule="evenodd" fill="#A390B5" d="M298.769,166.18c0.049,2.62-0.151,5.229-0.356,7.837
	c-0.049,0.626-0.037,1.239-0.021,1.862c0.01,0.421-0.064,0.966-0.567,1.226c-0.648-0.071-1.297-0.142-1.945-0.212
	c-0.536-1.145-0.283-2.362-0.216-3.527c0.122-2.143,0.419-4.274,0.382-6.428c-0.009-0.508-0.091-1.05,0.313-1.478
	C297.161,165.699,297.965,165.939,298.769,166.18z"/>
<path fill-rule="evenodd" clip-rule="evenodd" fill="#A88CB1" d="M296.357,165.459c0.16,3.825-0.492,7.615-0.479,11.433
	c-1.029-0.172-2.059-0.344-3.087-0.517c0.692-0.812,0.697-1.809,0.687-2.781c-0.027-2.57,0.47-5.112,0.395-7.685
	c-0.01-0.347,0.021-0.721,0.326-0.983C294.976,164.871,295.634,165.297,296.357,165.459z"/>
<path fill-rule="evenodd" clip-rule="evenodd" fill="#C4779E" d="M283.628,162.089c-0.09,1.899-0.164,3.799-0.275,5.697
	c-0.127,2.161-0.296,4.32-0.426,6.481c-0.021,0.343-0.259,0.468-0.455,0.654c-0.664,0.252-1.248-0.396-1.909-0.168
	c-0.102-0.069-0.144-0.164-0.12-0.286c0.682-1.303,0.351-2.726,0.453-4.093c0.198-2.642,0.263-5.292,0.37-7.938
	c0.011-0.276,0.1-0.546,0.227-0.797C282.205,161.789,282.917,161.939,283.628,162.089z"/>
<path fill-rule="evenodd" clip-rule="evenodd" fill="#9798BD" d="M300.678,177.613c0.241-3.51,0.482-7.02,0.723-10.53
	c0.87,0.024,1.652,0.322,2.389,0.765c-0.487,1.129-0.235,2.343-0.339,3.509c-0.204,2.279-0.5,4.564-0.374,6.866
	c0.025,0.447,0.016,0.889-0.486,1.11c-0.07-0.09-0.203-0.18-0.202-0.27C302.395,177.891,301.813,177.429,300.678,177.613z"/>
<path fill-rule="evenodd" clip-rule="evenodd" fill="#C8749C" d="M281.493,161.639c0.046,2.725-0.087,5.44-0.331,8.155
	c-0.104,1.159-0.091,2.335-0.034,3.499c0.03,0.61-0.173,0.983-0.663,1.264c-0.373,0.15-0.75,0.111-1.129,0.026
	c-0.084-0.03-0.168-0.061-0.251-0.091c0.34-2.422,0.378-4.867,0.447-7.302c0.056-1.95,0.063-3.891,0.504-5.802
	C280.521,161.471,281.007,161.555,281.493,161.639z"/>
<path fill-rule="evenodd" clip-rule="evenodd" fill="#AD88AE" d="M294.199,164.928c-0.079,2.398-0.029,4.8-0.443,7.185
	c-0.166,0.957-0.101,1.97-0.017,2.947c0.067,0.787-0.218,1.177-0.949,1.317c-0.604,0.219-1.099-0.332-1.685-0.239
	c0.49-0.181,0.74-0.47,0.705-1.054c-0.161-2.625,0.406-5.227,0.261-7.862c-0.053-0.964,0.29-1.948,0.205-2.942
	C292.917,164.496,293.558,164.711,294.199,164.928z"/>
<path fill-rule="evenodd" clip-rule="evenodd" fill="#B781A7" d="M287.477,175.691c-0.042-3.274,0.106-6.539,0.424-9.799
	c0.092-0.936,0.258-1.905-0.168-2.823c0.559,0.155,1.117,0.31,1.676,0.465c0.833,0.907,0.436,2.068,0.378,3.019
	c-0.189,3.114-0.743,6.207-0.389,9.345C288.757,175.829,288.117,175.76,287.477,175.691z"/>
<path fill-rule="evenodd" clip-rule="evenodd" fill="#DE638D" d="M264.207,192.966c0.74-1.795,0.24-3.695,0.467-5.535
	c0.104-0.846,0.157-1.698,0.233-2.548c1.212,1.518,2.573,2.897,3.934,4.279c1.146,1.163,1.114,1.348-0.236,2.171
	C267.25,192.159,265.783,192.719,264.207,192.966z"/>
<path fill-rule="evenodd" clip-rule="evenodd" fill="#6EBADB" d="M323.695,172.076c0.562,0.021,1.123,0.041,1.685,0.061
	c0.253,0.235,0.707-0.023,0.899,0.365c-0.117,2.185,0.194,4.396-0.4,6.552c-0.087,0.028-0.174,0.056-0.26,0.084
	c-0.469,0.19-0.994-0.078-1.455,0.179c-0.469-0.008-0.937-0.016-1.405-0.023c-0.679-1.095-0.313-2.305-0.346-3.461
	c-0.033-1.215,0.107-2.433,0.449-3.615C323.099,171.932,323.397,172.007,323.695,172.076z"/>
<path fill-rule="evenodd" clip-rule="evenodd" fill="#64C0E2" d="M332.837,171.887c-0.137,1.642-0.291,3.282-0.396,4.926
	c-0.027,0.422,0.101,0.854,0.158,1.281c-1.2,0.24-2.399,0.48-3.6,0.72c-0.146-2.182-0.397-4.368,0.264-6.517
	c0.384-0.135,0.817,0.095,1.185-0.163C331.256,172.165,332.061,172.165,332.837,171.887z"/>
<path fill-rule="evenodd" clip-rule="evenodd" fill="#68BDDF" d="M329.238,172.382c-0.057,2.145,0.074,4.296-0.239,6.431
	c-0.325,0.025-0.65,0.05-0.976,0.075c-0.375,0.204-0.83-0.072-1.195,0.198c-0.316-0.011-0.633-0.021-0.949-0.032
	c-0.024-2.239-0.096-4.48,0.237-6.707C327.158,172.21,328.2,172.162,329.238,172.382z"/>
<path fill-rule="evenodd" clip-rule="evenodd" fill="#9B96BA" d="M300.679,192.732c-0.807,0.111-1.586-0.073-2.369-0.214
	c-0.1-0.104-0.128-0.224-0.087-0.361c0.52-1.292,0.507-2.658,0.48-4.006c-0.029-1.519,0.235-3.016,0.222-4.529
	c-0.003-0.321,0.06-0.636,0.313-0.875c0.154-0.017,0.31-0.034,0.465-0.051c0.457,0.28,0.991-0.017,1.457,0.195l-0.016,0.076
	c0.537,0.606,0.436,1.361,0.361,2.044c-0.234,2.167-0.1,4.354-0.429,6.512C301.013,191.947,301.039,192.404,300.679,192.732z"/>
<path fill-rule="evenodd" clip-rule="evenodd" fill="#72B7D9" d="M322.998,172.123c-0.166,2.387-0.32,4.775-0.239,7.171
	c-0.246,0.026-0.492,0.052-0.737,0.078c-0.718,0.084-1.436,0.19-2.144-0.057c0.395-1.717,0.511-3.476,0.426-5.213
	c-0.038-0.787,0.442-1.425,0.295-2.175c0.636-0.011,1.271-0.021,1.907-0.032C322.636,172.045,322.87,171.967,322.998,172.123z"/>
<path fill-rule="evenodd" clip-rule="evenodd" fill="#9F93B7" d="M299.238,182.747c-0.138,2.934-0.072,5.879-0.463,8.8
	c-0.05,0.374-0.061,0.723-0.543,0.765c-0.377,0.154-0.757,0.124-1.138,0.02c-0.085-0.027-0.17-0.053-0.255-0.08
	c-0.067-1.648-0.068-3.296-0.053-4.947c0.013-1.457,0.46-2.909,0.068-4.371C297.622,182.532,298.436,182.711,299.238,182.747z"/>
<path fill-rule="evenodd" clip-rule="evenodd" fill="#9699BE" d="M300.679,192.732c0.105-3.258,0.565-6.499,0.466-9.766
	c0.642-0.021,1.283-0.041,1.925-0.062c-0.108,2.135-0.319,4.261-0.294,6.408c0.01,0.926-0.177,1.881-0.193,2.831
	c-0.011,0.594-0.608,0.538-0.917,0.802C301.29,193.091,300.976,192.95,300.679,192.732z"/>
<path fill-rule="evenodd" clip-rule="evenodd" fill="#A48FB4" d="M296.854,182.935c0.29,0.037,0.67-0.089,0.59,0.468
	c-0.353,2.479-0.478,4.966-0.299,7.47c0.032,0.45-0.198,0.919-0.307,1.379c-0.561,0.08-1.121,0.16-1.681,0.24
	c-0.606-0.722-0.463-1.581-0.395-2.402c0.158-1.902,0.458-3.795,0.32-5.714c-0.03-0.421,0.201-0.762,0.335-1.132
	C295.887,183.091,296.34,182.872,296.854,182.935z"/>
<path fill-rule="evenodd" clip-rule="evenodd" fill="#73B7D8" d="M317.717,278.698c-0.79,7.105-0.379,14.237-0.485,21.357
	c-0.003,0.227-0.103,0.452-0.157,0.678c-0.018-5.139-0.099-10.279-0.019-15.416c0.026-1.681-0.389-2.929-1.87-3.767
	c-0.376-0.213-0.712-0.495-1.066-0.745c-0.396-1.42-0.147-2.405,0.716-2.834C315.839,278.042,316.801,278.279,317.717,278.698z"/>
<path fill-rule="evenodd" clip-rule="evenodd" fill="#AB8AB0" d="M293.479,192.943c-0.927,0.659-1.401,0.326-1.653-0.696
	c-0.404-1.64-0.346-3.314-0.177-4.945c0.136-1.307,0.905-2.428,2.063-3.188c0.745,0.633,0.427,1.519,0.383,2.24
	c-0.118,1.95-0.213,3.9-0.271,5.852C293.815,192.516,293.656,192.727,293.479,192.943z"/>
<path fill-rule="evenodd" clip-rule="evenodd" fill="#DC658E" d="M258.919,306.558c-0.024-0.735-0.026-1.467,0.238-2.17
	c0.358-0.315,0.854,0.038,1.218-0.251c1.307-0.298,2.343-1.461,3.825-1.196c0.407,1.29,0.366,2.533-0.393,3.699
	C262.177,306.601,260.546,306.752,258.919,306.558z"/>
<path fill-rule="evenodd" clip-rule="evenodd" fill="#A88DB2" d="M293.479,192.943c-0.046-2.946,0.527-5.876,0.233-8.83
	c0.569-0.29,1.138-0.581,1.707-0.87c0.1,2.202-0.049,4.399-0.315,6.578c-0.112,0.915,0.067,1.782,0.054,2.671
	C294.598,192.643,294.038,192.792,293.479,192.943z"/>
<path fill-rule="evenodd" clip-rule="evenodd" fill="#D66A93" d="M263.96,306.556c0.08-1.205,0.16-2.41,0.24-3.615
	c0.963-0.428,1.92-0.226,2.877,0.028c0.844,1.315,0.576,3.057-0.569,3.679C265.658,306.597,264.803,306.748,263.96,306.556z"/>
<path fill-rule="evenodd" clip-rule="evenodd" fill="#75B5D7" d="M314.384,245.267c1.029-0.477,0.86-1.469,0.914-2.305
	c0.077-1.208-0.039-2.428,0.257-3.622c0.631,1.337,1.016,2.785,2.129,3.89c0.653,0.649,0.301,1.485-0.604,1.863
	C316.196,245.462,315.286,245.277,314.384,245.267z"/>
<path fill-rule="evenodd" clip-rule="evenodd" fill="#79B3D5" d="M314.835,277.972c-0.882,0.782-0.289,1.938-0.716,2.834
	c-1.008-0.464-2.012-0.939-3.026-1.388c-0.475-0.209-0.829-0.48-0.804-1.053c0.029-0.616,0.557-0.615,0.954-0.723
	C312.475,277.309,313.67,277.507,314.835,277.972z"/>
<path fill-rule="evenodd" clip-rule="evenodd" fill="#D26E96" d="M266.84,306.556c0.374-1.176,0.527-2.367,0.237-3.587
	c1.179-0.089,2.042,0.415,2.289,1.558c0.219,1.015-0.382,1.698-1.342,2.046C267.627,306.678,267.232,306.703,266.84,306.556z"/>
<path fill-rule="evenodd" clip-rule="evenodd" fill="#FDFCFC" d="M260.375,304.137c-0.355,0.331-0.819,0.132-1.218,0.251
	c-2.131-0.122-2.132-0.122-2.132-2.295c0-6.222-0.002-12.443,0.006-18.665c0.001-0.547-0.114-1.12,0.2-1.633
	c0.002,6.938,0.031,13.876-0.019,20.814c-0.008,1.158,0.209,1.738,1.489,1.535C259.247,304.058,259.817,304.134,260.375,304.137z"/>
<path fill-rule="evenodd" clip-rule="evenodd" fill="#FDFCFC" d="M352.955,310.388c-0.004,5.987-0.008,11.973-0.013,17.959
	c-0.256-0.263-0.182-0.597-0.182-0.908c-0.003-5.383-0.003-10.766,0-16.149C352.761,310.979,352.688,310.645,352.955,310.388z"/>
<path fill-rule="evenodd" clip-rule="evenodd" fill="#FDFCFC" d="M320.887,325.71c0-3.855-0.001-7.709-0.001-11.564
	c0-0.239,0-0.479,0.189-0.666c0.001,3.696,0.006,7.393-0.002,11.089C321.072,324.954,321.198,325.372,320.887,325.71z"/>
<path fill-rule="evenodd" clip-rule="evenodd" fill="#FDFCFC" d="M266.84,306.556c0.395,0.005,0.789,0.011,1.184,0.016
	c-0.377,0.338-0.837,0.19-1.26,0.192c-3.227,0.013-6.453,0.007-9.68,0.008c0.575-0.387,1.236-0.039,1.836-0.215
	c1.68,0,3.36-0.001,5.041-0.001C264.92,306.556,265.879,306.556,266.84,306.556z"/>
<path fill-rule="evenodd" clip-rule="evenodd" fill="#FDFCFC" d="M211.336,202.63c0.001,3.12,0.132,6.243-0.171,9.357
	c-0.002-2.777-0.008-5.555-0.003-8.332C211.162,203.308,211.065,202.935,211.336,202.63z"/>
<path fill-rule="evenodd" clip-rule="evenodd" fill="#FDFCFC" d="M246.93,189.933c1.909,0.006,3.819,0.013,5.729,0.019
	C250.748,190.239,248.839,190.266,246.93,189.933z"/>
<path fill-rule="evenodd" clip-rule="evenodd" fill="#FDFCFC" d="M220.747,227.6c-0.327-1.856-0.324-3.711,0.004-5.567
	C220.75,223.889,220.748,225.745,220.747,227.6z"/>
<path fill-rule="evenodd" clip-rule="evenodd" fill="#8E9FC4" d="M303.846,204.07c0.431,1.751,0.088,3.528,0.179,5.291
	c-0.107,0.067-0.174,0.035-0.206-0.083C303.827,207.542,303.837,205.806,303.846,204.07z"/>
<path fill-rule="evenodd" clip-rule="evenodd" fill="#FDFCFC" d="M303.818,209.278c0.068,0.029,0.137,0.057,0.206,0.083
	c-0.019,0.07-0.019,0.139,0,0.208c-0.008,1.595-0.016,3.191-0.022,4.786C303.563,212.677,303.893,210.97,303.818,209.278z"/>
<path fill-rule="evenodd" clip-rule="evenodd" fill="#FDFCFC" d="M237.138,177.91c-1.686,0.291-3.385,0.182-5.081,0.158
	C233.741,177.685,235.445,177.969,237.138,177.91z"/>
<path fill-rule="evenodd" clip-rule="evenodd" fill="#FDFCFC" d="M329.238,172.382c-1.041-0.012-2.081-0.023-3.122-0.035
	c-0.253-0.044-0.537,0.023-0.735-0.21c1.688-0.001,3.377-0.002,5.066-0.003C330.094,172.455,329.635,172.268,329.238,172.382z"/>
<path fill-rule="evenodd" clip-rule="evenodd" fill="#FDFCFC" d="M320.598,184.385c-0.879-0.14-1.799,0.153-2.654-0.25
	c1.688,0,3.378,0,5.066-0.001C322.24,184.545,321.396,184.241,320.598,184.385z"/>
<path fill-rule="evenodd" clip-rule="evenodd" fill="#FDFCFC" d="M131.78,202.831c-0.035-1.616-0.111-3.233,0.158-4.84
	C131.872,199.604,132.174,201.228,131.78,202.831z"/>
<path fill-rule="evenodd" clip-rule="evenodd" fill="#FDFCFC" d="M376.301,212.63c0.414,1.44,0.106,2.911,0.18,4.365
	C376.045,215.555,376.373,214.084,376.301,212.63z"/>
<path fill-rule="evenodd" clip-rule="evenodd" fill="#FDFCFC" d="M212.341,167.995c-1.348-0.002-2.696-0.005-4.043-0.007
	C209.646,167.697,210.994,167.685,212.341,167.995z"/>
<path fill-rule="evenodd" clip-rule="evenodd" fill="#FDFCFC" d="M392.556,201.908c-0.055,1.292,0.232,2.6-0.178,3.876
	C392.438,204.493,392.147,203.184,392.556,201.908z"/>
<path fill-rule="evenodd" clip-rule="evenodd" fill="#FDFCFC" d="M441.597,182.195c0.001-1.189,0.003-2.378,0.005-3.567
	C441.923,179.817,441.93,181.006,441.597,182.195z"/>
<path fill-rule="evenodd" clip-rule="evenodd" fill="#FDFCFC" d="M319.878,179.315c0.715,0.019,1.429,0.038,2.144,0.057
	c-1.188,0.325-2.377,0.327-3.565-0.001C318.93,179.352,319.403,179.333,319.878,179.315z"/>
<path fill-rule="evenodd" clip-rule="evenodd" fill="#FDFCFC" d="M196.506,194.887c-1.189-0.006-2.379-0.013-3.568-0.019
	C194.129,194.583,195.318,194.556,196.506,194.887z"/>
<path fill-rule="evenodd" clip-rule="evenodd" fill="#FDFCFC" d="M350.096,218.99c-0.314-1.157-0.318-2.313,0.005-3.469
	C350.099,216.677,350.098,217.834,350.096,218.99z"/>
<path fill-rule="evenodd" clip-rule="evenodd" fill="#FDFCFC" d="M171.133,211.233c-0.002-1.03-0.004-2.06-0.007-3.089
	C171.44,209.173,171.431,210.203,171.133,211.233z"/>
<path fill-rule="evenodd" clip-rule="evenodd" fill="#FDFCFC" d="M416.408,177.908c-1.03,0.412-2.097,0.133-3.146,0.167
	C414.293,177.677,415.36,177.973,416.408,177.908z"/>
<path fill-rule="evenodd" clip-rule="evenodd" fill="#FDFCFC" d="M211.178,219.59c0.269,1.044,0.159,2.109,0.177,3.167
	C210.93,221.723,211.245,220.646,211.178,219.59z"/>
<path fill-rule="evenodd" clip-rule="evenodd" fill="#FDFCFC" d="M304.292,222.972c0.36,0.949,0.161,1.934,0.189,2.903
	C304.063,224.931,304.367,223.939,304.292,222.972z"/>
<path fill-rule="evenodd" clip-rule="evenodd" fill="#FDFCFC" d="M261.319,193.518c0.234,0.009,0.468,0.018,0.702,0.027
	c-0.946,0.304-1.893,0.291-2.841,0.007C259.893,193.541,260.606,193.529,261.319,193.518z"/>
<path fill-rule="evenodd" clip-rule="evenodd" fill="#FDFCFC" d="M170.9,216.03c-0.023-0.968-0.129-1.94,0.167-2.89
	C170.998,214.103,171.269,215.085,170.9,216.03z"/>
<path fill-rule="evenodd" clip-rule="evenodd" fill="#FDFCFC" d="M211.178,195.83c0.296,0.961,0.171,1.947,0.172,2.926
	C210.957,197.8,211.235,196.805,211.178,195.83z"/>
<path fill-rule="evenodd" clip-rule="evenodd" fill="#FDFCFC" d="M315.31,235.032c-0.3-0.975-0.301-1.949,0.001-2.924
	C315.311,233.083,315.311,234.058,315.31,235.032z"/>
<path fill-rule="evenodd" clip-rule="evenodd" fill="#FDFCFC" d="M132.006,194.676c-0.003-0.898-0.104-1.804,0.172-2.685
	C132.115,192.885,132.413,193.803,132.006,194.676z"/>
<path fill-rule="evenodd" clip-rule="evenodd" fill="#FDFCFC" d="M144.863,204.547c0.004,0.87,0.009,1.74,0.014,2.61
	C144.552,206.289,144.572,205.418,144.863,204.547z"/>
<path fill-rule="evenodd" clip-rule="evenodd" fill="#FDFCFC" d="M315.358,228.754c0.028-0.89-0.183-1.796,0.186-2.662
	C315.466,226.978,315.784,227.892,315.358,228.754z"/>
<path fill-rule="evenodd" clip-rule="evenodd" fill="#FDFCFC" d="M171.058,221.15c-0.296-0.88-0.173-1.787-0.171-2.686
	C171.293,219.337,170.995,220.255,171.058,221.15z"/>
<path fill-rule="evenodd" clip-rule="evenodd" fill="#FDFCFC" d="M205.933,224.914c-0.004-0.871-0.008-1.741-0.012-2.611
	C206.241,223.171,206.224,224.042,205.933,224.914z"/>
<path fill-rule="evenodd" clip-rule="evenodd" fill="#FDFCFC" d="M304.528,228.502c0.37,0.861,0.168,1.761,0.18,2.647
	C304.302,230.291,304.61,229.383,304.528,228.502z"/>
<path fill-rule="evenodd" clip-rule="evenodd" fill="#FDFCFC" d="M475.654,217.926c0.407,0.866,0.125,1.78,0.187,2.669
	C475.411,219.731,475.732,218.814,475.654,217.926z"/>
<path fill-rule="evenodd" clip-rule="evenodd" fill="#FDFCFC" d="M364.469,308.192c0.868-0.403,1.781-0.126,2.672-0.179
	C366.274,308.432,365.358,308.121,364.469,308.192z"/>
<path fill-rule="evenodd" clip-rule="evenodd" fill="#FDFCFC" d="M304.046,217.469c0.38,0.858,0.163,1.759,0.188,2.643
	C303.814,219.256,304.136,218.348,304.046,217.469z"/>
<path fill-rule="evenodd" clip-rule="evenodd" fill="#FDFCFC" d="M357.121,320.913c0.048-0.812-0.221-1.646,0.18-2.432
	C357.245,319.292,357.517,320.127,357.121,320.913z"/>
<path fill-rule="evenodd" clip-rule="evenodd" fill="#FDFCFC" d="M192.395,204.035c0.829-0.293,1.658-0.313,2.487,0
	C194.052,204.035,193.224,204.035,192.395,204.035z"/>
<path fill-rule="evenodd" clip-rule="evenodd" fill="#FDFCFC" d="M276.919,174.307c0.254,0.069,0.509,0.138,0.764,0.207
	c-0.808-0.052-1.638,0.204-2.424-0.169C275.812,174.332,276.365,174.319,276.919,174.307z"/>
<path fill-rule="evenodd" clip-rule="evenodd" fill="#FDFCFC" d="M475.836,214.387c-0.047,0.815,0.217,1.652-0.176,2.442
	C475.709,216.015,475.441,215.178,475.836,214.387z"/>
<path fill-rule="evenodd" clip-rule="evenodd" fill="#FDFCFC" d="M316.805,202.591c0.01-0.805-0.173-1.625,0.186-2.403
	C316.919,200.988,317.196,201.815,316.805,202.591z"/>
<path fill-rule="evenodd" clip-rule="evenodd" fill="#FDFCFC" d="M360.974,306.07c-0.788,0.393-1.619,0.139-2.432,0.165
	C359.331,305.866,360.162,306.116,360.974,306.07z"/>
<path fill-rule="evenodd" clip-rule="evenodd" fill="#FDFCFC" d="M386.578,229.305c-0.312-0.835-0.312-1.669,0.002-2.504
	C386.58,227.636,386.579,228.47,386.578,229.305z"/>
<path fill-rule="evenodd" clip-rule="evenodd" fill="#FDFCFC" d="M500.619,251.379c0.788-0.004,1.576-0.007,2.364-0.011
	C502.197,251.699,501.408,251.683,500.619,251.379z"/>
<path fill-rule="evenodd" clip-rule="evenodd" fill="#FDFCFC" d="M315.609,223.469c0.003-0.725-0.175-1.465,0.181-2.161
	C315.715,222.027,315.998,222.776,315.609,223.469z"/>
<path fill-rule="evenodd" clip-rule="evenodd" fill="#FDFCFC" d="M113.975,245.385c0.71-0.004,1.421-0.008,2.131-0.012
	C115.397,245.687,114.687,245.671,113.975,245.385z"/>
<path fill-rule="evenodd" clip-rule="evenodd" fill="#FDFCFC" d="M316.564,207.151c0.005-0.731-0.163-1.477,0.179-2.181
	C316.68,205.697,316.96,206.452,316.564,207.151z"/>
<path fill-rule="evenodd" clip-rule="evenodd" fill="#FDFCFC" d="M321.331,196.402c0.709,0.007,1.417,0.014,2.125,0.021
	C322.745,196.708,322.036,196.738,321.331,196.402z"/>
<path fill-rule="evenodd" clip-rule="evenodd" fill="#FDFCFC" d="M317.029,195.717c0.07-0.021,0.141-0.021,0.211,0
	c-0.098,0.689,0.217,1.42-0.205,2.077C317.033,197.102,317.031,196.41,317.029,195.717z"/>
<path fill-rule="evenodd" clip-rule="evenodd" fill="#FDFCFC" d="M392.381,197.03c0.378,0.709,0.143,1.465,0.169,2.2
	C392.162,198.522,392.431,197.764,392.381,197.03z"/>
<path fill-rule="evenodd" clip-rule="evenodd" fill="#FDFCFC" d="M316.315,211.476c0.028-0.726-0.17-1.472,0.194-2.167
	C316.431,210.029,316.729,210.784,316.315,211.476z"/>
<path fill-rule="evenodd" clip-rule="evenodd" fill="#FDFCFC" d="M177.035,205.742c0,0.712,0,1.424,0,2.136
	C176.726,207.166,176.726,206.454,177.035,205.742z"/>
<path fill-rule="evenodd" clip-rule="evenodd" fill="#FDFCFC" d="M337.142,211.447c-0.63,0.002-1.259,0.003-1.889,0.005
	C335.882,211.13,336.511,211.136,337.142,211.447z"/>
<path fill-rule="evenodd" clip-rule="evenodd" fill="#FDFCFC" d="M423.059,211.441c-0.629,0.003-1.257,0.007-1.886,0.011
	C421.8,211.127,422.429,211.141,423.059,211.441z"/>
<path fill-rule="evenodd" clip-rule="evenodd" fill="#FDFCFC" d="M316.084,215.312c0.012-0.646-0.171-1.311,0.187-1.923
	C316.197,214.028,316.478,214.702,316.084,215.312z"/>
<path fill-rule="evenodd" clip-rule="evenodd" fill="#FDFCFC" d="M329.237,233.375c0.634,0.001,1.268,0.002,1.901,0.004
	C330.504,233.686,329.87,233.68,329.237,233.375z"/>
<path fill-rule="evenodd" clip-rule="evenodd" fill="#FDFCFC" d="M415.174,233.369c0.627,0.005,1.255,0.011,1.882,0.017
	C416.426,233.673,415.798,233.695,415.174,233.369z"/>
<path fill-rule="evenodd" clip-rule="evenodd" fill="#FDFCFC" d="M495.04,234.305c-0.041,0.651,0.196,1.329-0.186,1.948
	C494.919,235.604,494.638,234.922,495.04,234.305z"/>
<path fill-rule="evenodd" clip-rule="evenodd" fill="#FDFCFC" d="M156.695,249.705c0.646-0.007,1.301-0.101,1.92,0.178
	C157.976,249.812,157.306,250.08,156.695,249.705z"/>
<path fill-rule="evenodd" clip-rule="evenodd" fill="#FDFCFC" d="M156.904,197.762c-0.651-0.001-1.31,0.09-1.936-0.18
	C155.613,197.647,156.289,197.375,156.904,197.762z"/>
<path fill-rule="evenodd" clip-rule="evenodd" fill="#FDFCFC" d="M269.699,174.523c0.617-0.322,1.278-0.184,1.925-0.186
	C271.014,174.728,270.339,174.449,269.699,174.523z"/>
<path fill-rule="evenodd" clip-rule="evenodd" fill="#FDFCFC" d="M480.901,194.167c-0.627-0.004-1.253-0.008-1.88-0.013
	C479.65,193.866,480.277,193.85,480.901,194.167z"/>
<path fill-rule="evenodd" clip-rule="evenodd" fill="#FDFCFC" d="M315.85,219.149c0.003-0.646-0.175-1.309,0.181-1.921
	C315.959,217.867,316.232,218.539,315.85,219.149z"/>
<path fill-rule="evenodd" clip-rule="evenodd" fill="#FDFCFC" d="M329.527,188.43c-0.002-0.628-0.005-1.255-0.007-1.883
	C329.837,187.174,329.829,187.802,329.527,188.43z"/>
<path fill-rule="evenodd" clip-rule="evenodd" fill="#FDFCFC" d="M207.33,185.61c0.648,0.041,1.313-0.09,1.938,0.188
	C208.623,185.73,207.943,186.013,207.33,185.61z"/>
<path fill-rule="evenodd" clip-rule="evenodd" fill="#FDFCFC" d="M323.905,205.032c0.002,0.626,0.005,1.253,0.008,1.879
	C323.601,206.286,323.611,205.66,323.905,205.032z"/>
<path fill-rule="evenodd" clip-rule="evenodd" fill="#FDFCFC" d="M457.829,204.032c0.669-0.305,1.337-0.312,2.005,0.005
	C459.166,204.035,458.497,204.034,457.829,204.032z"/>
<path fill-rule="evenodd" clip-rule="evenodd" fill="#FDFCFC" d="M356.8,210.785c-0.03,0.573,0.178,1.171-0.186,1.708
	C356.67,211.924,356.407,211.319,356.8,210.785z"/>
<path fill-rule="evenodd" clip-rule="evenodd" fill="#FDFCFC" d="M164.568,249.879c0.542-0.267,1.12-0.183,1.69-0.167
	C165.724,250.061,165.131,249.825,164.568,249.879z"/>
<path fill-rule="evenodd" clip-rule="evenodd" fill="#FDFCFC" d="M240.948,177.662c-0.542,0.288-1.125,0.185-1.698,0.186
	C239.781,177.463,240.382,177.721,240.948,177.662z"/>
<path fill-rule="evenodd" clip-rule="evenodd" fill="#FDFCFC" d="M321.133,281.788c-0.024-0.552-0.05-1.103-0.074-1.655
	C321.481,280.667,321.392,281.223,321.133,281.788z"/>
<path fill-rule="evenodd" clip-rule="evenodd" fill="#FDFCFC" d="M428.134,189.928c0.572,0.03,1.171-0.178,1.708,0.186
	C429.272,190.059,428.667,190.321,428.134,189.928z"/>
<path fill-rule="evenodd" clip-rule="evenodd" fill="#FDFCFC" d="M275.945,160.808c-0.156,0.02-0.312,0.04-0.468,0.06
	c-0.412-0.114-0.872,0.019-1.258-0.237C274.796,160.677,275.403,160.423,275.945,160.808z"/>
<path fill-rule="evenodd" clip-rule="evenodd" fill="#FDFCFC" d="M367.699,305.833c-0.544,0.365-1.148,0.143-1.727,0.18
	C366.514,305.62,367.122,305.878,367.699,305.833z"/>
<path fill-rule="evenodd" clip-rule="evenodd" fill="#FDFCFC" d="M175.816,224.709c0.005,0.549,0.009,1.098,0.014,1.646
	C175.531,225.81,175.547,225.261,175.816,224.709z"/>
<path fill-rule="evenodd" clip-rule="evenodd" fill="#FDFCFC" d="M304.766,233.79c0.351,0.529,0.157,1.118,0.188,1.683
	C304.572,234.947,304.832,234.35,304.766,233.79z"/>
<path fill-rule="evenodd" clip-rule="evenodd" fill="#FDFCFC" d="M381.336,307.773c0.575,0.027,1.176-0.187,1.717,0.177
	C382.479,307.903,381.875,308.157,381.336,307.773z"/>
<path fill-rule="evenodd" clip-rule="evenodd" fill="#FDFCFC" d="M409.835,205.267c0.004,0.55,0.009,1.101,0.013,1.65
	C409.524,206.37,409.538,205.819,409.835,205.267z"/>
<path fill-rule="evenodd" clip-rule="evenodd" fill="#FDFCFC" d="M163.892,238.802c0.347-0.335,0.795-0.123,1.187-0.219
	c0.17,0.013,0.34,0.025,0.51,0.039C165.047,238.909,164.464,238.809,163.892,238.802z"/>
<path fill-rule="evenodd" clip-rule="evenodd" fill="#FDFCFC" d="M243.81,189.693c0.5-0.009,1.006-0.078,1.473,0.181
	C244.79,189.832,244.264,190.058,243.81,189.693z"/>
<path fill-rule="evenodd" clip-rule="evenodd" fill="#FFFFFF" d="M188.868,230.221c-0.496,0.233-0.992,0.246-1.486-0.004
	C187.877,230.218,188.373,230.219,188.868,230.221z"/>
<path fill-rule="evenodd" clip-rule="evenodd" fill="#FDFCFC" d="M386.647,219.871c0.007-0.498-0.171-1.016,0.171-1.475
	C386.782,218.889,387.004,219.413,386.647,219.871z"/>
<path fill-rule="evenodd" clip-rule="evenodd" fill="#FDFCFC" d="M476.543,203.353c0.006,0.496,0.173,1.009-0.166,1.466
	C476.414,204.329,476.198,203.809,476.543,203.353z"/>
<path fill-rule="evenodd" clip-rule="evenodd" fill="#FDFCFC" d="M372.969,305.589c-0.457,0.34-0.977,0.166-1.474,0.178
	C371.949,305.401,372.475,305.629,372.969,305.589z"/>
<path fill-rule="evenodd" clip-rule="evenodd" fill="#FFFFFF" d="M183.543,226.173c-0.262-0.516-0.323-1.033-0.009-1.552
	C183.537,225.138,183.54,225.656,183.543,226.173z"/>
<path fill-rule="evenodd" clip-rule="evenodd" fill="#FDFCFC" d="M476.375,199.206c0.339,0.455,0.169,0.974,0.186,1.469
	C476.187,200.225,476.419,199.698,476.375,199.206z"/>
<path fill-rule="evenodd" clip-rule="evenodd" fill="#FDFCFC" d="M324.164,179.317c0.455-0.307,0.962-0.188,1.455-0.18
	C325.171,179.496,324.65,179.271,324.164,179.317z"/>
<path fill-rule="evenodd" clip-rule="evenodd" fill="#FDFCFC" d="M344.815,306.234c-0.494,0.009-1.006,0.169-1.461-0.168
	C343.843,306.106,344.361,305.89,344.815,306.234z"/>
<path fill-rule="evenodd" clip-rule="evenodd" fill="#FDFCFC" d="M387.854,204.987c-0.009-0.494-0.17-1.006,0.168-1.461
	C387.982,204.015,388.199,204.533,387.854,204.987z"/>
<path fill-rule="evenodd" clip-rule="evenodd" fill="#FDFCFC" d="M205.354,185.554c0.502-0.262,1.002-0.31,1.501,0.009
	C206.355,185.56,205.855,185.557,205.354,185.554z"/>
<path fill-rule="evenodd" clip-rule="evenodd" fill="#FDFCFC" d="M386.618,308.02c0.496,0.004,1.013-0.167,1.47,0.172
	C387.596,308.153,387.073,308.375,386.618,308.02z"/>
<path fill-rule="evenodd" clip-rule="evenodd" fill="#FDFCFC" d="M467.997,202.596c0.006-0.468,0.012-0.936,0.018-1.403
	C468.294,201.664,468.311,202.132,467.997,202.596z"/>
<path fill-rule="evenodd" clip-rule="evenodd" fill="#FDFCFC" d="M379.822,182.713c0.003,0.466,0.005,0.932,0.007,1.398
	C379.534,183.646,379.541,183.18,379.822,182.713z"/>
<path fill-rule="evenodd" clip-rule="evenodd" fill="#FDFCFC" d="M301.16,182.891c-0.492-0.017-1.006,0.131-1.457-0.195
	C300.19,182.751,300.715,182.525,301.16,182.891z"/>
<path fill-rule="evenodd" clip-rule="evenodd" fill="#FDFCFC" d="M393.539,168c-0.495,0-1.01,0.164-1.464-0.174
	C392.564,167.868,393.086,167.645,393.539,168z"/>
<path fill-rule="evenodd" clip-rule="evenodd" fill="#FDFCFC" d="M374.647,323.55c0.01-0.498-0.176-1.019,0.169-1.48
	C374.783,322.566,375.004,323.091,374.647,323.55z"/>
<path fill-rule="evenodd" clip-rule="evenodd" fill="#FDFCFC" d="M256.819,327.151c-0.034-0.503-0.079-1.008,0.158-1.482
	C256.947,326.165,257.154,326.687,256.819,327.151z"/>
<path fill-rule="evenodd" clip-rule="evenodd" fill="#FDFCFC" d="M356.621,203.029c0.318,0.378,0.172,0.82,0.168,1.242
	C356.456,203.895,356.643,203.448,356.621,203.029z"/>
<path fill-rule="evenodd" clip-rule="evenodd" fill="#FDFCFC" d="M152.642,197.586c-0.385,0.23-0.809,0.185-1.228,0.169
	C151.787,197.433,152.229,197.613,152.642,197.586z"/>
<path fill-rule="evenodd" clip-rule="evenodd" fill="#FDFCFC" d="M495.76,214.865c-0.002,0.42,0.129,0.86-0.183,1.235
	C495.605,215.683,495.411,215.234,495.76,214.865z"/>
<path fill-rule="evenodd" clip-rule="evenodd" fill="#FDFCFC" d="M220.806,220.836c-0.027-0.422-0.064-0.846,0.176-1.229
	C220.954,220.021,221.139,220.466,220.806,220.836z"/>
<path fill-rule="evenodd" clip-rule="evenodd" fill="#FDFCFC" d="M392.379,221.515c0.313,0.377,0.18,0.813,0.164,1.233
	C392.22,222.372,392.401,221.93,392.379,221.515z"/>
<path fill-rule="evenodd" clip-rule="evenodd" fill="#FDFCFC" d="M488.633,201.397c0.002-0.391,0.003-0.782,0.004-1.173
	C488.937,200.616,488.939,201.007,488.633,201.397z"/>
<path fill-rule="evenodd" clip-rule="evenodd" fill="#FDFCFC" d="M401.768,223.951c-0.004-0.421-0.15-0.862,0.168-1.24
	C401.915,223.128,402.101,223.575,401.768,223.951z"/>
<path fill-rule="evenodd" clip-rule="evenodd" fill="#FDFCFC" d="M191.282,194.946c-0.385,0.236-0.81,0.197-1.232,0.181
	C190.419,194.787,190.867,194.975,191.282,194.946z"/>
<path fill-rule="evenodd" clip-rule="evenodd" fill="#FDFCFC" d="M459.123,194.707c-0.373,0.307-0.807,0.188-1.226,0.174
	C458.268,194.549,458.71,194.735,459.123,194.707z"/>
<path fill-rule="evenodd" clip-rule="evenodd" fill="#FDFCFC" d="M211.419,224.39c0.227,0.393,0.201,0.82,0.176,1.248
	C211.253,225.262,211.442,224.812,211.419,224.39z"/>
<path fill-rule="evenodd" clip-rule="evenodd" fill="#FDFCFC" d="M210.938,192.71c0.228,0.392,0.204,0.815,0.158,1.241
	C210.784,193.57,210.959,193.128,210.938,192.71z"/>
<path fill-rule="evenodd" clip-rule="evenodd" fill="#FDFCFC" d="M297.094,192.332c0.379-0.007,0.759-0.014,1.138-0.02
	c0.026,0.068,0.052,0.137,0.078,0.206C297.9,192.483,297.456,192.674,297.094,192.332z"/>
<path fill-rule="evenodd" clip-rule="evenodd" fill="#FDFCFC" d="M268.562,160.626c-0.036,0.063-0.072,0.127-0.107,0.19
	c-0.373-0.007-0.746-0.015-1.119-0.022C267.708,160.474,268.149,160.652,268.562,160.626z"/>
<path fill-rule="evenodd" clip-rule="evenodd" fill="#FDFCFC" d="M210.685,190.353c0.261,0.371,0.2,0.791,0.185,1.204
	C210.539,191.196,210.726,190.757,210.685,190.353z"/>
<path fill-rule="evenodd" clip-rule="evenodd" fill="#FDFCFC" d="M214.979,168.228c-0.411,0.024-0.828,0.087-1.198-0.171
	C214.183,168.095,214.616,167.918,214.979,168.228z"/>
<path fill-rule="evenodd" clip-rule="evenodd" fill="#FDFCFC" d="M224.646,191.077c-0.015-0.413-0.077-0.833,0.185-1.204
	C224.791,190.277,224.977,190.717,224.646,191.077z"/>
<path fill-rule="evenodd" clip-rule="evenodd" fill="#FDFCFC" d="M322.998,172.123c-0.164-0.076-0.328-0.152-0.492-0.228
	c0.399,0.044,0.834-0.143,1.189,0.182C323.463,172.092,323.23,172.107,322.998,172.123z"/>
<path fill-rule="evenodd" clip-rule="evenodd" fill="#FDFCFC" d="M241.414,189.465c0.422-0.034,0.844-0.072,1.227,0.169
	C242.229,189.606,241.787,189.787,241.414,189.465z"/>
<path fill-rule="evenodd" clip-rule="evenodd" fill="#FDFCFC" d="M239.014,189.225c0.417-0.025,0.836-0.076,1.214,0.173
	C239.82,189.365,239.381,189.546,239.014,189.225z"/>
<path fill-rule="evenodd" clip-rule="evenodd" fill="#FDFCFC" d="M182.586,237.68c-0.246-0.378-0.189-0.803-0.19-1.219
	C182.743,236.823,182.55,237.27,182.586,237.68z"/>
<path fill-rule="evenodd" clip-rule="evenodd" fill="#FDFCFC" d="M236.617,188.992c0.411-0.024,0.828-0.088,1.198,0.171
	C237.413,189.125,236.98,189.302,236.617,188.992z"/>
<path fill-rule="evenodd" clip-rule="evenodd" fill="#FDFCFC" d="M279.336,174.583c0.376-0.009,0.753-0.018,1.129-0.026
	c0.032,0.066,0.064,0.131,0.097,0.197C280.15,174.727,279.708,174.909,279.336,174.583z"/>
<path fill-rule="evenodd" clip-rule="evenodd" fill="#FDFCFC" d="M234.217,188.752c0.411-0.024,0.828-0.087,1.198,0.171
	C235.013,188.885,234.581,189.062,234.217,188.752z"/>
<path fill-rule="evenodd" clip-rule="evenodd" fill="#FDFCFC" d="M231.814,188.505c0.412-0.022,0.831-0.083,1.201,0.178
	C232.612,188.644,232.176,188.826,231.814,188.505z"/>
<path fill-rule="evenodd" clip-rule="evenodd" fill="#FDFCFC" d="M225.33,187.773c0.415-0.015,0.835-0.074,1.206,0.19
	C226.13,187.922,225.688,188.112,225.33,187.773z"/>
<path fill-rule="evenodd" clip-rule="evenodd" fill="#FDFCFC" d="M224.893,188.914c0.002-0.376-0.122-0.774,0.187-1.098
	C225.033,188.185,225.205,188.591,224.893,188.914z"/>
<path fill-rule="evenodd" clip-rule="evenodd" fill="#FDFCFC" d="M388.023,304.332c-0.422-0.01-0.867,0.139-1.245-0.179
	C387.198,304.176,387.65,303.982,388.023,304.332z"/>
<path fill-rule="evenodd" clip-rule="evenodd" fill="#FDFCFC" d="M149.947,177.92c-0.252-0.377-0.205-0.798-0.181-1.216
	C150.098,177.069,149.912,177.511,149.947,177.92z"/>
<path fill-rule="evenodd" clip-rule="evenodd" fill="#FDFCFC" d="M377.288,305.349c-0.374,0.31-0.811,0.182-1.23,0.172
	C376.43,305.188,376.874,305.375,377.288,305.349z"/>
<path fill-rule="evenodd" clip-rule="evenodd" fill="#FDFCFC" d="M219.528,233.079c0.377-0.246,0.796-0.194,1.211-0.167
	C220.371,233.223,219.935,233.047,219.528,233.079z"/>
<path fill-rule="evenodd" clip-rule="evenodd" fill="#FDFCFC" d="M421.683,177.667c-0.373,0.307-0.811,0.186-1.229,0.185
	C420.82,177.503,421.269,177.697,421.683,177.667z"/>
<path fill-rule="evenodd" clip-rule="evenodd" fill="#FDFCFC" d="M388.02,203.14c-0.311-0.375-0.183-0.811-0.172-1.231
	C388.18,202.281,387.994,202.726,388.02,203.14z"/>
<path fill-rule="evenodd" clip-rule="evenodd" fill="#FDFCFC" d="M326.828,179.086c0.358-0.307,0.786-0.197,1.196-0.198
	C327.672,179.235,327.229,179.039,326.828,179.086z"/>
<path fill-rule="evenodd" clip-rule="evenodd" fill="#FDFCFC" d="M315.844,182.672c-0.014-0.414-0.118-0.841,0.186-1.207
	C315.99,181.871,316.18,182.312,315.844,182.672z"/>
<path fill-rule="evenodd" clip-rule="evenodd" fill="#FDFCFC" d="M198.623,182.706c-0.002,0.388-0.004,0.777-0.007,1.165
	C198.351,183.481,198.346,183.093,198.623,182.706z"/>
<path fill-rule="evenodd" clip-rule="evenodd" fill="#FDFCFC" d="M495.609,206.709c-0.336,0.156-0.673,0.312-1.009,0.467
	C494.694,206.497,495.215,206.739,495.609,206.709z"/>
<path fill-rule="evenodd" clip-rule="evenodd" fill="#FDFCFC" d="M330.415,207.641c0.088-0.072,0.175-0.143,0.263-0.215
	c0.315,0.008,0.631,0.015,0.946,0.022C331.266,207.795,330.821,207.601,330.415,207.641z"/>
<path fill-rule="evenodd" clip-rule="evenodd" fill="#FDFCFC" d="M476.075,210.067c0.007,0.418,0.128,0.854-0.181,1.227
	C475.925,210.88,475.734,210.435,476.075,210.067z"/>
<path fill-rule="evenodd" clip-rule="evenodd" fill="#FDFCFC" d="M424.781,210.469c0.252,0.404,0.337,0.804-0.023,1.196
	C424.766,211.267,424.773,210.868,424.781,210.469z"/>
<path fill-rule="evenodd" clip-rule="evenodd" fill="#FDFCFC" d="M182.406,240.037c-0.003-0.411-0.068-0.832,0.185-1.204
	C182.551,239.237,182.737,239.677,182.406,240.037z"/>
<path fill-rule="evenodd" clip-rule="evenodd" fill="#FDFCFC" d="M150.001,185.078c-0.025-0.427-0.051-0.855,0.176-1.247
	C150.154,184.251,150.343,184.702,150.001,185.078z"/>
<path fill-rule="evenodd" clip-rule="evenodd" fill="#FDFCFC" d="M159.307,198.01c-0.413,0.005-0.835,0.068-1.206-0.193
	C158.506,197.859,158.949,197.667,159.307,198.01z"/>
<path fill-rule="evenodd" clip-rule="evenodd" fill="#FDFCFC" d="M494.795,239.587c0.007,0.418,0.128,0.854-0.18,1.227
	C494.646,240.401,494.454,239.955,494.795,239.587z"/>
<path fill-rule="evenodd" clip-rule="evenodd" fill="#FDFCFC" d="M494.561,242.944c0,0.419,0.122,0.856-0.186,1.229
	C494.406,243.76,494.212,243.311,494.561,242.944z"/>
<path fill-rule="evenodd" clip-rule="evenodd" fill="#FDFCFC" d="M401.942,227.375c-0.308-0.373-0.19-0.804-0.168-1.222
	C402.097,226.523,401.914,226.963,401.942,227.375z"/>
<path fill-rule="evenodd" clip-rule="evenodd" fill="#FDFCFC" d="M436.082,212.434c-0.003-0.42-0.133-0.858,0.178-1.233
	C436.232,211.616,436.424,212.063,436.082,212.434z"/>
<path fill-rule="evenodd" clip-rule="evenodd" fill="#FDFCFC" d="M495.575,211.926c0.308,0.373,0.187,0.809,0.181,1.228
	C495.414,212.786,495.604,212.339,495.575,211.926z"/>
<path fill-rule="evenodd" clip-rule="evenodd" fill="#FDFCFC" d="M331.396,197.782c-0.313-0.005-0.628-0.01-0.941-0.016
	c0.362-0.34,0.806-0.149,1.215-0.185C331.579,197.649,331.488,197.716,331.396,197.782z"/>
<path fill-rule="evenodd" clip-rule="evenodd" fill="#FDFCFC" d="M320.637,329.076c-0.01-0.417-0.097-0.847,0.189-1.218
	C320.79,328.268,320.984,328.714,320.637,329.076z"/>
<path fill-rule="evenodd" clip-rule="evenodd" fill="#FDFCFC" d="M131.698,211.91c0,5.16,0,10.319,0,15.479
	c-0.046-0.149-0.133-0.299-0.134-0.449c-0.007-4.86-0.007-9.721,0-14.582C131.564,212.209,131.651,212.06,131.698,211.91z"/>
<path fill-rule="evenodd" clip-rule="evenodd" fill="#FDFCFC" d="M138.205,179.348c0.004-0.986,0.009-1.971,0.014-2.958
	C138.439,177.377,138.472,178.363,138.205,179.348z"/>
<path fill-rule="evenodd" clip-rule="evenodd" fill="#FDFCFC" d="M132.431,187.473c-0.075,0.718,0.203,1.466-0.178,2.159
	C132.248,188.906,132.131,188.172,132.431,187.473z"/>
<path fill-rule="evenodd" clip-rule="evenodd" fill="#FDFCFC" d="M132.662,183.606c-0.053,0.647,0.198,1.32-0.162,1.942
	C132.474,184.894,132.394,184.236,132.662,183.606z"/>
<path fill-rule="evenodd" clip-rule="evenodd" fill="#FDFCFC" d="M158.298,238.63c0.577,0.046,1.184-0.207,1.727,0.177
	C159.442,238.811,158.851,238.91,158.298,238.63z"/>
<path fill-rule="evenodd" clip-rule="evenodd" fill="#FDFCFC" d="M132.911,180.513c-0.053,0.48,0.167,0.995-0.178,1.439
	C132.717,181.462,132.636,180.965,132.911,180.513z"/>
<path fill-rule="evenodd" clip-rule="evenodd" fill="#FDFCFC" d="M133.631,173.553c-0.055,0.481,0.171,0.999-0.185,1.442
	C133.438,174.505,133.355,174.006,133.631,173.553z"/>
<path fill-rule="evenodd" clip-rule="evenodd" fill="#FDFCFC" d="M133.386,176.18c-0.033,0.408,0.148,0.846-0.173,1.212
	C133.187,176.976,133.137,176.557,133.386,176.18z"/>
<path fill-rule="evenodd" clip-rule="evenodd" fill="#FDFCFC" d="M141.503,225.874c-0.293-0.706-0.283-1.414-0.007-2.122
	C141.498,224.459,141.5,225.166,141.503,225.874z"/>
<path fill-rule="evenodd" clip-rule="evenodd" fill="#FDFCFC" d="M152.102,233.385c-0.63,0.292-1.26,0.301-1.888-0.006
	C150.843,233.381,151.472,233.383,152.102,233.385z"/>
<path fill-rule="evenodd" clip-rule="evenodd" fill="#FDFCFC" d="M156.212,211.442c0.632-0.303,1.263-0.31,1.893,0.005
	C157.474,211.445,156.843,211.444,156.212,211.442z"/>
<path fill-rule="evenodd" clip-rule="evenodd" fill="#E55E88" d="M241.414,300.776c-0.982-4.714-4.204-7.22-8.547-8.511
	c-1.14-0.338-1.165-0.584-0.445-1.395c0.815-0.917,0.772-1.669-0.122-2.357c-1.107-0.851-2.274-1.637-3.797-1.409
	c-0.174,0.38-0.123,0.779-0.091,1.175c0,0,0,0,0,0c1.102,2.147,0.697,2.936-1.746,3.414c-1.945,0.381-3.807,0.991-5.563,1.929
	c-3.768,2.011-6.226,7.074-5.341,11.053c1.165,5.233,5.24,8.851,10.533,9.349c0.422-0.026,0.846-0.056,1.236,0.162
	c0.002,0.001,0.005,0,0.007,0.002c0.686,0.002,1.372,0.003,2.057,0.005c0.385-0.23,0.806-0.186,1.225-0.162
	c2.285-0.314,4.36-1.123,6.256-2.466C240.469,309.161,242.252,304.798,241.414,300.776z M228.774,311.255
	c-5.172,0.006-8.952-3.483-8.972-8.285c-0.021-4.817,3.686-8.305,8.891-8.365c5.142-0.06,9.093,3.575,9.071,8.344
	C237.742,307.696,233.896,311.249,228.774,311.255z"/>
<path fill-rule="evenodd" clip-rule="evenodd" fill="#61C4E4" d="M374.507,286.159c-1.85-2.781-4.582-4.24-7.723-5.031
	c-0.63-0.158-1.009-0.297-0.635-0.997c0.574-1.073-0.092-1.65-0.89-2.103c-0.802-0.456-1.711-0.658-2.621-0.752
	c-0.391-0.041-0.941-0.234-1.176,0.273c-0.229,0.494,0.045,0.896,0.434,1.253c0.409,0.375,0.868,0.842,0.63,1.433
	c-0.207,0.515-0.804,0.556-1.325,0.644c-2.874,0.483-5.587,1.462-7.585,3.626c-4.146,4.49-3.296,11.145,1.778,14.786
	c2.499,1.794,5.419,2.31,7.54,2.397c4.697-0.023,8.364-1.614,10.47-3.872C376.427,294.575,376.973,289.867,374.507,286.159z
	 M371.867,293.154c-0.662,2.878-2.579,4.705-5.466,5.45c-0.854,0.22-1.724,0.332-2.618,0.273c-3.548-0.066-6.547-1.198-8.103-4.648
	c-1.952-4.331,0.846-9.335,5.63-10.234c2.884-0.541,5.664-0.42,8.063,1.539C371.817,287.53,372.549,290.19,371.867,293.154z"/>
<path fill-rule="evenodd" clip-rule="evenodd" fill="#61C4E4" d="M439.334,232.53c-1.335-0.853-1.733-2.208-2.124-3.6
	c-1.523-5.422-1.271-10.962-1.128-16.497c0.181-0.394-0.051-0.847,0.178-1.233c-0.005-0.199-0.023-0.399-0.014-0.597
	c0.266-5.084-2.117-8.551-6.542-10.806c-3.889-1.981-8.088-2.362-12.311-2.129c-4.376,0.241-6.377,2.003-7.342,5.833
	c-0.144,0.571-0.148,1.177-0.217,1.767c-0.109,0.551-0.129,1.101,0.013,1.65c0.436,1.5,1.075,1.915,2.395,1.555
	c2.681-0.731,5.368-1.23,8.185-0.887c1.935,0.236,3.836,1.367,4.354,2.884c0.118,0.401,0.211,0.802-0.023,1.196
	c-0.605,0.226-1.129-0.182-1.699-0.224c-0.629-0.102-1.258-0.12-1.885,0.011c-3.706,0.231-7.07,1.456-9.887,3.853
	c-3.38,2.876-5.328,6.476-4.723,11.093c0.223,1.695,0.914,3.25,2.169,4.374c1.802,1.613,3.937,2.619,6.44,2.598
	c0.626,0.134,1.253,0.105,1.882,0.018c4.596-0.346,8.074-2.781,11.153-6.082c0.156,0.423,0.263,0.756,0.398,1.077
	c0.941,2.215,2.09,4.279,4.176,5.651c1.636,1.076,3.444,1.393,5.351,1.134c0.629-0.085,1.284-0.354,1.428-1.091
	C439.663,233.557,439.909,232.897,439.334,232.53z M421.173,224.5c-1.89,1.5-3.548,2.5-5.058,1.375s-2.49-1.563-1.74-4.813
	s6.188-2.667,6.188-2.667l1.553,0.479c0,0,0.635,1.345,0.943,1.938C423.444,221.553,423.063,223,421.173,224.5z"/>
<path fill-rule="evenodd" clip-rule="evenodd" fill="#61C4E4" d="M353.082,232.273c-0.898-0.525-1.249-1.523-1.553-2.478
	c-1.12-3.515-1.515-7.129-1.434-10.806c-0.159-1.157-0.166-2.313,0.005-3.47c0.016-1.438-0.129-2.901,0.091-4.307
	c0.236-1.509,0.093-2.941-0.272-4.367c-1.067-4.173-4.172-6.361-7.908-7.817c-3.316-1.292-6.832-1.403-10.341-1.447
	c-0.188,0.097-0.379,0.188-0.512,0.361c-1.049,3.104-0.643,6.293-0.552,9.463c0.332,0.19,0.674,0.143,1.018,0.042
	c1.115-0.208,2.208,0.095,3.292,0.232c1.389,0.175,2.657,0.752,3.574,1.9c0.467,0.584,0.558,1.34,0.283,1.913
	c-0.283,0.591-0.917,0.022-1.397-0.006c-0.079-0.004-0.156-0.026-0.234-0.041c-0.63-0.114-1.26-0.123-1.889,0.005
	c-1.732,0.096-3.409,0.46-5.033,1.068c-0.298,0.963,0.226,1.884,0.126,2.849c-0.092,0.887-0.174,1.775-0.256,2.663
	c2.369-0.587,5.163,0.156,5.163,0.156l0.944,3.12c0.135,1.308-2.885,5.942-4.801,6.115c-0.525,0.047-1.164-0.011-1.796-0.219
	c-0.005,0.748-0.018,1.494,0.002,2.243c0.019,0.718-0.089,1.421-0.308,2.123c-0.17,0.543-0.41,1.145-0.044,1.728l-0.014,0.078
	c0.634,0.115,1.268,0.109,1.901,0.004c4.123-0.272,7.367-2.314,10.199-5.131c0.968-0.962,0.88-1,1.423,0.324
	c1.077,2.631,2.589,4.912,5.306,6.126c1.424,0.636,2.922,0.684,4.425,0.385c0.608-0.121,1.111-0.483,1.192-1.178
	C353.757,233.275,353.819,232.705,353.082,232.273z"/>
<path fill-rule="evenodd" clip-rule="evenodd" fill="#E55E88" d="M303.434,300.063c-0.982-4.714-4.204-7.22-8.547-8.511
	c-1.14-0.338-1.165-0.584-0.445-1.395c0.815-0.917,0.772-1.669-0.122-2.357c-1.107-0.851-2.274-1.637-3.797-1.409
	c-0.174,0.38-0.123,0.779-0.091,1.175c0,0,0,0,0,0c1.102,2.147,0.697,2.936-1.746,3.414c-1.945,0.381-3.807,0.991-5.563,1.929
	c-3.768,2.011-6.226,7.074-5.341,11.053c1.165,5.233,5.24,8.851,10.533,9.349c0.422-0.026,0.846-0.056,1.236,0.162
	c0.002,0.001,0.005,0,0.007,0.002c0.686,0.002,1.372,0.003,2.057,0.005c0.385-0.23,0.806-0.186,1.225-0.162
	c2.285-0.314,4.36-1.123,6.256-2.466C302.488,308.448,304.271,304.085,303.434,300.063z M290.793,310.542
	c-5.172,0.006-8.952-3.483-8.972-8.285c-0.021-4.817,3.686-8.305,8.891-8.365c5.142-0.06,9.093,3.575,9.072,8.344
	C299.762,306.983,295.916,310.535,290.793,310.542z"/>
<path fill-rule="evenodd" clip-rule="evenodd" fill="#E55E88" d="M173.868,232.192c-0.727-0.516-1.118-1.314-1.389-2.171
	c-0.913-2.888-1.447-5.834-1.421-8.871c-0.265-0.882,0.036-1.8-0.171-2.686c0.004-0.812,0.009-1.623,0.014-2.434
	c0.182-0.956-0.108-1.939,0.167-2.89c0.022-0.636,0.044-1.271,0.066-1.907c0.094-1.03,0.109-2.06-0.007-3.089
	c-0.549-3.392-2.356-5.898-5.276-7.686c-2.034-1.245-4.252-1.928-6.543-2.449c-0.381-0.197-0.835,0.069-1.206-0.193
	c-0.399-0.018-0.798-0.037-1.197-0.055c-0.632-0.206-1.311,0.098-1.936-0.18c-0.775,0.001-1.551,0.003-2.326,0.004
	c-0.385,0.231-0.833,0.009-1.228,0.169c-3.958,0.655-6.191,2.719-6.551,6.792c-0.089,0.871-0.119,1.741,0.014,2.61
	c0.341,1.041,1.108,1.679,2.135,1.365c1.837-0.562,3.715-0.792,5.594-1.072c0.935,0.395,1.945,0.375,2.923,0.532
	c1.2,0.192,2.339,0.522,3.228,1.405c0.436,0.433,0.827,1.011,0.6,1.597c-0.262,0.679-0.914,0.075-1.377,0.184
	c-0.585-0.012-1.173,0.008-1.76-0.018c-2.305,0.101-4.53,0.488-6.495,1.811c-2.179,1.192-3.984,2.854-5.744,4.574
	c-1.849,1.701-2.673,3.849-2.752,6.32c0.002,0.652,0.009,1.305-0.002,1.958c-0.044,1.021,0.197,1.973,0.658,2.881
	c1.743,3.434,4.71,4.795,8.383,4.967c0.567-0.011,1.135-0.008,1.703-0.009c1.128,0.035,2.214-0.167,3.278-0.532
	c2.646-0.906,4.896-2.446,6.92-4.337c0.891-0.832,0.875-0.848,1.377,0.319c0.438,1.017,0.824,2.071,1.8,2.736
	c0.437,0.405,0.905,0.782,1.304,1.22c1.723,1.891,3.947,2.332,6.346,2.142c0.756-0.06,1.394-0.485,1.613-1.362
	C174.808,233.045,174.482,232.628,173.868,232.192z M156.904,222.758c0.07,0.924-4.987,5.076-5.746,2.256s-1.158-2.514,0-5.424
	s6-1.923,6-1.923L156.904,222.758z"/>
</svg>
