<?xml version="1.0" encoding="utf-8"?>
<!-- Generator: Adobe Illustrator 16.0.0, SVG Export Plug-In . SVG Version: 6.00 Build 0)  -->
<!DOCTYPE svg PUBLIC "-//W3C//DTD SVG 1.1//EN" "http://www.w3.org/Graphics/SVG/1.1/DTD/svg11.dtd">
<svg version="1.1" id="Layer_1" xmlns="http://www.w3.org/2000/svg" xmlns:xlink="http://www.w3.org/1999/xlink" x="0px" y="0px"
	 width="360px" height="560px" viewBox="0 0 360 560" enable-background="new 0 0 360 560" xml:space="preserve">
<linearGradient id="SVGID_1_" gradientUnits="userSpaceOnUse" x1="346.2432" y1="-7.9419" x2="13.7561" y2="567.9426">
	<stop  offset="0" style="stop-color:#34E89E"/>
	<stop  offset="1" style="stop-color:#0F3443"/>
</linearGradient>
<linearGradient id="SVGID_2_" gradientUnits="userSpaceOnUse" x1="179.9995" y1="-0.5" x2="179.9995" y2="560.5005">
	<stop  offset="0" style="stop-color:#34E89E"/>
	<stop  offset="1" style="stop-color:#0F3443"/>
</linearGradient>
<rect fill="url(#SVGID_1_)" stroke="url(#SVGID_2_)" stroke-miterlimit="10" width="360" height="560"/>
<radialGradient id="SVGID_3_" cx="179.7588" cy="162.5728" r="123.4127" gradientUnits="userSpaceOnUse">
	<stop  offset="0.571" style="stop-color:#3D3D3D"/>
	<stop  offset="1" style="stop-color:#0F3443"/>
</radialGradient>
<path fill="url(#SVGID_3_)" d="M32.192,159.75c-1.127-0.52-2.232-1.192-3.315-2.015c-1.085-0.825-2.06-1.777-2.925-2.86
	c-0.867-1.084-1.56-2.255-2.08-3.51c-0.52-1.258-0.78-2.578-0.78-3.965c0-2.425,0.735-4.333,2.21-5.72
	c1.473-1.385,3.228-2.275,5.265-2.665c2.035-0.39,4.073-0.368,6.11,0.065c2.036,0.435,3.618,1.215,4.745,2.34
	c-0.087-2.945-0.217-6.435-0.39-10.465c-0.174-4.03-0.39-7.865-0.65-11.505c-0.347-4.246-0.65-8.58-0.91-13
	c-0.26-2.08-0.325-4.333-0.195-6.76c0.13-2.425,0.585-4.68,1.365-6.76c0.78-2.08,1.97-3.813,3.575-5.2
	c1.603-1.385,3.748-2.08,6.435-2.08c0.78,0,1.56,0.13,2.34,0.39c3.033,0.867,5.373,2.21,7.02,4.03c1.646,1.82,2.88,3.75,3.705,5.785
	c0.823,2.038,1.32,3.922,1.495,5.655c0.173,1.735,0.303,2.948,0.39,3.64c0,2.947-0.39,5.245-1.17,6.89
	c-0.78,1.647-1.214,2.47-1.3,2.47c-0.087,0.868-0.65,1.735-1.69,2.6c-1.04,0.868-2.21,1.54-3.51,2.015
	c-1.3,0.478-2.535,0.564-3.705,0.26c-1.17-0.302-1.885-1.19-2.145-2.665v-0.13c1.385-1.645,2.425-3.835,3.12-6.565
	c0.693-2.73,1.04-5.33,1.04-7.8c0-2.47-0.39-4.463-1.17-5.98c-0.78-1.516-1.95-1.885-3.51-1.105
	c-0.175,1.214-0.325,2.58-0.455,4.095c-0.13,1.518-0.282,2.97-0.455,4.355c-0.175,1.56-0.305,3.208-0.39,4.94
	c-0.347,5.2-0.564,10.25-0.65,15.145c-0.087,4.897-0.13,9.165-0.13,12.805c0,2.86,0,5.222,0,7.085c0,1.865,0.042,2.925,0.13,3.185
	c2.08,1.735,4.917,3.38,8.515,4.94c3.595,1.56,7.365,2.686,11.31,3.38c3.942,0.693,7.69,0.8,11.245,0.325
	c3.553-0.478,6.283-1.885,8.19-4.225c0.172-0.175,0.475-0.564,0.91-1.17c0.433-0.605,0.735-0.91,0.91-0.91
	c0.52,0,1.06,0.413,1.625,1.235c0.563,0.822,0.953,1.82,1.17,2.99c0.215,1.17,0.15,2.405-0.195,3.705
	c-0.348,1.3-1.17,2.383-2.47,3.25c-2.254,1.993-5.395,3.228-9.425,3.705c-4.03,0.475-8.3,0.41-12.805-0.195
	c-4.507-0.607-8.84-1.669-13-3.185c-4.16-1.518-7.41-3.315-9.75-5.395c-1.04,0.78-2.08,1.56-3.12,2.34
	c-1.04,0.78-2.102,1.43-3.185,1.95c-1.085,0.52-2.232,0.822-3.445,0.91C34.877,160.485,33.578,160.27,32.192,159.75z M30.242,146.75
	c-0.435,0.78-0.477,1.647-0.13,2.6c0.345,0.953,0.865,1.84,1.56,2.665c0.693,0.823,1.495,1.538,2.405,2.145
	c0.91,0.605,1.755,0.91,2.535,0.91c1.213,0,2.166-0.39,2.86-1.17c0.693-0.78,1.17-1.69,1.43-2.73
	c-1.475-1.473-3.165-2.643-5.07-3.51c-1.908-0.865-3.38-1.3-4.42-1.3C30.718,146.36,30.328,146.49,30.242,146.75z M74.053,143.89
	c-1.127,1.734-2.665,3.185-4.615,4.355S65.473,150,63.393,150c-2.167,0-4.03-0.605-5.59-1.82c-1.56-1.213-2.34-2.945-2.34-5.2
	c0-1.385,0.345-2.73,1.04-4.03c0.693-1.3,1.625-2.47,2.795-3.51s2.578-1.885,4.225-2.535c1.646-0.65,3.38-0.975,5.2-0.975
	c0.433,0,0.8,0.044,1.105,0.13c0.303,0.087,0.627,0.13,0.975,0.13c0.433,0,0.65-0.303,0.65-0.91c0-1.212-0.455-2.1-1.365-2.665
	c-0.91-0.563-1.995-0.91-3.25-1.04c-1.257-0.13-2.535-0.085-3.835,0.13c-1.3,0.217-2.34,0.455-3.12,0.715
	c-0.347,0.175-0.694,0.11-1.04-0.195c-0.347-0.303-0.52-0.715-0.52-1.235c0-0.78,0.085-1.581,0.26-2.405
	c0.173-0.823,0.52-1.58,1.04-2.275c0.52-0.693,1.255-1.255,2.21-1.69c0.953-0.433,2.21-0.65,3.77-0.65c1.04,0,2.383,0.087,4.03,0.26
	c1.646,0.175,3.271,0.63,4.875,1.365c1.603,0.737,2.968,1.777,4.095,3.12c1.125,1.345,1.69,3.185,1.69,5.525
	c-0.087,0.78-0.175,2.189-0.26,4.225c-0.087,2.038-0.045,4.14,0.13,6.305c0.172,2.167,0.498,4.16,0.975,5.98
	c0.475,1.82,1.19,2.947,2.145,3.38c0,0.345-0.045,0.67-0.13,0.975c-0.087,0.303-0.737,0.455-1.95,0.455
	c-0.435,0-0.955-0.087-1.56-0.26c-0.607-0.174-1.257-0.52-1.95-1.04c-0.694-0.52-1.365-1.277-2.015-2.275
	C75.028,146.99,74.486,145.625,74.053,143.89z M65.083,141.68c0,0.694,0.238,1.322,0.715,1.885c0.476,0.565,1.148,0.845,2.015,0.845
	c0.78,0,1.71-0.26,2.795-0.78c1.083-0.52,1.928-1.255,2.535-2.21c-0.175-0.345-0.26-0.888-0.26-1.625c0-0.735-0.044-1.43-0.13-2.08
	c-0.087-0.65-0.195-1.235-0.325-1.755c-0.13-0.52-0.37-0.78-0.715-0.78c-0.78,0-1.56,0.217-2.34,0.65
	c-0.78,0.435-1.495,0.975-2.145,1.625s-1.17,1.345-1.56,2.08C65.278,140.272,65.083,140.987,65.083,141.68z M94.593,130.11
	c1.212,0.52,2.535,1.127,3.965,1.82c1.43,0.694,2.773,1.517,4.03,2.47c1.255,0.955,2.295,2.06,3.12,3.315
	c0.823,1.257,1.235,2.71,1.235,4.355c0,1.647-0.455,3.078-1.365,4.29c-0.91,1.215-2.06,2.232-3.445,3.055
	c-1.387,0.823-2.905,1.43-4.55,1.82c-1.647,0.39-3.207,0.585-4.68,0.585c-2.515,0-4.507-0.305-5.98-0.91
	c-1.475-0.607-2.6-1.32-3.38-2.145c-0.78-0.823-1.28-1.69-1.495-2.6c-0.217-0.91-0.325-1.71-0.325-2.405
	c0-2.772,0.605-4.657,1.82-5.655c1.212-0.995,2.47-1.495,3.77-1.495c0.865,0,1.538,0.195,2.015,0.585
	c0.476,0.39,0.845,0.803,1.105,1.235c0.345,0.52,0.52,1.127,0.52,1.82c-1.475,0.435-2.45,0.932-2.925,1.495
	c-0.478,0.564-0.715,1.062-0.715,1.495c0,1.214,0.345,2.362,1.04,3.445c0.693,1.084,1.863,1.625,3.51,1.625
	c1.212,0,2.21-0.195,2.99-0.585c0.78-0.39,1.386-0.845,1.82-1.365c0.52-0.605,0.953-1.3,1.3-2.08c0.52-0.953,0.563-1.885,0.13-2.795
	c-0.435-0.91-1.084-1.755-1.95-2.535c-0.867-0.78-1.8-1.43-2.795-1.95c-0.998-0.52-1.842-0.91-2.535-1.17
	c-1.995-0.605-3.532-1.365-4.615-2.275c-1.084-0.91-1.885-1.798-2.405-2.665c-0.607-0.953-0.955-1.993-1.04-3.12
	c0-2.513,0.693-4.463,2.08-5.85c1.385-1.385,2.968-2.405,4.745-3.055c1.775-0.65,3.445-1.04,5.005-1.17
	c1.56-0.13,2.555-0.195,2.99-0.195c2.513,0,4.268,0.607,5.265,1.82c0.996,1.215,1.495,2.428,1.495,3.64
	c0,1.735-0.347,2.817-1.04,3.25c-0.695,0.435-1.127,0.65-1.3,0.65h-0.26c-0.867-0.953-1.69-1.603-2.47-1.95
	c-0.78-0.346-1.518-0.52-2.21-0.52c-2.08,0-3.337,0.37-3.77,1.105c-0.435,0.737-0.65,1.322-0.65,1.755
	c0,0.955,0.303,1.67,0.91,2.145C94.158,129.873,94.505,130.11,94.593,130.11z M149.711,97.35c0.085,0.695,0.215,1.475,0.39,2.34
	c0.173,0.695,0.303,1.475,0.39,2.34c0.085,0.868,0.13,1.735,0.13,2.6c0,1.907-0.26,3.295-0.78,4.16c-0.52,0.78-1.04,1.387-1.56,1.82
	c-0.52,0.435-1.235,0.845-2.145,1.235c-0.91,0.39-2.06,0.585-3.445,0.585c-0.52,0-1.322-0.021-2.405-0.065
	c-1.085-0.043-2.515-0.15-4.29-0.325c-1.777-0.173-3.987-0.39-6.63-0.65c-2.645-0.26-5.785-0.605-9.425-1.04
	c-0.26,2.515-0.607,5.375-1.04,8.58c-0.435,3.207-0.867,6.392-1.3,9.555c-0.435,3.165-0.802,6.045-1.105,8.645
	c-0.305,2.6-0.455,4.465-0.455,5.59c0,0.087,0,0.435,0,1.04c0,0.607,0.042,1.28,0.13,2.015c0.085,0.737,0.215,1.453,0.39,2.145
	c0.173,0.695,0.433,1.17,0.78,1.43c0.085,0.087-0.305,0.175-1.17,0.26c-0.867,0.087-1.777,0.13-2.73,0.13
	c-2.08,0.087-3.359-1.105-3.835-3.575c-0.477-2.47-0.715-5.675-0.715-9.62c0-3.942,0.042-8.34,0.13-13.195
	c0.085-4.853-0.305-9.663-1.17-14.43c-0.52-0.172-1.061-0.26-1.625-0.26c-0.563,0-1.19-0.085-1.885-0.26
	c-0.693,0-1.343,0.087-1.95,0.26c-0.52,0.174-1.061,0.412-1.625,0.715c-0.563,0.305-1.018,0.76-1.365,1.365
	c-0.26-0.26-0.52-0.563-0.78-0.91c-0.433-0.693-0.65-1.646-0.65-2.86c0-1.386,0.932-2.47,2.795-3.25
	c1.865-0.78,4.182-1.255,6.955-1.43c-0.085-1.385-0.368-2.86-0.845-4.42c-0.475-1.56-1.365-2.73-2.665-3.51h0.78
	c0.26,0,0.564-0.02,0.91-0.065c0.348-0.042,0.737-0.065,1.17-0.065c1.645,0,3.487,0.13,5.525,0.39c2.035,0.26,3.66,0.867,4.875,1.82
	c0.52,0.347,0.953,0.825,1.3,1.43c0.345,0.52,0.67,1.214,0.975,2.08c0.303,0.867,0.498,1.907,0.585,3.12
	c2.945,0,6.195-0.042,9.75-0.13c3.553-0.085,7.15-0.475,10.79-1.17c1.385-0.173,2.643-0.433,3.77-0.78
	c0.953-0.346,1.928-0.801,2.925-1.365C148.562,99.063,149.277,98.305,149.711,97.35z M141.001,114.64
	c0-0.085-0.325-0.368-0.975-0.845c-0.65-0.475-1.385-1.19-2.21-2.145c-0.823-0.953-1.56-2.123-2.21-3.51
	c-0.65-1.385-0.975-2.99-0.975-4.81c0-2.6,0.52-4.853,1.56-6.76c1.04-1.905,2.405-3.51,4.095-4.81c1.69-1.3,3.662-2.275,5.915-2.925
	c2.252-0.65,4.592-0.975,7.02-0.975c3.985,0,8.08,0.52,12.285,1.56c4.203,1.04,8.405,2.21,12.61,3.51
	c4.202,1.3,8.405,2.47,12.61,3.51c4.202,1.04,8.297,1.56,12.284,1.56c1.56,0,2.968-0.173,4.226-0.52
	c1.255-0.345,2.34-0.735,3.25-1.17c0.91-0.433,1.885-0.996,2.925-1.69c0.433,0.26,0.649,0.737,0.649,1.43
	c0,1.56-0.736,2.817-2.209,3.77c-1.475,0.955-3.186,1.67-5.136,2.145c-1.95,0.478-3.923,0.803-5.915,0.975
	c-1.994,0.175-3.51,0.26-4.55,0.26c-3.295,0-6.718-0.238-10.271-0.715c-3.555-0.475-7.129-0.975-10.725-1.495
	c-3.597-0.52-7.107-1.018-10.53-1.495c-3.425-0.476-6.61-0.715-9.555-0.715c-3.38,0-5.807,0.39-7.28,1.17
	c-1.473,0.78-2.295,1.777-2.47,2.99c-0.172,1.215,0.175,2.558,1.04,4.03c0.867,1.475,1.95,2.86,3.25,4.16
	c0.173,0.175,0.541,0.542,1.105,1.105c0.563,0.565,0.845,0.802,0.845,0.715c0,0.174-0.26,0.412-0.78,0.715
	c-0.52,0.305-1.17,0.585-1.95,0.845c-0.78,0.26-1.603,0.5-2.47,0.715c-0.865,0.217-1.646,0.325-2.34,0.325
	C142.996,115.55,141.956,115.248,141.001,114.64z M171.551,112.3c-0.174-1.732,0.325-3.055,1.495-3.965s2.621-1.365,4.355-1.365
	c0.433,0.087,0.865,0.13,1.3,0.13c0.433,0.087,0.888,0.13,1.365,0.13c0.476,0,1.018,0.087,1.625,0.26c0-0.173-0.045-0.605-0.131-1.3
	c-0.087-0.692-0.217-1.43-0.39-2.21c-0.175-0.78-0.37-1.538-0.585-2.275c-0.217-0.735-0.412-1.19-0.585-1.365
	c1.905,0,3.965,0.11,6.175,0.325c2.21,0.217,4.181,0.845,5.915,1.885c0,0.175-0.044,0.52-0.13,1.04
	c-0.088,0.52-0.175,1.127-0.26,1.82l-0.26,2.6c0.26,0.087,0.865,0.175,1.819,0.26c0.953,0.087,2.036,0.13,3.25,0.13
	c1.213,0,2.448-0.107,3.705-0.325c1.255-0.215,2.317-0.628,3.185-1.235c0,1.04,0.021,2.21,0.065,3.51
	c0.043,1.3-0.109,2.515-0.455,3.64c-0.347,1.127-0.933,2.08-1.755,2.86c-0.824,0.78-2.102,1.17-3.835,1.17
	c-0.435-0.085-0.867-0.173-1.3-0.26c-0.435-0.085-0.933-0.172-1.495-0.26c-0.564-0.085-1.192-0.215-1.885-0.39
	c-0.087,2.08-0.218,4.79-0.39,8.125c-0.176,3.337-0.37,6.717-0.586,10.14c-0.217,3.425-0.39,6.587-0.52,9.49
	c-0.13,2.904-0.195,4.962-0.195,6.175c0,0.433,0.043,1.408,0.131,2.925c0.084,1.516,0.563,3.01,1.43,4.485
	c0.085,0.172,0.26,0.368,0.52,0.585c0.26,0.215,0.391,0.41,0.391,0.585c0,0.433-0.607,0.65-1.82,0.65
	c-1.301,0-2.492-0.305-3.575-0.91c-1.085-0.607-2.015-1.365-2.795-2.275s-1.365-1.93-1.755-3.055
	c-0.391-1.127-0.585-2.167-0.585-3.12c-0.175-3.813-0.348-7.8-0.521-11.96c-0.174-3.553-0.282-7.431-0.324-11.635
	c-0.045-4.203-0.065-8.255-0.065-12.155c-1.647-0.173-3.055-0.346-4.225-0.52c-1.17-0.173-2.015-0.26-2.535-0.26
	c-0.435,0-0.975,0.065-1.625,0.195c-0.65,0.13-1.235,0.412-1.755,0.845c0-0.172-0.044-0.433-0.13-0.78
	c-0.087-0.26-0.152-0.563-0.195-0.91C171.571,113.385,171.551,112.907,171.551,112.3z M211.721,143.89
	c-1.128,1.734-2.666,3.185-4.615,4.355c-1.951,1.17-3.965,1.755-6.045,1.755c-2.168,0-4.031-0.605-5.59-1.82
	c-1.561-1.213-2.341-2.945-2.341-5.2c0-1.385,0.345-2.73,1.04-4.03c0.693-1.3,1.625-2.47,2.795-3.51s2.578-1.885,4.225-2.535
	c1.646-0.65,3.381-0.975,5.201-0.975c0.432,0,0.8,0.044,1.104,0.13c0.303,0.087,0.628,0.13,0.976,0.13
	c0.432,0,0.649-0.303,0.649-0.91c0-1.212-0.455-2.1-1.365-2.665c-0.909-0.563-1.995-0.91-3.25-1.04
	c-1.257-0.13-2.534-0.085-3.835,0.13c-1.3,0.217-2.34,0.455-3.12,0.715c-0.347,0.175-0.694,0.11-1.04-0.195
	c-0.348-0.303-0.52-0.715-0.52-1.235c0-0.78,0.085-1.581,0.26-2.405c0.173-0.823,0.52-1.58,1.04-2.275
	c0.521-0.693,1.255-1.255,2.21-1.69c0.953-0.433,2.21-0.65,3.77-0.65c1.041,0,2.383,0.087,4.03,0.26
	c1.646,0.175,3.271,0.63,4.875,1.365c1.603,0.737,2.968,1.777,4.095,3.12c1.126,1.345,1.69,3.185,1.69,5.525
	c-0.087,0.78-0.175,2.189-0.26,4.225c-0.087,2.038-0.045,4.14,0.13,6.305c0.172,2.167,0.498,4.16,0.975,5.98
	c0.476,1.82,1.19,2.947,2.146,3.38c0,0.345-0.045,0.67-0.13,0.975c-0.088,0.303-0.738,0.455-1.95,0.455
	c-0.435,0-0.954-0.087-1.56-0.26c-0.607-0.174-1.258-0.52-1.951-1.04c-0.693-0.52-1.364-1.277-2.014-2.275
	C212.695,146.99,212.152,145.625,211.721,143.89z M202.75,141.68c0,0.694,0.238,1.322,0.715,1.885
	c0.476,0.565,1.148,0.845,2.016,0.845c0.779,0,1.71-0.26,2.795-0.78c1.082-0.52,1.928-1.255,2.535-2.21
	c-0.176-0.345-0.261-0.888-0.261-1.625c0-0.735-0.044-1.43-0.13-2.08c-0.088-0.65-0.195-1.235-0.324-1.755
	c-0.131-0.52-0.371-0.78-0.716-0.78c-0.78,0-1.56,0.217-2.34,0.65c-0.78,0.435-1.495,0.975-2.146,1.625
	c-0.649,0.65-1.17,1.345-1.56,2.08C202.945,140.272,202.75,140.987,202.75,141.68z M219.779,119.58c0.953,0,2.035-0.021,3.25-0.065
	c1.213-0.043,2.383,0.065,3.51,0.325c1.125,0.26,2.101,0.78,2.926,1.56c0.822,0.78,1.277,1.995,1.364,3.64
	c1.473-1.473,3.25-2.838,5.33-4.095c2.08-1.255,4.203-1.885,6.37-1.885c0.26,0,0.65,0.022,1.17,0.065
	c0.521,0.045,1.061,0.26,1.625,0.65c0.563,0.39,1.018,1.085,1.365,2.08c0.345,0.998,0.433,2.45,0.26,4.355
	c-0.26,2.255-0.478,4.507-0.65,6.76c-0.174,1.995-0.305,4.16-0.39,6.5c-0.087,2.34-0.13,4.55-0.13,6.63
	c0,2.34,0.13,4.225,0.39,5.655c0.261,1.43,0.521,2.578,0.78,3.445c0.26,0.865,0.521,1.495,0.78,1.885s0.39,0.758,0.39,1.105
	c0,0.605-0.39,0.91-1.17,0.91c-0.867,0-1.8-0.217-2.795-0.65c-0.997-0.435-1.95-1.105-2.86-2.015s-1.669-2.06-2.274-3.445
	c-0.607-1.388-0.91-2.99-0.91-4.81c0-4.68,0-8.405,0-11.18c0-2.772-0.045-4.853-0.13-6.24c-0.087-1.385-0.195-2.275-0.325-2.665
	c-0.13-0.39-0.325-0.585-0.585-0.585c-0.435,0-1.02,0.305-1.755,0.91c-0.737,0.607-1.495,1.3-2.275,2.08
	c-0.779,0.78-1.539,1.583-2.275,2.405c-0.736,0.825-1.279,1.453-1.625,1.885c-0.52,2.688-0.954,5.31-1.299,7.865
	c-0.348,2.558-0.521,4.225-0.521,5.005c0,0.435,0.065,0.975,0.194,1.625c0.131,0.65,0.411,1.235,0.846,1.755
	c-0.955,0.52-1.93,0.758-2.926,0.715c-0.996-0.044-1.93-0.282-2.795-0.715c-0.867-0.435-1.56-1.125-2.08-2.08
	c-0.52-0.953-0.736-2.08-0.649-3.38c0.085-1.385,0.261-3.335,0.521-5.85c0.26-2.513,0.455-5.113,0.584-7.8
	c0.131-2.686,0.131-5.178,0-7.475C220.885,122.16,220.472,120.535,219.779,119.58z M289.198,97.35
	c0.085,0.695,0.215,1.475,0.39,2.34c0.173,0.695,0.303,1.475,0.39,2.34c0.086,0.868,0.13,1.735,0.13,2.6
	c0,1.907-0.26,3.295-0.779,4.16c-0.521,0.78-1.04,1.387-1.561,1.82c-0.52,0.435-1.234,0.845-2.145,1.235
	c-0.91,0.39-2.06,0.585-3.445,0.585c-0.52,0-1.322-0.021-2.405-0.065c-1.084-0.043-2.515-0.15-4.29-0.325
	c-1.777-0.173-3.987-0.39-6.63-0.65c-2.645-0.26-5.784-0.605-9.425-1.04c-0.26,2.515-0.607,5.375-1.04,8.58
	c-0.435,3.207-0.867,6.392-1.3,9.555c-0.435,3.165-0.803,6.045-1.105,8.645c-0.305,2.6-0.454,4.465-0.454,5.59
	c0,0.087,0,0.435,0,1.04c0,0.607,0.042,1.28,0.13,2.015c0.085,0.737,0.215,1.453,0.39,2.145c0.173,0.695,0.433,1.17,0.78,1.43
	c0.085,0.087-0.305,0.175-1.17,0.26c-0.867,0.087-1.777,0.13-2.73,0.13c-2.08,0.087-3.359-1.105-3.835-3.575
	c-0.478-2.47-0.715-5.675-0.715-9.62c0-3.942,0.043-8.34,0.13-13.195c0.085-4.853-0.305-9.663-1.17-14.43
	c-0.52-0.172-1.061-0.26-1.625-0.26c-0.563,0-1.19-0.085-1.885-0.26c-0.693,0-1.343,0.087-1.95,0.26
	c-0.521,0.174-1.061,0.412-1.625,0.715c-0.563,0.305-1.018,0.76-1.365,1.365c-0.26-0.26-0.521-0.563-0.78-0.91
	c-0.432-0.693-0.649-1.646-0.649-2.86c0-1.386,0.933-2.47,2.795-3.25c1.864-0.78,4.183-1.255,6.955-1.43
	c-0.085-1.385-0.368-2.86-0.845-4.42c-0.476-1.56-1.365-2.73-2.665-3.51h0.779c0.261,0,0.565-0.02,0.91-0.065
	c0.348-0.042,0.737-0.065,1.17-0.065c1.646,0,3.488,0.13,5.525,0.39c2.035,0.26,3.66,0.867,4.875,1.82
	c0.52,0.347,0.952,0.825,1.3,1.43c0.346,0.52,0.67,1.214,0.975,2.08c0.303,0.867,0.498,1.907,0.586,3.12
	c2.945,0,6.195-0.042,9.75-0.13c3.552-0.085,7.149-0.475,10.789-1.17c1.386-0.173,2.644-0.433,3.771-0.78
	c0.952-0.346,1.928-0.801,2.925-1.365C288.048,99.063,288.764,98.305,289.198,97.35z M275.679,143.89
	c-1.128,1.734-2.665,3.185-4.615,4.355S267.099,150,265.019,150c-2.167,0-4.03-0.605-5.59-1.82c-1.561-1.213-2.34-2.945-2.34-5.2
	c0-1.385,0.345-2.73,1.04-4.03c0.692-1.3,1.625-2.47,2.795-3.51s2.577-1.885,4.225-2.535c1.646-0.65,3.38-0.975,5.2-0.975
	c0.433,0,0.8,0.044,1.104,0.13c0.303,0.087,0.628,0.13,0.976,0.13c0.433,0,0.649-0.303,0.649-0.91c0-1.212-0.455-2.1-1.364-2.665
	c-0.91-0.563-1.995-0.91-3.25-1.04c-1.258-0.13-2.535-0.085-3.835,0.13c-1.301,0.217-2.341,0.455-3.12,0.715
	c-0.348,0.175-0.695,0.11-1.04-0.195c-0.348-0.303-0.521-0.715-0.521-1.235c0-0.78,0.086-1.581,0.26-2.405
	c0.173-0.823,0.521-1.58,1.04-2.275c0.521-0.693,1.256-1.255,2.21-1.69c0.953-0.433,2.211-0.65,3.771-0.65
	c1.04,0,2.383,0.087,4.03,0.26c1.645,0.175,3.27,0.63,4.875,1.365c1.603,0.737,2.968,1.777,4.095,3.12
	c1.125,1.345,1.69,3.185,1.69,5.525c-0.088,0.78-0.175,2.189-0.261,4.225c-0.087,2.038-0.044,4.14,0.13,6.305
	c0.173,2.167,0.498,4.16,0.976,5.98c0.476,1.82,1.19,2.947,2.145,3.38c0,0.345-0.044,0.67-0.13,0.975
	c-0.087,0.303-0.737,0.455-1.95,0.455c-0.435,0-0.954-0.087-1.56-0.26c-0.607-0.174-1.258-0.52-1.95-1.04
	c-0.694-0.52-1.365-1.277-2.015-2.275C276.653,146.99,276.111,145.625,275.679,143.89z M266.708,141.68
	c0,0.694,0.238,1.322,0.716,1.885c0.475,0.565,1.147,0.845,2.015,0.845c0.78,0,1.71-0.26,2.795-0.78
	c1.083-0.52,1.928-1.255,2.535-2.21c-0.175-0.345-0.26-0.888-0.26-1.625c0-0.735-0.045-1.43-0.13-2.08
	c-0.088-0.65-0.195-1.235-0.325-1.755s-0.37-0.78-0.715-0.78c-0.78,0-1.561,0.217-2.341,0.65c-0.779,0.435-1.494,0.975-2.145,1.625
	s-1.17,1.345-1.56,2.08C266.903,140.272,266.708,140.987,266.708,141.68z M296.218,130.11c1.213,0.52,2.535,1.127,3.966,1.82
	c1.43,0.694,2.772,1.517,4.029,2.47c1.256,0.955,2.296,2.06,3.12,3.315c0.823,1.257,1.235,2.71,1.235,4.355
	c0,1.647-0.455,3.078-1.365,4.29c-0.91,1.215-2.06,2.232-3.445,3.055c-1.387,0.823-2.904,1.43-4.55,1.82
	c-1.647,0.39-3.207,0.585-4.68,0.585c-2.515,0-4.508-0.305-5.98-0.91c-1.475-0.607-2.6-1.32-3.38-2.145
	c-0.779-0.823-1.279-1.69-1.495-2.6c-0.217-0.91-0.324-1.71-0.324-2.405c0-2.772,0.604-4.657,1.819-5.655
	c1.213-0.995,2.471-1.495,3.771-1.495c0.865,0,1.537,0.195,2.015,0.585c0.476,0.39,0.845,0.803,1.105,1.235
	c0.345,0.52,0.52,1.127,0.52,1.82c-1.475,0.435-2.449,0.932-2.925,1.495c-0.478,0.564-0.715,1.062-0.715,1.495
	c0,1.214,0.345,2.362,1.04,3.445c0.692,1.084,1.862,1.625,3.51,1.625c1.213,0,2.21-0.195,2.99-0.585
	c0.779-0.39,1.385-0.845,1.819-1.365c0.521-0.605,0.953-1.3,1.301-2.08c0.52-0.953,0.563-1.885,0.13-2.795
	c-0.435-0.91-1.085-1.755-1.95-2.535c-0.867-0.78-1.8-1.43-2.795-1.95c-0.997-0.52-1.843-0.91-2.535-1.17
	c-1.995-0.605-3.532-1.365-4.615-2.275c-1.084-0.91-1.885-1.798-2.404-2.665c-0.607-0.953-0.955-1.993-1.04-3.12
	c0-2.513,0.692-4.463,2.079-5.85c1.386-1.385,2.968-2.405,4.745-3.055c1.775-0.65,3.445-1.04,5.005-1.17
	c1.561-0.13,2.556-0.195,2.99-0.195c2.513,0,4.268,0.607,5.266,1.82c0.995,1.215,1.494,2.428,1.494,3.64
	c0,1.735-0.347,2.817-1.039,3.25c-0.695,0.435-1.128,0.65-1.301,0.65h-0.26c-0.867-0.953-1.689-1.603-2.47-1.95
	c-0.78-0.346-1.518-0.52-2.21-0.52c-2.08,0-3.338,0.37-3.771,1.105c-0.435,0.737-0.649,1.322-0.649,1.755
	c0,0.955,0.303,1.67,0.91,2.145C295.783,129.873,296.131,130.11,296.218,130.11z M336.389,133.62c0.085,0.347,0.02,1.345-0.195,2.99
	c-0.218,1.647-0.455,3.62-0.715,5.915c-0.26,2.297-0.543,4.725-0.845,7.28c-0.305,2.555-0.521,4.94-0.65,7.15
	s-0.152,4.073-0.065,5.59c0.086,1.516,0.346,2.405,0.78,2.665c-0.175,0.085-0.435,0.173-0.78,0.26
	c-0.347,0.085-1.127,0.13-2.34,0.13c-1.127,0-2.297-0.52-3.51-1.56c-1.215-1.04-1.82-2.385-1.82-4.03
	c0.086-1.127,0.173-2.34,0.261-3.64c0.085-1.127,0.149-2.427,0.194-3.9c0.043-1.475,0.15-3.033,0.325-4.68
	c-1.215,1.04-2.535,1.865-3.965,2.47c-1.43,0.605-2.883,0.91-4.355,0.91c-1.994,0-3.574-0.5-4.745-1.495
	c-1.17-0.995-2.06-2.295-2.664-3.9c-0.607-1.603-0.976-3.422-1.105-5.46c-0.13-2.035-0.152-4.095-0.065-6.175
	c0.086-2.08,0.216-4.095,0.391-6.045c0.173-1.95,0.26-3.618,0.26-5.005c0-0.865-0.045-1.69-0.13-2.47
	c-0.088-0.693-0.195-1.365-0.325-2.015s-0.282-1.19-0.455-1.625c0.692,0,1.625-0.021,2.795-0.065
	c1.17-0.042,2.318,0.065,3.445,0.325c1.125,0.26,2.101,0.78,2.925,1.56c0.823,0.78,1.235,1.995,1.235,3.64
	c-0.607,2.775-1.085,5.417-1.431,7.93c-0.435,2.167-0.779,4.399-1.039,6.695c-0.261,2.297-0.391,4.225-0.391,5.785
	c0,1.475,0.15,2.362,0.455,2.665c0.303,0.305,0.801,0.455,1.495,0.455c1.473,0,2.708-0.39,3.705-1.17
	c0.995-0.78,1.82-1.755,2.47-2.925c0.65-1.17,1.125-2.49,1.43-3.965c0.303-1.473,0.455-2.903,0.455-4.29
	c0-0.693-0.064-1.646-0.194-2.86c-0.13-1.212-0.5-2.165-1.105-2.86c0.78,0,1.732-0.02,2.86-0.065
	c1.125-0.042,2.253,0.065,3.38,0.325c1.125,0.26,2.08,0.802,2.86,1.625C335.998,130.61,336.389,131.887,336.389,133.62z
	 M136.079,214.334c0.648-0.108,1.188-0.504,1.188-1.116c0-0.216-0.072-0.468-0.216-0.756c-0.216-0.252-0.324-0.468-0.324-0.612
	c0-0.18,0.108-0.252,0.36-0.252c0.864,0,2.196,0.936,2.196,1.476c0,0.396-0.504,0.756-0.936,1.404
	c4.175,0.792,6.119,3.6,6.119,6.407c0,3.348-2.736,6.695-7.703,6.695c-4.715,0-7.559-3.096-7.559-6.695
	C129.204,217.97,131.363,215.055,136.079,214.334z M131.363,220.994c0,2.556,1.836,5.111,5.471,5.111
	c3.708,0,5.543-2.556,5.543-5.111s-1.836-5.111-5.543-5.111C133.199,215.882,131.363,218.438,131.363,220.994z M151.377,208.899
	c-0.036-0.612-1.98-1.476-3.492-2.16c-0.396-0.144-0.648-0.324-0.648-0.468c0-0.216,0.432-0.396,1.512-0.432
	c1.548,0.252,2.988,0.612,4.14,0.972c0.756,0.288,0.936,0.54,0.936,0.9c0,0.288-0.108,0.612-0.108,1.152v13.103h1.8
	c1.692-0.252,1.116-0.936,3.42-0.936c0.684,0,2.196,0,2.196,1.116c0,0.504-0.432,0.936-1.224,0.936h-6.227l-0.036,10.439
	c-0.036,2.339-0.288,3.815-0.9,5.327c-0.288,0.432-0.576,0.648-0.828,0.648c-0.324,0-0.54-0.468-0.54-1.656V208.899z
	 M181.258,221.066c-0.396,3.456-2.916,6.083-7.631,6.083c-5.327,0-8.315-3.312-8.315-6.911c0-3.06,2.232-6.083,6.839-6.731
	c0.648-0.144,1.296-0.324,1.296-0.972c0-0.216-0.108-0.468-0.252-0.684c-0.216-0.216-0.36-0.432-0.36-0.576
	c0-0.108,0.108-0.216,0.36-0.216c1.008,0,2.268,1.008,2.268,1.368c0,0.288-0.432,0.54-0.72,1.008
	c4.392,0.972,6.336,3.384,6.551,6.551L181.258,221.066z M167.579,220.346c0,2.7,1.98,5.399,6.011,5.399
	c3.744,0,5.651-2.7,5.651-5.399c0-2.699-1.908-5.399-5.651-5.399C169.559,214.947,167.579,217.646,167.579,220.346z
	 M188.996,209.331c-0.071-0.684-1.151-1.547-3.203-2.447c-0.504-0.18-0.792-0.396-0.792-0.576c0-0.216,0.36-0.396,1.188-0.468
	c2.268,0.36,3.527,0.864,4.391,1.152c0.54,0.216,0.648,0.468,0.648,0.792c0,0.288-0.108,0.576-0.108,0.972l-0.036,21.201
	c0,6.624-0.216,7.523-0.863,8.891c-0.252,0.432-0.504,0.648-0.721,0.648c-0.287,0-0.504-0.432-0.504-1.548V209.331z M209.59,224.162
	c-0.575,0.036-1.583,0.144-2.951,0.288c-1.224,0.216-1.367,0.684-1.979,0.684c-0.792,0-4.607-1.728-4.607-2.232
	c0-0.108,0.144-0.18,0.468-0.18c0.217,0,0.54,0.036,0.936,0.108c1.26,0.288,3.852,0.36,6.84,0.36c6.083,0,14.002-0.396,16.918-0.612
	c1.943-0.144,1.584-0.648,3.527-0.648c1.296,0,3.6,0,3.6,1.116c0,0.468-0.54,0.9-1.512,0.9h-0.072
	c-1.8-0.072-4.211-0.252-7.486-0.252h-0.828c0,5.292,0,12.059-0.685,14.146c-0.252,0.972-0.647,1.512-0.972,1.512
	c-0.359,0-0.648-0.576-0.648-1.872v-13.643c-1.26,0.036-5.867,0.144-8.278,0.216c0,7.667,0,10.043-0.72,12.311
	c-0.324,0.828-0.721,1.296-1.008,1.296c-0.324,0-0.541-0.612-0.576-2.052L209.59,224.162z M214.559,207.892
	c0.432,0,0.863-0.252,0.863-0.648c0-0.216-0.107-0.468-0.324-0.684c-0.324-0.288-0.468-0.468-0.468-0.612s0.144-0.216,0.433-0.216
	c0.863,0,2.303,0.576,2.303,1.08c0,0.18-0.396,0.9-0.396,1.08c4.283,0.756,6.19,3.456,6.19,6.155c0,2.952-2.555,6.011-7.162,6.011
	c-4.859,0-7.56-3.06-7.56-6.191C208.438,211.275,210.347,208.647,214.559,207.892z M210.563,214.047c0,2.339,1.8,4.679,5.436,4.679
	c3.383,0,5.075-2.34,5.075-4.679c0-2.34-1.692-4.716-5.075-4.716C212.362,209.331,210.563,211.707,210.563,214.047z"/>
</svg>
