<?xml version="1.0" encoding="utf-8"?>
<!-- Generator: Adobe Illustrator 16.0.0, SVG Export Plug-In . SVG Version: 6.00 Build 0)  -->
<!DOCTYPE svg PUBLIC "-//W3C//DTD SVG 1.1//EN" "http://www.w3.org/Graphics/SVG/1.1/DTD/svg11.dtd">
<svg version="1.1" id="Layer_1" xmlns="http://www.w3.org/2000/svg" xmlns:xlink="http://www.w3.org/1999/xlink" x="0px" y="0px"
	 width="612px" height="792px" viewBox="0 0 612 792" enable-background="new 0 0 612 792" xml:space="preserve">
<linearGradient id="SVGID_1_" gradientUnits="userSpaceOnUse" x1="75.7251" y1="196.8672" x2="536.2744" y2="196.8672">
	<stop  offset="0.4089" style="stop-color:#E55E88"/>
	<stop  offset="0.5025" style="stop-color:#61C4E4"/>
</linearGradient>
<path fill="url(#SVGID_1_)" d="M86.001,234.451c-1.272-0.588-2.521-1.348-3.743-2.276c-1.225-0.931-2.326-2.007-3.303-3.229
	c-0.979-1.225-1.761-2.546-2.35-3.963c-0.586-1.42-0.88-2.911-0.88-4.477c0-2.739,0.831-4.893,2.496-6.46
	c1.663-1.564,3.645-2.569,5.946-3.01c2.298-0.44,4.6-0.415,6.9,0.074c2.298,0.491,4.085,1.372,5.357,2.643
	c-0.098-3.326-0.245-7.267-0.44-11.818c-0.198-4.551-0.44-8.882-0.734-12.992c-0.392-4.794-0.734-9.689-1.027-14.682
	c-0.294-2.35-0.367-4.892-0.22-7.634c0.146-2.738,0.661-5.285,1.542-7.633c0.88-2.35,2.225-4.306,4.037-5.873
	c1.81-1.565,4.232-2.35,7.268-2.35c0.88,0,1.761,0.146,2.643,0.44c3.425,0.98,6.067,2.496,7.927,4.552
	c1.858,2.055,3.252,4.233,4.184,6.532c0.93,2.301,1.491,4.431,1.689,6.387c0.195,1.959,0.341,3.329,0.439,4.11
	c0,3.328-0.439,5.924-1.321,7.781c-0.881,1.86-1.372,2.789-1.468,2.789c-0.099,0.98-0.735,1.96-1.909,2.937
	c-1.174,0.979-2.496,1.739-3.963,2.276c-1.469,0.539-2.863,0.637-4.185,0.293c-1.32-0.341-2.128-1.343-2.422-3.009v-0.147
	c1.565-1.857,2.739-4.331,3.524-7.414c0.781-3.083,1.174-6.02,1.174-8.809c0-2.789-0.44-5.039-1.321-6.752
	c-0.88-1.711-2.202-2.129-3.964-1.247c-0.197,1.372-0.368,2.912-0.514,4.624c-0.147,1.714-0.319,3.354-0.513,4.919
	c-0.198,1.761-0.345,3.622-0.441,5.578c-0.392,5.873-0.638,11.575-0.734,17.103c-0.099,5.53-0.147,10.35-0.147,14.46
	c0,3.23,0,5.898,0,8.001c0,2.106,0.048,3.304,0.147,3.597c2.35,1.959,5.554,3.817,9.616,5.578c4.06,1.762,8.318,3.033,12.772,3.818
	c4.453,0.782,8.685,0.905,12.699,0.367c4.012-0.539,7.095-2.128,9.25-4.772c0.194-0.197,0.536-0.638,1.027-1.322
	c0.488-0.683,0.831-1.028,1.028-1.028c0.587,0,1.198,0.467,1.835,1.396c0.636,0.929,1.076,2.055,1.321,3.376
	c0.242,1.321,0.169,2.716-0.22,4.185c-0.393,1.468-1.322,2.69-2.79,3.669c-2.546,2.251-6.092,3.645-10.643,4.184
	c-4.552,0.536-9.373,0.463-14.461-0.22c-5.089-0.687-9.982-1.885-14.681-3.596c-4.698-1.714-8.368-3.744-11.01-6.093
	c-1.174,0.881-2.349,1.762-3.524,2.643c-1.174,0.88-2.375,1.614-3.596,2.202c-1.226,0.587-2.521,0.929-3.891,1.027
	C89.036,235.282,87.566,235.038,86.001,234.451z M83.8,219.771c-0.491,0.88-0.539,1.859-0.147,2.936
	c0.39,1.076,0.978,2.078,1.762,3.01c0.783,0.928,1.688,1.736,2.716,2.421c1.028,0.684,1.982,1.028,2.863,1.028
	c1.37,0,2.445-0.44,3.229-1.321c0.782-0.88,1.321-1.908,1.614-3.083c-1.666-1.663-3.574-2.984-5.726-3.964
	c-2.154-0.976-3.816-1.468-4.991-1.468C84.336,219.329,83.896,219.477,83.8,219.771z M125.935,192.023
	c0.586-1.175,1.296-1.958,2.128-2.349c0.831-0.391,1.638-0.588,2.422-0.588c1.565,0,2.935,0.44,4.109,1.321
	c1.174,0.881,2.152,2.007,2.937,3.377c0.783,1.372,1.395,2.839,1.834,4.404c0.441,1.566,0.662,3.083,0.662,4.551
	c0,5.286-0.687,9.348-2.056,12.186c-1.372,2.84-2.935,4.896-4.697,6.167c-1.762,1.273-3.475,2.007-5.138,2.202
	c-1.666,0.195-2.79,0.293-3.377,0.293c-2.055,0-3.891-0.463-5.505-1.395c-1.616-0.929-3.01-2.129-4.184-3.597
	c-1.175-1.469-2.056-3.157-2.643-5.066c-0.588-1.908-0.882-3.89-0.882-5.945c0-2.837,0.441-5.407,1.322-7.708
	c0.881-2.299,1.858-4.232,2.937-5.799c1.174-1.761,2.592-3.376,4.258-4.845c0.39-0.39,0.88-0.587,1.468-0.587
	c0.587,0,1.174,0.173,1.762,0.514c0.587,0.344,1.125,0.785,1.616,1.322C125.396,191.021,125.737,191.535,125.935,192.023z
	 M133.274,200.979c0.977,0.392,1.468,1.174,1.468,2.35c0,1.174-0.343,1.959-1.027,2.349c-0.686,0.394-1.273,0.588-1.762,0.588
	c-1.468,0-2.693-0.342-3.67-1.028c-0.979-0.683-1.714-1.517-2.203-2.495c-0.491-0.978-0.832-1.932-1.028-2.863
	c-0.198-0.929-0.293-1.688-0.293-2.275c-1.274,1.273-2.275,2.84-3.01,4.698c-0.734,1.86-1.101,3.77-1.101,5.725
	c0,0.293,0.023,0.979,0.073,2.055c0.048,1.078,0.293,2.154,0.735,3.229c0.44,1.078,1.124,2.033,2.055,2.863
	c0.929,0.833,2.225,1.151,3.891,0.954c0.097,0,0.587-0.147,1.468-0.44s1.811-0.954,2.79-1.981c0.977-1.028,1.883-2.543,2.716-4.551
	c0.83-2.005,1.247-4.771,1.247-8.295c0-1.663-0.171-3.252-0.513-4.772c-0.345-1.516-1.053-2.372-2.129-2.568
	c-0.784,0-1.321,0.343-1.615,1.027c-0.293,0.687-0.392,1.42-0.293,2.203c0.097,0.785,0.342,1.518,0.735,2.203
	C132.197,200.638,132.688,200.979,133.274,200.979z M162.049,185.564c0.488-0.097,1.027-0.243,1.615-0.44
	c0.489-0.195,1.076-0.342,1.762-0.441c0.684-0.096,1.418-0.146,2.202-0.146c1.565,0,3.131,0.417,4.698,1.248
	c1.565,0.833,2.349,2.621,2.349,5.359c0,0.197-0.146,1.175-0.44,2.937c-0.294,1.762-0.759,3.89-1.395,6.387
	c-0.638,2.495-1.468,5.211-2.496,8.147c-1.027,2.937-2.3,5.677-3.816,8.221c-1.519,2.546-3.256,4.676-5.212,6.387
	c-1.959,1.711-4.21,2.617-6.753,2.716c-2.936,0-5.163-0.954-6.679-2.862c-1.518-1.908-2.693-4.331-3.523-7.266
	c-0.833-2.938-1.469-6.143-1.909-9.617c-0.44-3.473-0.954-6.728-1.541-9.762c-0.197-0.978-0.441-1.909-0.735-2.79
	c-0.197-0.782-0.465-1.517-0.808-2.202c-0.345-0.684-0.613-1.222-0.806-1.615c1.174-0.293,2.176-0.513,3.009-0.66
	c0.83-0.146,1.711-0.293,2.643-0.44c0.929-0.146,1.785-0.22,2.569-0.22c0.588,0,1.371,0.271,2.35,0.808
	c0.977,0.54,1.417,1.787,1.322,3.743c0,2.642,0.048,4.944,0.146,6.901c0.097,1.958,0.22,4.062,0.367,6.312
	c0.147,2.253,0.342,4.356,0.588,6.313c0.243,1.959,0.537,3.597,0.881,4.918c0.342,1.321,0.757,2.032,1.248,2.128
	c1.271,0,2.423-0.537,3.451-1.614c1.027-1.076,1.956-2.445,2.789-4.111c0.83-1.663,1.516-3.498,2.054-5.505
	c0.537-2.005,1.003-3.939,1.395-5.799c0.389-1.859,0.683-3.499,0.88-4.918c0.195-1.417,0.294-2.422,0.294-3.01
	c0-1.369-0.147-2.886-0.441-4.551C163.811,188.452,163.125,186.935,162.049,185.564z M203.301,199.657
	c0.096,1.469-0.198,2.937-0.881,4.404c-0.686,1.468-1.666,2.814-2.936,4.038c-1.273,1.226-2.84,2.202-4.698,2.937
	c-1.859,0.735-3.868,1.102-6.019,1.102c-1.468,0-2.789-0.195-3.963-0.587c0.294,1.371,0.757,2.473,1.395,3.303
	c0.635,0.832,1.295,1.468,1.981,1.909c0.684,0.44,1.37,0.734,2.055,0.881c0.684,0.146,1.271,0.271,1.762,0.367
	c1.37,0.197,2.592,0.025,3.67-0.514c1.076-0.537,2.031-1.149,2.863-1.835c0.831-0.684,1.517-1.344,2.055-1.981
	c0.537-0.636,0.955-0.955,1.249-0.955c0.389,0,0.586,0.344,0.586,1.027c0,1.666-0.44,3.133-1.321,4.404
	c-0.88,1.274-2.032,2.35-3.45,3.229c-1.42,0.88-3.035,1.542-4.845,1.982c-1.812,0.44-3.647,0.61-5.505,0.513
	c-4.209-0.197-7.488-1.564-9.836-4.111c-2.349-2.543-3.622-5.968-3.816-10.276c0-5.873,1.541-10.691,4.624-14.461
	c3.083-3.766,7.267-5.651,12.552-5.651c3.621,0,6.607,0.784,8.956,2.349C202.127,193.296,203.301,195.939,203.301,199.657z
	 M184.362,208.759c0.978-0.293,2.006-0.636,3.083-1.027c1.076-0.391,2.078-0.93,3.01-1.615c0.929-0.684,1.688-1.468,2.275-2.349
	c0.587-0.882,0.88-2.005,0.88-3.377c0-1.37-0.318-2.57-0.954-3.597c-0.638-1.027-1.542-1.542-2.717-1.542
	c-1.665,0-3.035,0.906-4.109,2.716c-1.079,1.813-1.616,4.771-1.616,8.881c0,0.392,0.024,0.734,0.074,1.028
	C184.338,208.171,184.362,208.466,184.362,208.759z M254.977,216.541c-1.273,1.959-3.01,3.597-5.212,4.917
	c-2.202,1.321-4.477,1.981-6.827,1.981c-2.447,0-4.551-0.683-6.312-2.055c-1.762-1.369-2.643-3.325-2.643-5.873
	c0-1.564,0.39-3.082,1.174-4.55c0.782-1.468,1.835-2.791,3.156-3.964c1.322-1.175,2.912-2.128,4.772-2.863
	c1.858-0.734,3.817-1.101,5.873-1.101c0.489,0,0.903,0.05,1.248,0.147c0.341,0.099,0.708,0.146,1.101,0.146
	c0.489,0,0.734-0.342,0.734-1.028c0-1.37-0.513-2.372-1.541-3.009c-1.027-0.635-2.252-1.028-3.67-1.174
	c-1.42-0.147-2.862-0.097-4.33,0.146c-1.469,0.245-2.643,0.514-3.523,0.808c-0.393,0.197-0.784,0.123-1.174-0.221
	c-0.393-0.343-0.588-0.808-0.588-1.395c0-0.881,0.097-1.785,0.295-2.716c0.195-0.929,0.587-1.784,1.174-2.569
	c0.587-0.782,1.417-1.417,2.496-1.908c1.076-0.488,2.496-0.734,4.258-0.734c1.174,0,2.691,0.099,4.551,0.293
	c1.858,0.198,3.693,0.712,5.505,1.542c1.811,0.833,3.352,2.007,4.625,3.524c1.271,1.518,1.908,3.596,1.908,6.239
	c-0.099,0.881-0.197,2.473-0.293,4.771c-0.099,2.301-0.051,4.675,0.146,7.121c0.195,2.447,0.562,4.698,1.102,6.753
	c0.537,2.055,1.344,3.328,2.422,3.817c0,0.39-0.051,0.757-0.147,1.101c-0.098,0.343-0.832,0.515-2.203,0.515
	c-0.49,0-1.077-0.099-1.762-0.293c-0.685-0.198-1.42-0.587-2.201-1.175c-0.785-0.587-1.542-1.443-2.276-2.569
	C256.078,220.041,255.465,218.5,254.977,216.541z M244.846,214.044c0,0.784,0.269,1.494,0.808,2.128
	c0.537,0.639,1.296,0.955,2.276,0.955c0.881,0,1.931-0.294,3.156-0.881c1.222-0.588,2.177-1.417,2.863-2.495
	c-0.198-0.39-0.294-1.002-0.294-1.835c0-0.831-0.051-1.614-0.147-2.349c-0.099-0.734-0.221-1.396-0.367-1.982
	c-0.146-0.587-0.417-0.88-0.807-0.88c-0.881,0-1.762,0.246-2.644,0.734c-0.88,0.491-1.688,1.101-2.422,1.835
	s-1.321,1.519-1.762,2.349C245.066,212.454,244.846,213.263,244.846,214.044z M264.078,189.087c1.076,0,2.298-0.022,3.669-0.073
	c1.371-0.048,2.691,0.073,3.964,0.368c1.271,0.293,2.371,0.879,3.303,1.761c0.929,0.881,1.443,2.253,1.542,4.111
	c1.663-1.663,3.67-3.205,6.019-4.625c2.35-1.418,4.747-2.129,7.193-2.129c0.295,0,0.734,0.026,1.322,0.074
	c0.587,0.051,1.198,0.294,1.835,0.734c0.635,0.44,1.149,1.225,1.541,2.35c0.39,1.126,0.489,2.766,0.294,4.918
	c-0.294,2.546-0.541,5.09-0.735,7.633c-0.198,2.253-0.345,4.698-0.44,7.341c-0.1,2.643-0.146,5.138-0.146,7.487
	c0,2.642,0.146,4.772,0.44,6.385c0.293,1.616,0.587,2.911,0.881,3.891c0.293,0.977,0.586,1.688,0.88,2.128
	c0.293,0.44,0.44,0.856,0.44,1.248c0,0.684-0.44,1.028-1.321,1.028c-0.98,0-2.032-0.246-3.157-0.734
	c-1.126-0.491-2.203-1.248-3.23-2.276c-1.028-1.027-1.886-2.325-2.569-3.89c-0.687-1.566-1.028-3.377-1.028-5.433
	c0-5.285,0-9.492,0-12.625c0-3.131-0.05-5.479-0.146-7.047c-0.098-1.564-0.22-2.569-0.367-3.01c-0.147-0.44-0.367-0.66-0.66-0.66
	c-0.491,0-1.152,0.344-1.982,1.028c-0.833,0.685-1.688,1.468-2.569,2.348c-0.88,0.881-1.739,1.787-2.569,2.716
	c-0.832,0.932-1.445,1.642-1.835,2.129c-0.587,3.035-1.078,5.996-1.468,8.882c-0.392,2.888-0.587,4.771-0.587,5.651
	c0,0.491,0.075,1.102,0.221,1.835c0.146,0.734,0.463,1.395,0.954,1.981c-1.077,0.588-2.179,0.855-3.303,0.807
	c-1.126-0.05-2.179-0.319-3.156-0.807c-0.98-0.491-1.762-1.271-2.349-2.349c-0.587-1.076-0.833-2.35-0.734-3.817
	c0.096-1.564,0.293-3.767,0.587-6.606c0.293-2.838,0.513-5.774,0.661-8.809c0.146-3.033,0.146-5.847,0-8.442
	C265.325,192,264.86,190.165,264.078,189.087z M310.027,188.793c0.683-0.096,1.32-0.169,1.907-0.22
	c0.587-0.048,1.224-0.074,1.907-0.074c1.469,0,2.938,0.146,4.404,0.44c0.097-1.468,0.221-3.67,0.368-6.607
	c0.146-2.937,0.193-5.968,0.146-9.103c-0.051-3.131-0.223-6.092-0.516-8.881c-0.294-2.79-0.88-4.771-1.761-5.945
	c2.737,0,4.917,0.171,6.531,0.513c1.615,0.344,3.4,1.248,5.358,2.716c0.488,0.491,0.929,1.127,1.322,1.909
	c0.293,0.685,0.588,1.494,0.881,2.422c0.292,0.931,0.438,2.032,0.438,3.303c0,0.197-0.123,1.248-0.367,3.156
	c-0.245,1.908-0.563,4.331-0.953,7.268c-0.395,2.936-0.834,6.142-1.322,9.615c-0.491,3.475-0.931,6.925-1.321,10.35
	c-0.392,3.427-0.711,6.605-0.954,9.542c-0.246,2.936-0.366,5.285-0.366,7.046c0,0.393,0.072,1.688,0.22,3.891
	c0.146,2.202,0.66,4.331,1.543,6.385c0.096,0.293,0.293,0.587,0.587,0.881c0.293,0.293,0.44,0.537,0.44,0.734
	c0,0.684-0.64,1.028-1.909,1.028c-1.958,0-3.669-0.685-5.139-2.055c-1.469-1.373-2.595-2.888-3.376-4.552
	c-1.078,0.294-2.228,0.539-3.449,0.735c-1.227,0.195-2.521,0.293-3.89,0.293c-4.699,0-8.346-1.344-10.939-4.037
	c-2.594-2.69-3.89-6.387-3.89-11.084c0-2.349,0.368-4.647,1.102-6.9c0.734-2.25,1.711-4.28,2.936-6.093
	c1.223-1.81,2.69-3.304,4.405-4.478C306.086,189.821,307.972,189.087,310.027,188.793z M316.634,216.247
	c0,0.099-0.052,0.198-0.146,0.294c0-0.588,0.095-1.565,0.294-2.937c0.095-1.174,0.219-2.789,0.366-4.845
	c0.146-2.056,0.316-4.794,0.515-8.221c-0.295-1.271-0.859-2.004-1.689-2.202c-0.832-0.195-1.443-0.293-1.834-0.293
	c-2.155,0-3.891,0.44-5.213,1.322c-1.32,0.88-2.326,1.981-3.009,3.303c-0.687,1.321-1.126,2.693-1.322,4.111
	c-0.196,1.42-0.294,2.62-0.294,3.597c0,3.427,0.661,5.677,1.982,6.753c1.319,1.078,2.764,1.614,4.331,1.614
	c1.468,0,2.591-0.096,3.376-0.294c0.782-0.194,1.369-0.415,1.761-0.66c0.391-0.243,0.636-0.513,0.735-0.808
	C316.582,216.687,316.634,216.445,316.634,216.247z M449.2,229.606c0.194,3.914-0.834,7.193-3.085,9.836s-5.479,3.767-9.688,3.377
	c-10.181-0.687-19.525-1.273-28.041-1.762c-3.623-0.197-7.268-0.392-10.938-0.587c-3.669-0.197-7.097-0.367-10.275-0.514
	c-3.181-0.146-5.972-0.245-8.368-0.293c-2.399-0.051-4.135-0.074-5.211-0.074c-0.785,0.096-2.228,0.221-4.332,0.367
	c-2.104,0.147-4.087,0.709-5.944,1.688c-0.394,0.195-0.711,0.44-0.953,0.734c-0.245,0.293-0.517,0.488-0.809,0.586
	c-0.687-0.197-1.028-0.832-1.028-1.908c-0.1-1.567,0.27-2.987,1.103-4.258c0.83-1.273,1.882-2.374,3.156-3.303
	c1.27-0.931,2.665-1.666,4.184-2.202c1.519-0.54,2.959-0.859,4.331-0.956c3.817,0.195,8.589,0.342,14.314,0.44
	c5.726,0.097,11.62,0.147,17.688,0.147c6.067,0,11.965-0.074,17.69-0.221c5.725-0.147,10.546-0.318,14.462-0.513
	c1.761,0,3.791-0.173,6.093-0.514c2.297-0.344,4.132-1.005,5.505-1.982c-0.099,0.39-0.099,0.735,0,1.028
	C449.149,229.02,449.2,229.313,449.2,229.606z M506.016,196.134c-0.294,2.056-0.588,4.161-0.881,6.313
	c-0.197,1.86-0.393,3.867-0.588,6.02c-0.196,2.153-0.294,4.209-0.294,6.166c0,2.154,0.147,3.89,0.442,5.212
	c0.292,1.32,0.634,2.399,1.025,3.229c0.391,0.831,0.733,1.491,1.028,1.982c0.293,0.488,0.438,0.881,0.438,1.174
	c0,0.683-0.538,1.028-1.614,1.028c-0.879,0-1.906-0.246-3.082-0.735c-1.174-0.49-2.275-1.199-3.304-2.128
	c-1.028-0.932-1.908-2.128-2.643-3.597c-0.734-1.469-1.101-3.229-1.101-5.285l0.878-15.268c0-0.294-0.05-0.636-0.146-1.027
	c-0.197-0.783-0.54-1.175-1.027-1.175c-0.588,0-1.371,0.392-2.35,1.175c-0.979,0.784-1.981,1.739-3.01,2.862
	c-1.027,1.126-1.935,2.228-2.716,3.304c-0.785,1.078-1.272,1.909-1.469,2.495c-0.294,2.35-0.439,4.698-0.439,7.047
	c0,2.055,0.146,3.744,0.439,5.065c0.293,1.321,0.636,2.399,1.027,3.23c0.39,0.831,0.734,1.468,1.028,1.908
	c0.293,0.441,0.438,0.808,0.438,1.102c0,0.684-0.54,1.028-1.614,1.028c-0.881,0-1.907-0.246-3.083-0.735
	c-1.174-0.49-2.274-1.199-3.304-2.128c-1.028-0.932-1.906-2.128-2.642-3.597c-0.734-1.468-1.104-3.229-1.104-5.285l0.881-15.268
	c0-0.096-0.072-0.489-0.221-1.174c-0.146-0.684-0.61-1.028-1.394-1.028c-0.198,0-0.539,0.074-1.029,0.22
	c-0.49,0.147-1.101,0.514-1.834,1.102c-0.733,0.587-1.567,1.468-2.496,2.643c-0.932,1.174-1.934,2.741-3.01,4.697
	c-1.174,3.427-1.786,6.437-1.836,9.029c-0.05,2.594-0.073,4.282-0.073,5.064c0,0.491,0.073,1.102,0.221,1.835
	c0.146,0.734,0.462,1.394,0.953,1.981c-0.195,0.096-0.491,0.195-0.88,0.294c-0.393,0.096-1.272,0.146-2.644,0.146
	c-1.272,0-2.594-0.613-3.962-1.834c-1.373-1.223-2.057-2.813-2.057-4.772c-0.1-1.564,0-3.767,0.292-6.606
	c0.295-2.838,0.537-5.773,0.735-8.809c0.195-3.032,0.243-5.846,0.146-8.442c-0.097-2.591-0.538-4.426-1.32-5.505h3.377
	c0.977,0,1.981,0.05,3.01,0.147c1.027,0.098,1.956,0.368,2.79,0.807c0.83,0.44,1.541,1.054,2.128,1.835
	c0.587,0.785,0.977,1.813,1.175,3.083c1.663-1.663,3.596-3.205,5.799-4.624c2.203-1.417,4.479-2.128,6.826-2.128
	c0.194,0,0.563,0.05,1.103,0.146c0.536,0.098,1.103,0.392,1.688,0.88c0.588,0.491,1.103,1.298,1.542,2.423
	c0.439,1.126,0.661,2.766,0.661,4.917c1.663-1.857,3.718-3.718,6.166-5.578c2.444-1.858,5.087-2.789,7.927-2.789
	c1.075,0.098,1.934,0.392,2.569,0.88c0.636,0.491,1.198,1.273,1.688,2.349C505.77,192.514,506.016,194.078,506.016,196.134z
	 M536.257,199.657c0.097,1.469-0.197,2.937-0.881,4.404c-0.687,1.468-1.665,2.814-2.935,4.038c-1.273,1.226-2.841,2.202-4.698,2.937
	c-1.86,0.735-3.867,1.102-6.021,1.102c-1.468,0-2.79-0.195-3.964-0.587c0.293,1.371,0.756,2.473,1.395,3.303
	c0.636,0.832,1.297,1.468,1.981,1.909c0.685,0.44,1.37,0.734,2.058,0.881c0.684,0.146,1.27,0.271,1.761,0.367
	c1.369,0.197,2.593,0.025,3.671-0.514c1.074-0.537,2.029-1.149,2.861-1.835c0.83-0.684,1.517-1.344,2.056-1.981
	c0.537-0.636,0.955-0.955,1.248-0.955c0.391,0,0.587,0.344,0.587,1.027c0,1.666-0.438,3.133-1.32,4.404
	c-0.881,1.274-2.031,2.35-3.449,3.229c-1.421,0.88-3.035,1.542-4.846,1.982c-1.812,0.44-3.646,0.61-5.505,0.513
	c-4.21-0.197-7.486-1.564-9.836-4.111c-2.349-2.543-3.622-5.968-3.816-10.276c0-5.873,1.542-10.691,4.622-14.461
	c3.085-3.766,7.27-5.651,12.554-5.651c3.62,0,6.605,0.784,8.955,2.349C535.083,193.296,536.257,195.939,536.257,199.657z
	 M517.319,208.759c0.977-0.293,2.005-0.636,3.083-1.027c1.074-0.391,2.078-0.93,3.008-1.615c0.93-0.684,1.688-1.468,2.277-2.349
	c0.588-0.882,0.881-2.005,0.881-3.377c0-1.37-0.319-2.57-0.955-3.597c-0.638-1.027-1.542-1.542-2.717-1.542
	c-1.663,0-3.033,0.906-4.109,2.716c-1.078,1.813-1.615,4.771-1.615,8.881c0,0.392,0.024,0.734,0.074,1.028
	C517.293,208.171,517.319,208.466,517.319,208.759z"/>
</svg>
