<?xml version="1.0" encoding="utf-8"?>
<!-- Generator: Adobe Illustrator 16.0.0, SVG Export Plug-In . SVG Version: 6.00 Build 0)  -->
<!DOCTYPE svg PUBLIC "-//W3C//DTD SVG 1.1//EN" "http://www.w3.org/Graphics/SVG/1.1/DTD/svg11.dtd">
<svg version="1.1" xmlns="http://www.w3.org/2000/svg" xmlns:xlink="http://www.w3.org/1999/xlink" x="0px" y="0px" width="360px"
	 height="640px" viewBox="0 0 360 640" enable-background="new 0 0 360 640" xml:space="preserve">
<g id="Layer_1" display="none">
	
		<rect x="18" y="32" display="inline" fill="#FFFFFF" stroke="#000000" stroke-width="0.9" stroke-miterlimit="10" width="324" height="576"/>
</g>
<g id="Layer_2">
	<g>
		<path d="M139.391,216.987c-0.063-0.286-0.106-0.534-0.133-0.742c-0.026-0.208-0.039-0.419-0.039-0.633
			c-0.313,0.443-0.729,0.81-1.25,1.102s-1.106,0.438-1.758,0.438c-0.828,0-1.469-0.213-1.922-0.641
			c-0.453-0.427-0.68-1.005-0.68-1.734c0-0.781,0.336-1.401,1.008-1.859c0.672-0.458,1.583-0.688,2.734-0.688h1.867v-1.117
			c0-0.604-0.194-1.078-0.582-1.422s-0.931-0.516-1.629-0.516c-0.469,0-0.897,0.064-1.285,0.191
			c-0.388,0.128-0.712,0.301-0.973,0.52l-0.078,1.133h-0.773l0.008-1.625c0.391-0.302,0.858-0.547,1.402-0.734
			s1.124-0.281,1.738-0.281c0.933,0,1.683,0.237,2.25,0.711c0.567,0.474,0.852,1.154,0.852,2.039v4.156
			c0,0.172,0.004,0.337,0.012,0.496c0.008,0.159,0.024,0.314,0.051,0.465l0.844,0.055v0.688H139.391z M136.313,216.323
			c0.677,0,1.273-0.156,1.789-0.469s0.888-0.716,1.117-1.211v-1.695h-1.883c-0.849,0-1.527,0.176-2.035,0.527
			s-0.762,0.796-0.762,1.332c0,0.453,0.157,0.819,0.473,1.098C135.327,216.184,135.761,216.323,136.313,216.323z"/>
		<path d="M152.406,211.144h-0.766l-0.109-1.195c-0.234-0.245-0.53-0.435-0.887-0.57c-0.356-0.135-0.767-0.203-1.23-0.203
			c-0.683,0-1.194,0.147-1.535,0.441c-0.341,0.294-0.512,0.64-0.512,1.035c0,0.391,0.147,0.714,0.441,0.969
			c0.294,0.255,0.882,0.479,1.762,0.672c1.005,0.224,1.758,0.53,2.258,0.918c0.5,0.388,0.75,0.916,0.75,1.582
			c0,0.703-0.285,1.272-0.855,1.707c-0.57,0.435-1.324,0.652-2.262,0.652c-0.625,0-1.194-0.087-1.707-0.262s-0.957-0.42-1.332-0.738
			v-1.703h0.758l0.133,1.203c0.25,0.25,0.566,0.431,0.949,0.543c0.383,0.112,0.782,0.168,1.199,0.168
			c0.677,0,1.211-0.148,1.602-0.445s0.586-0.656,0.586-1.078c0-0.396-0.163-0.742-0.488-1.039s-0.913-0.539-1.762-0.727
			c-1.005-0.219-1.751-0.509-2.238-0.871c-0.487-0.362-0.73-0.868-0.73-1.52c0-0.646,0.273-1.191,0.82-1.637
			s1.269-0.668,2.164-0.668c0.62,0,1.187,0.095,1.699,0.285c0.513,0.19,0.931,0.447,1.254,0.77L152.406,211.144z"/>
		<path d="M154.008,205.495V204.8h2.203v5.18c0.281-0.505,0.656-0.898,1.125-1.18s1.016-0.422,1.641-0.422
			c0.891,0,1.574,0.276,2.051,0.828c0.477,0.552,0.715,1.409,0.715,2.57v4.422l1.273,0.102v0.688h-3.484V216.3l1.273-0.102v-4.438
			c0-0.917-0.181-1.574-0.543-1.973s-0.86-0.598-1.496-0.598c-0.641,0-1.176,0.168-1.605,0.504s-0.746,0.783-0.949,1.34v5.164
			l1.273,0.102v0.688h-3.477V216.3l1.273-0.102v-10.602L154.008,205.495z"/>
		<path d="M164.344,212.636c0-1.245,0.341-2.266,1.023-3.063s1.586-1.195,2.711-1.195c1.13,0,2.036,0.398,2.719,1.195
			s1.023,1.818,1.023,3.063v0.258c0,1.25-0.34,2.272-1.02,3.066c-0.68,0.794-1.582,1.191-2.707,1.191
			c-1.136,0-2.044-0.397-2.727-1.191c-0.683-0.794-1.023-1.816-1.023-3.066V212.636z M165.281,212.894
			c0,0.979,0.247,1.802,0.742,2.469c0.495,0.667,1.185,1,2.07,1c0.87,0,1.552-0.333,2.047-1c0.495-0.667,0.742-1.489,0.742-2.469
			v-0.258c0-0.963-0.249-1.781-0.746-2.453s-1.184-1.008-2.059-1.008s-1.56,0.336-2.055,1.008s-0.742,1.49-0.742,2.453V212.894z"/>
		<path d="M175.367,208.534l0.117,1.406v0.102c0.239-0.521,0.566-0.928,0.98-1.223c0.414-0.294,0.905-0.441,1.473-0.441
			c0.12,0,0.235,0.009,0.348,0.027c0.112,0.019,0.204,0.038,0.277,0.059l-0.125,0.875l-0.695-0.047
			c-0.589,0-1.071,0.166-1.449,0.496c-0.378,0.331-0.647,0.785-0.809,1.363v5.047l1.273,0.102v0.688h-3.477V216.3l1.273-0.102
			v-6.867l-1.273-0.102v-0.695h1.273H175.367z"/>
		<path d="M182.172,206.37v2.164h1.859v0.766h-1.859v5.508c0,0.552,0.101,0.944,0.301,1.176c0.2,0.232,0.468,0.348,0.801,0.348
			c0.151,0,0.298-0.006,0.441-0.02c0.144-0.013,0.309-0.035,0.496-0.066l0.141,0.695c-0.156,0.067-0.347,0.12-0.57,0.156
			c-0.224,0.036-0.448,0.055-0.672,0.055c-0.594,0-1.056-0.188-1.387-0.563s-0.496-0.969-0.496-1.781V209.3h-1.453v-0.766h1.453
			v-2.164H182.172z"/>
		<path d="M195.773,211.144h-0.766l-0.109-1.195c-0.234-0.245-0.53-0.435-0.887-0.57c-0.356-0.135-0.767-0.203-1.23-0.203
			c-0.683,0-1.194,0.147-1.535,0.441c-0.341,0.294-0.512,0.64-0.512,1.035c0,0.391,0.147,0.714,0.441,0.969
			c0.294,0.255,0.882,0.479,1.762,0.672c1.005,0.224,1.758,0.53,2.258,0.918c0.5,0.388,0.75,0.916,0.75,1.582
			c0,0.703-0.285,1.272-0.855,1.707c-0.57,0.435-1.324,0.652-2.262,0.652c-0.625,0-1.194-0.087-1.707-0.262s-0.957-0.42-1.332-0.738
			v-1.703h0.758l0.133,1.203c0.25,0.25,0.566,0.431,0.949,0.543c0.383,0.112,0.782,0.168,1.199,0.168
			c0.677,0,1.211-0.148,1.602-0.445s0.586-0.656,0.586-1.078c0-0.396-0.163-0.742-0.488-1.039s-0.913-0.539-1.762-0.727
			c-1.005-0.219-1.751-0.509-2.238-0.871c-0.487-0.362-0.73-0.868-0.73-1.52c0-0.646,0.273-1.191,0.82-1.637
			s1.269-0.668,2.164-0.668c0.62,0,1.187,0.095,1.699,0.285c0.513,0.19,0.931,0.447,1.254,0.77L195.773,211.144z"/>
		<path d="M199.797,206.37v2.164h1.859v0.766h-1.859v5.508c0,0.552,0.101,0.944,0.301,1.176c0.2,0.232,0.468,0.348,0.801,0.348
			c0.151,0,0.298-0.006,0.441-0.02c0.144-0.013,0.309-0.035,0.496-0.066l0.141,0.695c-0.156,0.067-0.347,0.12-0.57,0.156
			c-0.224,0.036-0.448,0.055-0.672,0.055c-0.594,0-1.056-0.188-1.387-0.563s-0.496-0.969-0.496-1.781V209.3h-1.453v-0.766h1.453
			v-2.164H199.797z"/>
		<path d="M203.219,212.636c0-1.245,0.341-2.266,1.023-3.063s1.586-1.195,2.711-1.195c1.13,0,2.036,0.398,2.719,1.195
			s1.023,1.818,1.023,3.063v0.258c0,1.25-0.34,2.272-1.02,3.066c-0.68,0.794-1.582,1.191-2.707,1.191
			c-1.136,0-2.044-0.397-2.727-1.191c-0.683-0.794-1.023-1.816-1.023-3.066V212.636z M204.156,212.894
			c0,0.979,0.247,1.802,0.742,2.469c0.495,0.667,1.185,1,2.07,1c0.87,0,1.552-0.333,2.047-1c0.495-0.667,0.742-1.489,0.742-2.469
			v-0.258c0-0.963-0.249-1.781-0.746-2.453s-1.184-1.008-2.059-1.008s-1.56,0.336-2.055,1.008s-0.742,1.49-0.742,2.453V212.894z"/>
		<path d="M214.242,208.534l0.117,1.406v0.102c0.239-0.521,0.566-0.928,0.98-1.223c0.414-0.294,0.905-0.441,1.473-0.441
			c0.12,0,0.235,0.009,0.348,0.027c0.112,0.019,0.204,0.038,0.277,0.059l-0.125,0.875l-0.695-0.047
			c-0.589,0-1.071,0.166-1.449,0.496c-0.378,0.331-0.647,0.785-0.809,1.363v5.047l1.273,0.102v0.688h-3.477V216.3l1.273-0.102
			v-6.867l-1.273-0.102v-0.695h1.273H214.242z"/>
		<path d="M226.898,209.229l-0.859,0.07l-3.414,9.039c-0.219,0.573-0.503,1.06-0.852,1.461c-0.349,0.401-0.859,0.602-1.531,0.602
			c-0.109,0-0.242-0.012-0.398-0.035s-0.271-0.048-0.344-0.074l0.109-0.781c0.063,0.01,0.163,0.022,0.301,0.035
			c0.138,0.013,0.235,0.02,0.293,0.02c0.411,0,0.737-0.144,0.977-0.43c0.239-0.287,0.45-0.659,0.633-1.117l0.438-1.133l-3-7.586
			l-0.859-0.07v-0.695h2.906v0.695l-1.008,0.078l2.063,5.391l0.297,1.016h0.047l2.313-6.406l-1.031-0.078v-0.695h2.922V209.229z"/>
	</g>
</g>
</svg>
