<?xml version="1.0" encoding="utf-8"?>
<!-- Generator: Adobe Illustrator 16.0.0, SVG Export Plug-In . SVG Version: 6.00 Build 0)  -->
<!DOCTYPE svg PUBLIC "-//W3C//DTD SVG 1.1//EN" "http://www.w3.org/Graphics/SVG/1.1/DTD/svg11.dtd">
<svg version="1.1" id="Layer_1" xmlns="http://www.w3.org/2000/svg" xmlns:xlink="http://www.w3.org/1999/xlink" x="0px" y="0px"
	 width="612px" height="792px" viewBox="0 0 612 792" enable-background="new 0 0 612 792" xml:space="preserve">
<linearGradient id="SVGID_1_" gradientUnits="userSpaceOnUse" x1="70.1748" y1="179.0664" x2="541.8262" y2="179.0664">
	<stop  offset="0.3399" style="stop-color:#E55E88"/>
	<stop  offset="0.5222" style="stop-color:#61C4E4"/>
</linearGradient>
<path fill="url(#SVGID_1_)" d="M80.824,224.031c-1.318-0.608-2.612-1.396-3.879-2.358c-1.27-0.965-2.411-2.08-3.423-3.347
	c-1.016-1.27-1.826-2.638-2.435-4.108c-0.608-1.472-0.912-3.017-0.912-4.64c0-2.838,0.86-5.071,2.586-6.694
	c1.724-1.622,3.777-2.663,6.162-3.12c2.382-0.456,4.766-0.43,7.151,0.076c2.382,0.509,4.234,1.422,5.553,2.739
	c-0.103-3.447-0.255-7.531-0.457-12.248c-0.204-4.717-0.457-9.205-0.76-13.464c-0.407-4.968-0.762-10.041-1.065-15.214
	c-0.304-2.435-0.38-5.071-0.228-7.911c0.152-2.839,0.684-5.477,1.597-7.913c0.913-2.434,2.306-4.461,4.185-6.085
	c1.876-1.621,4.386-2.434,7.531-2.434c0.913,0,1.826,0.152,2.738,0.456c3.549,1.015,6.288,2.586,8.216,4.716
	c1.926,2.13,3.371,4.388,4.336,6.771c0.963,2.385,1.546,4.59,1.75,6.619c0.202,2.03,0.354,3.45,0.457,4.26
	c0,3.449-0.457,6.138-1.369,8.063c-0.913,1.928-1.422,2.891-1.522,2.891c-0.101,1.016-0.76,2.031-1.977,3.042
	c-1.217,1.015-2.587,1.802-4.108,2.358c-1.521,0.559-2.967,0.661-4.336,0.304c-1.37-0.354-2.206-1.394-2.51-3.119v-0.152
	c1.621-1.925,2.838-4.488,3.652-7.683c0.81-3.195,1.218-6.238,1.218-9.128c0-2.892-0.457-5.223-1.37-6.999
	c-0.912-1.773-2.282-2.206-4.108-1.293c-0.205,1.421-0.379,3.019-0.533,4.792c-0.152,1.777-0.33,3.476-0.532,5.097
	c-0.205,1.826-0.356,3.753-0.456,5.782c-0.406,6.086-0.661,11.996-0.76,17.725c-0.102,5.732-0.152,10.726-0.152,14.986
	c0,3.348,0,6.112,0,8.292c0,2.183,0.049,3.423,0.152,3.728c2.435,2.029,5.756,3.955,9.965,5.781
	c4.207,1.826,8.62,3.142,13.237,3.956c4.613,0.811,9,0.937,13.161,0.381c4.158-0.56,7.353-2.206,9.585-4.945
	c0.202-0.204,0.556-0.661,1.064-1.37c0.506-0.708,0.861-1.066,1.064-1.066c0.609,0,1.241,0.484,1.903,1.446
	c0.658,0.963,1.115,2.13,1.369,3.5c0.252,1.369,0.177,2.815-0.228,4.336c-0.407,1.521-1.369,2.789-2.89,3.803
	c-2.638,2.332-6.314,3.778-11.031,4.336c-4.716,0.557-9.712,0.48-14.986-0.228c-5.276-0.711-10.346-1.955-15.214-3.728
	c-4.869-1.777-8.672-3.88-11.411-6.314c-1.218,0.913-2.435,1.826-3.652,2.739c-1.217,0.912-2.46,1.674-3.728,2.282
	c-1.27,0.607-2.612,0.962-4.032,1.065C83.967,224.892,82.446,224.64,80.824,224.031z M78.542,208.817
	c-0.508,0.913-0.559,1.927-0.151,3.042c0.405,1.115,1.011,2.153,1.825,3.118c0.812,0.963,1.75,1.8,2.815,2.511
	c1.065,0.708,2.054,1.063,2.967,1.063c1.419,0,2.534-0.456,3.348-1.369c0.81-0.913,1.369-1.979,1.673-3.195
	c-1.726-1.723-3.704-3.092-5.934-4.108c-2.232-1.012-3.956-1.521-5.172-1.521C79.099,208.36,78.643,208.513,78.542,208.817z
	 M125.251,180.062c0.608-1.217,1.343-2.028,2.206-2.434c0.86-0.405,1.696-0.609,2.51-0.609c1.621,0,3.042,0.457,4.259,1.369
	c1.217,0.914,2.231,2.08,3.043,3.5c0.811,1.421,1.446,2.943,1.902,4.564c0.457,1.624,0.685,3.195,0.685,4.717
	c0,5.477-0.711,9.687-2.13,12.627c-1.422,2.943-3.042,5.073-4.868,6.39c-1.826,1.32-3.601,2.081-5.324,2.282
	c-1.726,0.202-2.891,0.304-3.5,0.304c-2.129,0-4.032-0.48-5.705-1.445c-1.674-0.962-3.119-2.206-4.336-3.728
	c-1.217-1.521-2.13-3.271-2.738-5.249c-0.609-1.979-0.914-4.032-0.914-6.162c0-2.94,0.457-5.604,1.369-7.987
	c0.913-2.382,1.926-4.386,3.043-6.01c1.217-1.825,2.687-3.499,4.413-5.021c0.403-0.404,0.912-0.609,1.521-0.609
	c0.608,0,1.218,0.179,1.826,0.533c0.609,0.356,1.165,0.813,1.674,1.369C124.692,179.023,125.047,179.555,125.251,180.062z
	 M132.858,189.342c1.012,0.406,1.521,1.218,1.521,2.434c0,1.217-0.355,2.031-1.064,2.435c-0.71,0.406-1.319,0.609-1.826,0.609
	c-1.521,0-2.791-0.354-3.804-1.065c-1.015-0.709-1.775-1.572-2.282-2.587c-0.509-1.012-0.863-2.001-1.065-2.966
	c-0.205-0.963-0.305-1.75-0.305-2.359c-1.319,1.32-2.358,2.943-3.12,4.869c-0.761,1.928-1.141,3.906-1.141,5.934
	c0,0.304,0.024,1.015,0.076,2.129c0.05,1.117,0.304,2.233,0.76,3.347c0.456,1.117,1.165,2.106,2.13,2.967
	c0.963,0.863,2.306,1.193,4.032,0.989c0.1,0,0.608-0.152,1.521-0.457c0.913-0.304,1.877-0.988,2.892-2.053
	c1.012-1.065,1.951-2.637,2.814-4.716c0.86-2.078,1.293-4.944,1.293-8.597c0-1.723-0.178-3.371-0.533-4.945
	c-0.356-1.57-1.091-2.458-2.206-2.662c-0.813,0-1.369,0.356-1.674,1.064c-0.304,0.712-0.406,1.472-0.304,2.282
	c0.1,0.813,0.354,1.574,0.761,2.282C131.741,188.988,132.25,189.342,132.858,189.342z M165.721,173.368
	c0.506-0.1,1.064-0.251,1.673-0.457c0.505-0.202,1.115-0.354,1.825-0.456c0.709-0.101,1.469-0.152,2.282-0.152
	c1.621,0,3.245,0.433,4.868,1.293c1.622,0.863,2.435,2.716,2.435,5.554c0,0.205-0.153,1.218-0.457,3.042
	c-0.304,1.827-0.787,4.033-1.445,6.619c-0.661,2.587-1.521,5.401-2.586,8.444c-1.066,3.043-2.385,5.884-3.956,8.521
	c-1.573,2.639-3.374,4.845-5.401,6.619c-2.03,1.773-4.362,2.712-6.999,2.815c-3.043,0-5.352-0.989-6.923-2.968
	c-1.573-1.977-2.791-4.488-3.651-7.53c-0.863-3.042-1.521-6.364-1.978-9.966c-0.457-3.599-0.988-6.973-1.598-10.117
	c-0.205-1.013-0.456-1.978-0.761-2.892c-0.204-0.811-0.482-1.571-0.835-2.282c-0.357-0.708-0.635-1.267-0.838-1.672
	c1.217-0.305,2.256-0.533,3.12-0.685c0.86-0.152,1.773-0.304,2.738-0.457c0.963-0.152,1.85-0.228,2.663-0.228
	c0.609,0,1.419,0.28,2.435,0.837c1.013,0.56,1.47,1.853,1.369,3.88c0,2.739,0.05,5.122,0.153,7.15c0.1,2.03,0.228,4.21,0.379,6.542
	c0.153,2.333,0.354,4.514,0.608,6.541c0.252,2.03,0.556,3.728,0.914,5.097c0.354,1.37,0.785,2.106,1.293,2.206
	c1.317,0,2.511-0.556,3.576-1.673c1.065-1.115,2.028-2.535,2.891-4.26c0.861-1.724,1.571-3.625,2.129-5.706
	c0.556-2.078,1.039-4.082,1.446-6.01c0.405-1.925,0.709-3.625,0.912-5.097c0.202-1.469,0.305-2.511,0.305-3.119
	c0-1.419-0.152-2.991-0.457-4.717C167.547,176.36,166.835,174.789,165.721,173.368z M211.514,187.974
	c0.1,1.521-0.205,3.043-0.913,4.564c-0.71,1.521-1.726,2.917-3.042,4.184c-1.32,1.27-2.943,2.282-4.869,3.042
	c-1.927,0.76-4.008,1.141-6.238,1.141c-1.521,0-2.89-0.202-4.107-0.608c0.305,1.423,0.785,2.563,1.445,3.423
	c0.659,0.863,1.343,1.522,2.055,1.978c0.708,0.457,1.418,0.761,2.13,0.913c0.709,0.153,1.317,0.281,1.826,0.381
	c1.419,0.205,2.687,0.025,3.803-0.533c1.115-0.556,2.104-1.191,2.967-1.902c0.86-0.708,1.571-1.393,2.129-2.054
	c0.557-0.659,0.989-0.989,1.294-0.989c0.403,0,0.608,0.357,0.608,1.065c0,1.726-0.456,3.248-1.37,4.564
	c-0.913,1.32-2.105,2.435-3.575,3.347c-1.472,0.914-3.145,1.598-5.02,2.055c-1.877,0.457-3.78,0.632-5.706,0.533
	c-4.362-0.204-7.759-1.621-10.194-4.259c-2.434-2.637-3.752-6.186-3.955-10.65c0-6.086,1.598-11.081,4.792-14.987
	c3.196-3.903,7.531-5.857,13.008-5.857c3.752,0,6.847,0.812,9.281,2.434C210.298,181.381,211.514,184.12,211.514,187.974z
	 M191.887,197.406c1.014-0.305,2.079-0.659,3.196-1.065c1.116-0.404,2.153-0.963,3.12-1.674c0.962-0.708,1.75-1.522,2.358-2.435
	c0.609-0.913,0.912-2.078,0.912-3.5c0-1.419-0.331-2.662-0.988-3.726c-0.661-1.065-1.598-1.598-2.815-1.598
	c-1.726,0-3.146,0.939-4.26,2.815c-1.118,1.877-1.674,4.944-1.674,9.204c0,0.406,0.024,0.761,0.077,1.066
	C191.862,196.798,191.887,197.102,191.887,197.406z M271.153,205.47c-1.32,2.029-3.119,3.728-5.401,5.097
	c-2.282,1.369-4.641,2.053-7.074,2.053c-2.537,0-4.717-0.708-6.543-2.131c-1.825-1.418-2.738-3.446-2.738-6.084
	c0-1.621,0.405-3.195,1.217-4.717c0.81-1.521,1.902-2.891,3.271-4.108c1.369-1.217,3.017-2.206,4.945-2.967
	c1.926-0.76,3.955-1.141,6.085-1.141c0.506,0,0.937,0.053,1.293,0.152c0.354,0.102,0.734,0.152,1.141,0.152
	c0.505,0,0.76-0.354,0.76-1.065c0-1.419-0.532-2.458-1.597-3.119c-1.065-0.658-2.334-1.065-3.803-1.217
	c-1.471-0.152-2.967-0.1-4.489,0.152c-1.521,0.254-2.738,0.533-3.651,0.837c-0.405,0.204-0.813,0.128-1.217-0.229
	c-0.406-0.354-0.608-0.836-0.608-1.444c0-0.914,0.099-1.85,0.303-2.815c0.202-0.962,0.608-1.849,1.217-2.663
	c0.608-0.81,1.47-1.469,2.586-1.978c1.116-0.505,2.587-0.76,4.413-0.76c1.218,0,2.789,0.103,4.717,0.305
	c1.925,0.204,3.827,0.737,5.705,1.597c1.876,0.863,3.474,2.081,4.793,3.652c1.317,1.574,1.979,3.728,1.979,6.467
	c-0.104,0.912-0.206,2.562-0.306,4.944c-0.102,2.385-0.052,4.846,0.151,7.379c0.202,2.537,0.583,4.869,1.142,6.999
	c0.556,2.13,1.393,3.449,2.511,3.956c0,0.404-0.053,0.785-0.152,1.141c-0.103,0.354-0.863,0.533-2.282,0.533
	c-0.509,0-1.117-0.104-1.826-0.304c-0.711-0.205-1.472-0.609-2.282-1.217c-0.813-0.609-1.598-1.496-2.359-2.663
	C272.294,209.098,271.66,207.5,271.153,205.47z M260.655,202.884c0,0.812,0.278,1.547,0.837,2.206
	c0.556,0.661,1.343,0.989,2.358,0.989c0.914,0,2.002-0.304,3.271-0.914c1.267-0.608,2.255-1.469,2.966-2.586
	c-0.204-0.405-0.304-1.039-0.304-1.901c0-0.861-0.053-1.674-0.152-2.435c-0.102-0.761-0.228-1.445-0.38-2.055
	c-0.153-0.608-0.433-0.912-0.837-0.912c-0.914,0-1.826,0.253-2.738,0.76c-0.913,0.509-1.75,1.142-2.511,1.901
	c-0.761,0.762-1.37,1.574-1.826,2.435C260.884,201.236,260.655,202.073,260.655,202.884z M283.628,177.019
	c1.115,0,2.382-0.023,3.802-0.076c1.419-0.05,2.789,0.076,4.109,0.381c1.316,0.304,2.458,0.912,3.423,1.825
	c0.963,0.913,1.495,2.334,1.598,4.26c1.723-1.724,3.803-3.321,6.237-4.792c2.435-1.47,4.919-2.207,7.455-2.207
	c0.306,0,0.761,0.026,1.37,0.077c0.609,0.052,1.241,0.304,1.901,0.76c0.657,0.457,1.19,1.27,1.6,2.435
	c0.402,1.167,0.505,2.866,0.303,5.096c-0.303,2.639-0.559,5.276-0.761,7.912c-0.205,2.334-0.355,4.87-0.456,7.607
	c-0.104,2.739-0.151,5.325-0.151,7.76c0,2.739,0.151,4.944,0.456,6.619c0.306,1.674,0.61,3.017,0.913,4.031
	c0.306,1.013,0.608,1.749,0.913,2.206s0.456,0.887,0.456,1.293c0,0.708-0.456,1.065-1.369,1.065c-1.015,0-2.104-0.255-3.271-0.76
	c-1.167-0.509-2.281-1.293-3.349-2.358c-1.063-1.065-1.954-2.411-2.661-4.032c-0.711-1.624-1.065-3.5-1.065-5.63
	c0-5.478,0-9.836,0-13.084c0-3.245-0.051-5.679-0.152-7.303c-0.102-1.621-0.228-2.662-0.381-3.119
	c-0.152-0.456-0.38-0.684-0.685-0.684c-0.509,0-1.193,0.356-2.054,1.065c-0.863,0.711-1.75,1.521-2.663,2.434
	s-1.802,1.852-2.662,2.814c-0.863,0.966-1.498,1.7-1.902,2.207c-0.608,3.145-1.118,6.214-1.521,9.206
	c-0.406,2.992-0.608,4.943-0.608,5.857c0,0.509,0.077,1.141,0.229,1.902c0.152,0.761,0.48,1.445,0.988,2.054
	c-1.117,0.608-2.258,0.887-3.423,0.837c-1.167-0.052-2.258-0.332-3.271-0.837c-1.015-0.508-1.827-1.316-2.435-2.434
	c-0.608-1.116-0.863-2.435-0.761-3.956c0.1-1.621,0.304-3.903,0.609-6.846c0.304-2.941,0.532-5.984,0.684-9.129
	c0.152-3.142,0.152-6.06,0-8.748C284.921,180.038,284.438,178.136,283.628,177.019z M334.29,176.715
	c0.708-0.1,1.369-0.176,1.979-0.229c0.608-0.05,1.267-0.076,1.979-0.076c1.521,0,3.043,0.151,4.563,0.456
	c0.101-1.521,0.229-3.803,0.381-6.846c0.151-3.042,0.201-6.185,0.151-9.433c-0.053-3.244-0.229-6.313-0.533-9.205
	c-0.304-2.892-0.912-4.945-1.824-6.162c2.838,0,5.096,0.178,6.77,0.532c1.674,0.356,3.523,1.294,5.553,2.814
	c0.508,0.51,0.964,1.168,1.37,1.979c0.304,0.71,0.608,1.547,0.913,2.51c0.304,0.965,0.456,2.105,0.456,3.423
	c0,0.204-0.128,1.293-0.381,3.271c-0.254,1.978-0.584,4.488-0.988,7.53c-0.406,3.043-0.861,6.366-1.369,9.965
	c-0.509,3.602-0.965,7.177-1.368,10.727c-0.407,3.551-0.736,6.847-0.988,9.889c-0.255,3.042-0.38,5.477-0.38,7.302
	c0,0.407,0.076,1.75,0.228,4.032c0.152,2.282,0.685,4.488,1.597,6.618c0.102,0.305,0.307,0.609,0.61,0.914
	c0.303,0.303,0.455,0.556,0.455,0.76c0,0.708-0.661,1.065-1.979,1.065c-2.029,0-3.804-0.711-5.323-2.13
	c-1.521-1.421-2.689-2.993-3.5-4.716c-1.117,0.304-2.31,0.56-3.576,0.761c-1.27,0.202-2.611,0.304-4.03,0.304
	c-4.87,0-8.647-1.393-11.336-4.184c-2.688-2.789-4.03-6.618-4.03-11.487c0-2.434,0.382-4.815,1.142-7.15
	c0.761-2.333,1.773-4.437,3.043-6.314c1.268-1.876,2.788-3.423,4.563-4.64C330.206,177.78,332.16,177.019,334.29,176.715z
	 M341.137,205.166c0,0.103-0.052,0.205-0.151,0.305c0-0.608,0.101-1.621,0.305-3.043c0.099-1.217,0.228-2.891,0.38-5.021
	c0.152-2.129,0.328-4.968,0.533-8.521c-0.307-1.316-0.891-2.077-1.75-2.282c-0.862-0.202-1.498-0.304-1.9-0.304
	c-2.232,0-4.032,0.456-5.401,1.37c-1.369,0.913-2.411,2.054-3.118,3.423c-0.712,1.37-1.169,2.791-1.371,4.26
	c-0.203,1.472-0.303,2.715-0.303,3.728c0,3.551,0.685,5.884,2.054,6.999c1.369,1.117,2.864,1.673,4.487,1.673
	c1.521,0,2.686-0.099,3.498-0.304c0.812-0.202,1.421-0.431,1.826-0.684c0.405-0.252,0.659-0.533,0.762-0.836
	C341.085,205.621,341.137,205.37,341.137,205.166z M412.188,145.525c3.854,0,7.705,0.228,11.563,0.685
	c3.854,0.456,7.733,0.938,11.64,1.446c3.901,0.509,7.834,0.989,11.791,1.444c3.954,0.457,7.961,0.685,12.021,0.685
	c4.766,0,9.279-0.506,13.54-1.521c4.26-1.013,7.988-2.435,11.182-4.26c3.194-1.826,5.707-4.005,7.531-6.542
	c1.825-2.534,2.738-5.324,2.738-8.368c0-0.202-0.103-0.305-0.305-0.305c0.505,0,1.163,0.152,1.978,0.457
	c0.811,0.304,1.621,0.813,2.436,1.521c0.812,0.71,1.495,1.726,2.055,3.042c0.557,1.32,0.837,2.943,0.837,4.87
	c0,1.217-0.813,3.171-2.436,5.857c-1.624,2.689-4.059,5.351-7.303,7.988c-3.247,2.638-7.379,4.971-12.399,6.999
	c-5.021,2.03-10.979,3.042-17.877,3.042c-4.465,0-9.004-0.354-13.617-1.065c-4.616-0.708-9.18-1.496-13.691-2.358
	c-4.515-0.86-8.952-1.647-13.313-2.358c-4.36-0.709-8.571-1.065-12.628-1.065c-2.435,0-4.97,0.281-7.605,0.838
	c-2.64,0.559-5.047,1.395-7.229,2.51c-2.182,1.117-3.979,2.563-5.4,4.335c-1.418,1.776-2.129,3.88-2.129,6.315
	c0,0.71,0.178,1.573,0.532,2.586c0.356,1.016,0.913,2.004,1.674,2.967c0.762,0.965,1.772,1.802,3.043,2.511
	c1.268,0.71,2.763,1.065,4.487,1.065c3.651,0,7.124-0.937,10.422-2.815c3.295-1.875,5.906-4.587,7.835-8.14
	c0.201,0,0.582,0.305,1.142,0.913c0.557,0.609,1.116,1.346,1.674,2.206c0.557,0.863,1.039,1.802,1.445,2.815
	c0.403,1.016,0.607,1.927,0.607,2.738c0,0.305-0.024,0.609-0.076,0.914c-0.051,0.305-0.129,0.661-0.229,1.065
	c0-0.101-0.28,0.456-0.837,1.673c-0.56,1.217-1.547,2.586-2.966,4.108c-1.422,1.522-3.35,2.917-5.782,4.184
	c-2.435,1.271-5.528,1.903-9.28,1.903c-1.825,0-3.98-0.305-6.465-0.913c-2.486-0.609-4.87-1.647-7.15-3.119
	c-2.282-1.47-4.234-3.398-5.856-5.781c-1.622-2.382-2.485-5.349-2.587-8.9c-0.405-4.968,0.404-9.128,2.435-12.476
	c2.029-3.347,4.741-6.033,8.14-8.064c3.396-2.027,7.251-3.473,11.563-4.336C403.64,145.958,407.926,145.525,412.188,145.525z
	 M436.529,170.476c0,0.407-0.28,2.055-0.838,4.945c-0.559,2.892-1.166,6.264-1.825,10.118c-0.661,3.855-1.271,7.836-1.826,11.943
	c-0.559,4.107-0.838,7.531-0.838,10.27c0,0.509,0.05,1.901,0.153,4.185c0.1,2.282,0.607,4.435,1.521,6.466
	c0.203,0.305,0.457,0.609,0.761,0.913c0.306,0.304,0.457,0.608,0.457,0.913c-0.204,0.609-0.913,0.913-2.13,0.913
	c-1.624,0-3.069-0.433-4.337-1.293c-1.269-0.863-2.358-1.977-3.271-3.347c-0.91-1.369-1.596-2.867-2.054-4.488
	c-0.456-1.621-0.685-3.142-0.685-4.564c-0.103-2.535,0.022-5.983,0.38-10.346c0.354-4.36,0.659-8.924,0.913-13.692
	c0.253-4.766,0.329-9.357,0.228-13.769c-0.102-4.413-0.66-7.936-1.672-10.574c2.436,0,4.587,0.178,6.465,0.533
	c1.877,0.356,3.829,1.346,5.857,2.967c0.507,0.509,0.964,1.167,1.371,1.978c0.304,0.712,0.607,1.548,0.913,2.51
	C436.377,168.019,436.529,169.16,436.529,170.476z M445.808,161.957c2.23,0,4.108,0.685,5.631,2.054
	c1.521,1.369,2.28,3.02,2.28,4.944c0,1.928-0.761,3.575-2.28,4.945c-1.521,1.369-3.399,2.054-5.631,2.054
	c-2.13,0-3.956-0.685-5.477-2.054c-1.521-1.37-2.283-3.017-2.283-4.945c0-1.926,0.762-3.575,2.283-4.944
	C441.852,162.642,443.678,161.957,445.808,161.957z M447.785,209.882c0,0.509,0.077,1.141,0.229,1.902
	c0.152,0.76,0.48,1.445,0.989,2.054c-0.205,0.1-0.509,0.202-0.914,0.305c-0.405,0.099-1.317,0.151-2.737,0.151
	c-2.536,0-4.21-0.635-5.021-1.901c-0.813-1.268-1.218-2.915-1.218-4.945c0.1-2.13,0.253-4.463,0.456-6.999
	c0.203-2.131,0.354-4.539,0.457-7.227c0.1-2.686,0.252-5.452,0.456-8.292c0-1.317-0.025-2.408-0.076-3.271
	c-0.053-0.861-0.204-1.723-0.456-2.586c-0.254-0.861-0.584-1.545-0.988-2.055c1.013,0,2.255-0.023,3.729-0.076
	c1.47-0.05,2.891,0.076,4.26,0.381c1.369,0.304,2.534,0.964,3.498,1.978c0.964,1.015,1.446,2.586,1.446,4.716L447.785,209.882z
	 M507.424,184.322c-0.305,2.13-0.608,4.313-0.914,6.542c-0.205,1.928-0.406,4.008-0.607,6.238c-0.204,2.232-0.306,4.362-0.306,6.39
	c0,2.232,0.152,4.031,0.457,5.401c0.306,1.37,0.659,2.486,1.065,3.347c0.404,0.86,0.761,1.546,1.063,2.054
	c0.307,0.507,0.457,0.913,0.457,1.217c0,0.708-0.559,1.065-1.675,1.065c-0.911,0-1.976-0.254-3.191-0.761
	c-1.218-0.508-2.358-1.243-3.425-2.205c-1.063-0.966-1.978-2.206-2.737-3.728c-0.761-1.521-1.142-3.347-1.142-5.477l0.912-15.823
	c0-0.304-0.051-0.658-0.15-1.065c-0.205-0.81-0.562-1.217-1.065-1.217c-0.607,0-1.42,0.406-2.435,1.217
	c-1.016,0.813-2.055,1.802-3.119,2.967c-1.064,1.167-2.004,2.308-2.814,3.423c-0.813,1.118-1.318,1.978-1.521,2.586
	c-0.306,2.435-0.456,4.869-0.456,7.303c0,2.13,0.15,3.879,0.456,5.249c0.305,1.37,0.658,2.487,1.063,3.347
	c0.404,0.861,0.762,1.521,1.066,1.978c0.304,0.457,0.456,0.836,0.456,1.141c0,0.708-0.56,1.064-1.674,1.064
	c-0.913,0-1.979-0.254-3.194-0.761c-1.217-0.508-2.358-1.242-3.423-2.205c-1.065-0.966-1.979-2.206-2.739-3.728
	c-0.76-1.521-1.141-3.347-1.141-5.477l0.912-15.822c0-0.1-0.074-0.506-0.229-1.217c-0.151-0.709-0.634-1.065-1.443-1.065
	c-0.205,0-0.56,0.076-1.064,0.228c-0.509,0.151-1.143,0.533-1.901,1.141c-0.762,0.609-1.624,1.521-2.586,2.739
	c-0.966,1.218-2.004,2.841-3.119,4.869c-1.218,3.551-1.854,6.669-1.902,9.356c-0.052,2.688-0.076,4.439-0.076,5.249
	c0,0.509,0.076,1.141,0.229,1.902c0.151,0.761,0.479,1.445,0.988,2.054c-0.204,0.1-0.51,0.202-0.913,0.304
	c-0.406,0.1-1.319,0.151-2.738,0.151c-1.317,0-2.688-0.634-4.107-1.901c-1.42-1.267-2.129-2.914-2.129-4.945
	c-0.104-1.621,0-3.903,0.305-6.846c0.305-2.941,0.556-5.984,0.761-9.129c0.201-3.142,0.251-6.06,0.15-8.748
	c-0.103-2.686-0.559-4.589-1.369-5.706h3.5c1.012,0,2.054,0.052,3.119,0.152c1.063,0.103,2.026,0.38,2.892,0.837
	c0.859,0.457,1.598,1.091,2.206,1.901c0.607,0.813,1.012,1.877,1.216,3.195c1.725-1.724,3.729-3.321,6.011-4.792
	c2.281-1.469,4.641-2.206,7.073-2.206c0.202,0,0.583,0.052,1.143,0.152c0.556,0.102,1.141,0.406,1.75,0.913
	c0.606,0.509,1.141,1.345,1.597,2.51c0.458,1.167,0.687,2.867,0.687,5.097c1.723-1.926,3.853-3.854,6.391-5.782
	c2.533-1.926,5.271-2.89,8.215-2.89c1.115,0.102,2.002,0.406,2.663,0.913c0.658,0.508,1.241,1.319,1.75,2.434
	C507.169,180.57,507.424,182.191,507.424,184.322z M541.807,187.974c0.102,1.521-0.203,3.043-0.913,4.564s-1.727,2.917-3.041,4.184
	c-1.32,1.27-2.942,2.282-4.869,3.042c-1.928,0.76-4.01,1.141-6.237,1.141c-1.522,0-2.893-0.202-4.108-0.608
	c0.306,1.423,0.785,2.563,1.444,3.423c0.66,0.863,1.344,1.522,2.056,1.978c0.708,0.457,1.419,0.761,2.129,0.913
	c0.708,0.153,1.317,0.281,1.827,0.381c1.418,0.205,2.687,0.025,3.803-0.533c1.114-0.556,2.104-1.191,2.968-1.902
	c0.858-0.708,1.571-1.393,2.13-2.054c0.557-0.659,0.988-0.989,1.294-0.989c0.404,0,0.606,0.357,0.606,1.065
	c0,1.726-0.456,3.248-1.369,4.564c-0.913,1.32-2.105,2.435-3.575,3.347c-1.472,0.914-3.146,1.598-5.021,2.055
	c-1.877,0.457-3.778,0.632-5.706,0.533c-4.36-0.204-7.758-1.621-10.192-4.259c-2.434-2.637-3.753-6.186-3.956-10.65
	c0-6.086,1.599-11.081,4.793-14.987c3.195-3.903,7.531-5.857,13.008-5.857c3.752,0,6.847,0.812,9.281,2.434
	C540.589,181.381,541.807,184.12,541.807,187.974z M522.181,197.406c1.015-0.305,2.078-0.659,3.194-1.065
	c1.115-0.404,2.153-0.963,3.119-1.674c0.963-0.708,1.75-1.522,2.359-2.435c0.606-0.913,0.912-2.078,0.912-3.5
	c0-1.419-0.33-2.662-0.988-3.726c-0.661-1.065-1.599-1.598-2.815-1.598c-1.726,0-3.146,0.939-4.259,2.815
	c-1.118,1.877-1.674,4.944-1.674,9.204c0,0.406,0.022,0.761,0.076,1.066C522.155,196.798,522.181,197.102,522.181,197.406z"/>
</svg>
